G04 ================== begin FILE IDENTIFICATION RECORD ==================*
G04 Layout Name:  pmtpulser.brd*
G04 Film Name:    BOTTOM*
G04 File Format:  Gerber RS274X*
G04 File Origin:  Cadence Allegro 16.6-P004*
G04 Origin Date:  Fri Feb 10 15:41:56 2017*
G04 *
G04 Layer:  ETCH/BOTTOM*
G04 Layer:  PIN/BOTTOM*
G04 Layer:  VIA CLASS/BOTTOM*
G04 *
G04 Offset:    (0.00 0.00)*
G04 Mirror:    No*
G04 Mode:      Positive*
G04 Rotation:  0*
G04 FullContactRelief:  No*
G04 UndefLineWidth:     0.00*
G04 ================== end FILE IDENTIFICATION RECORD ====================*
%FSLAX25Y25*MOIN*%
%IR0*IPPOS*OFA0.00000B0.00000*MIA0B0*SFA1.00000B1.00000*%
%ADD18C,.042*%
%ADD11C,.06*%
%ADD17C,.08*%
%ADD13C,.062*%
%ADD12C,.026*%
%ADD15C,.05937*%
%ADD16C,.16*%
%ADD14C,.11024*%
%ADD10C,.186*%
%ADD19C,.01*%
%ADD20C,.022*%
%ADD21C,.015*%
%ADD24C,.09004*%
%ADD23C,.07204*%
%ADD26C,.09204*%
%ADD22C,.05604*%
%ADD27C,.0894*%
%ADD25C,.21604*%
%ADD28C,.14028*%
G75*
%LPD*%
G75*
G36*
G01X1571000Y1104000D02*
Y941500D01*
X1197000D01*
Y1104000D01*
X1571000D01*
G37*
%LPC*%
G75*
G36*
G01X1420749Y1012812D02*
G02X1424251I1751J2188D01*
G03Y1012188I250J-312D01*
G02X1420749I-1751J-2188D01*
G03Y1012812I-250J312D01*
G37*
G36*
G01X1317199Y1044270D02*
G03X1316523Y1044062I-283J-283D01*
G02X1315772Y1047504I-4423J838D01*
G03X1316498Y1047736I326J232D01*
G01Y1050098D01*
X1304071D01*
X1303536Y1050633D01*
G02X1306587Y1054534I-1436J4267D01*
G03X1306986Y1054102I399J-32D01*
G01X1317700D01*
G02X1319115Y1053515I-1J-2002D01*
G01X1320502Y1052129D01*
Y1047002D01*
X1323356D01*
G02Y1042998I4144J-2002D01*
G01X1318471D01*
X1317199Y1044270D01*
G37*
G36*
G01X1443661Y977798D02*
G02Y981802I-1961J2002D01*
G01X1455944D01*
G03X1456138Y982551I0J400D01*
G02X1455749Y987188I1362J2449D01*
G03Y987812I-250J312D01*
G02Y992188I1751J2188D01*
G03Y992812I-250J312D01*
G02X1454703Y995174I1751J2188D01*
G03X1454304Y995598I-399J24D01*
G01X1438561D01*
G02Y999602I-1961J2002D01*
G01X1470729D01*
X1472528Y997803D01*
X1472606Y997800D01*
G02X1469700Y994894I-106J-2800D01*
G01X1469697Y994972D01*
X1469071Y995598D01*
X1460696D01*
G03X1460297Y995174I0J-400D01*
G02X1459251Y992812I-2797J-174D01*
G03Y992188I250J-312D01*
G02Y987812I-1751J-2188D01*
G03Y987188I250J-312D01*
G02X1459461Y987002I-1751J-2188D01*
G01X1465339D01*
G02X1468662Y982551I1960J-2002D01*
G03X1468856Y981802I194J-349D01*
G01X1472039D01*
G02Y977798I1961J-2002D01*
G01X1443661D01*
G37*
G36*
G01X1279222Y992209D02*
G02X1277265Y992242I-1023J-2609D01*
G03X1277278Y992991I-133J377D01*
G02X1279235Y992958I1023J2609D01*
G03X1279222Y992209I133J-377D01*
G37*
G36*
G01X1249545Y984727D02*
G02X1247030Y984086I-644J-2727D01*
G03X1246855Y984773I-267J298D01*
G02X1249370Y985414I644J2727D01*
G03X1249545Y984727I267J-298D01*
G37*
G36*
G01X1244339Y969860D02*
X1244353Y969760D01*
G02X1240560Y973553I-4453J-660D01*
G01X1240660Y973539D01*
X1245222Y978102D01*
X1284722D01*
X1308098Y1001478D01*
Y1028952D01*
G02X1306039Y1030877I2603J4847D01*
G03X1305361I-339J-213D01*
G02X1296039I-4661J2923D01*
G03X1295361I-339J-213D01*
G02Y1036723I-4661J2923D01*
G03X1296039I339J213D01*
G02X1305361I4661J-2923D01*
G03X1306039I339J213D01*
G02X1313302Y1028952I4661J-2923D01*
G01Y999322D01*
X1300464Y986485D01*
G03X1300745Y985802I283J-283D01*
G02X1291198Y976255I-45J-9502D01*
G03X1290515Y976536I-400J-2D01*
G01X1287453Y973474D01*
G03X1287769Y972792I283J-283D01*
G02X1286248Y972186I231J-2792D01*
G03X1285998Y972898I-250J312D01*
G01X1253433D01*
G03X1253144Y972221I-1J-400D01*
G02X1245483Y969968I-3244J-3121D01*
G03X1244807Y970328I-393J78D01*
G01X1244339Y969860D01*
G37*
G36*
G01X1470539Y1002998D02*
X1443061D01*
G02Y1007002I-1961J2002D01*
G01X1470539D01*
G02Y1002998I1961J-2002D01*
G37*
G36*
G01X1293678Y1060420D02*
G03X1293691Y1059733I211J-340D01*
G02X1290822Y1059680I-1390J-2433D01*
G03X1290809Y1060367I-211J340D01*
G02X1293678Y1060420I1390J2433D01*
G37*
G36*
G01X1424251Y1062812D02*
G03Y1062188I250J-312D01*
G02X1420749I-1751J-2188D01*
G03Y1062812I-250J312D01*
G02X1424251I1751J2188D01*
G37*
G36*
G01X1388062Y1058599D02*
G03X1387438I-312J-250D01*
G02Y1062101I-2188J1751D01*
G03X1388062I312J250D01*
G02Y1058599I2188J-1751D01*
G37*
G36*
G01X1361385Y1066175D02*
G03Y1065525I234J-325D01*
G02X1358115I-1635J-2275D01*
G03Y1066175I-234J325D01*
G02X1361385I1635J2275D01*
G37*
G36*
G01X1464939Y1062998D02*
X1458161D01*
G02Y1067002I-1961J2002D01*
G01X1464939D01*
G02Y1062998I1961J-2002D01*
G37*
G36*
G01X1372002Y971671D02*
X1368329Y967998D01*
X1331671D01*
X1321798Y977871D01*
Y988439D01*
G02X1325802I2002J1961D01*
G01Y979529D01*
X1333329Y972002D01*
X1366671D01*
X1367998Y973329D01*
Y980539D01*
G02X1372002I2002J1961D01*
G01Y971671D01*
G37*
G36*
G01X1337020Y1004739D02*
G03X1336552Y1004345I-68J-394D01*
G01Y978721D01*
X1335303Y977472D01*
X1335300Y977394D01*
G02X1332548Y980302I-2800J106D01*
G01Y1004808D01*
G03X1332117Y1005206I-400J0D01*
G02X1329898Y1009961I-217J2794D01*
G01Y1011129D01*
X1330498Y1011729D01*
Y1018039D01*
G02X1334502I2002J1961D01*
G01Y1013298D01*
G03X1335184Y1013015I400J0D01*
G01X1336671Y1014502D01*
X1340829D01*
X1342528Y1012803D01*
X1342606Y1012800D01*
G02X1342414Y1007199I-106J-2800D01*
G03X1342002Y1006800I-12J-400D01*
G01Y1005229D01*
X1352928Y994303D01*
X1353006Y994300D01*
G02X1354785Y989427I-106J-2800D01*
G03X1354758Y989160I134J-148D01*
G02X1350615Y989573I-2258J-1660D01*
G03X1350642Y989840I-134J148D01*
G02X1350100Y991394I2258J1659D01*
G01X1350097Y991472D01*
X1337998Y1003571D01*
Y1004300D01*
G03X1337586Y1004699I-400J-1D01*
G02X1337020Y1004739I-86J2801D01*
G37*
G36*
G01X1409929Y1037998D02*
X1379461D01*
G02X1374965Y1038806I-1961J2002D01*
G03X1374278Y1038869I-362J-170D01*
G02X1374535Y1041694I-2278J1631D01*
G03X1375222Y1041631I362J170D01*
G02X1375498Y1041961I2281J-1627D01*
G01Y1043129D01*
X1376398Y1044029D01*
Y1048939D01*
G02X1380402I2002J1961D01*
G01Y1042371D01*
X1380373Y1042343D01*
G03X1380515Y1042002I142J-141D01*
G01X1408098D01*
Y1044271D01*
X1407998Y1044371D01*
Y1045539D01*
G02X1412102Y1045647I2002J1961D01*
G01Y1040171D01*
X1409929Y1037998D01*
G37*
G36*
G01X1468039Y1017002D02*
G02Y1012998I1961J-2002D01*
G01X1459461D01*
G02Y1017002I-1961J2002D01*
G01X1468039D01*
G37*
G36*
G01X1464257Y1024611D02*
G02X1461198Y1024259I-1157J-3411D01*
G03X1460987Y1024998I-212J339D01*
G01X1445171D01*
X1441972Y1028197D01*
X1441894Y1028200D01*
G02X1444800Y1031106I106J2800D01*
G01X1444803Y1031028D01*
X1446829Y1029002D01*
X1462171D01*
X1464697Y1031528D01*
X1464700Y1031606D01*
G02X1464868Y1032461I2800J-106D01*
G03X1464492Y1032998I-376J137D01*
G01X1457461D01*
G02X1453749Y1037188I-1961J2002D01*
G03Y1037812I-250J312D01*
G02Y1042188I1751J2188D01*
G03Y1042812I-250J312D01*
G02Y1047188I1751J2188D01*
G03Y1047812I-250J312D01*
G02X1453863Y1052274I1751J2188D01*
G03X1453629Y1052998I-234J324D01*
G01X1436861D01*
G02Y1057002I-1961J2002D01*
G01X1470539D01*
G02Y1052998I1961J-2002D01*
G01X1457371D01*
G03X1457137Y1052274I0J-400D01*
G02X1457461Y1052002I-1635J-2276D01*
G01X1463629D01*
X1474502Y1041129D01*
Y1031961D01*
G02X1469846Y1029102I-2002J-1961D01*
G03X1469221Y1029289I-379J-128D01*
G02X1467606Y1028700I-1721J2211D01*
G01X1467528Y1028697D01*
X1464103Y1025273D01*
G03X1464257Y1024611I283J-283D01*
G37*
G54D24*
X1229900Y969100D03*
X1312100Y1064900D03*
G54D23*
X1416700Y1021500D03*
X1368500Y1015000D03*
G54D26*
X1535000Y977500D03*
X1327500Y1035000D03*
X1535000Y1057500D03*
Y1067500D03*
Y1037500D03*
Y1047500D03*
Y1007500D03*
Y1017500D03*
Y1027500D03*
Y997500D03*
X1525000Y1057500D03*
Y1067500D03*
Y1037500D03*
Y1047500D03*
Y1007500D03*
Y1017500D03*
Y1027500D03*
Y987500D03*
Y997500D03*
X1495000Y1057500D03*
X1505000D03*
X1495000Y1067500D03*
X1505000D03*
X1495000Y1037500D03*
X1505000D03*
X1495000Y1047500D03*
X1505000D03*
X1495000Y1007500D03*
X1505000D03*
X1495000Y1017500D03*
X1505000D03*
X1495000Y1027500D03*
X1505000D03*
X1495000Y987500D03*
X1505000D03*
X1495000Y997500D03*
X1505000D03*
X1495000Y977500D03*
X1505000D03*
X1400000Y1075000D03*
X1390000D03*
X1375000D03*
X1365000D03*
X1340000D03*
X1350000D03*
X1315000D03*
X1325000D03*
X1287500D03*
X1297500D03*
X1257500Y1007500D03*
X1267500D03*
X1240000D03*
Y982500D03*
Y995000D03*
X1230000Y1007500D03*
Y982500D03*
Y995000D03*
X1535000Y987500D03*
X1525000Y977500D03*
G54D22*
X1407000Y1028000D03*
X1232000Y950000D03*
X1565000Y970000D03*
X1540000Y950000D03*
X1354000Y1035000D03*
X1348000Y1032000D03*
X1335500Y1064500D03*
X1547469Y1029843D03*
Y1039843D03*
Y1009843D03*
Y1019843D03*
Y999843D03*
X1460382Y1088002D03*
X1470382D03*
X1430382D03*
X1440382D03*
X1450382D03*
X1420382D03*
X1460382Y1081002D03*
X1470382D03*
X1430382D03*
X1440382D03*
X1450382D03*
X1420382D03*
X1214759Y1030119D03*
Y1040119D03*
Y1020119D03*
X1351500Y1041500D03*
X1395500Y1017500D03*
X1333500Y1051500D03*
X1257500Y1018500D03*
X1408800Y1070000D03*
X1415000Y1065000D03*
X1464575Y962056D03*
X1454575D03*
X1444575D03*
X1414685Y962001D03*
X1424685D03*
X1434685D03*
X1406000Y1000000D03*
X1406063Y992660D03*
X1396000Y1000000D03*
X1376210Y962321D03*
X1366210D03*
X1565000Y1060000D03*
Y1030000D03*
Y1040000D03*
Y1050000D03*
Y1010000D03*
Y1020000D03*
Y1000000D03*
X1530000Y1095000D03*
X1510000D03*
X1520000D03*
X1510000Y950000D03*
X1520000D03*
X1480000Y1095000D03*
X1490000D03*
X1500000D03*
X1487500Y1060000D03*
Y1070000D03*
Y1030000D03*
Y1040000D03*
Y1050000D03*
Y1010000D03*
Y1020000D03*
Y980000D03*
Y1000000D03*
Y990000D03*
X1480000Y950000D03*
X1490000D03*
X1500000D03*
X1460000D03*
X1470000D03*
X1430000D03*
X1440000D03*
X1450000D03*
X1410000Y1095000D03*
X1412500Y1057500D03*
X1422500Y1040000D03*
X1424500Y990000D03*
X1406100Y982376D03*
Y972376D03*
Y962376D03*
X1410000Y950000D03*
X1420000D03*
X1380000Y1095000D03*
X1390000D03*
X1400000D03*
X1397500Y1065000D03*
X1382869Y1016731D03*
X1380500Y998000D03*
X1396100Y982376D03*
X1386100D03*
X1396100Y972376D03*
X1386100D03*
X1396100Y962376D03*
X1386100D03*
X1380000Y950000D03*
X1390000D03*
X1400000D03*
X1360000Y1095000D03*
X1370000D03*
X1365000Y1027500D03*
X1370728Y990728D03*
X1360000Y950000D03*
X1370000D03*
X1330000Y1095000D03*
X1340000D03*
X1350000D03*
X1330000Y950000D03*
X1340000D03*
X1350000D03*
X1310000Y1095000D03*
X1320000D03*
Y1065000D03*
X1324400Y1019000D03*
X1321800Y998200D03*
X1314000Y986000D03*
Y970000D03*
X1310000Y950000D03*
X1320000D03*
X1280000Y1095000D03*
X1290000D03*
X1300000D03*
X1285972Y1042928D03*
X1288000Y986000D03*
X1280000Y950000D03*
X1290000D03*
X1300000D03*
X1260000Y1095000D03*
X1270000D03*
X1262500Y982500D03*
X1262900Y964900D03*
X1260000Y950000D03*
X1270000D03*
X1240000Y1095000D03*
X1250000D03*
X1240000Y950000D03*
X1250000D03*
X1205000Y1060000D03*
Y1030000D03*
Y1040000D03*
Y1050000D03*
Y1010000D03*
Y1020000D03*
Y990000D03*
Y1000000D03*
X1565000Y980000D03*
Y990000D03*
X1530000Y950000D03*
X1205000Y1070000D03*
X1396063Y992660D03*
X1346000Y1064500D03*
X1492685Y962001D03*
X1482685D03*
X1472685D03*
X1502575Y962056D03*
X1512575D03*
X1522575D03*
X1424713Y972208D03*
X1444713D03*
X1434713D03*
X1266500Y1018500D03*
X1395500Y1027000D03*
X1390583Y1022459D03*
X1400583D03*
X1376000Y972500D03*
X1356210Y962321D03*
X1420000Y1095000D03*
X1450000D03*
X1440000D03*
X1430000D03*
X1470000D03*
X1460000D03*
X1556969Y999843D03*
Y1019843D03*
Y1009843D03*
Y1039843D03*
Y1029843D03*
X1358500Y996500D03*
X1363000Y990000D03*
X1370000Y1032500D03*
X1205000Y973000D03*
Y980000D03*
X1230000Y1095000D03*
X1565000Y1070000D03*
X1540000Y1095000D03*
G54D27*
X1249803Y1026437D03*
X1239961D03*
X1259646D03*
G54D25*
X1555000Y958000D03*
X1215000D03*
Y1087000D03*
X1555000D03*
G54D28*
X1268504Y1055965D03*
X1231102D03*
%LPD*%
G75*
G36*
G01X1470498Y1039471D02*
Y1038200D01*
G02X1470086Y1037801I-400J1D01*
G03X1468039Y1037002I-86J-2801D01*
G01X1457461D01*
G03X1457251Y1037188I-1961J-2002D01*
G02Y1037812I250J312D01*
G03Y1042188I-1751J2188D01*
G02Y1042812I250J312D01*
G03Y1047188I-1751J2188D01*
G02Y1047812I250J312D01*
G03X1457461Y1047998I-1751J2188D01*
G01X1461971D01*
X1470498Y1039471D01*
G37*
G54D10*
X1215000Y958000D03*
Y1087000D03*
X1555000Y958000D03*
Y1087000D03*
G54D20*
G01X1310700Y1033800D02*
Y1000400D01*
X1285800Y975500D01*
X1246300D01*
X1239900Y969100D01*
G54D11*
X1229900D03*
X1249900D03*
X1239900D03*
X1302100Y1054900D03*
X1312100Y1044900D03*
Y1064900D03*
G54D21*
G01X1397500Y1065000D02*
X1400000Y1067500D01*
G01D02*
Y1075000D01*
G54D12*
X1205000Y973000D03*
Y1000000D03*
Y990000D03*
Y980000D03*
X1214759Y1020119D03*
X1205000Y1020000D03*
Y1010000D03*
X1214759Y1040119D03*
Y1030119D03*
X1205000Y1050000D03*
Y1040000D03*
Y1030000D03*
Y1070000D03*
Y1060000D03*
X1250000Y950000D03*
X1240000D03*
X1232000D03*
X1247500Y987500D03*
X1248900Y982000D03*
X1250000Y1095000D03*
X1240000D03*
X1230000D03*
X1270000Y950000D03*
X1260000D03*
X1262900Y964900D03*
X1262500Y982500D03*
X1278300Y995600D03*
X1278200Y989600D03*
X1266500Y1018500D03*
X1257500D03*
X1270000Y1095000D03*
X1260000D03*
X1300000Y950000D03*
X1290000D03*
X1280000D03*
X1288000Y970000D03*
Y986000D03*
X1285972Y1042928D03*
X1292300Y1057300D03*
X1292200Y1062800D03*
X1300000Y1095000D03*
X1290000D03*
X1280000D03*
X1320000Y950000D03*
X1310000D03*
X1314000Y970000D03*
Y986000D03*
X1321800Y998200D03*
X1323800Y990400D03*
X1324400Y1019000D03*
X1320000Y1065000D03*
Y1095000D03*
X1310000D03*
X1350000Y950000D03*
X1340000D03*
X1330000D03*
X1332500Y977500D03*
X1352900Y991500D03*
X1352500Y987500D03*
X1337500Y1007500D03*
X1342500Y1010000D03*
X1332500Y1020000D03*
X1331900Y1008000D03*
X1351500Y1041500D03*
X1333500Y1051500D03*
X1348000Y1032000D03*
X1354000Y1035000D03*
X1335500Y1064500D03*
X1346000D03*
X1350000Y1095000D03*
X1340000D03*
X1330000D03*
X1370000Y950000D03*
X1360000D03*
X1376000Y972500D03*
X1356210Y962321D03*
X1366210D03*
X1376210D03*
X1363000Y990000D03*
X1358500Y996500D03*
X1370000Y982500D03*
X1370728Y990728D03*
X1365000Y1027500D03*
X1370000Y1032500D03*
X1372000Y1040500D03*
X1377500Y1040000D03*
X1378400Y1050900D03*
X1359750Y1068450D03*
Y1063250D03*
X1370000Y1095000D03*
X1360000D03*
X1400000Y950000D03*
X1390000D03*
X1380000D03*
X1396100Y972376D03*
X1386100D03*
X1396100Y962376D03*
X1386100D03*
X1396000Y1000000D03*
X1396063Y992660D03*
X1396100Y982376D03*
X1386100D03*
X1380500Y998000D03*
X1395500Y1027000D03*
Y1017500D03*
X1390583Y1022459D03*
X1400583D03*
X1382869Y1016731D03*
X1390250Y1060350D03*
X1397500Y1065000D03*
X1385250Y1060350D03*
X1400000Y1095000D03*
X1390000D03*
X1380000D03*
X1420000Y950000D03*
X1410000D03*
X1424713Y972208D03*
X1424685Y962001D03*
X1414685D03*
X1406100Y972376D03*
Y962376D03*
X1406000Y1000000D03*
X1406063Y992660D03*
X1406100Y982376D03*
X1424500Y990000D03*
X1422500Y1010000D03*
Y1015000D03*
X1407000Y1028000D03*
X1422500Y1040000D03*
X1410000Y1047500D03*
X1415000Y1065000D03*
X1422500Y1060000D03*
Y1065000D03*
X1408800Y1070000D03*
X1412500Y1057500D03*
X1420382Y1081002D03*
Y1088002D03*
X1420000Y1095000D03*
X1410000D03*
X1450000Y950000D03*
X1440000D03*
X1430000D03*
X1444713Y972208D03*
X1434713D03*
X1434685Y962001D03*
X1444575Y962056D03*
X1441700Y979800D03*
X1436600Y997600D03*
X1441100Y1005000D03*
X1442000Y1031000D03*
X1434900Y1055000D03*
X1450382Y1081002D03*
X1440382D03*
X1430382D03*
X1450382Y1088002D03*
X1440382D03*
X1430382D03*
X1450000Y1095000D03*
X1440000D03*
X1430000D03*
X1470000Y950000D03*
X1460000D03*
X1472685Y962001D03*
X1454575Y962056D03*
X1464575D03*
X1457500Y990000D03*
Y995000D03*
X1474000Y979800D03*
X1472500Y995000D03*
X1467300Y985000D03*
X1457500D03*
X1470000Y1015000D03*
X1457500D03*
X1472500Y1005000D03*
X1455500Y1040000D03*
Y1045000D03*
X1467500Y1031500D03*
X1470000Y1035000D03*
X1455500D03*
Y1050000D03*
X1472500Y1030000D03*
X1466900Y1065000D03*
X1456200D03*
X1472500Y1055000D03*
X1470382Y1081002D03*
X1460382D03*
X1470382Y1088002D03*
X1460382D03*
X1470000Y1095000D03*
X1460000D03*
X1500000Y950000D03*
X1490000D03*
X1480000D03*
X1492685Y962001D03*
X1482685D03*
X1502575Y962056D03*
X1487500Y990000D03*
Y1000000D03*
Y980000D03*
Y1020000D03*
Y1010000D03*
Y1050000D03*
Y1040000D03*
Y1030000D03*
Y1070000D03*
Y1060000D03*
X1500000Y1095000D03*
X1490000D03*
X1480000D03*
X1520000Y950000D03*
X1510000D03*
X1512575Y962056D03*
X1522575D03*
X1520000Y1095000D03*
X1510000D03*
X1540000Y950000D03*
X1530000D03*
X1547469Y999843D03*
Y1019843D03*
Y1009843D03*
Y1039843D03*
Y1029843D03*
X1540000Y1095000D03*
X1530000D03*
X1565000Y970000D03*
X1556969Y999843D03*
X1565000Y1000000D03*
Y990000D03*
Y980000D03*
X1556969Y1019843D03*
Y1009843D03*
X1565000Y1020000D03*
Y1010000D03*
X1556969Y1039843D03*
Y1029843D03*
X1565000Y1050000D03*
Y1040000D03*
Y1030000D03*
Y1070000D03*
Y1060000D03*
G54D13*
X1230000Y995000D03*
Y982500D03*
Y1007500D03*
X1240000Y995000D03*
Y982500D03*
Y1007500D03*
X1267500D03*
X1257500D03*
X1297500Y1075000D03*
X1287500D03*
X1327500Y1035000D03*
Y1045000D03*
X1325000Y1075000D03*
X1315000D03*
X1350000D03*
X1340000D03*
X1365000D03*
X1375000D03*
X1390000D03*
X1400000D03*
X1505000Y977500D03*
X1495000D03*
X1505000Y997500D03*
X1495000D03*
X1505000Y987500D03*
X1495000D03*
X1505000Y1027500D03*
X1495000D03*
X1505000Y1017500D03*
X1495000D03*
X1505000Y1007500D03*
X1495000D03*
X1505000Y1047500D03*
X1495000D03*
X1505000Y1037500D03*
X1495000D03*
X1505000Y1067500D03*
X1495000D03*
X1505000Y1057500D03*
X1495000D03*
X1525000Y977500D03*
Y997500D03*
Y987500D03*
Y1027500D03*
Y1017500D03*
Y1007500D03*
Y1047500D03*
Y1037500D03*
Y1067500D03*
Y1057500D03*
X1535000Y977500D03*
Y997500D03*
Y987500D03*
Y1027500D03*
Y1017500D03*
Y1007500D03*
Y1047500D03*
Y1037500D03*
Y1067500D03*
Y1057500D03*
G54D14*
X1231102Y1055965D03*
X1268504D03*
G54D15*
X1249803Y1026437D03*
X1239961D03*
X1259646D03*
G54D16*
X1300700Y976300D03*
G54D17*
Y1033800D03*
X1290700D03*
X1310700D03*
G54D18*
X1368500Y1015000D03*
X1416700Y1021500D03*
X1463100Y1021200D03*
G54D19*
G01X1202677Y970677D02*
X1205000Y973000D01*
G01X1202677Y975323D02*
X1205000Y973000D01*
G01X1202677Y977677D02*
X1205000Y980000D01*
G01X1202677Y982323D02*
X1205000Y980000D01*
G01X1202677Y987677D02*
X1205000Y990000D01*
G01X1202677Y992323D02*
X1205000Y990000D01*
G01X1202677Y997677D02*
X1205000Y1000000D01*
G01X1202677Y1007677D02*
X1205000Y1010000D01*
G01X1202677Y1012323D02*
X1205000Y1010000D01*
G01X1202677Y1017677D02*
X1205000Y1020000D01*
G01X1202677Y1022323D02*
X1205000Y1020000D01*
G01X1202677Y1002323D02*
X1205000Y1000000D01*
G01X1202677Y1027677D02*
X1205000Y1030000D01*
G01X1202677Y1032323D02*
X1205000Y1030000D01*
G01X1202677Y1037677D02*
X1205000Y1040000D01*
G01X1202677Y1042323D02*
X1205000Y1040000D01*
G01X1202677Y1047677D02*
X1205000Y1050000D01*
G01X1202677Y1057677D02*
X1205000Y1060000D01*
G01X1202677Y1062323D02*
X1205000Y1060000D01*
G01X1202677Y1067677D02*
X1205000Y1070000D01*
G01X1202677Y1072323D02*
X1205000Y1070000D01*
G01X1202677Y1052323D02*
X1205000Y1050000D01*
G01X1215000Y946998D02*
Y958000D01*
G01X1225198Y969100D02*
X1229900D01*
G01X1215000Y958000D02*
Y969002D01*
G01X1203998Y958000D02*
X1215000D01*
G01D02*
X1226002D01*
G01X1205000Y973000D02*
X1207323Y975323D01*
G01X1205000Y973000D02*
X1207323Y970677D01*
G01X1225198Y982500D02*
X1230000D01*
G01X1205000Y980000D02*
X1207323Y982323D01*
G01X1205000Y980000D02*
X1207323Y977677D01*
G01X1205000Y990000D02*
X1207323Y992323D01*
G01X1205000Y990000D02*
X1207323Y987677D01*
G01X1205000Y1000000D02*
X1207323Y1002323D01*
G01X1205000Y1000000D02*
X1207323Y997677D01*
G01X1205000Y1010000D02*
X1207323Y1012323D01*
G01X1205000Y1010000D02*
X1207323Y1007677D01*
G01X1205000Y1020000D02*
X1207323Y1022323D01*
G01X1205000Y1020000D02*
X1207323Y1017677D01*
G01X1212436Y1017796D02*
X1214759Y1020119D01*
G01D02*
X1217082Y1022442D01*
G01X1212436D02*
X1214759Y1020119D01*
G01D02*
X1217082Y1017796D01*
G01X1205000Y1030000D02*
X1207323Y1032323D01*
G01X1205000Y1030000D02*
X1207323Y1027677D01*
G01X1205000Y1040000D02*
X1207323Y1042323D01*
G01X1205000Y1040000D02*
X1207323Y1037677D01*
G01X1205000Y1050000D02*
X1207323Y1052323D01*
G01X1205000Y1050000D02*
X1207323Y1047677D01*
G01X1212436Y1027796D02*
X1214759Y1030119D01*
G01D02*
X1217082Y1032442D01*
G01X1212436D02*
X1214759Y1030119D01*
G01D02*
X1217082Y1027796D01*
G01X1212436Y1037796D02*
X1214759Y1040119D01*
G01D02*
X1217082Y1042442D01*
G01X1212436D02*
X1214759Y1040119D01*
G01D02*
X1217082Y1037796D01*
G01X1205000Y1060000D02*
X1207323Y1062323D01*
G01X1205000Y1060000D02*
X1207323Y1057677D01*
G01X1205000Y1070000D02*
X1207323Y1072323D01*
G01X1205000Y1070000D02*
X1207323Y1067677D01*
G01X1215000Y1075998D02*
Y1087000D01*
G01X1227677Y1092677D02*
X1230000Y1095000D01*
G01X1227677Y1097323D02*
X1230000Y1095000D01*
G01X1215000Y1087000D02*
Y1098002D01*
G01X1203998Y1087000D02*
X1215000D01*
G01D02*
X1226002D01*
G01X1237677Y947677D02*
X1240000Y950000D01*
G01D02*
X1242323Y952323D01*
G01X1237677D02*
X1240000Y950000D01*
G01D02*
X1242323Y947677D01*
G01X1247677D02*
X1250000Y950000D01*
G01D02*
X1252323Y952323D01*
G01X1247677D02*
X1250000Y950000D01*
G01D02*
X1252323Y947677D01*
G01X1229677D02*
X1232000Y950000D01*
G01D02*
X1234323Y952323D01*
G01X1229677D02*
X1232000Y950000D01*
G01D02*
X1234323Y947677D01*
G01X1249900Y964398D02*
Y969100D01*
G01X1245198D02*
X1249900D01*
G01D02*
X1254602D01*
G01X1229900Y964398D02*
Y969100D01*
G01D02*
Y973802D01*
G01Y969100D02*
X1234602D01*
G01X1246577Y979677D02*
X1248900Y982000D01*
G01D02*
X1251223Y984323D01*
G01X1246577D02*
X1248900Y982000D01*
G01D02*
X1251223Y979677D01*
G01X1245177Y985177D02*
X1247500Y987500D01*
G01D02*
X1249823Y989823D01*
G01X1245177D02*
X1247500Y987500D01*
G01D02*
X1249823Y985177D01*
G01X1230000Y977698D02*
Y982500D01*
G01D02*
Y987302D01*
G01Y982500D02*
X1234802D01*
G01X1239961Y1021766D02*
Y1026437D01*
G01D02*
Y1031108D01*
G01X1235290Y1026437D02*
X1239961D01*
G01D02*
X1244632D01*
G01X1240000Y1002698D02*
Y1007500D01*
G01D02*
Y1012302D01*
G01X1235198Y1007500D02*
X1240000D01*
G01D02*
X1244802D01*
G01X1230000Y1095000D02*
X1232323Y1097323D01*
G01X1230000Y1095000D02*
X1232323Y1092677D01*
G01X1237677D02*
X1240000Y1095000D01*
G01D02*
X1242323Y1097323D01*
G01X1237677D02*
X1240000Y1095000D01*
G01D02*
X1242323Y1092677D01*
G01X1247677D02*
X1250000Y1095000D01*
G01D02*
X1252323Y1097323D01*
G01X1247677D02*
X1250000Y1095000D01*
G01D02*
X1252323Y1092677D01*
G01X1277677Y947677D02*
X1280000Y950000D01*
G01X1257677Y947677D02*
X1260000Y950000D01*
G01D02*
X1262323Y952323D01*
G01X1257677D02*
X1260000Y950000D01*
G01D02*
X1262323Y947677D01*
G01X1267677D02*
X1270000Y950000D01*
G01D02*
X1272323Y952323D01*
G01X1267677D02*
X1270000Y950000D01*
G01D02*
X1272323Y947677D01*
G01X1277677Y952323D02*
X1280000Y950000D01*
G01X1260577Y962577D02*
X1262900Y964900D01*
G01D02*
X1265223Y967223D01*
G01X1260577D02*
X1262900Y964900D01*
G01D02*
X1265223Y962577D01*
G01X1275977Y993277D02*
X1278300Y995600D01*
G01X1275977Y997923D02*
X1278300Y995600D01*
G01X1260177Y980177D02*
X1262500Y982500D01*
G01D02*
X1264823Y984823D01*
G01X1260177D02*
X1262500Y982500D01*
G01D02*
X1264823Y980177D01*
G01X1257500Y1015498D02*
Y1018500D01*
G01D02*
Y1021502D01*
G01X1254498Y1018500D02*
X1257500D01*
G01D02*
X1260502D01*
G01X1266500Y1015498D02*
Y1018500D01*
G01D02*
Y1021502D01*
G01X1263498Y1018500D02*
X1266500D01*
G01D02*
X1269502D01*
G01X1277677Y1092677D02*
X1280000Y1095000D01*
G01X1277677Y1097323D02*
X1280000Y1095000D01*
G01X1257677Y1092677D02*
X1260000Y1095000D01*
G01D02*
X1262323Y1097323D01*
G01X1257677D02*
X1260000Y1095000D01*
G01D02*
X1262323Y1092677D01*
G01X1267677D02*
X1270000Y1095000D01*
G01D02*
X1272323Y1097323D01*
G01X1267677D02*
X1270000Y1095000D01*
G01D02*
X1272323Y1092677D01*
G01X1280000Y950000D02*
X1282323Y952323D01*
G01X1280000Y950000D02*
X1282323Y947677D01*
G01X1287677D02*
X1290000Y950000D01*
G01D02*
X1292323Y952323D01*
G01X1287677D02*
X1290000Y950000D01*
G01D02*
X1292323Y947677D01*
G01X1297677D02*
X1300000Y950000D01*
G01D02*
X1302323Y952323D01*
G01X1297677D02*
X1300000Y950000D01*
G01D02*
X1302323Y947677D01*
G01X1285677Y967677D02*
X1288000Y970000D01*
G01D02*
X1290323Y972323D01*
G01X1285677D02*
X1288000Y970000D01*
G01D02*
X1290323Y967677D01*
G01X1285677Y983677D02*
X1288000Y986000D01*
G01D02*
X1290323Y988323D01*
G01X1285677D02*
X1288000Y986000D01*
G01X1278300Y995600D02*
X1280623Y997923D01*
G01X1278300Y995600D02*
X1280623Y993277D01*
G01X1300700Y1028098D02*
Y1033800D01*
G01D02*
Y1039502D01*
G01X1289977Y1054977D02*
X1292300Y1057300D01*
G01D02*
X1294623Y1059623D01*
G01X1289977D02*
X1292300Y1057300D01*
G01D02*
X1294623Y1054977D01*
G01X1287500Y1070198D02*
Y1075000D01*
G01D02*
Y1079802D01*
G01X1282698Y1075000D02*
X1287500D01*
G01D02*
X1292302D01*
G01X1302100Y1054900D02*
X1304900Y1052100D01*
X1317700D01*
X1318500Y1051300D01*
Y1045800D01*
X1319300Y1045000D01*
X1327500D01*
G01X1280000Y1095000D02*
X1282323Y1097323D01*
G01X1280000Y1095000D02*
X1282323Y1092677D01*
G01X1287677D02*
X1290000Y1095000D01*
G01D02*
X1292323Y1097323D01*
G01X1287677D02*
X1290000Y1095000D01*
G01D02*
X1292323Y1092677D01*
G01X1297677D02*
X1300000Y1095000D01*
G01D02*
X1302323Y1097323D01*
G01X1297677D02*
X1300000Y1095000D01*
G01D02*
X1302323Y1092677D01*
G01X1327677Y947677D02*
X1330000Y950000D01*
G01X1307677Y947677D02*
X1310000Y950000D01*
G01D02*
X1312323Y952323D01*
G01X1307677D02*
X1310000Y950000D01*
G01D02*
X1312323Y947677D01*
G01X1317677D02*
X1320000Y950000D01*
G01D02*
X1322323Y952323D01*
G01X1317677D02*
X1320000Y950000D01*
G01D02*
X1322323Y947677D01*
G01X1327677Y952323D02*
X1330000Y950000D01*
G01X1311677Y967677D02*
X1314000Y970000D01*
G01D02*
X1316323Y972323D01*
G01X1311677D02*
X1314000Y970000D01*
G01D02*
X1316323Y967677D01*
G01X1323800Y990400D02*
Y978700D01*
X1332500Y970000D01*
X1367500D01*
X1370000Y972500D01*
Y982500D01*
G01X1319477Y995877D02*
X1321800Y998200D01*
G01D02*
X1324123Y1000523D01*
G01X1319477D02*
X1321800Y998200D01*
G01D02*
X1324123Y995877D01*
G01X1311677Y983677D02*
X1314000Y986000D01*
G01D02*
X1316323Y988323D01*
G01X1311677D02*
X1314000Y986000D01*
G01D02*
X1316323Y983677D01*
G01X1322077Y1016677D02*
X1324400Y1019000D01*
G01D02*
X1326723Y1021323D01*
G01X1322077D02*
X1324400Y1019000D01*
G01D02*
X1326723Y1016677D01*
G01X1317677Y1062677D02*
X1320000Y1065000D01*
G01D02*
X1322323Y1067323D01*
G01X1317677D02*
X1320000Y1065000D01*
G01D02*
X1322323Y1062677D01*
G01X1312100Y1060198D02*
Y1064900D01*
G01D02*
Y1069602D01*
G01X1307398Y1064900D02*
X1312100D01*
G01D02*
X1316802D01*
G01X1327677Y1092677D02*
X1330000Y1095000D01*
G01X1327677Y1097323D02*
X1330000Y1095000D01*
G01X1307677Y1092677D02*
X1310000Y1095000D01*
G01D02*
X1312323Y1097323D01*
G01X1307677D02*
X1310000Y1095000D01*
G01D02*
X1312323Y1092677D01*
G01X1317677D02*
X1320000Y1095000D01*
G01D02*
X1322323Y1097323D01*
G01X1317677D02*
X1320000Y1095000D01*
G01D02*
X1322323Y1092677D01*
G01X1330000Y950000D02*
X1332323Y952323D01*
G01X1330000Y950000D02*
X1332323Y947677D01*
G01X1337677D02*
X1340000Y950000D01*
G01D02*
X1342323Y952323D01*
G01X1337677D02*
X1340000Y950000D01*
G01D02*
X1342323Y947677D01*
G01X1347677D02*
X1350000Y950000D01*
G01D02*
X1352323Y952323D01*
G01X1347677D02*
X1350000Y950000D01*
G01D02*
X1352323Y947677D01*
G01X1352900Y991500D02*
X1340000Y1004400D01*
Y1007000D01*
X1339500Y1007500D01*
X1337500D01*
G01X1332500Y977500D02*
X1334550Y979550D01*
Y1009550D01*
X1337500Y1012500D01*
X1340000D01*
X1342500Y1010000D01*
G01X1332500Y1020000D02*
Y1010900D01*
X1331900Y1010300D01*
Y1008000D01*
G01X1333500Y1048498D02*
Y1051500D01*
G01D02*
Y1054502D01*
G01X1330498Y1051500D02*
X1333500D01*
G01D02*
X1336502D01*
G01X1351677Y1032677D02*
X1354000Y1035000D01*
G01X1351677Y1037323D02*
X1354000Y1035000D01*
G01X1351500Y1038498D02*
Y1041500D01*
G01D02*
Y1044502D01*
G01X1348498Y1041500D02*
X1351500D01*
G01D02*
X1354502D01*
G01X1345677Y1029677D02*
X1348000Y1032000D01*
G01D02*
X1350323Y1034323D01*
G01X1345677D02*
X1348000Y1032000D01*
G01D02*
X1350323Y1029677D01*
G01X1346000Y1061498D02*
Y1064500D01*
G01D02*
Y1067502D01*
G01X1342998Y1064500D02*
X1346000D01*
G01D02*
X1349002D01*
G01X1335500Y1061498D02*
Y1064500D01*
G01D02*
Y1067502D01*
G01X1332498Y1064500D02*
X1335500D01*
G01D02*
X1338502D01*
G01X1330000Y1095000D02*
X1332323Y1097323D01*
G01X1330000Y1095000D02*
X1332323Y1092677D01*
G01X1337677D02*
X1340000Y1095000D01*
G01D02*
X1342323Y1097323D01*
G01X1337677D02*
X1340000Y1095000D01*
G01D02*
X1342323Y1092677D01*
G01X1347677D02*
X1350000Y1095000D01*
G01D02*
X1352323Y1097323D01*
G01X1347677D02*
X1350000Y1095000D01*
G01D02*
X1352323Y1092677D01*
G01X1377677Y947677D02*
X1380000Y950000D01*
G01X1357677Y947677D02*
X1360000Y950000D01*
G01D02*
X1362323Y952323D01*
G01X1357677D02*
X1360000Y950000D01*
G01D02*
X1362323Y947677D01*
G01X1367677D02*
X1370000Y950000D01*
G01D02*
X1372323Y952323D01*
G01X1367677D02*
X1370000Y950000D01*
G01D02*
X1372323Y947677D01*
G01X1377677Y952323D02*
X1380000Y950000D01*
G01X1376210Y959319D02*
Y962321D01*
G01D02*
Y965323D01*
G01X1373208Y962321D02*
X1376210D01*
G01D02*
X1379212D01*
G01X1366210Y959319D02*
Y962321D01*
G01D02*
Y965323D01*
G01X1363208Y962321D02*
X1366210D01*
G01D02*
X1369212D01*
G01X1376000Y969498D02*
Y972500D01*
G01D02*
Y975502D01*
G01X1372998Y972500D02*
X1376000D01*
G01D02*
X1379002D01*
G01X1356210Y959319D02*
Y962321D01*
G01D02*
Y965323D01*
G01X1353208Y962321D02*
X1356210D01*
G01D02*
X1359212D01*
G01X1363000Y986998D02*
Y990000D01*
G01D02*
Y993002D01*
G01X1359998Y990000D02*
X1363000D01*
G01D02*
X1366002D01*
G01X1358500Y993498D02*
Y996500D01*
G01D02*
Y999502D01*
G01X1355498Y996500D02*
X1358500D01*
G01D02*
X1361502D01*
G01X1354000Y1035000D02*
X1356323Y1037323D01*
G01X1354000Y1035000D02*
X1356323Y1032677D01*
G01X1369677Y1038177D02*
X1372000Y1040500D01*
G01D02*
X1374323Y1042823D01*
G01X1369677D02*
X1372000Y1040500D01*
G01D02*
X1374323Y1038177D01*
G01X1367677Y1030177D02*
X1370000Y1032500D01*
G01D02*
X1372323Y1034823D01*
G01X1367677D02*
X1370000Y1032500D01*
G01D02*
X1372323Y1030177D01*
G01X1377500Y1040000D02*
X1409100D01*
X1410100Y1041000D01*
Y1045100D01*
X1410000Y1045200D01*
Y1047500D01*
G01X1378400Y1050900D02*
Y1043200D01*
X1377500Y1042300D01*
Y1040000D01*
G01X1357427Y1060927D02*
X1359750Y1063250D01*
G01D02*
X1362073Y1065573D01*
G01X1357427D02*
X1359750Y1063250D01*
G01D02*
X1362073Y1060927D01*
G01X1357427Y1066127D02*
X1359750Y1068450D01*
G01D02*
X1362073Y1070773D01*
G01X1357427D02*
X1359750Y1068450D01*
G01D02*
X1362073Y1066127D01*
G01X1377677Y1092677D02*
X1380000Y1095000D01*
G01X1377677Y1097323D02*
X1380000Y1095000D01*
G01X1357677Y1092677D02*
X1360000Y1095000D01*
G01D02*
X1362323Y1097323D01*
G01X1357677D02*
X1360000Y1095000D01*
G01D02*
X1362323Y1092677D01*
G01X1367677D02*
X1370000Y1095000D01*
G01D02*
X1372323Y1097323D01*
G01X1367677D02*
X1370000Y1095000D01*
G01D02*
X1372323Y1092677D01*
G01X1380000Y950000D02*
X1382323Y952323D01*
G01X1380000Y950000D02*
X1382323Y947677D01*
G01X1387677D02*
X1390000Y950000D01*
G01D02*
X1392323Y952323D01*
G01X1387677D02*
X1390000Y950000D01*
G01D02*
X1392323Y947677D01*
G01X1397677D02*
X1400000Y950000D01*
G01D02*
X1402323Y952323D01*
G01X1397677D02*
X1400000Y950000D01*
G01D02*
X1402323Y947677D01*
G01X1396100Y969374D02*
Y972376D01*
G01D02*
Y975378D01*
G01X1393098Y972376D02*
X1396100D01*
G01D02*
X1399102D01*
G01X1386100Y969374D02*
Y972376D01*
G01D02*
Y975378D01*
G01X1383098Y972376D02*
X1386100D01*
G01D02*
X1389102D01*
G01X1396100Y959374D02*
Y962376D01*
G01D02*
Y965378D01*
G01X1393098Y962376D02*
X1396100D01*
G01D02*
X1399102D01*
G01X1386100Y959374D02*
Y962376D01*
G01D02*
Y965378D01*
G01X1383098Y962376D02*
X1386100D01*
G01D02*
X1389102D01*
G01X1378177Y995677D02*
X1380500Y998000D01*
G01D02*
X1382823Y1000323D01*
G01X1378177D02*
X1380500Y998000D01*
G01D02*
X1382823Y995677D01*
G01X1396100Y979374D02*
Y982376D01*
G01D02*
Y985378D01*
G01X1393098Y982376D02*
X1396100D01*
G01D02*
X1399102D01*
G01X1386100Y979374D02*
Y982376D01*
G01D02*
Y985378D01*
G01X1383098Y982376D02*
X1386100D01*
G01D02*
X1389102D01*
G01X1396063Y989658D02*
Y992660D01*
G01D02*
Y995662D01*
G01X1393061Y992660D02*
X1396063D01*
G01D02*
X1399065D01*
G01X1396000Y996998D02*
Y1000000D01*
G01D02*
Y1003002D01*
G01X1392998Y1000000D02*
X1396000D01*
G01D02*
X1399002D01*
G01X1395500Y1014498D02*
Y1017500D01*
G01D02*
Y1020502D01*
G01X1392498Y1017500D02*
X1395500D01*
G01D02*
X1398502D01*
G01X1400583Y1019457D02*
Y1022459D01*
G01D02*
Y1025461D01*
G01X1397581Y1022459D02*
X1400583D01*
G01D02*
X1403585D01*
G01X1390583Y1019457D02*
Y1022459D01*
G01D02*
Y1025461D01*
G01X1387581Y1022459D02*
X1390583D01*
G01D02*
X1393585D01*
G01X1395500Y1023998D02*
Y1027000D01*
G01D02*
Y1030002D01*
G01X1392498Y1027000D02*
X1395500D01*
G01D02*
X1398502D01*
G01X1382927Y1058027D02*
X1385250Y1060350D01*
G01D02*
X1387573Y1062673D01*
G01X1382927D02*
X1385250Y1060350D01*
G01D02*
X1387573Y1058027D01*
G01X1395177Y1062677D02*
X1397500Y1065000D01*
G01X1395177Y1067323D02*
X1397500Y1065000D01*
G01D02*
X1399823Y1062677D01*
G01X1387927Y1058027D02*
X1390250Y1060350D01*
G01D02*
X1392573Y1062673D01*
G01X1387927D02*
X1390250Y1060350D01*
G01D02*
X1392573Y1058027D01*
G01X1400000Y1075000D02*
Y1079802D01*
G01X1395198Y1075000D02*
X1400000D01*
G01D02*
X1404802D01*
G01X1380000Y1095000D02*
X1382323Y1097323D01*
G01X1380000Y1095000D02*
X1382323Y1092677D01*
G01X1387677D02*
X1390000Y1095000D01*
G01D02*
X1392323Y1097323D01*
G01X1387677D02*
X1390000Y1095000D01*
G01D02*
X1392323Y1092677D01*
G01X1397677D02*
X1400000Y1095000D01*
G01D02*
X1402323Y1097323D01*
G01X1397677D02*
X1400000Y1095000D01*
G01D02*
X1402323Y1092677D01*
G01X1427677Y947677D02*
X1430000Y950000D01*
G01X1407677Y947677D02*
X1410000Y950000D01*
G01D02*
X1412323Y952323D01*
G01X1407677D02*
X1410000Y950000D01*
G01D02*
X1412323Y947677D01*
G01X1417677D02*
X1420000Y950000D01*
G01D02*
X1422323Y952323D01*
G01X1417677D02*
X1420000Y950000D01*
G01D02*
X1422323Y947677D01*
G01X1427677Y952323D02*
X1430000Y950000D01*
G01X1406100Y969374D02*
Y972376D01*
G01D02*
Y975378D01*
G01X1403098Y972376D02*
X1406100D01*
G01D02*
X1409102D01*
G01X1406100Y959374D02*
Y962376D01*
G01D02*
Y965378D01*
G01X1403098Y962376D02*
X1406100D01*
G01D02*
X1409102D01*
G01X1414685Y958999D02*
Y962001D01*
G01D02*
Y965003D01*
G01X1411683Y962001D02*
X1414685D01*
G01D02*
X1417687D01*
G01X1424685Y958999D02*
Y962001D01*
G01D02*
Y965003D01*
G01X1421683Y962001D02*
X1424685D01*
G01D02*
X1427687D01*
G01X1424713Y969206D02*
Y972208D01*
G01D02*
Y975210D01*
G01X1421711Y972208D02*
X1424713D01*
G01D02*
X1427715D01*
G01X1422177Y987677D02*
X1424500Y990000D01*
G01D02*
X1426823Y992323D01*
G01X1422177D02*
X1424500Y990000D01*
G01D02*
X1426823Y987677D01*
G01X1406100Y979374D02*
Y982376D01*
G01D02*
Y985378D01*
G01X1403098Y982376D02*
X1406100D01*
G01D02*
X1409102D01*
G01X1406063Y989658D02*
Y992660D01*
G01D02*
Y995662D01*
G01X1403061Y992660D02*
X1406063D01*
G01D02*
X1409065D01*
G01X1406000Y996998D02*
Y1000000D01*
G01D02*
Y1003002D01*
G01X1402998Y1000000D02*
X1406000D01*
G01D02*
X1409002D01*
G01X1420177Y1012677D02*
X1422500Y1015000D01*
G01D02*
X1424823Y1017323D01*
G01X1420177D02*
X1422500Y1015000D01*
G01D02*
X1424823Y1012677D01*
G01X1420177Y1007677D02*
X1422500Y1010000D01*
G01D02*
X1424823Y1012323D01*
G01X1420177D02*
X1422500Y1010000D01*
G01D02*
X1424823Y1007677D01*
G01X1404677Y1025677D02*
X1407000Y1028000D01*
G01D02*
X1409323Y1025677D01*
G01X1420177Y1037677D02*
X1422500Y1040000D01*
G01D02*
X1424823Y1042323D01*
G01X1420177D02*
X1422500Y1040000D01*
G01D02*
X1424823Y1037677D01*
G01X1407000Y1028000D02*
X1409323Y1030323D01*
G01X1404677D02*
X1407000Y1028000D01*
G01X1420177Y1062677D02*
X1422500Y1065000D01*
G01D02*
X1424823Y1067323D01*
G01X1420177D02*
X1422500Y1065000D01*
G01D02*
X1424823Y1062677D01*
G01X1420177Y1057677D02*
X1422500Y1060000D01*
G01D02*
X1424823Y1062323D01*
G01X1420177D02*
X1422500Y1060000D01*
G01D02*
X1424823Y1057677D01*
G01X1406477Y1067677D02*
X1408800Y1070000D01*
G01D02*
X1411123Y1072323D01*
G01X1406477D02*
X1408800Y1070000D01*
G01D02*
X1411123Y1067677D01*
G01X1415000Y1061998D02*
Y1065000D01*
G01D02*
Y1068002D01*
G01X1411998Y1065000D02*
X1415000D01*
G01D02*
X1418002D01*
G01X1427677Y1092677D02*
X1430000Y1095000D01*
G01X1427677Y1097323D02*
X1430000Y1095000D01*
G01X1407677Y1092677D02*
X1410000Y1095000D01*
G01D02*
X1412323Y1097323D01*
G01X1407677D02*
X1410000Y1095000D01*
G01D02*
X1412323Y1092677D01*
G01X1417677D02*
X1420000Y1095000D01*
G01D02*
X1422323Y1097323D01*
G01X1417677D02*
X1420000Y1095000D01*
G01D02*
X1422323Y1092677D01*
G01X1428059Y1085679D02*
X1430382Y1088002D01*
G01X1428059Y1090325D02*
X1430382Y1088002D01*
G01X1418059Y1085679D02*
X1420382Y1088002D01*
G01D02*
X1422705Y1090325D01*
G01X1418059D02*
X1420382Y1088002D01*
G01D02*
X1422705Y1085679D01*
G01X1428059Y1078679D02*
X1430382Y1081002D01*
G01X1428059Y1083325D02*
X1430382Y1081002D01*
G01X1418059Y1078679D02*
X1420382Y1081002D01*
G01D02*
X1422705Y1083325D01*
G01X1418059D02*
X1420382Y1081002D01*
G01D02*
X1422705Y1078679D01*
G01X1430000Y950000D02*
X1432323Y952323D01*
G01X1430000Y950000D02*
X1432323Y947677D01*
G01X1437677D02*
X1440000Y950000D01*
G01D02*
X1442323Y952323D01*
G01X1437677D02*
X1440000Y950000D01*
G01D02*
X1442323Y947677D01*
G01X1447677D02*
X1450000Y950000D01*
G01D02*
X1452323Y952323D01*
G01X1447677D02*
X1450000Y950000D01*
G01D02*
X1452323Y947677D01*
G01X1451573Y962056D02*
X1454575D01*
G01X1444575Y959054D02*
Y962056D01*
G01D02*
Y965058D01*
G01X1441573Y962056D02*
X1444575D01*
G01D02*
X1447577D01*
G01X1434685Y958999D02*
Y962001D01*
G01D02*
Y965003D01*
G01X1431683Y962001D02*
X1434685D01*
G01D02*
X1437687D01*
G01X1434713Y969206D02*
Y972208D01*
G01D02*
Y975210D01*
G01X1431711Y972208D02*
X1434713D01*
G01D02*
X1437715D01*
G01X1444713Y969206D02*
Y972208D01*
G01D02*
Y975210D01*
G01X1441711Y972208D02*
X1444713D01*
G01D02*
X1447715D01*
G01X1441700Y979800D02*
X1474000D01*
G01X1436600Y997600D02*
X1469900D01*
X1472500Y995000D01*
G01X1442000Y1031000D02*
X1446000Y1027000D01*
X1463000D01*
X1467500Y1031500D01*
G01X1441100Y1005000D02*
X1472500D01*
G01X1453177Y1042677D02*
X1455500Y1045000D01*
G01X1453177Y1047323D02*
X1455500Y1045000D01*
G01X1453177Y1037677D02*
X1455500Y1040000D01*
G01X1453177Y1042323D02*
X1455500Y1040000D01*
G01X1472500Y1055000D02*
X1434900D01*
G01X1430000Y1095000D02*
X1432323Y1097323D01*
G01X1430000Y1095000D02*
X1432323Y1092677D01*
G01X1437677D02*
X1440000Y1095000D01*
G01D02*
X1442323Y1097323D01*
G01X1437677D02*
X1440000Y1095000D01*
G01D02*
X1442323Y1092677D01*
G01X1447677D02*
X1450000Y1095000D01*
G01D02*
X1452323Y1097323D01*
G01X1447677D02*
X1450000Y1095000D01*
G01D02*
X1452323Y1092677D01*
G01X1430382Y1088002D02*
X1432705Y1090325D01*
G01X1430382Y1088002D02*
X1432705Y1085679D01*
G01X1438059D02*
X1440382Y1088002D01*
G01D02*
X1442705Y1090325D01*
G01X1438059D02*
X1440382Y1088002D01*
G01D02*
X1442705Y1085679D01*
G01X1448059D02*
X1450382Y1088002D01*
G01D02*
X1452705Y1090325D01*
G01X1448059D02*
X1450382Y1088002D01*
G01D02*
X1452705Y1085679D01*
G01X1430382Y1081002D02*
X1432705Y1083325D01*
G01X1430382Y1081002D02*
X1432705Y1078679D01*
G01X1438059D02*
X1440382Y1081002D01*
G01D02*
X1442705Y1083325D01*
G01X1438059D02*
X1440382Y1081002D01*
G01D02*
X1442705Y1078679D01*
G01X1448059D02*
X1450382Y1081002D01*
G01D02*
X1452705Y1083325D01*
G01X1448059D02*
X1450382Y1081002D01*
G01D02*
X1452705Y1078679D01*
G01X1477677Y947677D02*
X1480000Y950000D01*
G01X1457677Y947677D02*
X1460000Y950000D01*
G01D02*
X1462323Y952323D01*
G01X1457677D02*
X1460000Y950000D01*
G01D02*
X1462323Y947677D01*
G01X1467677D02*
X1470000Y950000D01*
G01D02*
X1472323Y952323D01*
G01X1467677D02*
X1470000Y950000D01*
G01D02*
X1472323Y947677D01*
G01X1477677Y952323D02*
X1480000Y950000D01*
G01X1464575Y959054D02*
Y962056D01*
G01D02*
Y965058D01*
G01X1461573Y962056D02*
X1464575D01*
G01D02*
X1467577D01*
G01X1454575Y959054D02*
Y962056D01*
G01D02*
Y965058D01*
G01Y962056D02*
X1457577D01*
G01X1472685Y958999D02*
Y962001D01*
G01D02*
Y965003D01*
G01X1469683Y962001D02*
X1472685D01*
G01D02*
X1475687D01*
G01X1455177Y992677D02*
X1457500Y995000D01*
G01D02*
X1459823Y992677D01*
G01X1455177Y987677D02*
X1457500Y990000D01*
G01D02*
X1459823Y992323D01*
G01X1455177D02*
X1457500Y990000D01*
G01D02*
X1459823Y987677D01*
G01X1457500Y985000D02*
X1467300D01*
G01X1457500Y1015000D02*
X1470000D01*
G01X1455500Y1045000D02*
X1457823Y1047323D01*
G01X1455500Y1045000D02*
X1457823Y1042677D01*
G01X1455500Y1040000D02*
X1457823Y1042323D01*
G01X1455500Y1040000D02*
X1457823Y1037677D01*
G01X1455500Y1035000D02*
X1470000D01*
G01X1455500Y1050000D02*
X1462800D01*
X1472500Y1040300D01*
Y1030000D01*
G01X1456200Y1065000D02*
X1466900D01*
G01X1477677Y1092677D02*
X1480000Y1095000D01*
G01X1477677Y1097323D02*
X1480000Y1095000D01*
G01X1457677Y1092677D02*
X1460000Y1095000D01*
G01D02*
X1462323Y1097323D01*
G01X1457677D02*
X1460000Y1095000D01*
G01D02*
X1462323Y1092677D01*
G01X1467677D02*
X1470000Y1095000D01*
G01D02*
X1472323Y1097323D01*
G01X1467677D02*
X1470000Y1095000D01*
G01D02*
X1472323Y1092677D01*
G01X1458059Y1085679D02*
X1460382Y1088002D01*
G01D02*
X1462705Y1090325D01*
G01X1458059D02*
X1460382Y1088002D01*
G01D02*
X1462705Y1085679D01*
G01X1468059D02*
X1470382Y1088002D01*
G01D02*
X1472705Y1090325D01*
G01X1468059D02*
X1470382Y1088002D01*
G01D02*
X1472705Y1085679D01*
G01X1458059Y1078679D02*
X1460382Y1081002D01*
G01D02*
X1462705Y1083325D01*
G01X1458059D02*
X1460382Y1081002D01*
G01D02*
X1462705Y1078679D01*
G01X1468059D02*
X1470382Y1081002D01*
G01D02*
X1472705Y1083325D01*
G01X1468059D02*
X1470382Y1081002D01*
G01D02*
X1472705Y1078679D01*
G01X1480000Y950000D02*
X1482323Y952323D01*
G01X1480000Y950000D02*
X1482323Y947677D01*
G01X1487677D02*
X1490000Y950000D01*
G01D02*
X1492323Y952323D01*
G01X1487677D02*
X1490000Y950000D01*
G01D02*
X1492323Y947677D01*
G01X1497677D02*
X1500000Y950000D01*
G01D02*
X1502323Y952323D01*
G01X1497677D02*
X1500000Y950000D01*
G01D02*
X1502323Y947677D01*
G01X1502575Y959054D02*
Y962056D01*
G01D02*
Y965058D01*
G01X1499573Y962056D02*
X1502575D01*
G01D02*
X1505577D01*
G01X1482685Y958999D02*
Y962001D01*
G01D02*
Y965003D01*
G01X1479683Y962001D02*
X1482685D01*
G01D02*
X1485687D01*
G01X1492685Y958999D02*
Y962001D01*
G01D02*
Y965003D01*
G01X1489683Y962001D02*
X1492685D01*
G01D02*
X1495687D01*
G01X1500198Y987500D02*
X1505000D01*
G01X1500198Y997500D02*
X1505000D01*
G01X1500198Y977500D02*
X1505000D01*
G01X1500198Y1007500D02*
X1505000D01*
G01X1500198Y1017500D02*
X1505000D01*
G01X1500198Y1037500D02*
X1505000D01*
G01X1500198Y1047500D02*
X1505000D01*
G01X1500198Y1027500D02*
X1505000D01*
G01X1500198Y1057500D02*
X1505000D01*
G01X1500198Y1067500D02*
X1505000D01*
G01X1480000Y1095000D02*
X1482323Y1097323D01*
G01X1480000Y1095000D02*
X1482323Y1092677D01*
G01X1487677D02*
X1490000Y1095000D01*
G01D02*
X1492323Y1097323D01*
G01X1487677D02*
X1490000Y1095000D01*
G01D02*
X1492323Y1092677D01*
G01X1497677D02*
X1500000Y1095000D01*
G01D02*
X1502323Y1097323D01*
G01X1497677D02*
X1500000Y1095000D01*
G01D02*
X1502323Y1092677D01*
G01X1527677Y947677D02*
X1530000Y950000D01*
G01X1507677Y947677D02*
X1510000Y950000D01*
G01D02*
X1512323Y952323D01*
G01X1507677D02*
X1510000Y950000D01*
G01D02*
X1512323Y947677D01*
G01X1517677D02*
X1520000Y950000D01*
G01D02*
X1522323Y952323D01*
G01X1517677D02*
X1520000Y950000D01*
G01D02*
X1522323Y947677D01*
G01X1527677Y952323D02*
X1530000Y950000D01*
G01X1505000Y972698D02*
Y977500D01*
G01X1522575Y959054D02*
Y962056D01*
G01D02*
Y965058D01*
G01X1519573Y962056D02*
X1522575D01*
G01D02*
X1525577D01*
G01X1512575Y959054D02*
Y962056D01*
G01D02*
Y965058D01*
G01X1509573Y962056D02*
X1512575D01*
G01D02*
X1515577D01*
G01X1505000Y982698D02*
Y987500D01*
G01D02*
Y992302D01*
G01Y987500D02*
X1509802D01*
G01X1505000Y992698D02*
Y997500D01*
G01D02*
Y1002302D01*
G01Y997500D02*
X1509802D01*
G01X1505000Y977500D02*
Y982302D01*
G01Y977500D02*
X1509802D01*
G01X1505000Y1002698D02*
Y1007500D01*
G01D02*
Y1012302D01*
G01Y1007500D02*
X1509802D01*
G01X1505000Y1012698D02*
Y1017500D01*
G01D02*
Y1022302D01*
G01Y1017500D02*
X1509802D01*
G01X1505000Y1022698D02*
Y1027500D01*
G01Y1032698D02*
Y1037500D01*
G01D02*
Y1042302D01*
G01Y1037500D02*
X1509802D01*
G01X1505000Y1042698D02*
Y1047500D01*
G01D02*
Y1052302D01*
G01Y1047500D02*
X1509802D01*
G01X1505000Y1027500D02*
Y1032302D01*
G01Y1027500D02*
X1509802D01*
G01X1505000Y1052698D02*
Y1057500D01*
G01D02*
Y1062302D01*
G01Y1057500D02*
X1509802D01*
G01X1505000Y1062698D02*
Y1067500D01*
G01D02*
Y1072302D01*
G01Y1067500D02*
X1509802D01*
G01X1527677Y1092677D02*
X1530000Y1095000D01*
G01X1527677Y1097323D02*
X1530000Y1095000D01*
G01X1507677Y1092677D02*
X1510000Y1095000D01*
G01D02*
X1512323Y1097323D01*
G01X1507677D02*
X1510000Y1095000D01*
G01D02*
X1512323Y1092677D01*
G01X1517677D02*
X1520000Y1095000D01*
G01D02*
X1522323Y1097323D01*
G01X1517677D02*
X1520000Y1095000D01*
G01D02*
X1522323Y1092677D01*
G01X1530000Y950000D02*
X1532323Y952323D01*
G01X1530000Y950000D02*
X1532323Y947677D01*
G01X1537677D02*
X1540000Y950000D01*
G01D02*
X1542323Y952323D01*
G01X1537677D02*
X1540000Y950000D01*
G01D02*
X1542323Y947677D01*
G01X1535000Y972698D02*
Y977500D01*
G01X1543998Y958000D02*
X1555000D01*
G01X1535000Y982698D02*
Y987500D01*
G01D02*
Y992302D01*
G01X1530198Y987500D02*
X1535000D01*
G01D02*
X1539802D01*
G01X1535000Y992698D02*
Y997500D01*
G01D02*
Y1002302D01*
G01X1530198Y997500D02*
X1535000D01*
G01D02*
X1539802D01*
G01X1535000Y977500D02*
Y982302D01*
G01X1530198Y977500D02*
X1535000D01*
G01D02*
X1539802D01*
G01X1545146Y997520D02*
X1547469Y999843D01*
G01D02*
X1549792Y1002166D01*
G01X1545146D02*
X1547469Y999843D01*
G01D02*
X1549792Y997520D01*
G01X1535000Y1002698D02*
Y1007500D01*
G01D02*
Y1012302D01*
G01X1530198Y1007500D02*
X1535000D01*
G01D02*
X1539802D01*
G01X1535000Y1012698D02*
Y1017500D01*
G01D02*
Y1022302D01*
G01X1530198Y1017500D02*
X1535000D01*
G01D02*
X1539802D01*
G01X1535000Y1022698D02*
Y1027500D01*
G01X1545146Y1007520D02*
X1547469Y1009843D01*
G01D02*
X1549792Y1012166D01*
G01X1545146D02*
X1547469Y1009843D01*
G01D02*
X1549792Y1007520D01*
G01X1545146Y1017520D02*
X1547469Y1019843D01*
G01D02*
X1549792Y1022166D01*
G01X1545146D02*
X1547469Y1019843D01*
G01D02*
X1549792Y1017520D01*
G01X1535000Y1032698D02*
Y1037500D01*
G01D02*
Y1042302D01*
G01X1530198Y1037500D02*
X1535000D01*
G01D02*
X1539802D01*
G01X1535000Y1042698D02*
Y1047500D01*
G01D02*
Y1052302D01*
G01X1530198Y1047500D02*
X1535000D01*
G01D02*
X1539802D01*
G01X1535000Y1027500D02*
Y1032302D01*
G01X1530198Y1027500D02*
X1535000D01*
G01D02*
X1539802D01*
G01X1545146Y1027520D02*
X1547469Y1029843D01*
G01D02*
X1549792Y1032166D01*
G01X1545146D02*
X1547469Y1029843D01*
G01D02*
X1549792Y1027520D01*
G01X1545146Y1037520D02*
X1547469Y1039843D01*
G01D02*
X1549792Y1042166D01*
G01X1545146D02*
X1547469Y1039843D01*
G01D02*
X1549792Y1037520D01*
G01X1535000Y1052698D02*
Y1057500D01*
G01D02*
Y1062302D01*
G01X1530198Y1057500D02*
X1535000D01*
G01D02*
X1539802D01*
G01X1535000Y1062698D02*
Y1067500D01*
G01D02*
Y1072302D01*
G01X1530198Y1067500D02*
X1535000D01*
G01D02*
X1539802D01*
G01X1530000Y1095000D02*
X1532323Y1097323D01*
G01X1530000Y1095000D02*
X1532323Y1092677D01*
G01X1537677D02*
X1540000Y1095000D01*
G01D02*
X1542323Y1097323D01*
G01X1537677D02*
X1540000Y1095000D01*
G01D02*
X1542323Y1092677D01*
G01X1543998Y1087000D02*
X1555000D01*
G01Y946998D02*
Y958000D01*
G01X1562677Y967677D02*
X1565000Y970000D01*
G01D02*
X1567323Y972323D01*
G01X1562677D02*
X1565000Y970000D01*
G01D02*
X1567323Y967677D01*
G01X1555000Y958000D02*
Y969002D01*
G01Y958000D02*
X1566002D01*
G01X1562677Y977677D02*
X1565000Y980000D01*
G01D02*
X1567323Y982323D01*
G01X1562677D02*
X1565000Y980000D01*
G01D02*
X1567323Y977677D01*
G01X1562677Y987677D02*
X1565000Y990000D01*
G01D02*
X1567323Y992323D01*
G01X1562677D02*
X1565000Y990000D01*
G01D02*
X1567323Y987677D01*
G01X1562677Y997677D02*
X1565000Y1000000D01*
G01D02*
X1567323Y1002323D01*
G01X1562677D02*
X1565000Y1000000D01*
G01D02*
X1567323Y997677D01*
G01X1554646Y997520D02*
X1556969Y999843D01*
G01D02*
X1559292Y1002166D01*
G01X1554646D02*
X1556969Y999843D01*
G01D02*
X1559292Y997520D01*
G01X1562677Y1007677D02*
X1565000Y1010000D01*
G01D02*
X1567323Y1012323D01*
G01X1562677D02*
X1565000Y1010000D01*
G01D02*
X1567323Y1007677D01*
G01X1562677Y1017677D02*
X1565000Y1020000D01*
G01D02*
X1567323Y1022323D01*
G01X1562677D02*
X1565000Y1020000D01*
G01D02*
X1567323Y1017677D01*
G01X1554646Y1007520D02*
X1556969Y1009843D01*
G01D02*
X1559292Y1012166D01*
G01X1554646D02*
X1556969Y1009843D01*
G01D02*
X1559292Y1007520D01*
G01X1554646Y1017520D02*
X1556969Y1019843D01*
G01D02*
X1559292Y1022166D01*
G01X1554646D02*
X1556969Y1019843D01*
G01D02*
X1559292Y1017520D01*
G01X1562677Y1027677D02*
X1565000Y1030000D01*
G01D02*
X1567323Y1032323D01*
G01X1562677D02*
X1565000Y1030000D01*
G01D02*
X1567323Y1027677D01*
G01X1562677Y1037677D02*
X1565000Y1040000D01*
G01D02*
X1567323Y1042323D01*
G01X1562677D02*
X1565000Y1040000D01*
G01D02*
X1567323Y1037677D01*
G01X1562677Y1047677D02*
X1565000Y1050000D01*
G01D02*
X1567323Y1052323D01*
G01X1562677D02*
X1565000Y1050000D01*
G01D02*
X1567323Y1047677D01*
G01X1554646Y1027520D02*
X1556969Y1029843D01*
G01D02*
X1559292Y1032166D01*
G01X1554646D02*
X1556969Y1029843D01*
G01D02*
X1559292Y1027520D01*
G01X1554646Y1037520D02*
X1556969Y1039843D01*
G01D02*
X1559292Y1042166D01*
G01X1554646D02*
X1556969Y1039843D01*
G01D02*
X1559292Y1037520D01*
G01X1562677Y1057677D02*
X1565000Y1060000D01*
G01D02*
X1567323Y1062323D01*
G01X1562677D02*
X1565000Y1060000D01*
G01D02*
X1567323Y1057677D01*
G01X1562677Y1067677D02*
X1565000Y1070000D01*
G01D02*
X1567323Y1072323D01*
G01X1562677D02*
X1565000Y1070000D01*
G01D02*
X1567323Y1067677D01*
G01X1555000Y1075998D02*
Y1087000D01*
G01D02*
Y1098002D01*
G01Y1087000D02*
X1566002D01*
M02*
