G04 ================== begin FILE IDENTIFICATION RECORD ==================*
G04 Layout Name:  pmtpulser.brd*
G04 Film Name:    VCC*
G04 File Format:  Gerber RS274X*
G04 File Origin:  Cadence Allegro 16.6-P004*
G04 Origin Date:  Fri Feb 10 15:41:56 2017*
G04 *
G04 Layer:  ETCH/VCC*
G04 Layer:  PIN/VCC*
G04 Layer:  VIA CLASS/VCC*
G04 *
G04 Offset:    (0.00 0.00)*
G04 Mirror:    No*
G04 Mode:      Positive*
G04 Rotation:  0*
G04 FullContactRelief:  No*
G04 UndefLineWidth:     0.00*
G04 ================== end FILE IDENTIFICATION RECORD ====================*
%FSLAX25Y25*MOIN*%
%IR0*IPPOS*OFA0.00000B0.00000*MIA0B0*SFA1.00000B1.00000*%
%ADD18C,.042*%
%ADD11C,.06*%
%ADD12C,.026*%
%ADD13C,.055*%
%ADD17C,.065*%
%ADD15C,.05937*%
%ADD16C,.15*%
%ADD14C,.11024*%
%ADD10C,.186*%
%ADD19C,.01*%
%ADD26C,.09004*%
%ADD20C,.05604*%
%ADD28C,.08504*%
%ADD27C,.09504*%
%ADD24R,.07X.06*%
%ADD25R,.07X.07*%
%ADD22R,.06X.09*%
%ADD21R,.07X.045*%
%ADD23R,.07X.055*%
G75*
%LPD*%
G75*
G36*
G01X1274500Y975500D02*
Y1052326D01*
G03Y1059604I-5996J3639D01*
G01Y1074500D01*
X1283274D01*
X1283301Y1074331D01*
G03X1291699I4199J669D01*
G01X1291726Y1074500D01*
X1293274D01*
X1293301Y1074331D01*
G03X1301699I4199J669D01*
G01X1301726Y1074500D01*
X1310774D01*
X1310801Y1074331D01*
G03X1319199I4199J669D01*
G01X1319226Y1074500D01*
X1320774D01*
X1320801Y1074331D01*
G03X1329199I4199J669D01*
G01X1329226Y1074500D01*
X1335774D01*
X1335801Y1074331D01*
G03X1344199I4199J669D01*
G01X1344226Y1074500D01*
X1345774D01*
X1345801Y1074331D01*
G03X1354199I4199J669D01*
G01X1354226Y1074500D01*
X1360774D01*
X1360801Y1074331D01*
G03X1369199I4199J669D01*
G01X1369226Y1074500D01*
X1370774D01*
X1370801Y1074331D01*
G03X1379199I4199J669D01*
G01X1379226Y1074500D01*
X1385774D01*
X1385801Y1074331D01*
G03X1394199I4199J669D01*
G01X1394226Y1074500D01*
X1395774D01*
X1395801Y1074331D01*
G03X1404199I4199J669D01*
G01X1404226Y1074500D01*
X1492000D01*
Y1070513D01*
G03Y1064487I3000J-3013D01*
G01Y1060513D01*
G03Y1054487I3000J-3013D01*
G01Y1050513D01*
G03Y1044487I3000J-3013D01*
G01Y1040513D01*
G03Y1034487I3000J-3013D01*
G01Y1030513D01*
G03Y1024487I3000J-3013D01*
G01Y1020513D01*
G03Y1014487I3000J-3013D01*
G01Y1010513D01*
G03Y1004487I3000J-3013D01*
G01Y1000513D01*
G03Y994487I3000J-3013D01*
G01Y990513D01*
G03Y984487I3000J-3013D01*
G01Y980513D01*
G03X1491007Y976038I3000J-3013D01*
G02X1490632Y975500I-375J-138D01*
G01X1335273D01*
G02X1334927Y976100I0J400D01*
G03X1330073I-2427J1400D01*
G02X1329727Y975500I-346J-200D01*
G01X1310393D01*
G02X1309994Y975916I1J400D01*
G03X1291406I-9294J384D01*
G02X1291007Y975500I-400J-16D01*
G01X1274500D01*
G37*
%LPC*%
G75*
G36*
G01X1374535Y1041694D02*
G03X1375222Y1041631I362J170D01*
G02X1374965Y1038806I2278J-1631D01*
G03X1374278Y1038869I-362J-170D01*
G02X1374535Y1041694I-2278J1631D01*
G37*
G36*
G01X1350615Y989573D02*
G03X1350642Y989840I-134J148D01*
G02X1354785Y989427I2258J1660D01*
G03X1354758Y989160I134J-148D01*
G02X1350615Y989573I-2258J-1660D01*
G37*
G36*
G01X1279222Y992209D02*
G02X1277265Y992242I-1023J-2609D01*
G03X1277278Y992991I-133J377D01*
G02X1279235Y992958I1023J2609D01*
G03X1279222Y992209I133J-377D01*
G37*
G36*
G01X1340299Y1007371D02*
G02X1334930Y1006383I-2799J129D01*
G03X1334231Y1006445I-366J-160D01*
G02X1334470Y1009117I-2331J1555D01*
G03X1335169Y1009055I366J160D01*
G02X1339076Y1009817I2331J-1555D01*
G03X1339701Y1010129I226J330D01*
G02X1340924Y1007683I2799J-129D01*
G03X1340299Y1007371I-226J-330D01*
G37*
G36*
G01X1466000Y981927D02*
Y976500D01*
X1460000D01*
Y982583D01*
G03X1459338Y982885I-400J0D01*
G02X1455749Y987188I-1838J2115D01*
G03Y987812I-250J312D01*
G02Y992188I1751J2188D01*
G03Y992812I-250J312D01*
G02X1459338Y997115I1751J2188D01*
G03X1460000Y997417I262J302D01*
G01Y998000D01*
X1466000D01*
Y989500D01*
X1460262D01*
X1460225Y989347D01*
G02X1459251Y987812I-2725J653D01*
G03Y987188I250J-312D01*
G02X1460225Y985653I-1751J-2188D01*
G01X1460262Y985500D01*
X1464538D01*
X1464575Y985653D01*
G02X1466512Y982311I2725J-653D01*
G03X1466000Y981927I-112J-384D01*
G37*
G36*
G01X1466905Y1034238D02*
G03X1467217Y1034675I-85J391D01*
G02X1472317Y1033424I2783J325D01*
G03X1472629Y1032799I330J-226D01*
G02X1469846Y1029102I-129J-2799D01*
G03X1469221Y1029289I-379J-128D01*
G02X1466235Y1029000I-1721J2211D01*
G01X1460000D01*
Y1036000D01*
X1466000D01*
Y1034507D01*
G03X1466537Y1034131I400J0D01*
G02X1466905Y1034238I964J-2631D01*
G37*
G36*
G01X1457251Y1037812D02*
G03Y1037188I250J-312D01*
G02X1453749I-1751J-2188D01*
G03Y1037812I-250J312D01*
G02Y1042188I1751J2188D01*
G03Y1042812I-250J312D01*
G02Y1047188I1751J2188D01*
G03Y1047812I-250J312D01*
G02X1457251I1751J2188D01*
G03Y1047188I250J-312D01*
G02Y1042812I-1751J-2188D01*
G03Y1042188I250J-312D01*
G02Y1037812I-1751J-2188D01*
G37*
G36*
G01X1420000Y1037583D02*
Y1036500D01*
X1413000D01*
Y1045000D01*
X1420000D01*
Y1042417D01*
G03X1420662Y1042115I400J0D01*
G02Y1037885I1838J-2115D01*
G03X1420000Y1037583I-262J-302D01*
G37*
G36*
G01X1466000Y1061837D02*
Y1053000D01*
X1460000D01*
Y1063000D01*
X1464126D01*
G03X1464473Y1063600I1J400D01*
G02X1466462Y1062232I2428J1400D01*
G03X1466000Y1061837I-62J-395D01*
G37*
G36*
G01X1293678Y1060420D02*
G03X1293691Y1059733I211J-340D01*
G02X1290822Y1059680I-1390J-2433D01*
G03X1290809Y1060367I-211J340D01*
G02X1293678Y1060420I1390J2433D01*
G37*
G36*
G01X1424251Y1062812D02*
G03Y1062188I250J-312D01*
G02X1420749I-1751J-2188D01*
G03Y1062812I-250J312D01*
G02X1424251I1751J2188D01*
G37*
G36*
G01X1388062Y1058599D02*
G03X1387438I-312J-250D01*
G02Y1062101I-2188J1751D01*
G03X1388062I312J250D01*
G02Y1058599I2188J-1751D01*
G37*
G36*
G01X1361385Y1066175D02*
G03Y1065525I234J-325D01*
G02X1358115I-1635J-2275D01*
G03Y1066175I-234J325D01*
G02X1361385I1635J2275D01*
G37*
G36*
G01X1466000Y1002000D02*
X1460000D01*
Y1012583D01*
G03X1459338Y1012885I-400J0D01*
G02X1455865Y1017275I-1839J2114D01*
G03X1455631Y1018000I-234J325D01*
G01X1424369D01*
G03X1424135Y1017275I0J-400D01*
G02X1424251Y1012812I-1635J-2276D01*
G03Y1012188I250J-312D01*
G02X1420662Y1007885I-1751J-2188D01*
G03X1420000Y1007583I-262J-302D01*
G01Y1006500D01*
X1376000D01*
X1372106Y1010394D01*
G03X1371454Y1010265I-283J-283D01*
G02X1365304Y1011312I-2954J1236D01*
G01X1365292Y1011500D01*
X1364000D01*
Y1018500D01*
X1367649D01*
X1367671Y1018505D01*
G02X1369329I829J-3505D01*
G01X1369351Y1018500D01*
X1371000D01*
X1376000Y1013500D01*
X1419493D01*
G03X1419869Y1014037I0J400D01*
G02X1420865Y1017275I2631J963D01*
G03X1420631Y1018000I-234J325D01*
G01X1420000D01*
Y1017500D01*
X1413000D01*
Y1017894D01*
G02Y1025106I0J3606D01*
G01Y1032500D01*
X1420000D01*
Y1025000D01*
X1467500D01*
Y1025072D01*
G02X1467870Y1018000I-501J-3572D01*
G01X1464754D01*
G02X1461446I-1654J3200D01*
G01X1459369D01*
G03X1459135Y1017275I0J-400D01*
G02X1460252Y1014475I-1635J-2275D01*
G03X1460645Y1014000I393J-75D01*
G01X1466000D01*
Y1002000D01*
G37*
G54D26*
X1312100Y1064900D03*
Y1044900D03*
X1302100Y1054900D03*
G54D20*
X1370000Y1032500D03*
X1363000Y990000D03*
X1358500Y996500D03*
X1487500Y1060000D03*
Y1070000D03*
Y1030000D03*
Y1040000D03*
Y1050000D03*
Y1010000D03*
Y1020000D03*
Y980000D03*
Y1000000D03*
Y990000D03*
X1472500Y1055000D03*
X1456200Y1065000D03*
X1472500Y1005000D03*
Y995000D03*
X1474000Y979800D03*
X1434900Y1055000D03*
X1442000Y1031000D03*
X1441100Y1005000D03*
X1436600Y997600D03*
X1441700Y979800D03*
X1412500Y1057500D03*
X1408800Y1070000D03*
X1415000Y1065000D03*
X1410000Y1047500D03*
X1407000Y1028000D03*
X1424500Y990000D03*
X1406100Y982376D03*
X1406063Y992660D03*
X1406000Y1000000D03*
X1397500Y1065000D03*
X1382869Y1016731D03*
X1400583Y1022459D03*
X1390583D03*
X1395500Y1017500D03*
Y1027000D03*
X1380500Y998000D03*
X1396100Y982376D03*
X1386100D03*
X1396063Y992660D03*
X1396000Y1000000D03*
X1378400Y1050900D03*
X1365000Y1027500D03*
X1370728Y990728D03*
X1370000Y982500D03*
X1346000Y1064500D03*
X1333500Y1051500D03*
X1351500Y1041500D03*
X1332500Y1020000D03*
X1320000Y1065000D03*
X1324400Y1019000D03*
X1323800Y990400D03*
X1321800Y998200D03*
X1314000Y986000D03*
X1285972Y1042928D03*
X1288000Y986000D03*
X1335500Y1064500D03*
X1348000Y1032000D03*
X1354000Y1035000D03*
X1470000Y1015000D03*
G54D28*
X1327500Y1035000D03*
Y1045000D03*
G54D27*
X1310700Y1033800D03*
X1290700D03*
X1300700D03*
G54D24*
X1416500Y990000D03*
G54D25*
Y979500D03*
G54D22*
X1463000Y1044500D03*
G54D21*
X1416500Y1051250D03*
G54D23*
Y999750D03*
%LPD*%
G75*
G54D10*
X1215000Y958000D03*
Y1087000D03*
X1555000Y958000D03*
Y1087000D03*
G54D11*
X1229900Y969100D03*
X1249900D03*
X1239900D03*
X1302100Y1054900D03*
X1312100Y1044900D03*
Y1064900D03*
G54D12*
X1205000Y973000D03*
Y1000000D03*
Y990000D03*
Y980000D03*
X1214759Y1020119D03*
X1205000Y1020000D03*
Y1010000D03*
X1214759Y1040119D03*
Y1030119D03*
X1205000Y1050000D03*
Y1040000D03*
Y1030000D03*
Y1070000D03*
Y1060000D03*
X1250000Y950000D03*
X1240000D03*
X1232000D03*
X1247500Y987500D03*
X1248900Y982000D03*
X1250000Y1095000D03*
X1240000D03*
X1230000D03*
X1270000Y950000D03*
X1260000D03*
X1262900Y964900D03*
X1262500Y982500D03*
X1278300Y995600D03*
X1278200Y989600D03*
X1266500Y1018500D03*
X1257500D03*
X1270000Y1095000D03*
X1260000D03*
X1300000Y950000D03*
X1290000D03*
X1280000D03*
X1288000Y970000D03*
Y986000D03*
X1285972Y1042928D03*
X1292300Y1057300D03*
X1292200Y1062800D03*
X1300000Y1095000D03*
X1290000D03*
X1280000D03*
X1320000Y950000D03*
X1310000D03*
X1314000Y970000D03*
Y986000D03*
X1321800Y998200D03*
X1323800Y990400D03*
X1324400Y1019000D03*
X1320000Y1065000D03*
Y1095000D03*
X1310000D03*
X1350000Y950000D03*
X1340000D03*
X1330000D03*
X1332500Y977500D03*
X1352900Y991500D03*
X1352500Y987500D03*
X1337500Y1007500D03*
X1342500Y1010000D03*
X1332500Y1020000D03*
X1331900Y1008000D03*
X1351500Y1041500D03*
X1333500Y1051500D03*
X1348000Y1032000D03*
X1354000Y1035000D03*
X1335500Y1064500D03*
X1346000D03*
X1350000Y1095000D03*
X1340000D03*
X1330000D03*
X1370000Y950000D03*
X1360000D03*
X1376000Y972500D03*
X1356210Y962321D03*
X1366210D03*
X1376210D03*
X1363000Y990000D03*
X1358500Y996500D03*
X1370000Y982500D03*
X1370728Y990728D03*
X1365000Y1027500D03*
X1370000Y1032500D03*
X1372000Y1040500D03*
X1377500Y1040000D03*
X1378400Y1050900D03*
X1359750Y1068450D03*
Y1063250D03*
X1370000Y1095000D03*
X1360000D03*
X1400000Y950000D03*
X1390000D03*
X1380000D03*
X1396100Y972376D03*
X1386100D03*
X1396100Y962376D03*
X1386100D03*
X1396000Y1000000D03*
X1396063Y992660D03*
X1396100Y982376D03*
X1386100D03*
X1380500Y998000D03*
X1395500Y1027000D03*
Y1017500D03*
X1390583Y1022459D03*
X1400583D03*
X1382869Y1016731D03*
X1390250Y1060350D03*
X1397500Y1065000D03*
X1385250Y1060350D03*
X1400000Y1095000D03*
X1390000D03*
X1380000D03*
X1420000Y950000D03*
X1410000D03*
X1424713Y972208D03*
X1424685Y962001D03*
X1414685D03*
X1406100Y972376D03*
Y962376D03*
X1406000Y1000000D03*
X1406063Y992660D03*
X1406100Y982376D03*
X1424500Y990000D03*
X1422500Y1010000D03*
Y1015000D03*
X1407000Y1028000D03*
X1422500Y1040000D03*
X1410000Y1047500D03*
X1415000Y1065000D03*
X1422500Y1060000D03*
Y1065000D03*
X1408800Y1070000D03*
X1412500Y1057500D03*
X1420382Y1081002D03*
Y1088002D03*
X1420000Y1095000D03*
X1410000D03*
X1450000Y950000D03*
X1440000D03*
X1430000D03*
X1444713Y972208D03*
X1434713D03*
X1434685Y962001D03*
X1444575Y962056D03*
X1441700Y979800D03*
X1436600Y997600D03*
X1441100Y1005000D03*
X1442000Y1031000D03*
X1434900Y1055000D03*
X1450382Y1081002D03*
X1440382D03*
X1430382D03*
X1450382Y1088002D03*
X1440382D03*
X1430382D03*
X1450000Y1095000D03*
X1440000D03*
X1430000D03*
X1470000Y950000D03*
X1460000D03*
X1472685Y962001D03*
X1454575Y962056D03*
X1464575D03*
X1457500Y990000D03*
Y995000D03*
X1474000Y979800D03*
X1472500Y995000D03*
X1467300Y985000D03*
X1457500D03*
X1470000Y1015000D03*
X1457500D03*
X1472500Y1005000D03*
X1455500Y1040000D03*
Y1045000D03*
X1467500Y1031500D03*
X1470000Y1035000D03*
X1455500D03*
Y1050000D03*
X1472500Y1030000D03*
X1466900Y1065000D03*
X1456200D03*
X1472500Y1055000D03*
X1470382Y1081002D03*
X1460382D03*
X1470382Y1088002D03*
X1460382D03*
X1470000Y1095000D03*
X1460000D03*
X1500000Y950000D03*
X1490000D03*
X1480000D03*
X1492685Y962001D03*
X1482685D03*
X1502575Y962056D03*
X1487500Y990000D03*
Y1000000D03*
Y980000D03*
Y1020000D03*
Y1010000D03*
Y1050000D03*
Y1040000D03*
Y1030000D03*
Y1070000D03*
Y1060000D03*
X1500000Y1095000D03*
X1490000D03*
X1480000D03*
X1520000Y950000D03*
X1510000D03*
X1512575Y962056D03*
X1522575D03*
X1520000Y1095000D03*
X1510000D03*
X1540000Y950000D03*
X1530000D03*
X1547469Y999843D03*
Y1019843D03*
Y1009843D03*
Y1039843D03*
Y1029843D03*
X1540000Y1095000D03*
X1530000D03*
X1565000Y970000D03*
X1556969Y999843D03*
X1565000Y1000000D03*
Y990000D03*
Y980000D03*
X1556969Y1019843D03*
Y1009843D03*
X1565000Y1020000D03*
Y1010000D03*
X1556969Y1039843D03*
Y1029843D03*
X1565000Y1050000D03*
Y1040000D03*
Y1030000D03*
Y1070000D03*
Y1060000D03*
G54D13*
X1230000Y995000D03*
Y982500D03*
Y1007500D03*
X1240000Y995000D03*
Y982500D03*
Y1007500D03*
X1267500D03*
X1257500D03*
X1297500Y1075000D03*
X1287500D03*
X1327500Y1035000D03*
Y1045000D03*
X1325000Y1075000D03*
X1315000D03*
X1350000D03*
X1340000D03*
X1365000D03*
X1375000D03*
X1390000D03*
X1400000D03*
X1505000Y977500D03*
X1495000D03*
X1505000Y997500D03*
X1495000D03*
X1505000Y987500D03*
X1495000D03*
X1505000Y1027500D03*
X1495000D03*
X1505000Y1017500D03*
X1495000D03*
X1505000Y1007500D03*
X1495000D03*
X1505000Y1047500D03*
X1495000D03*
X1505000Y1037500D03*
X1495000D03*
X1505000Y1067500D03*
X1495000D03*
X1505000Y1057500D03*
X1495000D03*
X1525000Y977500D03*
Y997500D03*
Y987500D03*
Y1027500D03*
Y1017500D03*
Y1007500D03*
Y1047500D03*
Y1037500D03*
Y1067500D03*
Y1057500D03*
X1535000Y977500D03*
Y997500D03*
Y987500D03*
Y1027500D03*
Y1017500D03*
Y1007500D03*
Y1047500D03*
Y1037500D03*
Y1067500D03*
Y1057500D03*
G54D14*
X1231102Y1055965D03*
X1268504D03*
G54D15*
X1249803Y1026437D03*
X1239961D03*
X1259646D03*
G54D16*
X1300700Y976300D03*
G54D17*
Y1033800D03*
X1290700D03*
X1310700D03*
G54D18*
X1368500Y1015000D03*
X1416700Y1021500D03*
X1463100Y1021200D03*
G54D19*
G01X1275877Y987277D02*
X1278200Y989600D01*
G01X1275877Y991923D02*
X1278200Y989600D01*
G01D02*
X1280523Y991923D01*
G01X1278200Y989600D02*
X1280523Y987277D01*
G01X1283649Y1040605D02*
X1285972Y1042928D01*
G01D02*
X1288295Y1045251D01*
G01X1283649D02*
X1285972Y1042928D01*
G01D02*
X1288295Y1040605D01*
G01X1290700Y1028848D02*
Y1033800D01*
G01D02*
Y1038752D01*
G01X1285748Y1033800D02*
X1290700D01*
G01D02*
X1295652D01*
G01X1289877Y1060477D02*
X1292200Y1062800D01*
G01D02*
X1294523Y1065123D01*
G01X1289877D02*
X1292200Y1062800D01*
G01D02*
X1294523Y1060477D01*
G01X1350177Y985177D02*
X1352500Y987500D01*
G01X1350177Y989823D02*
X1352500Y987500D01*
G01D02*
X1354823Y985177D01*
G01X1368405Y988405D02*
X1370728Y990728D01*
G01D02*
X1373051Y993051D01*
G01X1368405D02*
X1370728Y990728D01*
G01D02*
X1373051Y988405D01*
G01X1362677Y1025177D02*
X1365000Y1027500D01*
G01D02*
X1367323Y1025177D01*
G01X1365000Y1027500D02*
X1367323Y1029823D01*
G01X1362677D02*
X1365000Y1027500D01*
G01X1380546Y1014408D02*
X1382869Y1016731D01*
G01D02*
X1385192Y1019054D01*
G01X1380546D02*
X1382869Y1016731D01*
G01D02*
X1385192Y1014408D01*
G01X1410177Y1055177D02*
X1412500Y1057500D01*
G01D02*
X1414823Y1059823D01*
G01X1410177D02*
X1412500Y1057500D01*
G01D02*
X1414823Y1055177D01*
G01X1485177Y977677D02*
X1487500Y980000D01*
G01D02*
X1489823Y982323D01*
G01X1485177D02*
X1487500Y980000D01*
G01D02*
X1489823Y977677D01*
G01X1485177Y997677D02*
X1487500Y1000000D01*
G01D02*
X1489823Y1002323D01*
G01X1485177D02*
X1487500Y1000000D01*
G01D02*
X1489823Y997677D01*
G01X1485177Y987677D02*
X1487500Y990000D01*
G01D02*
X1489823Y992323D01*
G01X1485177D02*
X1487500Y990000D01*
G01D02*
X1489823Y987677D01*
G01X1485177Y1007677D02*
X1487500Y1010000D01*
G01D02*
X1489823Y1012323D01*
G01X1485177D02*
X1487500Y1010000D01*
G01D02*
X1489823Y1007677D01*
G01X1485177Y1017677D02*
X1487500Y1020000D01*
G01D02*
X1489823Y1022323D01*
G01X1485177D02*
X1487500Y1020000D01*
G01D02*
X1489823Y1017677D01*
G01X1485177Y1027677D02*
X1487500Y1030000D01*
G01D02*
X1489823Y1032323D01*
G01X1485177D02*
X1487500Y1030000D01*
G01D02*
X1489823Y1027677D01*
G01X1485177Y1037677D02*
X1487500Y1040000D01*
G01D02*
X1489823Y1042323D01*
G01X1485177D02*
X1487500Y1040000D01*
G01D02*
X1489823Y1037677D01*
G01X1485177Y1047677D02*
X1487500Y1050000D01*
G01D02*
X1489823Y1052323D01*
G01X1485177D02*
X1487500Y1050000D01*
G01D02*
X1489823Y1047677D01*
G01X1485177Y1057677D02*
X1487500Y1060000D01*
G01D02*
X1489823Y1062323D01*
G01X1485177D02*
X1487500Y1060000D01*
G01D02*
X1489823Y1057677D01*
G01X1485177Y1067677D02*
X1487500Y1070000D01*
G01D02*
X1489823Y1072323D01*
G01X1485177D02*
X1487500Y1070000D01*
G01D02*
X1489823Y1067677D01*
M02*
