G04 ================== begin FILE IDENTIFICATION RECORD ==================*
G04 Layout Name:  pmtpulser.brd*
G04 Film Name:    GND*
G04 File Format:  Gerber RS274X*
G04 File Origin:  Cadence Allegro 16.6-P004*
G04 Origin Date:  Fri Feb 10 18:08:51 2017*
G04 *
G04 Layer:  ETCH/GND*
G04 Layer:  PIN/GND*
G04 Layer:  VIA CLASS/GND*
G04 *
G04 Offset:    (0.00 0.00)*
G04 Mirror:    No*
G04 Mode:      Positive*
G04 Rotation:  0*
G04 FullContactRelief:  No*
G04 UndefLineWidth:     0.00*
G04 ================== end FILE IDENTIFICATION RECORD ====================*
%FSLAX25Y25*MOIN*%
%IR0*IPPOS*OFA0.00000B0.00000*MIA0B0*SFA1.00000B1.00000*%
%ADD18C,.042*%
%ADD11C,.06*%
%ADD12C,.034*%
%ADD13C,.055*%
%ADD17C,.065*%
%ADD15C,.05937*%
%ADD16C,.15*%
%ADD14C,.11024*%
%ADD10C,.186*%
%ADD19C,.01*%
%ADD23C,.09004*%
%ADD20C,.06404*%
%ADD24C,.08504*%
%ADD28C,.09504*%
%ADD26C,.0894*%
%ADD27R,.07X.06*%
%ADD31R,.07X.07*%
%ADD29R,.06X.09*%
%ADD32R,.07X.055*%
%ADD22R,.06X.085*%
%ADD21R,.07X.085*%
%ADD25C,.21604*%
%ADD30C,.14028*%
%ADD33C,.18604*%
G75*
%LPD*%
G75*
G36*
G01X1571000Y1104000D02*
Y941500D01*
X1197000D01*
Y1104000D01*
X1571000D01*
G37*
%LPC*%
G75*
G36*
G01X1466000Y981512D02*
Y976500D01*
X1460000D01*
Y982507D01*
G03X1459311Y982784I-400J0D01*
G02X1460133Y985659I-2311J2216D01*
G01X1460167Y985500D01*
X1464133D01*
X1464167Y985659D01*
G02X1466500Y981900I3133J-659D01*
G03X1466000Y981512I-100J-387D01*
G37*
G36*
G01X1413049Y1048478D02*
G02X1412311Y1049716I-3049J-978D01*
G03X1413000Y1049993I289J277D01*
G01Y1053500D01*
X1420000D01*
Y1049000D01*
X1413430D01*
G03X1413049Y1048478I0J-400D01*
G37*
G36*
G01X1466455Y1061829D02*
G03X1466000Y1061433I-55J-396D01*
G01Y1053000D01*
X1460000D01*
Y1063000D01*
X1463673D01*
G03X1464031Y1063578I0J400D01*
G02X1466455Y1061829I2869J1422D01*
G37*
G36*
G01X1388028Y1058045D02*
G03X1387472I-278J-288D01*
G02Y1062655I-2222J2305D01*
G03X1388028I278J288D01*
G02Y1058045I2222J-2305D01*
G37*
G36*
G01X1361966Y1066139D02*
G03Y1065561I277J-289D01*
G02X1357534I-2216J-2311D01*
G03Y1066139I-277J289D01*
G02X1361966I2216J2311D01*
G37*
G36*
G01X1466000Y1034930D02*
G03X1466522Y1034549I400J0D01*
G02X1467206Y1034688I976J-3050D01*
G03X1467561Y1035166I-37J398D01*
G02X1473145Y1033733I3139J634D01*
G03X1473345Y1033089I305J-258D01*
G02X1469644Y1028553I-845J-3089D01*
G03X1469088Y1028720I-357J-180D01*
G02X1465499Y1029000I-1589J2780D01*
G01X1460000D01*
Y1036000D01*
X1466000D01*
Y1034930D01*
G37*
G36*
G01X1420000Y1006500D02*
X1376000D01*
X1372106Y1010394D01*
G03X1371454Y1010265I-283J-283D01*
G02X1365304Y1011312I-2954J1236D01*
G01X1365292Y1011500D01*
X1364000D01*
Y1018500D01*
X1367649D01*
X1367671Y1018505D01*
G02X1369329I829J-3505D01*
G01X1369351Y1018500D01*
X1371000D01*
X1376000Y1013500D01*
X1380642D01*
G03X1380889Y1014214I0J400D01*
G02X1384849I1980J2517D01*
G03X1385096Y1013500I247J-314D01*
G01X1420000D01*
Y1006500D01*
G37*
G36*
G01X1466000Y1002000D02*
X1460000D01*
Y1012074D01*
G03X1459367Y1012399I-400J0D01*
G02X1455284Y1017311I-1866J2602D01*
G03X1455007Y1018000I-277J289D01*
G01X1420000D01*
Y1017500D01*
X1413000D01*
Y1017894D01*
G02Y1025106I0J3606D01*
G01Y1032500D01*
X1420000D01*
Y1025000D01*
X1467500D01*
Y1025072D01*
G02X1469483Y1018884I-500J-3572D01*
G03X1469785Y1018195I275J-290D01*
G02X1468308Y1017718I216J-3195D01*
G03X1468139Y1018078I-105J170D01*
G02X1467871Y1018000I-1141J3421D01*
G01X1464754D01*
G02X1461488Y1017979I-1654J3200D01*
G01X1461446Y1018000D01*
X1459993D01*
G03X1459716Y1017311I0J-400D01*
G02X1460657Y1014467I-2216J-2311D01*
G03X1461052Y1014000I394J-67D01*
G01X1466000D01*
Y1002000D01*
G37*
G54D23*
X1302100Y1054900D03*
X1229900Y969100D03*
X1249900D03*
X1239900D03*
X1312100Y1044900D03*
Y1064900D03*
G54D20*
X1455500Y1035000D03*
X1372000Y1040500D03*
X1379000Y1040000D03*
X1293000Y1057000D03*
X1348000Y1032000D03*
X1353000Y1038000D03*
X1314000Y981000D03*
X1287000D03*
X1331700Y1009100D03*
X1401000Y1023000D03*
X1487271Y993298D03*
X1487400Y1022200D03*
Y1042100D03*
X1487700Y1061500D03*
X1363000Y990000D03*
X1230000Y950000D03*
X1205000Y980000D03*
X1376000Y972500D03*
X1547469Y1029843D03*
Y1039843D03*
Y1009843D03*
Y1019843D03*
Y999843D03*
X1556969Y1029843D03*
Y1039843D03*
Y1009843D03*
Y1019843D03*
Y999843D03*
X1460382Y1081002D03*
X1470382D03*
X1430382D03*
X1440382D03*
X1450382D03*
X1420382D03*
X1460382Y1088002D03*
X1470382D03*
X1430382D03*
X1440382D03*
X1450382D03*
X1420382D03*
X1214759Y1030119D03*
Y1040119D03*
Y1020119D03*
X1333500Y1051500D03*
X1335500Y1064500D03*
X1346000D03*
X1257500Y1018500D03*
X1424685Y962001D03*
X1434685D03*
X1464575Y962056D03*
X1454575D03*
X1444575D03*
X1414685Y962001D03*
X1512575Y962056D03*
X1502575D03*
X1472685Y962001D03*
X1482685D03*
X1492685D03*
X1522575Y962056D03*
X1415000Y1065000D03*
X1434713Y972208D03*
X1444713D03*
X1424713D03*
X1406000Y1000000D03*
X1396000D03*
X1266500Y1018500D03*
X1406063Y992660D03*
X1396063D03*
X1376210Y962321D03*
X1366210D03*
X1356210D03*
X1386100Y962376D03*
X1396100D03*
X1406100D03*
X1386100Y972376D03*
X1396100D03*
X1406100D03*
X1386100Y982376D03*
X1396100D03*
X1406100D03*
X1442000Y1031000D03*
X1205000Y1030000D03*
X1565000Y990000D03*
X1540000Y1095000D03*
X1530000D03*
X1520000D03*
X1510000D03*
X1500000D03*
X1490000D03*
X1480000D03*
X1470000D03*
X1460000D03*
X1390000D03*
X1360000D03*
X1260000D03*
X1340000D03*
X1330000D03*
X1320000D03*
X1310000D03*
X1400000D03*
X1290000D03*
X1280000D03*
X1270000D03*
X1250000D03*
X1420000D03*
X1410000D03*
X1300000D03*
X1490000Y950000D03*
X1380000Y1095000D03*
X1370000D03*
X1430000D03*
X1410000Y950000D03*
X1450000Y1095000D03*
X1400000Y950000D03*
X1440000Y1095000D03*
X1390000Y950000D03*
X1380000D03*
X1370000D03*
X1360000D03*
X1350000Y1095000D03*
X1240000D03*
X1230000D03*
X1300000Y950000D03*
X1540000D03*
X1290000D03*
X1420000D03*
X1510000D03*
X1430000D03*
X1280000D03*
X1530000D03*
X1450000D03*
X1270000D03*
X1500000D03*
X1205000Y1070000D03*
X1330000Y950000D03*
X1565000Y970000D03*
X1205000Y990000D03*
X1470000Y950000D03*
X1205000Y1050000D03*
X1565000Y1030000D03*
X1205000Y1040000D03*
X1565000Y1010000D03*
X1205000Y1020000D03*
X1520000Y950000D03*
X1310000D03*
X1440000D03*
X1260000D03*
X1350000D03*
X1340000D03*
X1565000Y1070000D03*
Y1060000D03*
X1460000Y950000D03*
X1565000Y1050000D03*
X1205000Y1060000D03*
X1565000Y1020000D03*
X1250000Y950000D03*
X1565000Y1000000D03*
X1205000Y1010000D03*
X1565000Y1040000D03*
X1205000Y1000000D03*
X1320000Y950000D03*
X1434900Y1055000D03*
X1474000Y979800D03*
X1456200Y1065000D03*
X1436600Y997600D03*
X1441100Y1005000D03*
X1408800Y1070000D03*
X1321800Y998200D03*
X1262900Y964900D03*
X1480000Y950000D03*
X1565000Y980000D03*
X1285972Y1042928D03*
X1412500Y1057500D03*
X1472500Y1055000D03*
X1324400Y1019000D03*
X1378400Y1050900D03*
X1472500Y1005000D03*
X1397500Y1065000D03*
X1472500Y995000D03*
X1370728Y990728D03*
X1380500Y998000D03*
X1262500Y982500D03*
X1332500Y1020000D03*
X1441700Y979800D03*
X1370000Y982500D03*
X1205000Y970000D03*
X1240000Y950000D03*
X1325000Y990000D03*
X1248600Y991400D03*
Y984300D03*
X1278300Y995600D03*
X1333100Y982902D03*
X1351400Y993000D03*
X1356800Y986600D03*
X1358500Y996500D03*
X1371526Y1031300D03*
X1365200Y1024400D03*
X1487501Y1071850D03*
X1487600Y1051700D03*
X1487400Y1032100D03*
X1487100Y1012200D03*
X1487400Y982200D03*
X1487200Y1002100D03*
X1407000Y1028000D03*
X1391000Y1023000D03*
X1396000Y1018000D03*
Y1028000D03*
X1282200Y989500D03*
X1287000Y970000D03*
X1314000D03*
X1343000Y1012000D03*
X1338400Y1006100D03*
X1293000Y1065000D03*
X1455500Y1050000D03*
G54D24*
X1495000Y1027500D03*
Y1047500D03*
Y1067500D03*
X1240000Y982500D03*
X1327500Y1045000D03*
X1365000Y1075000D03*
X1400000D03*
X1535000Y977500D03*
X1327500Y1035000D03*
X1230000Y995000D03*
Y982500D03*
Y1007500D03*
X1240000D03*
X1267500D03*
X1257500D03*
X1297500Y1075000D03*
X1287500D03*
X1325000D03*
X1315000D03*
X1350000D03*
X1340000D03*
X1375000D03*
X1390000D03*
X1505000Y977500D03*
Y997500D03*
Y987500D03*
Y1027500D03*
Y1017500D03*
Y1007500D03*
Y1047500D03*
Y1037500D03*
Y1067500D03*
Y1057500D03*
X1525000Y977500D03*
Y997500D03*
Y987500D03*
Y1027500D03*
Y1017500D03*
Y1007500D03*
Y1047500D03*
Y1037500D03*
Y1067500D03*
Y1057500D03*
X1535000Y997500D03*
Y987500D03*
Y1027500D03*
Y1017500D03*
Y1007500D03*
Y1047500D03*
Y1037500D03*
Y1067500D03*
Y1057500D03*
X1240000Y995000D03*
X1495000Y1057500D03*
Y1037500D03*
Y1017500D03*
Y987500D03*
Y977500D03*
Y997500D03*
Y1007500D03*
G54D28*
X1290700Y1033800D03*
X1300700D03*
X1310700D03*
G54D26*
X1249803Y1026437D03*
X1259646D03*
X1239961D03*
G54D27*
X1416500Y990000D03*
G54D31*
Y979500D03*
G54D29*
X1463000Y1044500D03*
G54D32*
X1416500Y999750D03*
G54D22*
X1463000Y993750D03*
G54D21*
X1416500Y1040750D03*
G54D25*
X1215000Y958000D03*
X1555000Y1087000D03*
X1215000D03*
X1555000Y958000D03*
G54D30*
X1231102Y1055965D03*
X1268504D03*
G54D33*
X1300700Y976300D03*
%LPD*%
G75*
G54D10*
X1215000Y958000D03*
Y1087000D03*
X1555000Y958000D03*
Y1087000D03*
G54D11*
X1229900Y969100D03*
X1249900D03*
X1239900D03*
X1302100Y1054900D03*
X1312100Y1044900D03*
Y1064900D03*
G54D12*
X1205000Y970000D03*
Y980000D03*
Y990000D03*
Y1000000D03*
X1214759Y1020119D03*
X1205000Y1020000D03*
Y1010000D03*
X1214759Y1030119D03*
Y1040119D03*
X1205000Y1030000D03*
Y1050000D03*
Y1040000D03*
Y1070000D03*
Y1060000D03*
X1240000Y950000D03*
X1230000D03*
X1250000D03*
X1248600Y984300D03*
Y991400D03*
X1250000Y1095000D03*
X1240000D03*
X1230000D03*
X1270000Y950000D03*
X1260000D03*
X1262900Y964900D03*
X1278300Y995600D03*
X1262500Y982500D03*
X1257500Y1018500D03*
X1266500D03*
X1260000Y1095000D03*
X1270000D03*
X1300000Y950000D03*
X1290000D03*
X1280000D03*
X1287000Y970000D03*
Y981000D03*
X1282200Y989500D03*
X1285972Y1042928D03*
X1293000Y1057000D03*
Y1065000D03*
X1290000Y1095000D03*
X1280000D03*
X1300000D03*
X1310000Y950000D03*
X1320000D03*
X1314000Y970000D03*
Y981000D03*
X1321800Y998200D03*
X1325000Y990000D03*
X1324400Y1019000D03*
X1320000Y1095000D03*
X1310000D03*
X1330000Y950000D03*
X1350000D03*
X1340000D03*
X1351400Y993000D03*
X1333100Y982902D03*
X1338400Y1006100D03*
X1343000Y1012000D03*
X1332500Y1020000D03*
X1331700Y1009100D03*
X1333500Y1051500D03*
X1353000Y1038000D03*
X1348000Y1032000D03*
X1335500Y1064500D03*
X1346000D03*
X1340000Y1095000D03*
X1330000D03*
X1350000D03*
X1370000Y950000D03*
X1360000D03*
X1376000Y972500D03*
X1376210Y962321D03*
X1366210D03*
X1356210D03*
X1363000Y990000D03*
X1358500Y996500D03*
X1370000Y982500D03*
X1356800Y986600D03*
X1370728Y990728D03*
X1365200Y1024400D03*
X1371526Y1031300D03*
X1372000Y1040500D03*
X1378400Y1050900D03*
X1379000Y1040000D03*
X1359750Y1068450D03*
Y1063250D03*
X1360000Y1095000D03*
X1370000D03*
X1400000Y950000D03*
X1390000D03*
X1380000D03*
X1386100Y962376D03*
X1396100D03*
X1386100Y972376D03*
X1396100D03*
X1396000Y1000000D03*
X1396063Y992660D03*
X1386100Y982376D03*
X1396100D03*
X1380500Y998000D03*
X1396000Y1028000D03*
Y1018000D03*
X1401000Y1023000D03*
X1391000D03*
X1382869Y1016731D03*
X1385250Y1060350D03*
X1390250D03*
X1397500Y1065000D03*
X1390000Y1095000D03*
X1400000D03*
X1380000D03*
X1410000Y950000D03*
X1420000D03*
X1424685Y962001D03*
X1414685D03*
X1424713Y972208D03*
X1406100Y962376D03*
Y972376D03*
X1406000Y1000000D03*
X1406063Y992660D03*
X1406100Y982376D03*
X1407000Y1028000D03*
X1410000Y1047500D03*
X1415000Y1065000D03*
X1408800Y1070000D03*
X1412500Y1057500D03*
X1420382Y1081002D03*
Y1088002D03*
X1420000Y1095000D03*
X1410000D03*
X1430000Y950000D03*
X1450000D03*
X1440000D03*
X1434685Y962001D03*
X1454575Y962056D03*
X1444575D03*
X1434713Y972208D03*
X1444713D03*
X1441700Y979800D03*
X1436600Y997600D03*
X1441100Y1005000D03*
X1442000Y1031000D03*
X1434900Y1055000D03*
X1430382Y1081002D03*
X1440382D03*
X1450382D03*
X1430382Y1088002D03*
X1440382D03*
X1450382D03*
X1430000Y1095000D03*
X1450000D03*
X1440000D03*
X1470000Y950000D03*
X1460000D03*
X1464575Y962056D03*
X1472685Y962001D03*
X1474000Y979800D03*
X1472500Y995000D03*
X1457000Y985000D03*
X1467300D03*
X1470000Y1015000D03*
X1457500D03*
X1472500Y1005000D03*
X1467500Y1031500D03*
X1455500Y1035000D03*
X1470700Y1035800D03*
X1455500Y1050000D03*
X1472500Y1030000D03*
X1456200Y1065000D03*
X1466900D03*
X1472500Y1055000D03*
X1460382Y1081002D03*
X1470382D03*
X1460382Y1088002D03*
X1470382D03*
X1470000Y1095000D03*
X1460000D03*
X1490000Y950000D03*
X1500000D03*
X1480000D03*
X1502575Y962056D03*
X1482685Y962001D03*
X1492685D03*
X1487271Y993298D03*
X1487400Y982200D03*
X1487200Y1002100D03*
X1487400Y1022200D03*
X1487100Y1012200D03*
X1487400Y1042100D03*
Y1032100D03*
X1487600Y1051700D03*
X1487700Y1061500D03*
X1487501Y1071850D03*
X1500000Y1095000D03*
X1490000D03*
X1480000D03*
X1510000Y950000D03*
X1530000D03*
X1520000D03*
X1512575Y962056D03*
X1522575D03*
X1530000Y1095000D03*
X1520000D03*
X1510000D03*
X1540000Y950000D03*
X1547469Y999843D03*
Y1009843D03*
Y1019843D03*
Y1029843D03*
Y1039843D03*
X1540000Y1095000D03*
X1565000Y970000D03*
X1556969Y999843D03*
X1565000Y990000D03*
Y1000000D03*
Y980000D03*
X1556969Y1009843D03*
Y1019843D03*
X1565000Y1010000D03*
Y1020000D03*
X1556969Y1029843D03*
Y1039843D03*
X1565000Y1030000D03*
Y1050000D03*
Y1040000D03*
Y1070000D03*
Y1060000D03*
G54D13*
X1230000Y995000D03*
Y982500D03*
Y1007500D03*
X1240000Y995000D03*
Y982500D03*
Y1007500D03*
X1267500D03*
X1257500D03*
X1297500Y1075000D03*
X1287500D03*
X1327500Y1035000D03*
Y1045000D03*
X1325000Y1075000D03*
X1315000D03*
X1350000D03*
X1340000D03*
X1365000D03*
X1375000D03*
X1390000D03*
X1400000D03*
X1505000Y977500D03*
X1495000D03*
X1505000Y997500D03*
X1495000D03*
X1505000Y987500D03*
X1495000D03*
X1505000Y1027500D03*
X1495000D03*
X1505000Y1017500D03*
X1495000D03*
X1505000Y1007500D03*
X1495000D03*
X1505000Y1047500D03*
X1495000D03*
X1505000Y1037500D03*
X1495000D03*
X1505000Y1067500D03*
X1495000D03*
X1505000Y1057500D03*
X1495000D03*
X1525000Y977500D03*
Y997500D03*
Y987500D03*
Y1027500D03*
Y1017500D03*
Y1007500D03*
Y1047500D03*
Y1037500D03*
Y1067500D03*
Y1057500D03*
X1535000Y977500D03*
Y997500D03*
Y987500D03*
Y1027500D03*
Y1017500D03*
Y1007500D03*
Y1047500D03*
Y1037500D03*
Y1067500D03*
Y1057500D03*
G54D14*
X1231102Y1055965D03*
X1268504D03*
G54D15*
X1249803Y1026437D03*
X1239961D03*
X1259646D03*
G54D16*
X1300700Y976300D03*
G54D17*
Y1033800D03*
X1290700D03*
X1310700D03*
G54D18*
X1368500Y1015000D03*
X1416700Y1021500D03*
X1463100Y1021200D03*
G54D19*
G01X1202394Y967394D02*
X1205000Y970000D01*
G01X1202394Y972606D02*
X1205000Y970000D01*
G01X1202394Y977394D02*
X1205000Y980000D01*
G01X1202394Y982606D02*
X1205000Y980000D01*
G01X1202394Y987394D02*
X1205000Y990000D01*
G01X1202394Y992606D02*
X1205000Y990000D01*
G01X1202394Y997394D02*
X1205000Y1000000D01*
G01X1202394Y1017394D02*
X1205000Y1020000D01*
G01X1202394Y1022606D02*
X1205000Y1020000D01*
G01X1202394Y1007394D02*
X1205000Y1010000D01*
G01X1202394Y1012606D02*
X1205000Y1010000D01*
G01X1202394Y1002606D02*
X1205000Y1000000D01*
G01X1202394Y1027394D02*
X1205000Y1030000D01*
G01X1202394Y1032606D02*
X1205000Y1030000D01*
G01X1202394Y1047394D02*
X1205000Y1050000D01*
G01X1202394Y1037394D02*
X1205000Y1040000D01*
G01X1202394Y1042606D02*
X1205000Y1040000D01*
G01X1202394Y1067394D02*
X1205000Y1070000D01*
G01X1202394Y1072606D02*
X1205000Y1070000D01*
G01X1202394Y1052606D02*
X1205000Y1050000D01*
G01X1202394Y1057394D02*
X1205000Y1060000D01*
G01X1202394Y1062606D02*
X1205000Y1060000D01*
G01X1215000Y946998D02*
Y958000D01*
G01X1227394Y947394D02*
X1230000Y950000D01*
G01X1225198Y969100D02*
X1229900D01*
G01X1205000Y970000D02*
X1207606Y972606D01*
G01X1205000Y970000D02*
X1207606Y967394D01*
G01X1215000Y958000D02*
Y969002D01*
G01X1203998Y958000D02*
X1215000D01*
G01D02*
X1226002D01*
G01X1227394Y952606D02*
X1230000Y950000D01*
G01X1225548Y982500D02*
X1230000D01*
G01X1205000Y980000D02*
X1207606Y982606D01*
G01X1205000Y980000D02*
X1207606Y977394D01*
G01X1205000Y990000D02*
X1207606Y992606D01*
G01X1205000Y990000D02*
X1207606Y987394D01*
G01X1205000Y1000000D02*
X1207606Y1002606D01*
G01X1205000Y1000000D02*
X1207606Y997394D01*
G01X1212153Y1017513D02*
X1214759Y1020119D01*
G01D02*
X1217365Y1022725D01*
G01X1212153D02*
X1214759Y1020119D01*
G01D02*
X1217365Y1017513D01*
G01X1205000Y1030000D02*
X1207606Y1027394D01*
G01X1205000Y1020000D02*
X1207606Y1022606D01*
G01X1205000Y1020000D02*
X1207606Y1017394D01*
G01X1205000Y1010000D02*
X1207606Y1012606D01*
G01X1205000Y1010000D02*
X1207606Y1007394D01*
G01X1212153Y1027513D02*
X1214759Y1030119D01*
G01D02*
X1217365Y1032725D01*
G01X1212153D02*
X1214759Y1030119D01*
G01D02*
X1217365Y1027513D01*
G01X1212153Y1037513D02*
X1214759Y1040119D01*
G01D02*
X1217365Y1042725D01*
G01X1212153D02*
X1214759Y1040119D01*
G01D02*
X1217365Y1037513D01*
G01X1205000Y1030000D02*
X1207606Y1032606D01*
G01X1205000Y1050000D02*
X1207606Y1052606D01*
G01X1205000Y1050000D02*
X1207606Y1047394D01*
G01X1205000Y1040000D02*
X1207606Y1042606D01*
G01X1205000Y1040000D02*
X1207606Y1037394D01*
G01X1215000Y1075998D02*
Y1087000D01*
G01X1205000Y1070000D02*
X1207606Y1072606D01*
G01X1205000Y1070000D02*
X1207606Y1067394D01*
G01X1205000Y1060000D02*
X1207606Y1062606D01*
G01X1205000Y1060000D02*
X1207606Y1057394D01*
G01X1215000Y1087000D02*
Y1098002D01*
G01X1203998Y1087000D02*
X1215000D01*
G01D02*
X1226002D01*
G01X1227394Y1092394D02*
X1230000Y1095000D01*
G01X1227394Y1097606D02*
X1230000Y1095000D01*
G01X1237394Y947394D02*
X1240000Y950000D01*
G01D02*
X1242606Y952606D01*
G01X1237394D02*
X1240000Y950000D01*
G01D02*
X1242606Y947394D01*
G01X1247394D02*
X1250000Y950000D01*
G01D02*
X1252606Y952606D01*
G01X1247394D02*
X1250000Y950000D01*
G01D02*
X1252606Y947394D01*
G01X1230000Y950000D02*
X1232606Y952606D01*
G01X1230000Y950000D02*
X1232606Y947394D01*
G01X1249900Y964398D02*
Y969100D01*
G01D02*
Y973802D01*
G01X1245198Y969100D02*
X1249900D01*
G01D02*
X1254602D01*
G01X1229900Y964398D02*
Y969100D01*
G01D02*
Y973802D01*
G01Y969100D02*
X1234602D01*
G01X1230000Y978048D02*
Y982500D01*
G01D02*
Y986952D01*
G01Y982500D02*
X1234452D01*
G01X1245994Y981694D02*
X1248600Y984300D01*
G01D02*
X1251206Y986906D01*
G01X1245994D02*
X1248600Y984300D01*
G01D02*
X1251206Y981694D01*
G01X1245994Y988794D02*
X1248600Y991400D01*
G01D02*
X1251206Y994006D01*
G01X1245994D02*
X1248600Y991400D01*
G01D02*
X1251206Y988794D01*
G01X1239961Y1021766D02*
Y1026437D01*
G01D02*
Y1031108D01*
G01X1235290Y1026437D02*
X1239961D01*
G01D02*
X1244632D01*
G01X1240000Y1003048D02*
Y1007500D01*
G01D02*
Y1011952D01*
G01X1235548Y1007500D02*
X1240000D01*
G01D02*
X1244452D01*
G01X1247394Y1092394D02*
X1250000Y1095000D01*
G01D02*
X1252606Y1097606D01*
G01X1247394D02*
X1250000Y1095000D01*
G01D02*
X1252606Y1092394D01*
G01X1237394D02*
X1240000Y1095000D01*
G01D02*
X1242606Y1097606D01*
G01X1237394D02*
X1240000Y1095000D01*
G01D02*
X1242606Y1092394D01*
G01X1230000Y1095000D02*
X1232606Y1097606D01*
G01X1230000Y1095000D02*
X1232606Y1092394D01*
G01X1277394Y947394D02*
X1280000Y950000D01*
G01X1267394Y947394D02*
X1270000Y950000D01*
G01D02*
X1272606Y952606D01*
G01X1267394D02*
X1270000Y950000D01*
G01D02*
X1272606Y947394D01*
G01X1257394D02*
X1260000Y950000D01*
G01D02*
X1262606Y952606D01*
G01X1257394D02*
X1260000Y950000D01*
G01D02*
X1262606Y947394D01*
G01X1277394Y952606D02*
X1280000Y950000D01*
G01X1260294Y962294D02*
X1262900Y964900D01*
G01D02*
X1265506Y967506D01*
G01X1260294D02*
X1262900Y964900D01*
G01D02*
X1265506Y962294D01*
G01X1259894Y979894D02*
X1262500Y982500D01*
G01D02*
X1265106Y985106D01*
G01X1259894D02*
X1262500Y982500D01*
G01D02*
X1265106Y979894D01*
G01X1275694Y992994D02*
X1278300Y995600D01*
G01X1275694Y998206D02*
X1278300Y995600D01*
G01X1257500Y1015098D02*
Y1018500D01*
G01D02*
Y1021902D01*
G01X1254098Y1018500D02*
X1257500D01*
G01D02*
X1260902D01*
G01X1266500Y1015098D02*
Y1018500D01*
G01D02*
Y1021902D01*
G01X1263098Y1018500D02*
X1266500D01*
G01D02*
X1269902D01*
G01X1257394Y1092394D02*
X1260000Y1095000D01*
G01D02*
X1262606Y1097606D01*
G01X1257394D02*
X1260000Y1095000D01*
G01D02*
X1262606Y1092394D01*
G01X1277394D02*
X1280000Y1095000D01*
G01X1277394Y1097606D02*
X1280000Y1095000D01*
G01X1267394Y1092394D02*
X1270000Y1095000D01*
G01D02*
X1272606Y1097606D01*
G01X1267394D02*
X1270000Y1095000D01*
G01D02*
X1272606Y1092394D01*
G01X1297394Y947394D02*
X1300000Y950000D01*
G01D02*
X1302606Y952606D01*
G01X1297394D02*
X1300000Y950000D01*
G01D02*
X1302606Y947394D01*
G01X1287394D02*
X1290000Y950000D01*
G01D02*
X1292606Y952606D01*
G01X1287394D02*
X1290000Y950000D01*
G01D02*
X1292606Y947394D01*
G01X1280000Y950000D02*
X1282606Y952606D01*
G01X1280000Y950000D02*
X1282606Y947394D01*
G01X1284394Y967394D02*
X1287000Y970000D01*
G01D02*
X1289606Y972606D01*
G01X1284394D02*
X1287000Y970000D01*
G01D02*
X1289606Y967394D01*
G01X1278300Y995600D02*
X1280906Y998206D01*
G01X1278300Y995600D02*
X1280906Y992994D01*
G01X1284394Y978394D02*
X1287000Y981000D01*
G01D02*
X1289606Y983606D01*
G01X1284394D02*
X1287000Y981000D01*
G01D02*
X1289606Y978394D01*
G01X1300700Y1028848D02*
Y1033800D01*
G01D02*
Y1038752D01*
G01X1295748Y1033800D02*
X1300700D01*
G01D02*
X1305652D01*
G01X1287500Y1070548D02*
Y1075000D01*
G01D02*
Y1079452D01*
G01X1283048Y1075000D02*
X1287500D01*
G01D02*
X1291952D01*
G01X1290394Y1054394D02*
X1293000Y1057000D01*
G01D02*
X1295606Y1059606D01*
G01X1290394D02*
X1293000Y1057000D01*
G01D02*
X1295606Y1054394D01*
G01X1287394Y1092394D02*
X1290000Y1095000D01*
G01D02*
X1292606Y1097606D01*
G01X1287394D02*
X1290000Y1095000D01*
G01D02*
X1292606Y1092394D01*
G01X1280000Y1095000D02*
X1282606Y1097606D01*
G01X1280000Y1095000D02*
X1282606Y1092394D01*
G01X1297394D02*
X1300000Y1095000D01*
G01D02*
X1302606Y1097606D01*
G01X1297394D02*
X1300000Y1095000D01*
G01D02*
X1302606Y1092394D01*
G01X1327394Y947394D02*
X1330000Y950000D01*
G01X1307394Y947394D02*
X1310000Y950000D01*
G01D02*
X1312606Y952606D01*
G01X1307394D02*
X1310000Y950000D01*
G01D02*
X1312606Y947394D01*
G01X1317394D02*
X1320000Y950000D01*
G01D02*
X1322606Y952606D01*
G01X1317394D02*
X1320000Y950000D01*
G01D02*
X1322606Y947394D01*
G01X1327394Y952606D02*
X1330000Y950000D01*
G01X1311394Y967394D02*
X1314000Y970000D01*
G01D02*
X1316606Y972606D01*
G01X1311394D02*
X1314000Y970000D01*
G01D02*
X1316606Y967394D01*
G01X1319194Y995594D02*
X1321800Y998200D01*
G01D02*
X1324406Y1000806D01*
G01X1319194D02*
X1321800Y998200D01*
G01D02*
X1324406Y995594D01*
G01X1311394Y978394D02*
X1314000Y981000D01*
G01D02*
X1316606Y983606D01*
G01X1311394D02*
X1314000Y981000D01*
G01D02*
X1316606Y978394D01*
G01X1321794Y1016394D02*
X1324400Y1019000D01*
G01D02*
X1327006Y1021606D01*
G01X1321794D02*
X1324400Y1019000D01*
G01D02*
X1327006Y1016394D01*
G01X1312100Y1060198D02*
Y1064900D01*
G01D02*
Y1069602D01*
G01X1307398Y1064900D02*
X1312100D01*
G01D02*
X1316802D01*
G01X1327394Y1092394D02*
X1330000Y1095000D01*
G01X1327394Y1097606D02*
X1330000Y1095000D01*
G01X1317394Y1092394D02*
X1320000Y1095000D01*
G01D02*
X1322606Y1097606D01*
G01X1317394D02*
X1320000Y1095000D01*
G01D02*
X1322606Y1092394D01*
G01X1307394D02*
X1310000Y1095000D01*
G01D02*
X1312606Y1097606D01*
G01X1307394D02*
X1310000Y1095000D01*
G01D02*
X1312606Y1092394D01*
G01X1330000Y950000D02*
X1332606Y952606D01*
G01X1330000Y950000D02*
X1332606Y947394D01*
G01X1347394D02*
X1350000Y950000D01*
G01D02*
X1352606Y952606D01*
G01X1347394D02*
X1350000Y950000D01*
G01D02*
X1352606Y947394D01*
G01X1337394D02*
X1340000Y950000D01*
G01D02*
X1342606Y952606D01*
G01X1337394D02*
X1340000Y950000D01*
G01D02*
X1342606Y947394D01*
G01X1352808Y962321D02*
X1356210D01*
G01X1333500Y1048098D02*
Y1051500D01*
G01D02*
Y1054902D01*
G01X1330098Y1051500D02*
X1333500D01*
G01D02*
X1336902D01*
G01X1345394Y1029394D02*
X1348000Y1032000D01*
G01D02*
X1350606Y1034606D01*
G01X1345394D02*
X1348000Y1032000D01*
G01D02*
X1350606Y1029394D01*
G01X1350394Y1035394D02*
X1353000Y1038000D01*
G01D02*
X1355606Y1040606D01*
G01X1350394D02*
X1353000Y1038000D01*
G01D02*
X1355606Y1035394D01*
G01X1335500Y1061098D02*
Y1064500D01*
G01D02*
Y1067902D01*
G01X1332098Y1064500D02*
X1335500D01*
G01D02*
X1338902D01*
G01X1346000Y1061098D02*
Y1064500D01*
G01D02*
Y1067902D01*
G01X1342598Y1064500D02*
X1346000D01*
G01D02*
X1349402D01*
G01X1337394Y1092394D02*
X1340000Y1095000D01*
G01D02*
X1342606Y1097606D01*
G01X1337394D02*
X1340000Y1095000D01*
G01D02*
X1342606Y1092394D01*
G01X1330000Y1095000D02*
X1332606Y1097606D01*
G01X1330000Y1095000D02*
X1332606Y1092394D01*
G01X1347394D02*
X1350000Y1095000D01*
G01D02*
X1352606Y1097606D01*
G01X1347394D02*
X1350000Y1095000D01*
G01D02*
X1352606Y1092394D01*
G01X1377394Y947394D02*
X1380000Y950000D01*
G01X1367394Y947394D02*
X1370000Y950000D01*
G01D02*
X1372606Y952606D01*
G01X1367394D02*
X1370000Y950000D01*
G01D02*
X1372606Y947394D01*
G01X1357394D02*
X1360000Y950000D01*
G01D02*
X1362606Y952606D01*
G01X1357394D02*
X1360000Y950000D01*
G01D02*
X1362606Y947394D01*
G01X1376000Y969098D02*
Y972500D01*
G01D02*
Y975902D01*
G01X1372598Y972500D02*
X1376000D01*
G01D02*
X1379402D01*
G01X1376210Y958919D02*
Y962321D01*
G01D02*
Y965723D01*
G01X1372808Y962321D02*
X1376210D01*
G01D02*
X1379612D01*
G01X1366210Y958919D02*
Y962321D01*
G01D02*
Y965723D01*
G01X1362808Y962321D02*
X1366210D01*
G01D02*
X1369612D01*
G01X1356210Y958919D02*
Y962321D01*
G01D02*
Y965723D01*
G01Y962321D02*
X1359612D01*
G01X1377394Y952606D02*
X1380000Y950000D01*
G01X1363000Y986598D02*
Y990000D01*
G01D02*
Y993402D01*
G01X1359598Y990000D02*
X1363000D01*
G01D02*
X1366402D01*
G01X1377894Y995394D02*
X1380500Y998000D01*
G01X1377894Y1000606D02*
X1380500Y998000D01*
G01X1358500Y993098D02*
Y996500D01*
G01D02*
Y999902D01*
G01X1355098Y996500D02*
X1358500D01*
G01D02*
X1361902D01*
G01X1368920Y1028694D02*
X1371526Y1031300D01*
G01D02*
X1374132Y1033906D01*
G01X1368920D02*
X1371526Y1031300D01*
G01D02*
X1374132Y1028694D01*
G01X1369394Y1037894D02*
X1372000Y1040500D01*
G01D02*
X1374606Y1043106D01*
G01X1369394D02*
X1372000Y1040500D01*
G01D02*
X1374606Y1037894D01*
G01X1357144Y1060644D02*
X1359750Y1063250D01*
G01D02*
X1362356Y1065856D01*
G01X1357144D02*
X1359750Y1063250D01*
G01D02*
X1362356Y1060644D01*
G01X1357144Y1065844D02*
X1359750Y1068450D01*
G01D02*
X1362356Y1071056D01*
G01X1357144D02*
X1359750Y1068450D01*
G01D02*
X1362356Y1065844D01*
G01X1357394Y1092394D02*
X1360000Y1095000D01*
G01D02*
X1362606Y1097606D01*
G01X1357394D02*
X1360000Y1095000D01*
G01D02*
X1362606Y1092394D01*
G01X1377394D02*
X1380000Y1095000D01*
G01X1377394Y1097606D02*
X1380000Y1095000D01*
G01X1367394Y1092394D02*
X1370000Y1095000D01*
G01D02*
X1372606Y1097606D01*
G01X1367394D02*
X1370000Y1095000D01*
G01D02*
X1372606Y1092394D01*
G01X1397394Y947394D02*
X1400000Y950000D01*
G01D02*
X1402606Y952606D01*
G01X1397394D02*
X1400000Y950000D01*
G01D02*
X1402606Y947394D01*
G01X1387394D02*
X1390000Y950000D01*
G01D02*
X1392606Y952606D01*
G01X1387394D02*
X1390000Y950000D01*
G01D02*
X1392606Y947394D01*
G01X1380000Y950000D02*
X1382606Y952606D01*
G01X1380000Y950000D02*
X1382606Y947394D01*
G01X1386100Y958974D02*
Y962376D01*
G01D02*
Y965778D01*
G01X1382698Y962376D02*
X1386100D01*
G01D02*
X1389502D01*
G01X1396100Y958974D02*
Y962376D01*
G01D02*
Y965778D01*
G01X1392698Y962376D02*
X1396100D01*
G01D02*
X1399502D01*
G01X1402698D02*
X1406100D01*
G01X1386100Y968974D02*
Y972376D01*
G01D02*
Y975778D01*
G01X1382698Y972376D02*
X1386100D01*
G01D02*
X1389502D01*
G01X1396100Y968974D02*
Y972376D01*
G01D02*
Y975778D01*
G01X1392698Y972376D02*
X1396100D01*
G01D02*
X1399502D01*
G01X1402698D02*
X1406100D01*
G01X1402598Y1000000D02*
X1406000D01*
G01X1396000Y996598D02*
Y1000000D01*
G01D02*
Y1003402D01*
G01X1392598Y1000000D02*
X1396000D01*
G01D02*
X1399402D01*
G01X1402661Y992660D02*
X1406063D01*
G01X1396063Y989258D02*
Y992660D01*
G01D02*
Y996062D01*
G01X1392661Y992660D02*
X1396063D01*
G01D02*
X1399465D01*
G01X1386100Y978974D02*
Y982376D01*
G01D02*
Y985778D01*
G01X1382698Y982376D02*
X1386100D01*
G01D02*
X1389502D01*
G01X1396100Y978974D02*
Y982376D01*
G01D02*
Y985778D01*
G01X1392698Y982376D02*
X1396100D01*
G01D02*
X1399502D01*
G01X1402698D02*
X1406100D01*
G01X1380500Y998000D02*
X1383106Y1000606D01*
G01X1380500Y998000D02*
X1383106Y995394D01*
G01X1401000Y1019598D02*
Y1023000D01*
G01D02*
Y1026402D01*
G01X1397598Y1023000D02*
X1401000D01*
G01D02*
X1404402D01*
G01X1396000Y1024598D02*
Y1028000D01*
G01Y1014598D02*
Y1018000D01*
G01D02*
Y1021402D01*
G01X1392598Y1018000D02*
X1396000D01*
G01D02*
X1399402D01*
G01X1391000Y1019598D02*
Y1023000D01*
G01D02*
Y1026402D01*
G01X1387598Y1023000D02*
X1391000D01*
G01D02*
X1394402D01*
G01X1396000Y1028000D02*
Y1031402D01*
G01X1392598Y1028000D02*
X1396000D01*
G01D02*
X1399402D01*
G01X1400000Y1070548D02*
Y1075000D01*
G01D02*
Y1079452D01*
G01X1395548Y1075000D02*
X1400000D01*
G01D02*
X1404452D01*
G01X1387644Y1057744D02*
X1390250Y1060350D01*
G01D02*
X1392856Y1062956D01*
G01X1387644D02*
X1390250Y1060350D01*
G01D02*
X1392856Y1057744D01*
G01X1382644D02*
X1385250Y1060350D01*
G01D02*
X1387856Y1062956D01*
G01X1382644D02*
X1385250Y1060350D01*
G01D02*
X1387856Y1057744D01*
G01X1394894Y1062394D02*
X1397500Y1065000D01*
G01D02*
X1400106Y1067606D01*
G01X1394894D02*
X1397500Y1065000D01*
G01D02*
X1400106Y1062394D01*
G01X1387394Y1092394D02*
X1390000Y1095000D01*
G01D02*
X1392606Y1097606D01*
G01X1387394D02*
X1390000Y1095000D01*
G01D02*
X1392606Y1092394D01*
G01X1397394D02*
X1400000Y1095000D01*
G01D02*
X1402606Y1097606D01*
G01X1397394D02*
X1400000Y1095000D01*
G01D02*
X1402606Y1092394D01*
G01X1380000Y1095000D02*
X1382606Y1097606D01*
G01X1380000Y1095000D02*
X1382606Y1092394D01*
G01X1407394Y947394D02*
X1410000Y950000D01*
G01D02*
X1412606Y952606D01*
G01X1407394D02*
X1410000Y950000D01*
G01D02*
X1412606Y947394D01*
G01X1417394D02*
X1420000Y950000D01*
G01D02*
X1422606Y952606D01*
G01X1417394D02*
X1420000Y950000D01*
G01D02*
X1422606Y947394D01*
G01X1427394D02*
X1430000Y950000D01*
G01X1424685Y958599D02*
Y962001D01*
G01D02*
Y965403D01*
G01X1421283Y962001D02*
X1424685D01*
G01D02*
X1428087D01*
G01X1414685Y958599D02*
Y962001D01*
G01D02*
Y965403D01*
G01X1411283Y962001D02*
X1414685D01*
G01D02*
X1418087D01*
G01X1424713Y968806D02*
Y972208D01*
G01D02*
Y975610D01*
G01X1421311Y972208D02*
X1424713D01*
G01D02*
X1428115D01*
G01X1406100Y958974D02*
Y962376D01*
G01D02*
Y965778D01*
G01Y962376D02*
X1409502D01*
G01X1406100Y968974D02*
Y972376D01*
G01D02*
Y975778D01*
G01Y972376D02*
X1409502D01*
G01X1427394Y952606D02*
X1430000Y950000D01*
G01X1406000Y996598D02*
Y1000000D01*
G01D02*
Y1003402D01*
G01Y1000000D02*
X1409402D01*
G01X1406063Y989258D02*
Y992660D01*
G01D02*
Y996062D01*
G01Y992660D02*
X1409465D01*
G01X1406100Y978974D02*
Y982376D01*
G01D02*
Y985778D01*
G01Y982376D02*
X1409502D01*
G01X1404394Y1025394D02*
X1407000Y1028000D01*
G01D02*
X1409606Y1025394D01*
G01X1407000Y1028000D02*
X1409606Y1030606D01*
G01X1404394D02*
X1407000Y1028000D01*
G01X1415000Y1061598D02*
Y1065000D01*
G01D02*
Y1068402D01*
G01X1411598Y1065000D02*
X1415000D01*
G01D02*
X1418402D01*
G01X1406194Y1067394D02*
X1408800Y1070000D01*
G01D02*
X1411406Y1072606D01*
G01X1406194D02*
X1408800Y1070000D01*
G01D02*
X1411406Y1067394D01*
G01X1427776Y1078396D02*
X1430382Y1081002D01*
G01X1427776Y1083608D02*
X1430382Y1081002D01*
G01X1417776Y1078396D02*
X1420382Y1081002D01*
G01D02*
X1422988Y1083608D01*
G01X1417776D02*
X1420382Y1081002D01*
G01D02*
X1422988Y1078396D01*
G01X1427776Y1085396D02*
X1430382Y1088002D01*
G01X1427776Y1090608D02*
X1430382Y1088002D01*
G01X1417776Y1085396D02*
X1420382Y1088002D01*
G01D02*
X1422988Y1090608D01*
G01X1417776D02*
X1420382Y1088002D01*
G01D02*
X1422988Y1085396D01*
G01X1417394Y1092394D02*
X1420000Y1095000D01*
G01D02*
X1422606Y1097606D01*
G01X1417394D02*
X1420000Y1095000D01*
G01D02*
X1422606Y1092394D01*
G01X1407394D02*
X1410000Y1095000D01*
G01D02*
X1412606Y1097606D01*
G01X1407394D02*
X1410000Y1095000D01*
G01D02*
X1412606Y1092394D01*
G01X1427394D02*
X1430000Y1095000D01*
G01X1427394Y1097606D02*
X1430000Y1095000D01*
G01Y950000D02*
X1432606Y952606D01*
G01X1430000Y950000D02*
X1432606Y947394D01*
G01X1447394D02*
X1450000Y950000D01*
G01D02*
X1452606Y952606D01*
G01X1447394D02*
X1450000Y950000D01*
G01D02*
X1452606Y947394D01*
G01X1437394D02*
X1440000Y950000D01*
G01D02*
X1442606Y952606D01*
G01X1437394D02*
X1440000Y950000D01*
G01D02*
X1442606Y947394D01*
G01X1434685Y958599D02*
Y962001D01*
G01D02*
Y965403D01*
G01X1431283Y962001D02*
X1434685D01*
G01D02*
X1438087D01*
G01X1451173Y962056D02*
X1454575D01*
G01X1444575Y958654D02*
Y962056D01*
G01D02*
Y965458D01*
G01X1441173Y962056D02*
X1444575D01*
G01D02*
X1447977D01*
G01X1434713Y968806D02*
Y972208D01*
G01D02*
Y975610D01*
G01X1431311Y972208D02*
X1434713D01*
G01D02*
X1438115D01*
G01X1444713Y968806D02*
Y972208D01*
G01D02*
Y975610D01*
G01X1441311Y972208D02*
X1444713D01*
G01D02*
X1448115D01*
G01X1430382Y1081002D02*
X1432988Y1083608D01*
G01X1430382Y1081002D02*
X1432988Y1078396D01*
G01X1437776D02*
X1440382Y1081002D01*
G01D02*
X1442988Y1083608D01*
G01X1437776D02*
X1440382Y1081002D01*
G01D02*
X1442988Y1078396D01*
G01X1447776D02*
X1450382Y1081002D01*
G01D02*
X1452988Y1083608D01*
G01X1447776D02*
X1450382Y1081002D01*
G01D02*
X1452988Y1078396D01*
G01X1430382Y1088002D02*
X1432988Y1090608D01*
G01X1430382Y1088002D02*
X1432988Y1085396D01*
G01X1437776D02*
X1440382Y1088002D01*
G01D02*
X1442988Y1090608D01*
G01X1437776D02*
X1440382Y1088002D01*
G01D02*
X1442988Y1085396D01*
G01X1447776D02*
X1450382Y1088002D01*
G01D02*
X1452988Y1090608D01*
G01X1447776D02*
X1450382Y1088002D01*
G01D02*
X1452988Y1085396D01*
G01X1430000Y1095000D02*
X1432606Y1097606D01*
G01X1430000Y1095000D02*
X1432606Y1092394D01*
G01X1447394D02*
X1450000Y1095000D01*
G01D02*
X1452606Y1097606D01*
G01X1447394D02*
X1450000Y1095000D01*
G01D02*
X1452606Y1092394D01*
G01X1437394D02*
X1440000Y1095000D01*
G01D02*
X1442606Y1097606D01*
G01X1437394D02*
X1440000Y1095000D01*
G01D02*
X1442606Y1092394D01*
G01X1467394Y947394D02*
X1470000Y950000D01*
G01D02*
X1472606Y952606D01*
G01X1467394D02*
X1470000Y950000D01*
G01D02*
X1472606Y947394D01*
G01X1457394D02*
X1460000Y950000D01*
G01D02*
X1462606Y952606D01*
G01X1457394D02*
X1460000Y950000D01*
G01D02*
X1462606Y947394D01*
G01X1477394D02*
X1480000Y950000D01*
G01X1464575Y958654D02*
Y962056D01*
G01D02*
Y965458D01*
G01X1461173Y962056D02*
X1464575D01*
G01D02*
X1467977D01*
G01X1454575Y958654D02*
Y962056D01*
G01D02*
Y965458D01*
G01Y962056D02*
X1457977D01*
G01X1472685Y958599D02*
Y962001D01*
G01D02*
Y965403D01*
G01X1469283Y962001D02*
X1472685D01*
G01D02*
X1476087D01*
G01X1477394Y952606D02*
X1480000Y950000D01*
G01X1457776Y1078396D02*
X1460382Y1081002D01*
G01D02*
X1462988Y1083608D01*
G01X1457776D02*
X1460382Y1081002D01*
G01D02*
X1462988Y1078396D01*
G01X1467776D02*
X1470382Y1081002D01*
G01D02*
X1472988Y1083608D01*
G01X1467776D02*
X1470382Y1081002D01*
G01D02*
X1472988Y1078396D01*
G01X1457776Y1085396D02*
X1460382Y1088002D01*
G01D02*
X1462988Y1090608D01*
G01X1457776D02*
X1460382Y1088002D01*
G01D02*
X1462988Y1085396D01*
G01X1467776D02*
X1470382Y1088002D01*
G01D02*
X1472988Y1090608D01*
G01X1467776D02*
X1470382Y1088002D01*
G01D02*
X1472988Y1085396D01*
G01X1477394Y1092394D02*
X1480000Y1095000D01*
G01X1477394Y1097606D02*
X1480000Y1095000D01*
G01X1467394Y1092394D02*
X1470000Y1095000D01*
G01D02*
X1472606Y1097606D01*
G01X1467394D02*
X1470000Y1095000D01*
G01D02*
X1472606Y1092394D01*
G01X1457394D02*
X1460000Y1095000D01*
G01D02*
X1462606Y1097606D01*
G01X1457394D02*
X1460000Y1095000D01*
G01D02*
X1462606Y1092394D01*
G01X1487394Y947394D02*
X1490000Y950000D01*
G01D02*
X1492606Y952606D01*
G01X1487394D02*
X1490000Y950000D01*
G01D02*
X1492606Y947394D01*
G01X1497394D02*
X1500000Y950000D01*
G01D02*
X1502606Y952606D01*
G01X1497394D02*
X1500000Y950000D01*
G01D02*
X1502606Y947394D01*
G01X1480000Y950000D02*
X1482606Y952606D01*
G01X1480000Y950000D02*
X1482606Y947394D01*
G01X1502575Y958654D02*
Y962056D01*
G01D02*
Y965458D01*
G01X1499173Y962056D02*
X1502575D01*
G01D02*
X1505977D01*
G01X1482685Y958599D02*
Y962001D01*
G01D02*
Y965403D01*
G01X1479283Y962001D02*
X1482685D01*
G01D02*
X1486087D01*
G01X1492685Y958599D02*
Y962001D01*
G01D02*
Y965403D01*
G01X1489283Y962001D02*
X1492685D01*
G01D02*
X1496087D01*
G01X1500548Y987500D02*
X1505000D01*
G01X1500548Y997500D02*
X1505000D01*
G01X1500548Y977500D02*
X1505000D01*
G01X1500548Y1007500D02*
X1505000D01*
G01X1500548Y1017500D02*
X1505000D01*
G01X1500548Y1037500D02*
X1505000D01*
G01X1500548Y1047500D02*
X1505000D01*
G01X1500548Y1027500D02*
X1505000D01*
G01X1500548Y1057500D02*
X1505000D01*
G01X1500548Y1067500D02*
X1505000D01*
G01X1497394Y1092394D02*
X1500000Y1095000D01*
G01D02*
X1502606Y1097606D01*
G01X1497394D02*
X1500000Y1095000D01*
G01D02*
X1502606Y1092394D01*
G01X1487394D02*
X1490000Y1095000D01*
G01D02*
X1492606Y1097606D01*
G01X1487394D02*
X1490000Y1095000D01*
G01D02*
X1492606Y1092394D01*
G01X1480000Y1095000D02*
X1482606Y1097606D01*
G01X1480000Y1095000D02*
X1482606Y1092394D01*
G01X1507394Y947394D02*
X1510000Y950000D01*
G01D02*
X1512606Y952606D01*
G01X1507394D02*
X1510000Y950000D01*
G01D02*
X1512606Y947394D01*
G01X1527394D02*
X1530000Y950000D01*
G01X1517394Y947394D02*
X1520000Y950000D01*
G01D02*
X1522606Y952606D01*
G01X1517394D02*
X1520000Y950000D01*
G01D02*
X1522606Y947394D01*
G01X1505000Y973048D02*
Y977500D01*
G01X1512575Y958654D02*
Y962056D01*
G01D02*
Y965458D01*
G01X1509173Y962056D02*
X1512575D01*
G01D02*
X1515977D01*
G01X1522575Y958654D02*
Y962056D01*
G01D02*
Y965458D01*
G01X1519173Y962056D02*
X1522575D01*
G01D02*
X1525977D01*
G01X1527394Y952606D02*
X1530000Y950000D01*
G01X1505000Y983048D02*
Y987500D01*
G01D02*
Y991952D01*
G01Y987500D02*
X1509452D01*
G01X1505000Y993048D02*
Y997500D01*
G01D02*
Y1001952D01*
G01Y997500D02*
X1509452D01*
G01X1505000Y977500D02*
Y981952D01*
G01Y977500D02*
X1509452D01*
G01X1505000Y1003048D02*
Y1007500D01*
G01D02*
Y1011952D01*
G01Y1007500D02*
X1509452D01*
G01X1505000Y1013048D02*
Y1017500D01*
G01D02*
Y1021952D01*
G01Y1017500D02*
X1509452D01*
G01X1505000Y1023048D02*
Y1027500D01*
G01Y1033048D02*
Y1037500D01*
G01D02*
Y1041952D01*
G01Y1037500D02*
X1509452D01*
G01X1505000Y1043048D02*
Y1047500D01*
G01D02*
Y1051952D01*
G01Y1047500D02*
X1509452D01*
G01X1505000Y1027500D02*
Y1031952D01*
G01Y1027500D02*
X1509452D01*
G01X1505000Y1053048D02*
Y1057500D01*
G01D02*
Y1061952D01*
G01Y1057500D02*
X1509452D01*
G01X1505000Y1063048D02*
Y1067500D01*
G01D02*
Y1071952D01*
G01Y1067500D02*
X1509452D01*
G01X1527394Y1092394D02*
X1530000Y1095000D01*
G01X1527394Y1097606D02*
X1530000Y1095000D01*
G01X1517394Y1092394D02*
X1520000Y1095000D01*
G01D02*
X1522606Y1097606D01*
G01X1517394D02*
X1520000Y1095000D01*
G01D02*
X1522606Y1092394D01*
G01X1507394D02*
X1510000Y1095000D01*
G01D02*
X1512606Y1097606D01*
G01X1507394D02*
X1510000Y1095000D01*
G01D02*
X1512606Y1092394D01*
G01X1537394Y947394D02*
X1540000Y950000D01*
G01D02*
X1542606Y952606D01*
G01X1537394D02*
X1540000Y950000D01*
G01D02*
X1542606Y947394D01*
G01X1530000Y950000D02*
X1532606Y952606D01*
G01X1530000Y950000D02*
X1532606Y947394D01*
G01X1535000Y973048D02*
Y977500D01*
G01X1543998Y958000D02*
X1555000D01*
G01X1535000Y983048D02*
Y987500D01*
G01D02*
Y991952D01*
G01X1530548Y987500D02*
X1535000D01*
G01D02*
X1539452D01*
G01X1535000Y993048D02*
Y997500D01*
G01D02*
Y1001952D01*
G01X1530548Y997500D02*
X1535000D01*
G01D02*
X1539452D01*
G01X1535000Y977500D02*
Y981952D01*
G01X1530548Y977500D02*
X1535000D01*
G01D02*
X1539452D01*
G01X1544863Y997237D02*
X1547469Y999843D01*
G01D02*
X1550075Y1002449D01*
G01X1544863D02*
X1547469Y999843D01*
G01D02*
X1550075Y997237D01*
G01X1535000Y1003048D02*
Y1007500D01*
G01D02*
Y1011952D01*
G01X1530548Y1007500D02*
X1535000D01*
G01D02*
X1539452D01*
G01X1535000Y1013048D02*
Y1017500D01*
G01D02*
Y1021952D01*
G01X1530548Y1017500D02*
X1535000D01*
G01D02*
X1539452D01*
G01X1535000Y1023048D02*
Y1027500D01*
G01X1544863Y1027237D02*
X1547469Y1029843D01*
G01D02*
X1550075Y1027237D01*
G01X1544863Y1007237D02*
X1547469Y1009843D01*
G01D02*
X1550075Y1012449D01*
G01X1544863D02*
X1547469Y1009843D01*
G01D02*
X1550075Y1007237D01*
G01X1544863Y1017237D02*
X1547469Y1019843D01*
G01D02*
X1550075Y1022449D01*
G01X1544863D02*
X1547469Y1019843D01*
G01D02*
X1550075Y1017237D01*
G01X1535000Y1033048D02*
Y1037500D01*
G01D02*
Y1041952D01*
G01X1530548Y1037500D02*
X1535000D01*
G01D02*
X1539452D01*
G01X1535000Y1043048D02*
Y1047500D01*
G01D02*
Y1051952D01*
G01X1530548Y1047500D02*
X1535000D01*
G01D02*
X1539452D01*
G01X1535000Y1027500D02*
Y1031952D01*
G01X1530548Y1027500D02*
X1535000D01*
G01D02*
X1539452D01*
G01X1547469Y1029843D02*
X1550075Y1032449D01*
G01X1544863D02*
X1547469Y1029843D01*
G01X1544863Y1037237D02*
X1547469Y1039843D01*
G01D02*
X1550075Y1042449D01*
G01X1544863D02*
X1547469Y1039843D01*
G01D02*
X1550075Y1037237D01*
G01X1535000Y1053048D02*
Y1057500D01*
G01D02*
Y1061952D01*
G01X1530548Y1057500D02*
X1535000D01*
G01D02*
X1539452D01*
G01X1535000Y1063048D02*
Y1067500D01*
G01D02*
Y1071952D01*
G01X1530548Y1067500D02*
X1535000D01*
G01D02*
X1539452D01*
G01X1543998Y1087000D02*
X1555000D01*
G01X1537394Y1092394D02*
X1540000Y1095000D01*
G01D02*
X1542606Y1097606D01*
G01X1537394D02*
X1540000Y1095000D01*
G01D02*
X1542606Y1092394D01*
G01X1530000Y1095000D02*
X1532606Y1097606D01*
G01X1530000Y1095000D02*
X1532606Y1092394D01*
G01X1555000Y946998D02*
Y958000D01*
G01D02*
Y969002D01*
G01Y958000D02*
X1566002D01*
G01X1562394Y967394D02*
X1565000Y970000D01*
G01D02*
X1567606Y972606D01*
G01X1562394D02*
X1565000Y970000D01*
G01D02*
X1567606Y967394D01*
G01X1554363Y997237D02*
X1556969Y999843D01*
G01D02*
X1559575Y1002449D01*
G01X1554363D02*
X1556969Y999843D01*
G01D02*
X1559575Y997237D01*
G01X1562394Y987394D02*
X1565000Y990000D01*
G01D02*
X1567606Y992606D01*
G01X1562394D02*
X1565000Y990000D01*
G01D02*
X1567606Y987394D01*
G01X1562394Y997394D02*
X1565000Y1000000D01*
G01D02*
X1567606Y1002606D01*
G01X1562394D02*
X1565000Y1000000D01*
G01D02*
X1567606Y997394D01*
G01X1562394Y977394D02*
X1565000Y980000D01*
G01D02*
X1567606Y982606D01*
G01X1562394D02*
X1565000Y980000D01*
G01D02*
X1567606Y977394D01*
G01X1554363Y1027237D02*
X1556969Y1029843D01*
G01D02*
X1559575Y1027237D01*
G01X1554363Y1007237D02*
X1556969Y1009843D01*
G01D02*
X1559575Y1012449D01*
G01X1554363D02*
X1556969Y1009843D01*
G01D02*
X1559575Y1007237D01*
G01X1554363Y1017237D02*
X1556969Y1019843D01*
G01D02*
X1559575Y1022449D01*
G01X1554363D02*
X1556969Y1019843D01*
G01D02*
X1559575Y1017237D01*
G01X1562394Y1027394D02*
X1565000Y1030000D01*
G01D02*
X1567606Y1027394D01*
G01X1562394Y1007394D02*
X1565000Y1010000D01*
G01D02*
X1567606Y1012606D01*
G01X1562394D02*
X1565000Y1010000D01*
G01D02*
X1567606Y1007394D01*
G01X1562394Y1017394D02*
X1565000Y1020000D01*
G01D02*
X1567606Y1022606D01*
G01X1562394D02*
X1565000Y1020000D01*
G01D02*
X1567606Y1017394D01*
G01X1556969Y1029843D02*
X1559575Y1032449D01*
G01X1554363D02*
X1556969Y1029843D01*
G01X1554363Y1037237D02*
X1556969Y1039843D01*
G01D02*
X1559575Y1042449D01*
G01X1554363D02*
X1556969Y1039843D01*
G01D02*
X1559575Y1037237D01*
G01X1565000Y1030000D02*
X1567606Y1032606D01*
G01X1562394D02*
X1565000Y1030000D01*
G01X1562394Y1047394D02*
X1565000Y1050000D01*
G01D02*
X1567606Y1052606D01*
G01X1562394D02*
X1565000Y1050000D01*
G01D02*
X1567606Y1047394D01*
G01X1562394Y1037394D02*
X1565000Y1040000D01*
G01D02*
X1567606Y1042606D01*
G01X1562394D02*
X1565000Y1040000D01*
G01D02*
X1567606Y1037394D01*
G01X1555000Y1075998D02*
Y1087000D01*
G01X1562394Y1067394D02*
X1565000Y1070000D01*
G01D02*
X1567606Y1072606D01*
G01X1562394D02*
X1565000Y1070000D01*
G01D02*
X1567606Y1067394D01*
G01X1562394Y1057394D02*
X1565000Y1060000D01*
G01D02*
X1567606Y1062606D01*
G01X1562394D02*
X1565000Y1060000D01*
G01D02*
X1567606Y1057394D01*
G01X1555000Y1087000D02*
Y1098002D01*
G01Y1087000D02*
X1566002D01*
M02*
