G04 ================== begin FILE IDENTIFICATION RECORD ==================*
G04 Layout Name:  pmtpulser.brd*
G04 Film Name:    Silkscreen_Top*
G04 File Format:  Gerber RS274X*
G04 File Origin:  Cadence Allegro 16.6-P004*
G04 Origin Date:  Fri Feb 10 18:08:51 2017*
G04 *
G04 Layer:  REF DES/SILKSCREEN_TOP*
G04 Layer:  PACKAGE GEOMETRY/SILKSCREEN_TOP*
G04 Layer:  DEVICE TYPE/SILKSCREEN_TOP*
G04 Layer:  BOARD GEOMETRY/SILKSCREEN_TOP*
G04 *
G04 Offset:    (0.00 0.00)*
G04 Mirror:    No*
G04 Mode:      Positive*
G04 Rotation:  0*
G04 FullContactRelief:  No*
G04 UndefLineWidth:     5.00*
G04 ================== end FILE IDENTIFICATION RECORD ====================*
%FSLAX25Y25*MOIN*%
%IR0*IPPOS*OFA0.00000B0.00000*MIA0B0*SFA1.00000B1.00000*%
%ADD10C,.01*%
%ADD11C,.004*%
%ADD12C,.005*%
G75*
%LPD*%
G75*
G36*
G01X1225000Y1022500D02*
Y1073287D01*
X1274606D01*
Y1022500D01*
X1225000D01*
G37*
G36*
G01X1295782Y1002400D02*
G03I-1082J0D01*
G37*
G36*
G01X1346982Y985100D02*
G03I-1082J0D01*
G37*
G36*
G01X1347582Y1005700D02*
G03I-1082J0D01*
G37*
G36*
G01X1360082Y1041800D02*
G03I-1082J0D01*
G37*
G36*
G01X1354782Y1045000D02*
G03I-1082J0D01*
G37*
G36*
G01X1396782Y1004700D02*
G03I-1082J0D01*
G37*
G36*
G01X1392282Y1057500D02*
G03I-1082J0D01*
G37*
G36*
G01X1387282Y1060600D02*
G03I-1082J0D01*
G37*
G54D10*
G01X1437750Y1015000D02*
G03I-1000J0D01*
G01Y1065000D02*
G03I-1000J0D01*
G54D11*
G01X1252793Y993142D02*
X1252563Y993297D01*
X1252295Y993400D01*
X1251988D01*
X1251643Y993245D01*
X1251375Y992987D01*
X1251183Y992677D01*
X1251030Y992160D01*
X1250992Y991695D01*
X1251068Y991230D01*
X1251183Y990920D01*
X1251413Y990610D01*
X1251682Y990403D01*
X1251950Y990300D01*
X1252218D01*
X1252487Y990403D01*
X1252717Y990558D01*
X1252908Y990765D01*
G01X1254398Y990662D02*
X1254667Y990403D01*
X1254973Y990300D01*
X1255280Y990403D01*
X1255548Y990713D01*
X1255740Y991178D01*
X1255817Y991643D01*
Y992212D01*
X1255740Y992677D01*
X1255548Y993090D01*
X1255318Y993297D01*
X1255050Y993400D01*
X1254743Y993297D01*
X1254513Y993090D01*
X1254360Y992780D01*
X1254283Y992367D01*
X1254360Y992005D01*
X1254552Y991643D01*
X1254782Y991437D01*
X1255050Y991385D01*
X1255357Y991488D01*
X1255587Y991747D01*
X1255817Y992212D01*
G01X1253800Y989300D02*
X1251400D01*
Y985700D01*
X1253800D01*
G01X1268800Y971800D02*
X1266400D01*
Y968200D01*
X1268800D01*
G01X1271200D02*
X1273600D01*
Y971800D01*
X1271200D01*
G01X1256200Y985700D02*
X1258600D01*
Y989300D01*
X1256200D01*
G01X1275600Y994800D02*
Y997200D01*
X1272000D01*
Y994800D01*
G01Y992400D02*
Y990000D01*
X1275600D01*
Y992400D01*
G01X1283093Y1052542D02*
X1282863Y1052697D01*
X1282595Y1052800D01*
X1282288D01*
X1281943Y1052645D01*
X1281675Y1052387D01*
X1281483Y1052077D01*
X1281330Y1051560D01*
X1281292Y1051095D01*
X1281368Y1050630D01*
X1281483Y1050320D01*
X1281713Y1050010D01*
X1281982Y1049803D01*
X1282250Y1049700D01*
X1282518D01*
X1282787Y1049803D01*
X1283017Y1049958D01*
X1283208Y1050165D01*
G01X1284622Y1052283D02*
X1284852Y1052593D01*
X1285120Y1052748D01*
X1285427Y1052800D01*
X1285810Y1052697D01*
X1286078Y1052438D01*
X1286155Y1052128D01*
X1286117Y1051818D01*
X1285963Y1051560D01*
X1285197Y1051043D01*
X1284852Y1050682D01*
X1284622Y1050165D01*
X1284545Y1049700D01*
X1286155D01*
G01X1287722Y1052283D02*
X1287952Y1052593D01*
X1288220Y1052748D01*
X1288527Y1052800D01*
X1288910Y1052697D01*
X1289178Y1052438D01*
X1289255Y1052128D01*
X1289217Y1051818D01*
X1289063Y1051560D01*
X1288297Y1051043D01*
X1287952Y1050682D01*
X1287722Y1050165D01*
X1287645Y1049700D01*
X1289255D01*
G01X1286600Y1052700D02*
X1289000D01*
Y1056300D01*
X1286600D01*
G01X1284200D02*
X1281800D01*
Y1052700D01*
X1284200D01*
G01X1330400Y993200D02*
X1326400D01*
Y985200D01*
X1330400D01*
G01X1329942Y1025707D02*
X1330097Y1025937D01*
X1330200Y1026205D01*
Y1026512D01*
X1330045Y1026857D01*
X1329787Y1027125D01*
X1329477Y1027317D01*
X1328960Y1027470D01*
X1328495Y1027508D01*
X1328030Y1027432D01*
X1327720Y1027317D01*
X1327410Y1027087D01*
X1327203Y1026818D01*
X1327100Y1026550D01*
Y1026282D01*
X1327203Y1026013D01*
X1327358Y1025783D01*
X1327565Y1025592D01*
G01X1327100Y1023450D02*
X1330200D01*
X1329580Y1023910D01*
G01X1327100D02*
Y1022990D01*
G01X1322600Y1024400D02*
Y1022000D01*
X1326200D01*
Y1024400D01*
G01Y1026800D02*
Y1029200D01*
X1322600D01*
Y1026800D01*
G01X1325593Y1014942D02*
X1325363Y1015097D01*
X1325095Y1015200D01*
X1324788D01*
X1324443Y1015045D01*
X1324175Y1014787D01*
X1323983Y1014477D01*
X1323830Y1013960D01*
X1323792Y1013495D01*
X1323868Y1013030D01*
X1323983Y1012720D01*
X1324213Y1012410D01*
X1324482Y1012203D01*
X1324750Y1012100D01*
X1325018D01*
X1325287Y1012203D01*
X1325517Y1012358D01*
X1325708Y1012565D01*
G01X1327122Y1013392D02*
X1327390Y1013753D01*
X1327620Y1013960D01*
X1327927Y1014063D01*
X1328195Y1013960D01*
X1328387Y1013753D01*
X1328540Y1013443D01*
X1328578Y1013082D01*
X1328540Y1012772D01*
X1328387Y1012462D01*
X1328157Y1012203D01*
X1327888Y1012100D01*
X1327582Y1012203D01*
X1327313Y1012513D01*
X1327160Y1012978D01*
X1327122Y1013495D01*
X1327198Y1014167D01*
X1327313Y1014528D01*
X1327505Y1014890D01*
X1327773Y1015148D01*
X1328042Y1015200D01*
X1328310Y1015097D01*
X1328502Y1014838D01*
G01X1327300Y1007600D02*
X1329700D01*
Y1011200D01*
X1327300D01*
G01X1324900D02*
X1322500D01*
Y1007600D01*
X1324900D01*
G01X1328700Y974000D02*
Y963000D01*
X1333700D01*
Y974000D01*
X1328700D01*
G01X1328100Y980583D02*
X1331200D01*
Y982117D01*
G01Y984450D02*
X1328100D01*
X1328720Y983990D01*
G01X1331200D02*
Y984910D01*
G01X1345600Y993200D02*
X1349600D01*
Y985200D01*
X1345600D01*
G01X1349893Y1024942D02*
X1349663Y1025097D01*
X1349395Y1025200D01*
X1349088D01*
X1348743Y1025045D01*
X1348475Y1024787D01*
X1348283Y1024477D01*
X1348130Y1023960D01*
X1348092Y1023495D01*
X1348168Y1023030D01*
X1348283Y1022720D01*
X1348513Y1022410D01*
X1348782Y1022203D01*
X1349050Y1022100D01*
X1349318D01*
X1349587Y1022203D01*
X1349817Y1022358D01*
X1350008Y1022565D01*
G01X1352150Y1022100D02*
X1352418Y1022152D01*
X1352725Y1022307D01*
X1352917Y1022565D01*
X1352993Y1022927D01*
X1352917Y1023288D01*
X1352687Y1023598D01*
X1352342Y1023753D01*
X1351958D01*
X1351728Y1023857D01*
X1351537Y1024115D01*
X1351460Y1024477D01*
X1351575Y1024838D01*
X1351843Y1025097D01*
X1352150Y1025200D01*
X1352457Y1025097D01*
X1352725Y1024838D01*
X1352840Y1024477D01*
X1352763Y1024115D01*
X1352572Y1023857D01*
X1352342Y1023753D01*
X1351958D01*
X1351613Y1023598D01*
X1351383Y1023288D01*
X1351307Y1022927D01*
X1351383Y1022565D01*
X1351575Y1022307D01*
X1351882Y1022152D01*
X1352150Y1022100D01*
G01X1351200Y1025700D02*
X1353600D01*
Y1029300D01*
X1351200D01*
G01X1348800D02*
X1346400D01*
Y1025700D01*
X1348800D01*
G01X1376200D02*
X1378600D01*
Y1029300D01*
X1376200D01*
G01X1373800D02*
X1371400D01*
Y1025700D01*
X1373800D01*
G01X1359793Y1017742D02*
X1359563Y1017897D01*
X1359295Y1018000D01*
X1358988D01*
X1358643Y1017845D01*
X1358375Y1017587D01*
X1358183Y1017277D01*
X1358030Y1016760D01*
X1357992Y1016295D01*
X1358068Y1015830D01*
X1358183Y1015520D01*
X1358413Y1015210D01*
X1358682Y1015003D01*
X1358950Y1014900D01*
X1359218D01*
X1359487Y1015003D01*
X1359717Y1015158D01*
X1359908Y1015365D01*
G01X1361973Y1014900D02*
X1362050Y1015572D01*
X1362165Y1016140D01*
X1362318Y1016657D01*
X1362510Y1017225D01*
X1362817Y1018000D01*
X1361283D01*
G01X1361200Y1010700D02*
X1363600D01*
Y1014300D01*
X1361200D01*
G01X1358800D02*
X1356400D01*
Y1010700D01*
X1358800D01*
G01X1374493Y1032442D02*
X1374263Y1032597D01*
X1373995Y1032700D01*
X1373688D01*
X1373343Y1032545D01*
X1373075Y1032287D01*
X1372883Y1031977D01*
X1372730Y1031460D01*
X1372692Y1030995D01*
X1372768Y1030530D01*
X1372883Y1030220D01*
X1373113Y1029910D01*
X1373382Y1029703D01*
X1373650Y1029600D01*
X1373918D01*
X1374187Y1029703D01*
X1374417Y1029858D01*
X1374608Y1030065D01*
G01X1376022Y1032183D02*
X1376252Y1032493D01*
X1376520Y1032648D01*
X1376827Y1032700D01*
X1377210Y1032597D01*
X1377478Y1032338D01*
X1377555Y1032028D01*
X1377517Y1031718D01*
X1377363Y1031460D01*
X1376597Y1030943D01*
X1376252Y1030582D01*
X1376022Y1030065D01*
X1375945Y1029600D01*
X1377555D01*
G01X1369207Y1047658D02*
X1369437Y1047503D01*
X1369705Y1047400D01*
X1370012D01*
X1370357Y1047555D01*
X1370625Y1047813D01*
X1370817Y1048123D01*
X1370970Y1048640D01*
X1371008Y1049105D01*
X1370932Y1049570D01*
X1370817Y1049880D01*
X1370587Y1050190D01*
X1370318Y1050397D01*
X1370050Y1050500D01*
X1369782D01*
X1369513Y1050397D01*
X1369283Y1050242D01*
X1369092Y1050035D01*
G01X1366490Y1050500D02*
Y1047400D01*
X1367908Y1049622D01*
X1365992D01*
G01X1368800Y1046800D02*
X1366400D01*
Y1043200D01*
X1368800D01*
G01X1371200D02*
X1373600D01*
Y1046800D01*
X1371200D01*
G01X1374542Y1065307D02*
X1374697Y1065537D01*
X1374800Y1065805D01*
Y1066112D01*
X1374645Y1066457D01*
X1374387Y1066725D01*
X1374077Y1066917D01*
X1373560Y1067070D01*
X1373095Y1067108D01*
X1372630Y1067032D01*
X1372320Y1066917D01*
X1372010Y1066687D01*
X1371803Y1066418D01*
X1371700Y1066150D01*
Y1065882D01*
X1371803Y1065613D01*
X1371958Y1065383D01*
X1372165Y1065192D01*
G01X1374283Y1063778D02*
X1374593Y1063548D01*
X1374748Y1063280D01*
X1374800Y1062973D01*
X1374697Y1062590D01*
X1374438Y1062322D01*
X1374128Y1062245D01*
X1373818Y1062283D01*
X1373560Y1062437D01*
X1373043Y1063203D01*
X1372682Y1063548D01*
X1372165Y1063778D01*
X1371700Y1063855D01*
Y1062245D01*
G01Y1059950D02*
X1374800D01*
X1374180Y1060410D01*
G01X1371700D02*
Y1059490D01*
G01X1367400Y1061800D02*
Y1059400D01*
X1371000D01*
Y1061800D01*
G01Y1064200D02*
Y1066600D01*
X1367400D01*
Y1064200D01*
G01X1387307Y994758D02*
X1387537Y994603D01*
X1387805Y994500D01*
X1388112D01*
X1388457Y994655D01*
X1388725Y994913D01*
X1388917Y995223D01*
X1389070Y995740D01*
X1389108Y996205D01*
X1389032Y996670D01*
X1388917Y996980D01*
X1388687Y997290D01*
X1388418Y997497D01*
X1388150Y997600D01*
X1387882D01*
X1387613Y997497D01*
X1387383Y997342D01*
X1387192Y997135D01*
G01X1385893D02*
X1385663Y997393D01*
X1385395Y997548D01*
X1385050Y997600D01*
X1384705Y997497D01*
X1384437Y997290D01*
X1384245Y996928D01*
X1384207Y996515D01*
X1384283Y996102D01*
X1384475Y995843D01*
X1384743Y995637D01*
X1385012Y995585D01*
X1385280Y995637D01*
X1385625Y995843D01*
X1385510Y994500D01*
X1384475D01*
G01X1381300Y1004300D02*
X1378900D01*
Y1000700D01*
X1381300D01*
G01X1383700D02*
X1386100D01*
Y1004300D01*
X1383700D01*
G01X1403800Y1034300D02*
X1401400D01*
Y1030700D01*
X1403800D01*
G01X1408807Y1059658D02*
X1409037Y1059503D01*
X1409305Y1059400D01*
X1409612D01*
X1409957Y1059555D01*
X1410225Y1059813D01*
X1410417Y1060123D01*
X1410570Y1060640D01*
X1410608Y1061105D01*
X1410532Y1061570D01*
X1410417Y1061880D01*
X1410187Y1062190D01*
X1409918Y1062397D01*
X1409650Y1062500D01*
X1409382D01*
X1409113Y1062397D01*
X1408883Y1062242D01*
X1408692Y1062035D01*
G01X1407278Y1059917D02*
X1407048Y1059607D01*
X1406780Y1059452D01*
X1406473Y1059400D01*
X1406090Y1059503D01*
X1405822Y1059762D01*
X1405745Y1060072D01*
X1405783Y1060382D01*
X1405937Y1060640D01*
X1406703Y1061157D01*
X1407048Y1061518D01*
X1407278Y1062035D01*
X1407355Y1062500D01*
X1405745D01*
G01X1404293Y1061880D02*
X1404063Y1062242D01*
X1403757Y1062448D01*
X1403412Y1062500D01*
X1403105Y1062448D01*
X1402798Y1062190D01*
X1402607Y1061880D01*
X1402568Y1061570D01*
X1402645Y1061208D01*
X1402913Y1060950D01*
X1403182Y1060847D01*
X1403527D01*
G01X1403182D02*
X1402952Y1060692D01*
X1402760Y1060433D01*
X1402683Y1060123D01*
X1402760Y1059813D01*
X1402952Y1059555D01*
X1403297Y1059400D01*
X1403642Y1059452D01*
X1403987Y1059658D01*
G01X1404993Y1038042D02*
X1404763Y1038197D01*
X1404495Y1038300D01*
X1404188D01*
X1403843Y1038145D01*
X1403575Y1037887D01*
X1403383Y1037577D01*
X1403230Y1037060D01*
X1403192Y1036595D01*
X1403268Y1036130D01*
X1403383Y1035820D01*
X1403613Y1035510D01*
X1403882Y1035303D01*
X1404150Y1035200D01*
X1404418D01*
X1404687Y1035303D01*
X1404917Y1035458D01*
X1405108Y1035665D01*
G01X1406407Y1035820D02*
X1406637Y1035458D01*
X1406943Y1035252D01*
X1407288Y1035200D01*
X1407595Y1035252D01*
X1407902Y1035510D01*
X1408093Y1035820D01*
X1408132Y1036130D01*
X1408055Y1036492D01*
X1407787Y1036750D01*
X1407518Y1036853D01*
X1407173D01*
G01X1407518D02*
X1407748Y1037008D01*
X1407940Y1037267D01*
X1408017Y1037577D01*
X1407940Y1037887D01*
X1407748Y1038145D01*
X1407403Y1038300D01*
X1407058Y1038248D01*
X1406713Y1038042D01*
G01X1406200Y1030700D02*
X1408600D01*
Y1034300D01*
X1406200D01*
G01X1405600Y1067300D02*
X1403200D01*
Y1063700D01*
X1405600D01*
G01X1408000D02*
X1410400D01*
Y1067300D01*
X1408000D01*
G01X1468893Y976442D02*
X1468663Y976597D01*
X1468395Y976700D01*
X1468088D01*
X1467743Y976545D01*
X1467475Y976287D01*
X1467283Y975977D01*
X1467130Y975460D01*
X1467092Y974995D01*
X1467168Y974530D01*
X1467283Y974220D01*
X1467513Y973910D01*
X1467782Y973703D01*
X1468050Y973600D01*
X1468318D01*
X1468587Y973703D01*
X1468817Y973858D01*
X1469008Y974065D01*
G01X1470422Y976183D02*
X1470652Y976493D01*
X1470920Y976648D01*
X1471227Y976700D01*
X1471610Y976597D01*
X1471878Y976338D01*
X1471955Y976028D01*
X1471917Y975718D01*
X1471763Y975460D01*
X1470997Y974943D01*
X1470652Y974582D01*
X1470422Y974065D01*
X1470345Y973600D01*
X1471955D01*
G01X1474250Y976700D02*
X1473943Y976597D01*
X1473713Y976338D01*
X1473560Y976028D01*
X1473445Y975615D01*
X1473407Y975150D01*
X1473445Y974685D01*
X1473560Y974272D01*
X1473713Y973962D01*
X1473943Y973703D01*
X1474250Y973600D01*
X1474557Y973703D01*
X1474787Y973962D01*
X1474940Y974272D01*
X1475055Y974685D01*
X1475093Y975150D01*
X1475055Y975615D01*
X1474940Y976028D01*
X1474787Y976338D01*
X1474557Y976597D01*
X1474250Y976700D01*
G01X1478800Y976800D02*
X1476400D01*
Y973200D01*
X1478800D01*
G01X1469293Y996642D02*
X1469063Y996797D01*
X1468795Y996900D01*
X1468488D01*
X1468143Y996745D01*
X1467875Y996487D01*
X1467683Y996177D01*
X1467530Y995660D01*
X1467492Y995195D01*
X1467568Y994730D01*
X1467683Y994420D01*
X1467913Y994110D01*
X1468182Y993903D01*
X1468450Y993800D01*
X1468718D01*
X1468987Y993903D01*
X1469217Y994058D01*
X1469408Y994265D01*
G01X1471550Y993800D02*
Y996900D01*
X1471090Y996280D01*
G01Y993800D02*
X1472010D01*
G01X1474650D02*
X1474918Y993852D01*
X1475225Y994007D01*
X1475417Y994265D01*
X1475493Y994627D01*
X1475417Y994988D01*
X1475187Y995298D01*
X1474842Y995453D01*
X1474458D01*
X1474228Y995557D01*
X1474037Y995815D01*
X1473960Y996177D01*
X1474075Y996538D01*
X1474343Y996797D01*
X1474650Y996900D01*
X1474957Y996797D01*
X1475225Y996538D01*
X1475340Y996177D01*
X1475263Y995815D01*
X1475072Y995557D01*
X1474842Y995453D01*
X1474458D01*
X1474113Y995298D01*
X1473883Y994988D01*
X1473807Y994627D01*
X1473883Y994265D01*
X1474075Y994007D01*
X1474382Y993852D01*
X1474650Y993800D01*
G01X1478800Y996800D02*
X1476400D01*
Y993200D01*
X1478800D01*
G01X1469193Y986242D02*
X1468963Y986397D01*
X1468695Y986500D01*
X1468388D01*
X1468043Y986345D01*
X1467775Y986087D01*
X1467583Y985777D01*
X1467430Y985260D01*
X1467392Y984795D01*
X1467468Y984330D01*
X1467583Y984020D01*
X1467813Y983710D01*
X1468082Y983503D01*
X1468350Y983400D01*
X1468618D01*
X1468887Y983503D01*
X1469117Y983658D01*
X1469308Y983865D01*
G01X1471450Y983400D02*
Y986500D01*
X1470990Y985880D01*
G01Y983400D02*
X1471910D01*
G01X1473898Y983762D02*
X1474167Y983503D01*
X1474473Y983400D01*
X1474780Y983503D01*
X1475048Y983813D01*
X1475240Y984278D01*
X1475317Y984743D01*
Y985312D01*
X1475240Y985777D01*
X1475048Y986190D01*
X1474818Y986397D01*
X1474550Y986500D01*
X1474243Y986397D01*
X1474013Y986190D01*
X1473860Y985880D01*
X1473783Y985467D01*
X1473860Y985105D01*
X1474052Y984743D01*
X1474282Y984537D01*
X1474550Y984485D01*
X1474857Y984588D01*
X1475087Y984847D01*
X1475317Y985312D01*
G01X1478800Y986800D02*
X1476400D01*
Y983200D01*
X1478800D01*
G01X1469193Y1025642D02*
X1468963Y1025797D01*
X1468695Y1025900D01*
X1468388D01*
X1468043Y1025745D01*
X1467775Y1025487D01*
X1467583Y1025177D01*
X1467430Y1024660D01*
X1467392Y1024195D01*
X1467468Y1023730D01*
X1467583Y1023420D01*
X1467813Y1023110D01*
X1468082Y1022903D01*
X1468350Y1022800D01*
X1468618D01*
X1468887Y1022903D01*
X1469117Y1023058D01*
X1469308Y1023265D01*
G01X1471450Y1022800D02*
Y1025900D01*
X1470990Y1025280D01*
G01Y1022800D02*
X1471910D01*
G01X1473707Y1023265D02*
X1473937Y1023007D01*
X1474205Y1022852D01*
X1474550Y1022800D01*
X1474895Y1022903D01*
X1475163Y1023110D01*
X1475355Y1023472D01*
X1475393Y1023885D01*
X1475317Y1024298D01*
X1475125Y1024557D01*
X1474857Y1024763D01*
X1474588Y1024815D01*
X1474320Y1024763D01*
X1473975Y1024557D01*
X1474090Y1025900D01*
X1475125D01*
G01X1478800Y1026800D02*
X1476400D01*
Y1023200D01*
X1478800D01*
G01X1469693Y1016042D02*
X1469463Y1016197D01*
X1469195Y1016300D01*
X1468888D01*
X1468543Y1016145D01*
X1468275Y1015887D01*
X1468083Y1015577D01*
X1467930Y1015060D01*
X1467892Y1014595D01*
X1467968Y1014130D01*
X1468083Y1013820D01*
X1468313Y1013510D01*
X1468582Y1013303D01*
X1468850Y1013200D01*
X1469118D01*
X1469387Y1013303D01*
X1469617Y1013458D01*
X1469808Y1013665D01*
G01X1471950Y1013200D02*
Y1016300D01*
X1471490Y1015680D01*
G01Y1013200D02*
X1472410D01*
G01X1474322Y1014492D02*
X1474590Y1014853D01*
X1474820Y1015060D01*
X1475127Y1015163D01*
X1475395Y1015060D01*
X1475587Y1014853D01*
X1475740Y1014543D01*
X1475778Y1014182D01*
X1475740Y1013872D01*
X1475587Y1013562D01*
X1475357Y1013303D01*
X1475088Y1013200D01*
X1474782Y1013303D01*
X1474513Y1013613D01*
X1474360Y1014078D01*
X1474322Y1014595D01*
X1474398Y1015267D01*
X1474513Y1015628D01*
X1474705Y1015990D01*
X1474973Y1016248D01*
X1475242Y1016300D01*
X1475510Y1016197D01*
X1475702Y1015938D01*
G01X1478800Y1016800D02*
X1476400D01*
Y1013200D01*
X1478800D01*
G01X1469493Y1006742D02*
X1469263Y1006897D01*
X1468995Y1007000D01*
X1468688D01*
X1468343Y1006845D01*
X1468075Y1006587D01*
X1467883Y1006277D01*
X1467730Y1005760D01*
X1467692Y1005295D01*
X1467768Y1004830D01*
X1467883Y1004520D01*
X1468113Y1004210D01*
X1468382Y1004003D01*
X1468650Y1003900D01*
X1468918D01*
X1469187Y1004003D01*
X1469417Y1004158D01*
X1469608Y1004365D01*
G01X1471750Y1003900D02*
Y1007000D01*
X1471290Y1006380D01*
G01Y1003900D02*
X1472210D01*
G01X1474773D02*
X1474850Y1004572D01*
X1474965Y1005140D01*
X1475118Y1005657D01*
X1475310Y1006225D01*
X1475617Y1007000D01*
X1474083D01*
G01X1478800Y1006800D02*
X1476400D01*
Y1003200D01*
X1478800D01*
G01X1469493Y1046642D02*
X1469263Y1046797D01*
X1468995Y1046900D01*
X1468688D01*
X1468343Y1046745D01*
X1468075Y1046487D01*
X1467883Y1046177D01*
X1467730Y1045660D01*
X1467692Y1045195D01*
X1467768Y1044730D01*
X1467883Y1044420D01*
X1468113Y1044110D01*
X1468382Y1043903D01*
X1468650Y1043800D01*
X1468918D01*
X1469187Y1043903D01*
X1469417Y1044058D01*
X1469608Y1044265D01*
G01X1471750Y1043800D02*
Y1046900D01*
X1471290Y1046280D01*
G01Y1043800D02*
X1472210D01*
G01X1474007Y1044420D02*
X1474237Y1044058D01*
X1474543Y1043852D01*
X1474888Y1043800D01*
X1475195Y1043852D01*
X1475502Y1044110D01*
X1475693Y1044420D01*
X1475732Y1044730D01*
X1475655Y1045092D01*
X1475387Y1045350D01*
X1475118Y1045453D01*
X1474773D01*
G01X1475118D02*
X1475348Y1045608D01*
X1475540Y1045867D01*
X1475617Y1046177D01*
X1475540Y1046487D01*
X1475348Y1046745D01*
X1475003Y1046900D01*
X1474658Y1046848D01*
X1474313Y1046642D01*
G01X1478800Y1046800D02*
X1476400D01*
Y1043200D01*
X1478800D01*
G01X1468793Y1036142D02*
X1468563Y1036297D01*
X1468295Y1036400D01*
X1467988D01*
X1467643Y1036245D01*
X1467375Y1035987D01*
X1467183Y1035677D01*
X1467030Y1035160D01*
X1466992Y1034695D01*
X1467068Y1034230D01*
X1467183Y1033920D01*
X1467413Y1033610D01*
X1467682Y1033403D01*
X1467950Y1033300D01*
X1468218D01*
X1468487Y1033403D01*
X1468717Y1033558D01*
X1468908Y1033765D01*
G01X1471050Y1033300D02*
Y1036400D01*
X1470590Y1035780D01*
G01Y1033300D02*
X1471510D01*
G01X1474610D02*
Y1036400D01*
X1473192Y1034178D01*
X1475108D01*
G01X1478800Y1036800D02*
X1476400D01*
Y1033200D01*
X1478800D01*
G01X1469793Y1066842D02*
X1469563Y1066997D01*
X1469295Y1067100D01*
X1468988D01*
X1468643Y1066945D01*
X1468375Y1066687D01*
X1468183Y1066377D01*
X1468030Y1065860D01*
X1467992Y1065395D01*
X1468068Y1064930D01*
X1468183Y1064620D01*
X1468413Y1064310D01*
X1468682Y1064103D01*
X1468950Y1064000D01*
X1469218D01*
X1469487Y1064103D01*
X1469717Y1064258D01*
X1469908Y1064465D01*
G01X1472050Y1064000D02*
Y1067100D01*
X1471590Y1066480D01*
G01Y1064000D02*
X1472510D01*
G01X1475150D02*
Y1067100D01*
X1474690Y1066480D01*
G01Y1064000D02*
X1475610D01*
G01X1478800Y1066800D02*
X1476400D01*
Y1063200D01*
X1478800D01*
G01X1469293Y1056542D02*
X1469063Y1056697D01*
X1468795Y1056800D01*
X1468488D01*
X1468143Y1056645D01*
X1467875Y1056387D01*
X1467683Y1056077D01*
X1467530Y1055560D01*
X1467492Y1055095D01*
X1467568Y1054630D01*
X1467683Y1054320D01*
X1467913Y1054010D01*
X1468182Y1053803D01*
X1468450Y1053700D01*
X1468718D01*
X1468987Y1053803D01*
X1469217Y1053958D01*
X1469408Y1054165D01*
G01X1471550Y1053700D02*
Y1056800D01*
X1471090Y1056180D01*
G01Y1053700D02*
X1472010D01*
G01X1473922Y1056283D02*
X1474152Y1056593D01*
X1474420Y1056748D01*
X1474727Y1056800D01*
X1475110Y1056697D01*
X1475378Y1056438D01*
X1475455Y1056128D01*
X1475417Y1055818D01*
X1475263Y1055560D01*
X1474497Y1055043D01*
X1474152Y1054682D01*
X1473922Y1054165D01*
X1473845Y1053700D01*
X1475455D01*
G01X1478800Y1056800D02*
X1476400D01*
Y1053200D01*
X1478800D01*
G01X1481200Y973200D02*
X1483600D01*
Y976800D01*
X1481200D01*
G01Y993200D02*
X1483600D01*
Y996800D01*
X1481200D01*
G01Y983200D02*
X1483600D01*
Y986800D01*
X1481200D01*
G01Y1023200D02*
X1483600D01*
Y1026800D01*
X1481200D01*
G01Y1013200D02*
X1483600D01*
Y1016800D01*
X1481200D01*
G01Y1003200D02*
X1483600D01*
Y1006800D01*
X1481200D01*
G01Y1043200D02*
X1483600D01*
Y1046800D01*
X1481200D01*
G01Y1033200D02*
X1483600D01*
Y1036800D01*
X1481200D01*
G01Y1063200D02*
X1483600D01*
Y1066800D01*
X1481200D01*
G01Y1053200D02*
X1483600D01*
Y1056800D01*
X1481200D01*
G54D12*
G01X1329666Y976000D02*
G03I-1166J0D01*
G01X1434000Y1017500D02*
Y977500D01*
X1446000D01*
Y1017500D01*
X1434000D01*
G01Y1067500D02*
Y1027500D01*
X1446000D01*
Y1067500D01*
X1434000D01*
G01X1204000Y947000D02*
X1226000D01*
Y969000D01*
X1204000D01*
Y947000D01*
G01X1220267Y975000D02*
Y977500D01*
X1220907D01*
X1221120Y977375D01*
X1221280Y977083D01*
X1221333Y976750D01*
X1221280Y976417D01*
X1221147Y976167D01*
X1220907Y976042D01*
X1220267D01*
G01X1222547Y976667D02*
Y975500D01*
X1222653Y975208D01*
X1222813Y975042D01*
X1223000Y975000D01*
X1223187Y975042D01*
X1223347Y975208D01*
X1223453Y975500D01*
G01Y975000D02*
Y976667D01*
G01X1225200Y975000D02*
Y977500D01*
G01X1227000Y975292D02*
X1227133Y975125D01*
X1227320Y975000D01*
X1227480D01*
X1227640Y975083D01*
X1227747Y975208D01*
X1227800Y975375D01*
X1227773Y975625D01*
X1227667Y975750D01*
X1227187Y976000D01*
X1227080Y976292D01*
X1227133Y976500D01*
X1227240Y976625D01*
X1227400Y976667D01*
X1227560Y976625D01*
X1227720Y976500D01*
G01X1229200Y976125D02*
X1230053D01*
X1229973Y976417D01*
X1229840Y976583D01*
X1229653Y976667D01*
X1229467Y976625D01*
X1229307Y976500D01*
X1229200Y976208D01*
X1229147Y975958D01*
Y975708D01*
X1229200Y975458D01*
X1229333Y975208D01*
X1229493Y975042D01*
X1229680Y975000D01*
X1229867Y975083D01*
X1230053Y975333D01*
G01X1231000Y974167D02*
X1232600D01*
G01X1234587Y977292D02*
X1234427Y977417D01*
X1234240Y977500D01*
X1234027D01*
X1233787Y977375D01*
X1233600Y977167D01*
X1233467Y976917D01*
X1233360Y976500D01*
X1233333Y976125D01*
X1233387Y975750D01*
X1233467Y975500D01*
X1233627Y975250D01*
X1233813Y975083D01*
X1234000Y975000D01*
X1234187D01*
X1234373Y975083D01*
X1234533Y975208D01*
X1234667Y975375D01*
G01X1235747Y976667D02*
Y975500D01*
X1235853Y975208D01*
X1236013Y975042D01*
X1236200Y975000D01*
X1236387Y975042D01*
X1236547Y975208D01*
X1236653Y975500D01*
G01Y975000D02*
Y976667D01*
G01X1238027Y975000D02*
Y976667D01*
G01Y976333D02*
X1238160Y976500D01*
X1238293Y976625D01*
X1238480Y976667D01*
X1238613Y976625D01*
X1238773Y976500D01*
G01X1240227Y975000D02*
Y976667D01*
G01Y976333D02*
X1240360Y976500D01*
X1240493Y976625D01*
X1240680Y976667D01*
X1240813Y976625D01*
X1240973Y976500D01*
G01X1242400Y976125D02*
X1243253D01*
X1243173Y976417D01*
X1243040Y976583D01*
X1242853Y976667D01*
X1242667Y976625D01*
X1242507Y976500D01*
X1242400Y976208D01*
X1242347Y975958D01*
Y975708D01*
X1242400Y975458D01*
X1242533Y975208D01*
X1242693Y975042D01*
X1242880Y975000D01*
X1243067Y975083D01*
X1243253Y975333D01*
G01X1244547Y975000D02*
Y976667D01*
G01Y976250D02*
X1244653Y976458D01*
X1244813Y976625D01*
X1245027Y976667D01*
X1245213Y976625D01*
X1245373Y976458D01*
X1245453Y976167D01*
Y975000D01*
G01X1247200Y977500D02*
Y975000D01*
G01X1246827Y976667D02*
X1247573D01*
G01X1224900Y964100D02*
X1254900D01*
Y974100D01*
X1224900D01*
Y964100D01*
G01X1225000Y991000D02*
X1245000D01*
Y999000D01*
X1225000D01*
Y991000D01*
G01Y978500D02*
X1245000D01*
Y986500D01*
X1225000D01*
Y978500D01*
G01X1245000Y1011500D02*
X1225000D01*
Y1003500D01*
X1245000D01*
Y1011500D01*
G01X1204000Y1076000D02*
X1226000D01*
Y1098000D01*
X1204000D01*
Y1076000D01*
G01X1237033Y963800D02*
X1237700Y961300D01*
X1238367Y963800D01*
G01X1239580D02*
X1240220D01*
G01X1239900D02*
Y961300D01*
G01X1239580D02*
X1240220D01*
G01X1241487D02*
Y963800D01*
X1242713Y961300D01*
Y963800D01*
G01X1228707Y963000D02*
Y959417D01*
X1228960Y958667D01*
X1229467Y958167D01*
X1230100Y958000D01*
X1230733Y958167D01*
X1231240Y958667D01*
X1231493Y959417D01*
Y963000D01*
G01X1235200Y958000D02*
Y963000D01*
X1234440Y962000D01*
G01Y958000D02*
X1235960D01*
G01X1238907Y959000D02*
X1239287Y958417D01*
X1239793Y958083D01*
X1240363Y958000D01*
X1240870Y958083D01*
X1241377Y958500D01*
X1241693Y959000D01*
X1241757Y959500D01*
X1241630Y960083D01*
X1241187Y960500D01*
X1240743Y960667D01*
X1240173D01*
G01X1240743D02*
X1241123Y960917D01*
X1241440Y961333D01*
X1241567Y961833D01*
X1241440Y962333D01*
X1241123Y962750D01*
X1240553Y963000D01*
X1239983Y962917D01*
X1239413Y962583D01*
G01X1231033Y990400D02*
X1231700Y987900D01*
X1232367Y990400D01*
G01X1233367Y987900D02*
Y990400D01*
X1234033D01*
X1234247Y990275D01*
X1234380Y990108D01*
X1234433Y989775D01*
X1234380Y989442D01*
X1234220Y989233D01*
X1234033Y989108D01*
X1233367D01*
G01X1234033D02*
X1234433Y987900D01*
G01X1235780Y990400D02*
X1236420D01*
G01X1236100D02*
Y987900D01*
G01X1235780D02*
X1236420D01*
G01X1237687D02*
Y990400D01*
X1238913Y987900D01*
Y990400D01*
G01X1239700Y987067D02*
X1241300D01*
G01X1243233Y987900D02*
X1242167D01*
Y990400D01*
X1243233D01*
G01X1242807Y989192D02*
X1242167D01*
G01X1244287Y987900D02*
Y990400D01*
X1245513Y987900D01*
Y990400D01*
G01X1227333Y1003100D02*
X1228000Y1000600D01*
X1228667Y1003100D01*
G01X1229400Y999767D02*
X1231000D01*
G01X1231867Y1000600D02*
Y1003100D01*
X1232533D01*
X1232747Y1002975D01*
X1232880Y1002808D01*
X1232933Y1002475D01*
X1232880Y1002142D01*
X1232720Y1001933D01*
X1232533Y1001808D01*
X1231867D01*
G01X1232533D02*
X1232933Y1000600D01*
G01X1235133D02*
X1234067D01*
Y1003100D01*
X1235133D01*
G01X1234707Y1001892D02*
X1234067D01*
G01X1236293Y1000600D02*
Y1003100D01*
X1237307D01*
G01X1236933Y1001892D02*
X1236293D01*
G01X1238200Y999767D02*
X1239800D01*
G01X1240880Y1003100D02*
X1241520D01*
G01X1241200D02*
Y1000600D01*
G01X1240880D02*
X1241520D01*
G01X1242787D02*
Y1003100D01*
X1244013Y1000600D01*
Y1003100D01*
G01X1250667Y982300D02*
Y984800D01*
X1251333D01*
X1251547Y984675D01*
X1251680Y984508D01*
X1251733Y984175D01*
X1251680Y983842D01*
X1251520Y983633D01*
X1251333Y983508D01*
X1250667D01*
G01X1251333D02*
X1251733Y982300D01*
G01X1252813Y982800D02*
X1252973Y982508D01*
X1253187Y982342D01*
X1253427Y982300D01*
X1253640Y982342D01*
X1253853Y982550D01*
X1253987Y982800D01*
X1254013Y983050D01*
X1253960Y983342D01*
X1253773Y983550D01*
X1253587Y983633D01*
X1253347D01*
G01X1253587D02*
X1253747Y983758D01*
X1253880Y983967D01*
X1253933Y984217D01*
X1253880Y984467D01*
X1253747Y984675D01*
X1253507Y984800D01*
X1253267Y984758D01*
X1253027Y984592D01*
G01X1255600Y984800D02*
X1255387Y984717D01*
X1255227Y984508D01*
X1255120Y984258D01*
X1255040Y983925D01*
X1255013Y983550D01*
X1255040Y983175D01*
X1255120Y982842D01*
X1255227Y982592D01*
X1255387Y982383D01*
X1255600Y982300D01*
X1255813Y982383D01*
X1255973Y982592D01*
X1256080Y982842D01*
X1256160Y983175D01*
X1256187Y983550D01*
X1256160Y983925D01*
X1256080Y984258D01*
X1255973Y984508D01*
X1255813Y984717D01*
X1255600Y984800D01*
G01X1246533Y1000800D02*
Y1005800D01*
X1248116D01*
X1248623Y1005550D01*
X1248939Y1005217D01*
X1249066Y1004550D01*
X1248939Y1003883D01*
X1248559Y1003467D01*
X1248116Y1003217D01*
X1246533D01*
G01X1248116D02*
X1249066Y1000800D01*
G01X1251694Y1004967D02*
X1252074Y1005467D01*
X1252518Y1005717D01*
X1253024Y1005800D01*
X1253657Y1005633D01*
X1254101Y1005217D01*
X1254227Y1004717D01*
X1254164Y1004217D01*
X1253911Y1003800D01*
X1252644Y1002967D01*
X1252074Y1002383D01*
X1251694Y1001550D01*
X1251568Y1000800D01*
X1254227D01*
G01X1256919Y1001383D02*
X1257362Y1000967D01*
X1257869Y1000800D01*
X1258375Y1000967D01*
X1258819Y1001467D01*
X1259135Y1002217D01*
X1259262Y1002967D01*
Y1003883D01*
X1259135Y1004633D01*
X1258819Y1005300D01*
X1258439Y1005633D01*
X1257995Y1005800D01*
X1257489Y1005633D01*
X1257109Y1005300D01*
X1256856Y1004800D01*
X1256729Y1004133D01*
X1256856Y1003550D01*
X1257172Y1002967D01*
X1257552Y1002633D01*
X1257995Y1002550D01*
X1258502Y1002717D01*
X1258882Y1003133D01*
X1259262Y1003883D01*
G01X1248800Y997500D02*
Y1000100D01*
X1255000D01*
Y997500D01*
X1248800D01*
G01X1251900Y978700D02*
Y981300D01*
X1258100D01*
Y978700D01*
X1251900D01*
G01X1236867Y1074600D02*
Y1077100D01*
X1237533D01*
X1237747Y1076975D01*
X1237880Y1076808D01*
X1237933Y1076475D01*
X1237880Y1076142D01*
X1237720Y1075933D01*
X1237533Y1075808D01*
X1236867D01*
G01X1237533D02*
X1237933Y1074600D01*
G01X1239013D02*
Y1077100D01*
G01X1240027D02*
X1239013Y1075558D01*
G01X1240187Y1074600D02*
X1239467Y1076267D01*
G01X1241800Y1077100D02*
X1241587Y1077017D01*
X1241427Y1076808D01*
X1241320Y1076558D01*
X1241240Y1076225D01*
X1241213Y1075850D01*
X1241240Y1075475D01*
X1241320Y1075142D01*
X1241427Y1074892D01*
X1241587Y1074683D01*
X1241800Y1074600D01*
X1242013Y1074683D01*
X1242173Y1074892D01*
X1242280Y1075142D01*
X1242360Y1075475D01*
X1242387Y1075850D01*
X1242360Y1076225D01*
X1242280Y1076558D01*
X1242173Y1076808D01*
X1242013Y1077017D01*
X1241800Y1077100D01*
G01X1243547Y1074892D02*
X1243733Y1074683D01*
X1243947Y1074600D01*
X1244160Y1074683D01*
X1244347Y1074933D01*
X1244480Y1075308D01*
X1244533Y1075683D01*
Y1076142D01*
X1244480Y1076517D01*
X1244347Y1076850D01*
X1244187Y1077017D01*
X1244000Y1077100D01*
X1243787Y1077017D01*
X1243627Y1076850D01*
X1243520Y1076600D01*
X1243467Y1076267D01*
X1243520Y1075975D01*
X1243653Y1075683D01*
X1243813Y1075517D01*
X1244000Y1075475D01*
X1244213Y1075558D01*
X1244373Y1075767D01*
X1244533Y1076142D01*
G01X1245667Y1077100D02*
Y1074600D01*
X1246733D01*
G01X1248400D02*
Y1077100D01*
X1248080Y1076600D01*
G01Y1074600D02*
X1248720D01*
G01X1250600D02*
Y1077100D01*
X1250280Y1076600D01*
G01Y1074600D02*
X1250920D01*
G01X1253120D02*
Y1077100D01*
X1252133Y1075308D01*
X1253467D01*
G01X1255000Y1077100D02*
X1254787Y1077017D01*
X1254627Y1076808D01*
X1254520Y1076558D01*
X1254440Y1076225D01*
X1254413Y1075850D01*
X1254440Y1075475D01*
X1254520Y1075142D01*
X1254627Y1074892D01*
X1254787Y1074683D01*
X1255000Y1074600D01*
X1255213Y1074683D01*
X1255373Y1074892D01*
X1255480Y1075142D01*
X1255560Y1075475D01*
X1255587Y1075850D01*
X1255560Y1076225D01*
X1255480Y1076558D01*
X1255373Y1076808D01*
X1255213Y1077017D01*
X1255000Y1077100D01*
G01X1256533Y1074600D02*
X1257200Y1077100D01*
X1257867Y1074600D01*
G01X1257627Y1075475D02*
X1256773D01*
G01X1258893Y1076683D02*
X1259053Y1076933D01*
X1259240Y1077058D01*
X1259453Y1077100D01*
X1259720Y1077017D01*
X1259907Y1076808D01*
X1259960Y1076558D01*
X1259933Y1076308D01*
X1259827Y1076100D01*
X1259293Y1075683D01*
X1259053Y1075392D01*
X1258893Y1074975D01*
X1258840Y1074600D01*
X1259960D01*
G01X1261013Y1077100D02*
Y1075308D01*
X1261120Y1074933D01*
X1261333Y1074683D01*
X1261600Y1074600D01*
X1261867Y1074683D01*
X1262080Y1074933D01*
X1262187Y1075308D01*
Y1077100D01*
G01X1228707Y1092000D02*
Y1088417D01*
X1228960Y1087667D01*
X1229467Y1087167D01*
X1230100Y1087000D01*
X1230733Y1087167D01*
X1231240Y1087667D01*
X1231493Y1088417D01*
Y1092000D01*
G01X1235200Y1087000D02*
Y1092000D01*
X1234440Y1091000D01*
G01Y1087000D02*
X1235960D01*
G01X1240300D02*
Y1092000D01*
X1239540Y1091000D01*
G01Y1087000D02*
X1241060D01*
G01X1254267Y976500D02*
Y974000D01*
X1255333D01*
G01X1257000Y976500D02*
Y974000D01*
G01X1256387Y976500D02*
X1257613D01*
G01X1259787Y976292D02*
X1259627Y976417D01*
X1259440Y976500D01*
X1259227D01*
X1258987Y976375D01*
X1258800Y976167D01*
X1258667Y975917D01*
X1258560Y975500D01*
X1258533Y975125D01*
X1258587Y974750D01*
X1258667Y974500D01*
X1258827Y974250D01*
X1259013Y974083D01*
X1259200Y974000D01*
X1259387D01*
X1259573Y974083D01*
X1259733Y974208D01*
X1259867Y974375D01*
G01X1260893Y976083D02*
X1261053Y976333D01*
X1261240Y976458D01*
X1261453Y976500D01*
X1261720Y976417D01*
X1261907Y976208D01*
X1261960Y975958D01*
X1261933Y975708D01*
X1261827Y975500D01*
X1261293Y975083D01*
X1261053Y974792D01*
X1260893Y974375D01*
X1260840Y974000D01*
X1261960D01*
G01X1263600Y976500D02*
X1263387Y976417D01*
X1263227Y976208D01*
X1263120Y975958D01*
X1263040Y975625D01*
X1263013Y975250D01*
X1263040Y974875D01*
X1263120Y974542D01*
X1263227Y974292D01*
X1263387Y974083D01*
X1263600Y974000D01*
X1263813Y974083D01*
X1263973Y974292D01*
X1264080Y974542D01*
X1264160Y974875D01*
X1264187Y975250D01*
X1264160Y975625D01*
X1264080Y975958D01*
X1263973Y976208D01*
X1263813Y976417D01*
X1263600Y976500D01*
G01X1265213Y974375D02*
X1265373Y974167D01*
X1265560Y974042D01*
X1265800Y974000D01*
X1266040Y974083D01*
X1266227Y974250D01*
X1266360Y974542D01*
X1266387Y974875D01*
X1266333Y975208D01*
X1266200Y975417D01*
X1266013Y975583D01*
X1265827Y975625D01*
X1265640Y975583D01*
X1265400Y975417D01*
X1265480Y976500D01*
X1266200D01*
G01X1268000D02*
X1267787Y976417D01*
X1267627Y976208D01*
X1267520Y975958D01*
X1267440Y975625D01*
X1267413Y975250D01*
X1267440Y974875D01*
X1267520Y974542D01*
X1267627Y974292D01*
X1267787Y974083D01*
X1268000Y974000D01*
X1268213Y974083D01*
X1268373Y974292D01*
X1268480Y974542D01*
X1268560Y974875D01*
X1268587Y975250D01*
X1268560Y975625D01*
X1268480Y975958D01*
X1268373Y976208D01*
X1268213Y976417D01*
X1268000Y976500D01*
G01X1254267Y965000D02*
Y967500D01*
X1254933D01*
X1255147Y967375D01*
X1255280Y967208D01*
X1255333Y966875D01*
X1255280Y966542D01*
X1255120Y966333D01*
X1254933Y966208D01*
X1254267D01*
G01X1254933D02*
X1255333Y965000D01*
G01X1256413Y965500D02*
X1256573Y965208D01*
X1256787Y965042D01*
X1257027Y965000D01*
X1257240Y965042D01*
X1257453Y965250D01*
X1257587Y965500D01*
X1257613Y965750D01*
X1257560Y966042D01*
X1257373Y966250D01*
X1257187Y966333D01*
X1256947D01*
G01X1257187D02*
X1257347Y966458D01*
X1257480Y966667D01*
X1257533Y966917D01*
X1257480Y967167D01*
X1257347Y967375D01*
X1257107Y967500D01*
X1256867Y967458D01*
X1256627Y967292D01*
G01X1258693Y967083D02*
X1258853Y967333D01*
X1259040Y967458D01*
X1259253Y967500D01*
X1259520Y967417D01*
X1259707Y967208D01*
X1259760Y966958D01*
X1259733Y966708D01*
X1259627Y966500D01*
X1259093Y966083D01*
X1258853Y965792D01*
X1258693Y965375D01*
X1258640Y965000D01*
X1259760D01*
G01X1275287Y970992D02*
X1275127Y971117D01*
X1274940Y971200D01*
X1274727D01*
X1274487Y971075D01*
X1274300Y970867D01*
X1274167Y970617D01*
X1274060Y970200D01*
X1274033Y969825D01*
X1274087Y969450D01*
X1274167Y969200D01*
X1274327Y968950D01*
X1274513Y968783D01*
X1274700Y968700D01*
X1274887D01*
X1275073Y968783D01*
X1275233Y968908D01*
X1275367Y969075D01*
G01X1276313Y969200D02*
X1276473Y968908D01*
X1276687Y968742D01*
X1276927Y968700D01*
X1277140Y968742D01*
X1277353Y968950D01*
X1277487Y969200D01*
X1277513Y969450D01*
X1277460Y969742D01*
X1277273Y969950D01*
X1277087Y970033D01*
X1276847D01*
G01X1277087D02*
X1277247Y970158D01*
X1277380Y970367D01*
X1277433Y970617D01*
X1277380Y970867D01*
X1277247Y971075D01*
X1277007Y971200D01*
X1276767Y971158D01*
X1276527Y970992D01*
G01X1278593Y970783D02*
X1278753Y971033D01*
X1278940Y971158D01*
X1279153Y971200D01*
X1279420Y971117D01*
X1279607Y970908D01*
X1279660Y970658D01*
X1279633Y970408D01*
X1279527Y970200D01*
X1278993Y969783D01*
X1278753Y969492D01*
X1278593Y969075D01*
X1278540Y968700D01*
X1279660D01*
G01X1267267Y959000D02*
Y961500D01*
X1267933D01*
X1268147Y961375D01*
X1268280Y961208D01*
X1268333Y960875D01*
X1268280Y960542D01*
X1268120Y960333D01*
X1267933Y960208D01*
X1267267D01*
G01X1267933D02*
X1268333Y959000D01*
G01X1269413Y959500D02*
X1269573Y959208D01*
X1269787Y959042D01*
X1270027Y959000D01*
X1270240Y959042D01*
X1270453Y959250D01*
X1270587Y959500D01*
X1270613Y959750D01*
X1270560Y960042D01*
X1270373Y960250D01*
X1270187Y960333D01*
X1269947D01*
G01X1270187D02*
X1270347Y960458D01*
X1270480Y960667D01*
X1270533Y960917D01*
X1270480Y961167D01*
X1270347Y961375D01*
X1270107Y961500D01*
X1269867Y961458D01*
X1269627Y961292D01*
G01X1272200Y959000D02*
Y961500D01*
X1271880Y961000D01*
G01Y959000D02*
X1272520D01*
G01X1266900Y963600D02*
Y966200D01*
X1273100D01*
Y963600D01*
X1266900D01*
G01X1257500Y969300D02*
Y971900D01*
X1263700D01*
Y969300D01*
X1257500D01*
G01X1259267Y1001000D02*
Y1003500D01*
X1259933D01*
X1260147Y1003375D01*
X1260280Y1003208D01*
X1260333Y1002875D01*
X1260280Y1002542D01*
X1260120Y1002333D01*
X1259933Y1002208D01*
X1259267D01*
G01X1259933D02*
X1260333Y1001000D01*
G01X1261493Y1003083D02*
X1261653Y1003333D01*
X1261840Y1003458D01*
X1262053Y1003500D01*
X1262320Y1003417D01*
X1262507Y1003208D01*
X1262560Y1002958D01*
X1262533Y1002708D01*
X1262427Y1002500D01*
X1261893Y1002083D01*
X1261653Y1001792D01*
X1261493Y1001375D01*
X1261440Y1001000D01*
X1262560D01*
G01X1264200D02*
X1264387Y1001042D01*
X1264600Y1001167D01*
X1264733Y1001375D01*
X1264787Y1001667D01*
X1264733Y1001958D01*
X1264573Y1002208D01*
X1264333Y1002333D01*
X1264067D01*
X1263907Y1002417D01*
X1263773Y1002625D01*
X1263720Y1002917D01*
X1263800Y1003208D01*
X1263987Y1003417D01*
X1264200Y1003500D01*
X1264413Y1003417D01*
X1264600Y1003208D01*
X1264680Y1002917D01*
X1264627Y1002625D01*
X1264493Y1002417D01*
X1264333Y1002333D01*
X1264067D01*
X1263827Y1002208D01*
X1263667Y1001958D01*
X1263613Y1001667D01*
X1263667Y1001375D01*
X1263800Y1001167D01*
X1264013Y1001042D01*
X1264200Y1001000D01*
G01X1259267Y995000D02*
Y997500D01*
X1259933D01*
X1260147Y997375D01*
X1260280Y997208D01*
X1260333Y996875D01*
X1260280Y996542D01*
X1260120Y996333D01*
X1259933Y996208D01*
X1259267D01*
G01X1259933D02*
X1260333Y995000D01*
G01X1261413Y995500D02*
X1261573Y995208D01*
X1261787Y995042D01*
X1262027Y995000D01*
X1262240Y995042D01*
X1262453Y995250D01*
X1262587Y995500D01*
X1262613Y995750D01*
X1262560Y996042D01*
X1262373Y996250D01*
X1262187Y996333D01*
X1261947D01*
G01X1262187D02*
X1262347Y996458D01*
X1262480Y996667D01*
X1262533Y996917D01*
X1262480Y997167D01*
X1262347Y997375D01*
X1262107Y997500D01*
X1261867Y997458D01*
X1261627Y997292D01*
G01X1263613Y995500D02*
X1263773Y995208D01*
X1263987Y995042D01*
X1264227Y995000D01*
X1264440Y995042D01*
X1264653Y995250D01*
X1264787Y995500D01*
X1264813Y995750D01*
X1264760Y996042D01*
X1264573Y996250D01*
X1264387Y996333D01*
X1264147D01*
G01X1264387D02*
X1264547Y996458D01*
X1264680Y996667D01*
X1264733Y996917D01*
X1264680Y997167D01*
X1264547Y997375D01*
X1264307Y997500D01*
X1264067Y997458D01*
X1263827Y997292D01*
G01X1275287Y993192D02*
X1275127Y993317D01*
X1274940Y993400D01*
X1274727D01*
X1274487Y993275D01*
X1274300Y993067D01*
X1274167Y992817D01*
X1274060Y992400D01*
X1274033Y992025D01*
X1274087Y991650D01*
X1274167Y991400D01*
X1274327Y991150D01*
X1274513Y990983D01*
X1274700Y990900D01*
X1274887D01*
X1275073Y990983D01*
X1275233Y991108D01*
X1275367Y991275D01*
G01X1276393Y992983D02*
X1276553Y993233D01*
X1276740Y993358D01*
X1276953Y993400D01*
X1277220Y993317D01*
X1277407Y993108D01*
X1277460Y992858D01*
X1277433Y992608D01*
X1277327Y992400D01*
X1276793Y991983D01*
X1276553Y991692D01*
X1276393Y991275D01*
X1276340Y990900D01*
X1277460D01*
G01X1279420D02*
Y993400D01*
X1278433Y991608D01*
X1279767D01*
G01X1266300Y1000100D02*
Y997500D01*
X1260100D01*
Y1000100D01*
X1266300D01*
G01X1260300Y991600D02*
Y994200D01*
X1266500D01*
Y991600D01*
X1260300D01*
G01X1269700Y977400D02*
X1275300D01*
Y987600D01*
X1269700D01*
Y977400D01*
G01X1253867Y1013100D02*
Y1015600D01*
X1254507D01*
X1254720Y1015475D01*
X1254880Y1015183D01*
X1254933Y1014850D01*
X1254880Y1014517D01*
X1254747Y1014267D01*
X1254507Y1014142D01*
X1253867D01*
G01X1256600Y1013100D02*
X1256387Y1013142D01*
X1256200Y1013308D01*
X1256040Y1013558D01*
X1255933Y1013850D01*
X1255880Y1014183D01*
Y1014517D01*
X1255933Y1014850D01*
X1256040Y1015142D01*
X1256200Y1015392D01*
X1256387Y1015558D01*
X1256600Y1015600D01*
X1256813Y1015558D01*
X1257000Y1015392D01*
X1257160Y1015142D01*
X1257267Y1014850D01*
X1257320Y1014517D01*
Y1014183D01*
X1257267Y1013850D01*
X1257160Y1013558D01*
X1257000Y1013308D01*
X1256813Y1013142D01*
X1256600Y1013100D01*
G01X1258800Y1015600D02*
Y1013100D01*
G01X1258187Y1015600D02*
X1259413D01*
G01X1260200Y1012267D02*
X1261800D01*
G01X1262667Y1013100D02*
Y1015600D01*
X1263333D01*
X1263547Y1015475D01*
X1263680Y1015308D01*
X1263733Y1014975D01*
X1263680Y1014642D01*
X1263520Y1014433D01*
X1263333Y1014308D01*
X1262667D01*
G01X1263333D02*
X1263733Y1013100D01*
G01X1264813D02*
Y1015600D01*
G01X1265827D02*
X1264813Y1014058D01*
G01X1265987Y1013100D02*
X1265267Y1014767D01*
G01X1267600Y1015600D02*
X1267387Y1015517D01*
X1267227Y1015308D01*
X1267120Y1015058D01*
X1267040Y1014725D01*
X1267013Y1014350D01*
X1267040Y1013975D01*
X1267120Y1013642D01*
X1267227Y1013392D01*
X1267387Y1013183D01*
X1267600Y1013100D01*
X1267813Y1013183D01*
X1267973Y1013392D01*
X1268080Y1013642D01*
X1268160Y1013975D01*
X1268187Y1014350D01*
X1268160Y1014725D01*
X1268080Y1015058D01*
X1267973Y1015308D01*
X1267813Y1015517D01*
X1267600Y1015600D01*
G01X1269347Y1013392D02*
X1269533Y1013183D01*
X1269747Y1013100D01*
X1269960Y1013183D01*
X1270147Y1013433D01*
X1270280Y1013808D01*
X1270333Y1014183D01*
Y1014642D01*
X1270280Y1015017D01*
X1270147Y1015350D01*
X1269987Y1015517D01*
X1269800Y1015600D01*
X1269587Y1015517D01*
X1269427Y1015350D01*
X1269320Y1015100D01*
X1269267Y1014767D01*
X1269320Y1014475D01*
X1269453Y1014183D01*
X1269613Y1014017D01*
X1269800Y1013975D01*
X1270013Y1014058D01*
X1270173Y1014267D01*
X1270333Y1014642D01*
G01X1271200Y1012267D02*
X1272800D01*
G01X1274733Y1013100D02*
X1273667D01*
Y1015600D01*
X1274733D01*
G01X1274307Y1014392D02*
X1273667D01*
G01X1275787Y1013100D02*
Y1015600D01*
X1277013Y1013100D01*
Y1015600D01*
G01X1252500Y1003500D02*
X1272500D01*
Y1011500D01*
X1252500D01*
Y1003500D01*
G01X1275153Y1081333D02*
X1275847D01*
G01X1278233Y1080500D02*
X1277167D01*
Y1083000D01*
X1278233D01*
G01X1277807Y1081792D02*
X1277167D01*
G01X1279500Y1082167D02*
X1280300Y1080500D01*
G01Y1082167D02*
X1279500Y1080500D01*
G01X1282100Y1083000D02*
Y1080500D01*
G01X1281727Y1082167D02*
X1282473D01*
G01X1283900Y1081625D02*
X1284753D01*
X1284673Y1081917D01*
X1284540Y1082083D01*
X1284353Y1082167D01*
X1284167Y1082125D01*
X1284007Y1082000D01*
X1283900Y1081708D01*
X1283847Y1081458D01*
Y1081208D01*
X1283900Y1080958D01*
X1284033Y1080708D01*
X1284193Y1080542D01*
X1284380Y1080500D01*
X1284567Y1080583D01*
X1284753Y1080833D01*
G01X1286127Y1080500D02*
Y1082167D01*
G01Y1081833D02*
X1286260Y1082000D01*
X1286393Y1082125D01*
X1286580Y1082167D01*
X1286713Y1082125D01*
X1286873Y1082000D01*
G01X1288247Y1080500D02*
Y1082167D01*
G01Y1081750D02*
X1288353Y1081958D01*
X1288513Y1082125D01*
X1288727Y1082167D01*
X1288913Y1082125D01*
X1289073Y1081958D01*
X1289153Y1081667D01*
Y1080500D01*
G01X1291380D02*
Y1082167D01*
G01Y1081875D02*
X1291273Y1082042D01*
X1291113Y1082125D01*
X1290927Y1082167D01*
X1290740Y1082083D01*
X1290580Y1081917D01*
X1290473Y1081667D01*
X1290420Y1081333D01*
X1290473Y1081000D01*
X1290580Y1080750D01*
X1290740Y1080583D01*
X1290927Y1080500D01*
X1291113Y1080542D01*
X1291273Y1080667D01*
X1291380Y1080833D01*
G01X1293100Y1080500D02*
Y1083000D01*
G01X1294500Y1079667D02*
X1296100D01*
G01X1297500Y1083000D02*
Y1080500D01*
G01X1296887Y1083000D02*
X1298113D01*
G01X1299327Y1080500D02*
Y1082167D01*
G01Y1081833D02*
X1299460Y1082000D01*
X1299593Y1082125D01*
X1299780Y1082167D01*
X1299913Y1082125D01*
X1300073Y1082000D01*
G01X1301900Y1082167D02*
Y1080500D01*
G01Y1082833D02*
X1301847Y1082875D01*
Y1082958D01*
X1301900Y1083000D01*
X1301953Y1082958D01*
Y1082875D01*
X1301900Y1082833D01*
G01X1303727Y1079875D02*
X1303913Y1079708D01*
X1304127Y1079667D01*
X1304313Y1079708D01*
X1304473Y1079917D01*
X1304580Y1080208D01*
Y1082167D01*
G01Y1081833D02*
X1304473Y1082000D01*
X1304313Y1082125D01*
X1304127Y1082167D01*
X1303913Y1082083D01*
X1303780Y1081917D01*
X1303673Y1081625D01*
X1303620Y1081333D01*
X1303647Y1081083D01*
X1303753Y1080792D01*
X1303913Y1080583D01*
X1304127Y1080500D01*
X1304287Y1080542D01*
X1304473Y1080708D01*
X1304580Y1080875D01*
G01X1306007Y1081333D02*
X1306647D01*
G01X1306300Y1081875D02*
Y1080792D01*
G01X1320700Y963800D02*
X1280700D01*
Y1023800D01*
X1320700D01*
Y963800D01*
G01X1302300Y1029500D02*
X1302807Y1029417D01*
X1303250Y1029083D01*
X1303630Y1028583D01*
X1303883Y1028000D01*
X1304010Y1027333D01*
Y1026667D01*
X1303883Y1026000D01*
X1303630Y1025417D01*
X1303250Y1024917D01*
X1302807Y1024583D01*
X1302300Y1024500D01*
X1301793Y1024583D01*
X1301350Y1024917D01*
X1300970Y1025417D01*
X1300717Y1026000D01*
X1300590Y1026667D01*
Y1027333D01*
X1300717Y1028000D01*
X1300970Y1028583D01*
X1301350Y1029083D01*
X1301793Y1029417D01*
X1302300Y1029500D01*
G01X1301793Y1028167D02*
X1301033Y1029500D01*
G01X1297200D02*
Y1024500D01*
X1297960Y1025500D01*
G01Y1029500D02*
X1296440D01*
G01X1320333Y1040500D02*
Y1038000D01*
X1319693D01*
X1319480Y1038125D01*
X1319320Y1038417D01*
X1319267Y1038750D01*
X1319320Y1039083D01*
X1319453Y1039333D01*
X1319693Y1039458D01*
X1320333D01*
G01X1318267Y1038000D02*
X1317600Y1040500D01*
X1316933Y1038000D01*
G01X1315987Y1040000D02*
X1315827Y1040292D01*
X1315613Y1040458D01*
X1315373Y1040500D01*
X1315160Y1040458D01*
X1314947Y1040250D01*
X1314813Y1040000D01*
X1314787Y1039750D01*
X1314840Y1039458D01*
X1315027Y1039250D01*
X1315213Y1039167D01*
X1315453D01*
G01X1315213D02*
X1315053Y1039042D01*
X1314920Y1038833D01*
X1314867Y1038583D01*
X1314920Y1038333D01*
X1315053Y1038125D01*
X1315293Y1038000D01*
X1315533Y1038042D01*
X1315773Y1038208D01*
G01X1313253Y1040500D02*
X1313200Y1039958D01*
X1313120Y1039500D01*
X1313013Y1039083D01*
X1312880Y1038625D01*
X1312667Y1038000D01*
X1313733D01*
G01X1308800Y1040500D02*
Y1038000D01*
X1309120Y1038500D01*
G01Y1040500D02*
X1308480D01*
G01X1306600Y1038000D02*
X1306813Y1038083D01*
X1306973Y1038292D01*
X1307080Y1038542D01*
X1307160Y1038875D01*
X1307187Y1039250D01*
X1307160Y1039625D01*
X1307080Y1039958D01*
X1306973Y1040208D01*
X1306813Y1040417D01*
X1306600Y1040500D01*
X1306387Y1040417D01*
X1306227Y1040208D01*
X1306120Y1039958D01*
X1306040Y1039625D01*
X1306013Y1039250D01*
X1306040Y1038875D01*
X1306120Y1038542D01*
X1306227Y1038292D01*
X1306387Y1038083D01*
X1306600Y1038000D01*
G01X1304853Y1040500D02*
Y1038000D01*
G01X1304000Y1038833D02*
X1304853Y1039792D01*
G01X1304507Y1039417D02*
X1303947Y1040500D01*
G01X1300000Y1038000D02*
Y1040500D01*
G01X1300613Y1038000D02*
X1299387D01*
G01X1298173Y1040500D02*
Y1038833D01*
G01Y1039167D02*
X1298040Y1039000D01*
X1297907Y1038875D01*
X1297720Y1038833D01*
X1297587Y1038875D01*
X1297427Y1039000D01*
G01X1295600Y1038833D02*
Y1040500D01*
G01Y1038167D02*
X1295653Y1038125D01*
Y1038042D01*
X1295600Y1038000D01*
X1295547Y1038042D01*
Y1038125D01*
X1295600Y1038167D01*
G01X1294200Y1040500D02*
Y1038833D01*
G01Y1039292D02*
X1294120Y1039083D01*
X1293987Y1038917D01*
X1293800Y1038833D01*
X1293613Y1038917D01*
X1293480Y1039083D01*
X1293400Y1039292D01*
Y1040500D01*
G01Y1039292D02*
X1293320Y1039083D01*
X1293187Y1038917D01*
X1293000Y1038833D01*
X1292813Y1038917D01*
X1292680Y1039083D01*
X1292600Y1039333D01*
Y1040500D01*
G01X1289533D02*
Y1038000D01*
X1288893D01*
X1288680Y1038125D01*
X1288520Y1038417D01*
X1288467Y1038750D01*
X1288520Y1039083D01*
X1288653Y1039333D01*
X1288893Y1039458D01*
X1289533D01*
G01X1286800Y1040500D02*
X1286960Y1040458D01*
X1287120Y1040292D01*
X1287227Y1040000D01*
X1287280Y1039667D01*
X1287227Y1039333D01*
X1287120Y1039042D01*
X1286960Y1038875D01*
X1286800Y1038833D01*
X1286640Y1038875D01*
X1286480Y1039042D01*
X1286373Y1039333D01*
X1286347Y1039667D01*
X1286373Y1040000D01*
X1286480Y1040292D01*
X1286640Y1040458D01*
X1286800Y1040500D01*
G01X1284600Y1038000D02*
Y1040500D01*
G01X1284973Y1038833D02*
X1284227D01*
G01X1291100Y1053867D02*
X1296100D01*
Y1052284D01*
X1295850Y1051777D01*
X1295517Y1051461D01*
X1294850Y1051334D01*
X1294183Y1051461D01*
X1293767Y1051841D01*
X1293517Y1052284D01*
Y1053867D01*
G01Y1052284D02*
X1291100Y1051334D01*
G01X1295267Y1048706D02*
X1295767Y1048326D01*
X1296017Y1047882D01*
X1296100Y1047376D01*
X1295933Y1046743D01*
X1295517Y1046299D01*
X1295017Y1046173D01*
X1294517Y1046236D01*
X1294100Y1046489D01*
X1293267Y1047756D01*
X1292683Y1048326D01*
X1291850Y1048706D01*
X1291100Y1048832D01*
Y1046173D01*
G01X1291850Y1043797D02*
X1291433Y1043418D01*
X1291183Y1042974D01*
X1291100Y1042405D01*
X1291267Y1041835D01*
X1291600Y1041391D01*
X1292183Y1041075D01*
X1292850Y1041012D01*
X1293517Y1041138D01*
X1293933Y1041455D01*
X1294267Y1041898D01*
X1294350Y1042341D01*
X1294267Y1042784D01*
X1293933Y1043354D01*
X1296100Y1043164D01*
Y1041455D01*
G01X1288200Y1047800D02*
X1290800D01*
Y1041600D01*
X1288200D01*
Y1047800D01*
G01X1297100Y1042400D02*
Y1067400D01*
X1317100D01*
Y1042400D01*
X1297100D01*
G01X1301983Y1067500D02*
Y1070600D01*
X1302942D01*
X1303248Y1070445D01*
X1303440Y1070238D01*
X1303517Y1069825D01*
X1303440Y1069412D01*
X1303210Y1069153D01*
X1302942Y1068998D01*
X1301983D01*
G01X1302942D02*
X1303517Y1067500D01*
G01X1305122Y1070083D02*
X1305352Y1070393D01*
X1305620Y1070548D01*
X1305927Y1070600D01*
X1306310Y1070497D01*
X1306578Y1070238D01*
X1306655Y1069928D01*
X1306617Y1069618D01*
X1306463Y1069360D01*
X1305697Y1068843D01*
X1305352Y1068482D01*
X1305122Y1067965D01*
X1305045Y1067500D01*
X1306655D01*
G01X1308222Y1068792D02*
X1308490Y1069153D01*
X1308720Y1069360D01*
X1309027Y1069463D01*
X1309295Y1069360D01*
X1309487Y1069153D01*
X1309640Y1068843D01*
X1309678Y1068482D01*
X1309640Y1068172D01*
X1309487Y1067862D01*
X1309257Y1067603D01*
X1308988Y1067500D01*
X1308682Y1067603D01*
X1308413Y1067913D01*
X1308260Y1068378D01*
X1308222Y1068895D01*
X1308298Y1069567D01*
X1308413Y1069928D01*
X1308605Y1070290D01*
X1308873Y1070548D01*
X1309142Y1070600D01*
X1309410Y1070497D01*
X1309602Y1070238D01*
G01X1282500Y1071000D02*
X1302500D01*
Y1079000D01*
X1282500D01*
Y1071000D01*
G01X1281733Y1070100D02*
Y1075100D01*
X1283316D01*
X1283823Y1074850D01*
X1284139Y1074517D01*
X1284266Y1073850D01*
X1284139Y1073183D01*
X1283759Y1072767D01*
X1283316Y1072517D01*
X1281733D01*
G01X1283316D02*
X1284266Y1070100D01*
G01X1286894Y1074267D02*
X1287274Y1074767D01*
X1287718Y1075017D01*
X1288224Y1075100D01*
X1288857Y1074933D01*
X1289301Y1074517D01*
X1289427Y1074017D01*
X1289364Y1073517D01*
X1289111Y1073100D01*
X1287844Y1072267D01*
X1287274Y1071683D01*
X1286894Y1070850D01*
X1286768Y1070100D01*
X1289427D01*
G01X1293069D02*
X1293195Y1071183D01*
X1293385Y1072100D01*
X1293639Y1072933D01*
X1293955Y1073850D01*
X1294462Y1075100D01*
X1291929D01*
G01X1282300Y1061500D02*
Y1064100D01*
X1288500D01*
Y1061500D01*
X1282300D01*
G01X1323267Y999400D02*
Y1001900D01*
X1323933D01*
X1324147Y1001775D01*
X1324280Y1001608D01*
X1324333Y1001275D01*
X1324280Y1000942D01*
X1324120Y1000733D01*
X1323933Y1000608D01*
X1323267D01*
G01X1323933D02*
X1324333Y999400D01*
G01X1325547Y999692D02*
X1325733Y999483D01*
X1325947Y999400D01*
X1326160Y999483D01*
X1326347Y999733D01*
X1326480Y1000108D01*
X1326533Y1000483D01*
Y1000942D01*
X1326480Y1001317D01*
X1326347Y1001650D01*
X1326187Y1001817D01*
X1326000Y1001900D01*
X1325787Y1001817D01*
X1325627Y1001650D01*
X1325520Y1001400D01*
X1325467Y1001067D01*
X1325520Y1000775D01*
X1325653Y1000483D01*
X1325813Y1000317D01*
X1326000Y1000275D01*
X1326213Y1000358D01*
X1326373Y1000567D01*
X1326533Y1000942D01*
G01X1326900Y996200D02*
Y998800D01*
X1333100D01*
Y996200D01*
X1326900D01*
G01X1323200Y1002500D02*
Y1005100D01*
X1329400D01*
Y1002500D01*
X1323200D01*
G01X1323700Y1053400D02*
X1321200D01*
G01X1323700Y1054013D02*
Y1052787D01*
G01X1321200Y1051573D02*
X1322867D01*
G01X1322533D02*
X1322700Y1051440D01*
X1322825Y1051307D01*
X1322867Y1051120D01*
X1322825Y1050987D01*
X1322700Y1050827D01*
G01X1322867Y1049000D02*
X1321200D01*
G01X1323533D02*
X1323575Y1049053D01*
X1323658D01*
X1323700Y1049000D01*
X1323658Y1048947D01*
X1323575D01*
X1323533Y1049000D01*
G01X1321200Y1047600D02*
X1322867D01*
G01X1322408D02*
X1322617Y1047520D01*
X1322783Y1047387D01*
X1322867Y1047200D01*
X1322783Y1047013D01*
X1322617Y1046880D01*
X1322408Y1046800D01*
X1321200D01*
G01X1322408D02*
X1322617Y1046720D01*
X1322783Y1046587D01*
X1322867Y1046400D01*
X1322783Y1046213D01*
X1322617Y1046080D01*
X1322367Y1046000D01*
X1321200D01*
G01X1320367Y1045400D02*
Y1043800D01*
G01X1321200Y1042933D02*
X1323700D01*
Y1042293D01*
X1323575Y1042080D01*
X1323283Y1041920D01*
X1322950Y1041867D01*
X1322617Y1041920D01*
X1322367Y1042053D01*
X1322242Y1042293D01*
Y1042933D01*
G01X1321200Y1040200D02*
X1321242Y1040360D01*
X1321408Y1040520D01*
X1321700Y1040627D01*
X1322033Y1040680D01*
X1322367Y1040627D01*
X1322658Y1040520D01*
X1322825Y1040360D01*
X1322867Y1040200D01*
X1322825Y1040040D01*
X1322658Y1039880D01*
X1322367Y1039773D01*
X1322033Y1039747D01*
X1321700Y1039773D01*
X1321408Y1039880D01*
X1321242Y1040040D01*
X1321200Y1040200D01*
G01X1323700Y1038000D02*
X1321200D01*
G01X1322867Y1038373D02*
Y1037627D01*
G01X1320367Y1036600D02*
Y1035000D01*
G01X1321200Y1033067D02*
Y1034133D01*
X1323700D01*
Y1033067D01*
G01X1322492Y1033493D02*
Y1034133D01*
G01X1321200Y1031853D02*
X1322867D01*
G01X1322450D02*
X1322658Y1031747D01*
X1322825Y1031587D01*
X1322867Y1031373D01*
X1322825Y1031187D01*
X1322658Y1031027D01*
X1322367Y1030947D01*
X1321200D01*
G01X1323500Y1050000D02*
Y1030000D01*
X1331500D01*
Y1050000D01*
X1323500D01*
G01X1310000Y1071000D02*
X1330000D01*
Y1079000D01*
X1310000D01*
Y1071000D01*
G01X1325333Y1062200D02*
Y1067200D01*
X1326916D01*
X1327423Y1066950D01*
X1327739Y1066617D01*
X1327866Y1065950D01*
X1327739Y1065283D01*
X1327359Y1064867D01*
X1326916Y1064617D01*
X1325333D01*
G01X1326916D02*
X1327866Y1062200D01*
G01X1331697D02*
Y1067200D01*
X1330938Y1066200D01*
G01Y1062200D02*
X1332457D01*
G01X1319400Y1058700D02*
Y1061300D01*
X1325600D01*
Y1058700D01*
X1319400D01*
G01X1311533Y1080200D02*
X1310467D01*
Y1082700D01*
X1311533D01*
G01X1311107Y1081492D02*
X1310467D01*
G01X1312800Y1081867D02*
X1313600Y1080200D01*
G01Y1081867D02*
X1312800Y1080200D01*
G01X1315400Y1082700D02*
Y1080200D01*
G01X1315027Y1081867D02*
X1315773D01*
G01X1317200Y1081325D02*
X1318053D01*
X1317973Y1081617D01*
X1317840Y1081783D01*
X1317653Y1081867D01*
X1317467Y1081825D01*
X1317307Y1081700D01*
X1317200Y1081408D01*
X1317147Y1081158D01*
Y1080908D01*
X1317200Y1080658D01*
X1317333Y1080408D01*
X1317493Y1080242D01*
X1317680Y1080200D01*
X1317867Y1080283D01*
X1318053Y1080533D01*
G01X1319427Y1080200D02*
Y1081867D01*
G01Y1081533D02*
X1319560Y1081700D01*
X1319693Y1081825D01*
X1319880Y1081867D01*
X1320013Y1081825D01*
X1320173Y1081700D01*
G01X1321547Y1080200D02*
Y1081867D01*
G01Y1081450D02*
X1321653Y1081658D01*
X1321813Y1081825D01*
X1322027Y1081867D01*
X1322213Y1081825D01*
X1322373Y1081658D01*
X1322453Y1081367D01*
Y1080200D01*
G01X1323400Y1079367D02*
X1325000D01*
G01X1326400Y1082700D02*
Y1080200D01*
G01X1325787Y1082700D02*
X1327013D01*
G01X1329133Y1080200D02*
X1328067D01*
Y1082700D01*
X1329133D01*
G01X1328707Y1081492D02*
X1328067D01*
G01X1330267Y1080200D02*
Y1082700D01*
X1330933D01*
X1331147Y1082575D01*
X1331280Y1082408D01*
X1331333Y1082075D01*
X1331280Y1081742D01*
X1331120Y1081533D01*
X1330933Y1081408D01*
X1330267D01*
G01X1330933D02*
X1331333Y1080200D01*
G01X1332307D02*
Y1082700D01*
X1333000Y1080617D01*
X1333693Y1082700D01*
Y1080200D01*
G01X1336413Y964633D02*
X1336520Y964758D01*
X1336600Y964967D01*
X1336653Y965258D01*
X1336600Y965508D01*
X1336493Y965675D01*
X1336307Y965800D01*
X1335587D01*
Y963300D01*
X1336467D01*
X1336653Y963467D01*
X1336760Y963717D01*
X1336813Y964008D01*
X1336760Y964300D01*
X1336600Y964550D01*
X1336413Y964633D01*
X1335587D01*
G01X1337893Y963300D02*
Y965800D01*
X1338907D01*
G01X1338533Y964592D02*
X1337893D01*
G01X1340600Y963300D02*
Y965800D01*
X1340280Y965300D01*
G01Y963300D02*
X1340920D01*
G01X1342800D02*
X1342987Y963342D01*
X1343200Y963467D01*
X1343333Y963675D01*
X1343387Y963967D01*
X1343333Y964258D01*
X1343173Y964508D01*
X1342933Y964633D01*
X1342667D01*
X1342507Y964717D01*
X1342373Y964925D01*
X1342320Y965217D01*
X1342400Y965508D01*
X1342587Y965717D01*
X1342800Y965800D01*
X1343013Y965717D01*
X1343200Y965508D01*
X1343280Y965217D01*
X1343227Y964925D01*
X1343093Y964717D01*
X1342933Y964633D01*
X1342667D01*
X1342427Y964508D01*
X1342267Y964258D01*
X1342213Y963967D01*
X1342267Y963675D01*
X1342400Y963467D01*
X1342613Y963342D01*
X1342800Y963300D01*
G01X1344493Y965383D02*
X1344653Y965633D01*
X1344840Y965758D01*
X1345053Y965800D01*
X1345320Y965717D01*
X1345507Y965508D01*
X1345560Y965258D01*
X1345533Y965008D01*
X1345427Y964800D01*
X1344893Y964383D01*
X1344653Y964092D01*
X1344493Y963675D01*
X1344440Y963300D01*
X1345560D01*
G01X1349513Y972933D02*
X1349620Y973058D01*
X1349700Y973267D01*
X1349753Y973558D01*
X1349700Y973808D01*
X1349593Y973975D01*
X1349407Y974100D01*
X1348687D01*
Y971600D01*
X1349567D01*
X1349753Y971767D01*
X1349860Y972017D01*
X1349913Y972308D01*
X1349860Y972600D01*
X1349700Y972850D01*
X1349513Y972933D01*
X1348687D01*
G01X1350993Y971600D02*
Y974100D01*
X1352007D01*
G01X1351633Y972892D02*
X1350993D01*
G01X1353113Y974100D02*
Y972308D01*
X1353220Y971933D01*
X1353433Y971683D01*
X1353700Y971600D01*
X1353967Y971683D01*
X1354180Y971933D01*
X1354287Y972308D01*
Y974100D01*
G01X1355847Y971600D02*
X1355900Y972142D01*
X1355980Y972600D01*
X1356087Y973017D01*
X1356220Y973475D01*
X1356433Y974100D01*
X1355367D01*
G01X1357513Y972100D02*
X1357673Y971808D01*
X1357887Y971642D01*
X1358127Y971600D01*
X1358340Y971642D01*
X1358553Y971850D01*
X1358687Y972100D01*
X1358713Y972350D01*
X1358660Y972642D01*
X1358473Y972850D01*
X1358287Y972933D01*
X1358047D01*
G01X1358287D02*
X1358447Y973058D01*
X1358580Y973267D01*
X1358633Y973517D01*
X1358580Y973767D01*
X1358447Y973975D01*
X1358207Y974100D01*
X1357967Y974058D01*
X1357727Y973892D01*
G01X1360300Y974100D02*
X1360087Y974017D01*
X1359927Y973808D01*
X1359820Y973558D01*
X1359740Y973225D01*
X1359713Y972850D01*
X1359740Y972475D01*
X1359820Y972142D01*
X1359927Y971892D01*
X1360087Y971683D01*
X1360300Y971600D01*
X1360513Y971683D01*
X1360673Y971892D01*
X1360780Y972142D01*
X1360860Y972475D01*
X1360887Y972850D01*
X1360860Y973225D01*
X1360780Y973558D01*
X1360673Y973808D01*
X1360513Y974017D01*
X1360300Y974100D01*
G01X1361993Y971600D02*
Y974100D01*
X1363007D01*
G01X1362633Y972892D02*
X1361993D01*
G01X1334933Y970000D02*
Y975000D01*
X1336516D01*
X1337023Y974750D01*
X1337339Y974417D01*
X1337466Y973750D01*
X1337339Y973083D01*
X1336959Y972667D01*
X1336516Y972417D01*
X1334933D01*
G01X1336516D02*
X1337466Y970000D01*
G01X1341297D02*
Y975000D01*
X1340538Y974000D01*
G01Y970000D02*
X1342057D01*
G01X1345192Y974167D02*
X1345572Y974667D01*
X1346016Y974917D01*
X1346522Y975000D01*
X1347155Y974833D01*
X1347599Y974417D01*
X1347725Y973917D01*
X1347662Y973417D01*
X1347409Y973000D01*
X1346142Y972167D01*
X1345572Y971583D01*
X1345192Y970750D01*
X1345066Y970000D01*
X1347725D01*
G01X1336900Y976200D02*
Y978800D01*
X1343100D01*
Y976200D01*
X1336900D01*
G01X1347300Y975700D02*
X1352700D01*
Y984300D01*
X1347300D01*
Y975700D01*
G01X1330267Y993000D02*
Y995500D01*
X1330933D01*
X1331147Y995375D01*
X1331280Y995208D01*
X1331333Y994875D01*
X1331280Y994542D01*
X1331120Y994333D01*
X1330933Y994208D01*
X1330267D01*
G01X1330933D02*
X1331333Y993000D01*
G01X1332493Y995083D02*
X1332653Y995333D01*
X1332840Y995458D01*
X1333053Y995500D01*
X1333320Y995417D01*
X1333507Y995208D01*
X1333560Y994958D01*
X1333533Y994708D01*
X1333427Y994500D01*
X1332893Y994083D01*
X1332653Y993792D01*
X1332493Y993375D01*
X1332440Y993000D01*
X1333560D01*
G01X1334693Y995083D02*
X1334853Y995333D01*
X1335040Y995458D01*
X1335253Y995500D01*
X1335520Y995417D01*
X1335707Y995208D01*
X1335760Y994958D01*
X1335733Y994708D01*
X1335627Y994500D01*
X1335093Y994083D01*
X1334853Y993792D01*
X1334693Y993375D01*
X1334640Y993000D01*
X1335760D01*
G01X1337067D02*
Y995500D01*
X1337733D01*
X1337947Y995375D01*
X1338080Y995208D01*
X1338133Y994875D01*
X1338080Y994542D01*
X1337920Y994333D01*
X1337733Y994208D01*
X1337067D01*
G01X1337733D02*
X1338133Y993000D01*
G01X1339293Y995083D02*
X1339453Y995333D01*
X1339640Y995458D01*
X1339853Y995500D01*
X1340120Y995417D01*
X1340307Y995208D01*
X1340360Y994958D01*
X1340333Y994708D01*
X1340227Y994500D01*
X1339693Y994083D01*
X1339453Y993792D01*
X1339293Y993375D01*
X1339240Y993000D01*
X1340360D01*
G01X1342000D02*
Y995500D01*
X1341680Y995000D01*
G01Y993000D02*
X1342320D01*
G01X1337667Y978700D02*
Y981200D01*
X1338333D01*
X1338547Y981075D01*
X1338680Y980908D01*
X1338733Y980575D01*
X1338680Y980242D01*
X1338520Y980033D01*
X1338333Y979908D01*
X1337667D01*
G01X1338333D02*
X1338733Y978700D01*
G01X1340400D02*
Y981200D01*
X1340080Y980700D01*
G01Y978700D02*
X1340720D01*
G01X1342920D02*
Y981200D01*
X1341933Y979408D01*
X1343267D01*
G01X1337367Y998900D02*
Y1001400D01*
X1338033D01*
X1338247Y1001275D01*
X1338380Y1001108D01*
X1338433Y1000775D01*
X1338380Y1000442D01*
X1338220Y1000233D01*
X1338033Y1000108D01*
X1337367D01*
G01X1338033D02*
X1338433Y998900D01*
G01X1340100D02*
Y1001400D01*
X1339780Y1000900D01*
G01Y998900D02*
X1340420D01*
G01X1342300D02*
X1342487Y998942D01*
X1342700Y999067D01*
X1342833Y999275D01*
X1342887Y999567D01*
X1342833Y999858D01*
X1342673Y1000108D01*
X1342433Y1000233D01*
X1342167D01*
X1342007Y1000317D01*
X1341873Y1000525D01*
X1341820Y1000817D01*
X1341900Y1001108D01*
X1342087Y1001317D01*
X1342300Y1001400D01*
X1342513Y1001317D01*
X1342700Y1001108D01*
X1342780Y1000817D01*
X1342727Y1000525D01*
X1342593Y1000317D01*
X1342433Y1000233D01*
X1342167D01*
X1341927Y1000108D01*
X1341767Y999858D01*
X1341713Y999567D01*
X1341767Y999275D01*
X1341900Y999067D01*
X1342113Y998942D01*
X1342300Y998900D01*
G01X1336900Y981200D02*
Y983800D01*
X1343100D01*
Y981200D01*
X1336900D01*
G01Y1001200D02*
Y1003800D01*
X1343100D01*
Y1001200D01*
X1336900D01*
G01Y996200D02*
Y998800D01*
X1343100D01*
Y996200D01*
X1336900D01*
G01X1347300Y995700D02*
X1352700D01*
Y1004300D01*
X1347300D01*
Y995700D01*
G01X1343133Y1011000D02*
Y1016000D01*
X1344716D01*
X1345223Y1015750D01*
X1345539Y1015417D01*
X1345666Y1014750D01*
X1345539Y1014083D01*
X1345159Y1013667D01*
X1344716Y1013417D01*
X1343133D01*
G01X1344716D02*
X1345666Y1011000D01*
G01X1349497D02*
Y1016000D01*
X1348738Y1015000D01*
G01Y1011000D02*
X1350257D01*
G01X1354595Y1016000D02*
X1354089Y1015833D01*
X1353709Y1015417D01*
X1353456Y1014917D01*
X1353266Y1014250D01*
X1353203Y1013500D01*
X1353266Y1012750D01*
X1353456Y1012083D01*
X1353709Y1011583D01*
X1354089Y1011167D01*
X1354595Y1011000D01*
X1355102Y1011167D01*
X1355482Y1011583D01*
X1355735Y1012083D01*
X1355925Y1012750D01*
X1355988Y1013500D01*
X1355925Y1014250D01*
X1355735Y1014917D01*
X1355482Y1015417D01*
X1355102Y1015833D01*
X1354595Y1016000D01*
G01X1346900Y1016200D02*
Y1018800D01*
X1353100D01*
Y1016200D01*
X1346900D01*
G01X1335133Y1019000D02*
Y1024000D01*
X1336716D01*
X1337223Y1023750D01*
X1337539Y1023417D01*
X1337666Y1022750D01*
X1337539Y1022083D01*
X1337159Y1021667D01*
X1336716Y1021417D01*
X1335133D01*
G01X1336716D02*
X1337666Y1019000D01*
G01X1341497D02*
Y1024000D01*
X1340738Y1023000D01*
G01Y1019000D02*
X1342257D01*
G01X1346595D02*
Y1024000D01*
X1345836Y1023000D01*
G01Y1019000D02*
X1347355D01*
G01X1336900Y1016200D02*
Y1018800D01*
X1343100D01*
Y1016200D01*
X1336900D01*
G01X1333133Y1026400D02*
Y1031400D01*
X1334716D01*
X1335223Y1031150D01*
X1335539Y1030817D01*
X1335666Y1030150D01*
X1335539Y1029483D01*
X1335159Y1029067D01*
X1334716Y1028817D01*
X1333133D01*
G01X1334716D02*
X1335666Y1026400D01*
G01X1339497D02*
Y1031400D01*
X1338738Y1030400D01*
G01Y1026400D02*
X1340257D01*
G01X1343392Y1028483D02*
X1343836Y1029067D01*
X1344216Y1029400D01*
X1344722Y1029567D01*
X1345165Y1029400D01*
X1345482Y1029067D01*
X1345735Y1028567D01*
X1345799Y1027983D01*
X1345735Y1027483D01*
X1345482Y1026983D01*
X1345102Y1026567D01*
X1344659Y1026400D01*
X1344152Y1026567D01*
X1343709Y1027067D01*
X1343456Y1027817D01*
X1343392Y1028650D01*
X1343519Y1029733D01*
X1343709Y1030317D01*
X1344026Y1030900D01*
X1344469Y1031317D01*
X1344912Y1031400D01*
X1345355Y1031233D01*
X1345672Y1030817D01*
G01X1336900Y1023700D02*
Y1026300D01*
X1343100D01*
Y1023700D01*
X1336900D01*
G01X1333100Y1047267D02*
X1332600Y1046950D01*
X1332267Y1046570D01*
X1332100Y1046127D01*
X1332267Y1045620D01*
X1332600Y1045240D01*
X1333100Y1044860D01*
X1333767Y1044733D01*
X1337100D01*
G01X1334183Y1042103D02*
X1334767Y1041660D01*
X1335100Y1041280D01*
X1335267Y1040773D01*
X1335100Y1040330D01*
X1334767Y1040013D01*
X1334267Y1039760D01*
X1333683Y1039697D01*
X1333183Y1039760D01*
X1332683Y1040013D01*
X1332267Y1040393D01*
X1332100Y1040837D01*
X1332267Y1041343D01*
X1332767Y1041787D01*
X1333517Y1042040D01*
X1334350Y1042103D01*
X1335433Y1041977D01*
X1336017Y1041787D01*
X1336600Y1041470D01*
X1337017Y1041027D01*
X1337100Y1040583D01*
X1336933Y1040140D01*
X1336517Y1039823D01*
G01X1336833Y1034200D02*
Y1039200D01*
X1338416D01*
X1338923Y1038950D01*
X1339239Y1038617D01*
X1339366Y1037950D01*
X1339239Y1037283D01*
X1338859Y1036867D01*
X1338416Y1036617D01*
X1336833D01*
G01X1338416D02*
X1339366Y1034200D01*
G01X1343071D02*
X1343197Y1035283D01*
X1343387Y1036200D01*
X1343641Y1037033D01*
X1343957Y1037950D01*
X1344464Y1039200D01*
X1341931D01*
G01X1336900Y1031200D02*
Y1033800D01*
X1343100D01*
Y1031200D01*
X1336900D01*
G01X1356750Y1062500D02*
Y1042500D01*
X1343250D01*
Y1062500D01*
X1356750D01*
G01X1337033Y1067500D02*
X1335967D01*
Y1070000D01*
X1337033D01*
G01X1336607Y1068792D02*
X1335967D01*
G01X1338300Y1069167D02*
X1339100Y1067500D01*
G01Y1069167D02*
X1338300Y1067500D01*
G01X1340900Y1070000D02*
Y1067500D01*
G01X1340527Y1069167D02*
X1341273D01*
G01X1342700Y1068625D02*
X1343553D01*
X1343473Y1068917D01*
X1343340Y1069083D01*
X1343153Y1069167D01*
X1342967Y1069125D01*
X1342807Y1069000D01*
X1342700Y1068708D01*
X1342647Y1068458D01*
Y1068208D01*
X1342700Y1067958D01*
X1342833Y1067708D01*
X1342993Y1067542D01*
X1343180Y1067500D01*
X1343367Y1067583D01*
X1343553Y1067833D01*
G01X1344927Y1067500D02*
Y1069167D01*
G01Y1068833D02*
X1345060Y1069000D01*
X1345193Y1069125D01*
X1345380Y1069167D01*
X1345513Y1069125D01*
X1345673Y1069000D01*
G01X1347047Y1067500D02*
Y1069167D01*
G01Y1068750D02*
X1347153Y1068958D01*
X1347313Y1069125D01*
X1347527Y1069167D01*
X1347713Y1069125D01*
X1347873Y1068958D01*
X1347953Y1068667D01*
Y1067500D01*
G01X1348900Y1066667D02*
X1350500D01*
G01X1352433Y1067500D02*
X1351367D01*
Y1070000D01*
X1352433D01*
G01X1352007Y1068792D02*
X1351367D01*
G01X1353487Y1067500D02*
Y1070000D01*
X1354713Y1067500D01*
Y1070000D01*
G01X1335000Y1071000D02*
X1355000D01*
Y1079000D01*
X1335000D01*
Y1071000D01*
G01X1356967Y1066000D02*
X1356300Y1063500D01*
X1355633Y1066000D01*
G01X1355873Y1065125D02*
X1356727D01*
G01X1354687Y1066000D02*
Y1063500D01*
X1354153D01*
X1353940Y1063625D01*
X1353780Y1063792D01*
X1353647Y1064042D01*
X1353540Y1064333D01*
X1353513Y1064750D01*
X1353540Y1065167D01*
X1353647Y1065458D01*
X1353780Y1065708D01*
X1353940Y1065875D01*
X1354153Y1066000D01*
X1354687D01*
G01X1352513D02*
Y1063500D01*
X1351287Y1066000D01*
Y1063500D01*
G01X1349380Y1066000D02*
Y1063500D01*
X1350367Y1065292D01*
X1349033D01*
G01X1348007Y1064958D02*
X1347820Y1064667D01*
X1347660Y1064500D01*
X1347447Y1064417D01*
X1347260Y1064500D01*
X1347127Y1064667D01*
X1347020Y1064917D01*
X1346993Y1065208D01*
X1347020Y1065458D01*
X1347127Y1065708D01*
X1347287Y1065917D01*
X1347473Y1066000D01*
X1347687Y1065917D01*
X1347873Y1065667D01*
X1347980Y1065292D01*
X1348007Y1064875D01*
X1347953Y1064333D01*
X1347873Y1064042D01*
X1347740Y1063750D01*
X1347553Y1063542D01*
X1347367Y1063500D01*
X1347180Y1063583D01*
X1347047Y1063792D01*
G01X1345807Y1064958D02*
X1345620Y1064667D01*
X1345460Y1064500D01*
X1345247Y1064417D01*
X1345060Y1064500D01*
X1344927Y1064667D01*
X1344820Y1064917D01*
X1344793Y1065208D01*
X1344820Y1065458D01*
X1344927Y1065708D01*
X1345087Y1065917D01*
X1345273Y1066000D01*
X1345487Y1065917D01*
X1345673Y1065667D01*
X1345780Y1065292D01*
X1345807Y1064875D01*
X1345753Y1064333D01*
X1345673Y1064042D01*
X1345540Y1063750D01*
X1345353Y1063542D01*
X1345167Y1063500D01*
X1344980Y1063583D01*
X1344847Y1063792D01*
G01X1343100Y1066000D02*
Y1063500D01*
X1343420Y1064000D01*
G01Y1066000D02*
X1342780D01*
G01X1365067Y980200D02*
Y975200D01*
X1363484D01*
X1362977Y975450D01*
X1362661Y975783D01*
X1362534Y976450D01*
X1362661Y977117D01*
X1363041Y977533D01*
X1363484Y977783D01*
X1365067D01*
G01X1363484D02*
X1362534Y980200D01*
G01X1358703D02*
X1358259Y980117D01*
X1357753Y979867D01*
X1357436Y979450D01*
X1357310Y978867D01*
X1357436Y978283D01*
X1357816Y977783D01*
X1358386Y977533D01*
X1359019D01*
X1359399Y977367D01*
X1359716Y976950D01*
X1359842Y976367D01*
X1359652Y975783D01*
X1359209Y975367D01*
X1358703Y975200D01*
X1358196Y975367D01*
X1357753Y975783D01*
X1357563Y976367D01*
X1357689Y976950D01*
X1358006Y977367D01*
X1358386Y977533D01*
X1359019D01*
X1359589Y977783D01*
X1359969Y978283D01*
X1360095Y978867D01*
X1359969Y979450D01*
X1359652Y979867D01*
X1359146Y980117D01*
X1358703Y980200D01*
G01X1356013Y993333D02*
X1356120Y993458D01*
X1356200Y993667D01*
X1356253Y993958D01*
X1356200Y994208D01*
X1356093Y994375D01*
X1355907Y994500D01*
X1355187D01*
Y992000D01*
X1356067D01*
X1356253Y992167D01*
X1356360Y992417D01*
X1356413Y992708D01*
X1356360Y993000D01*
X1356200Y993250D01*
X1356013Y993333D01*
X1355187D01*
G01X1357493Y992000D02*
Y994500D01*
X1358507D01*
G01X1358133Y993292D02*
X1357493D01*
G01X1359613Y994500D02*
Y992708D01*
X1359720Y992333D01*
X1359933Y992083D01*
X1360200Y992000D01*
X1360467Y992083D01*
X1360680Y992333D01*
X1360787Y992708D01*
Y994500D01*
G01X1362347Y992000D02*
X1362400Y992542D01*
X1362480Y993000D01*
X1362587Y993417D01*
X1362720Y993875D01*
X1362933Y994500D01*
X1361867D01*
G01X1364013Y992500D02*
X1364173Y992208D01*
X1364387Y992042D01*
X1364627Y992000D01*
X1364840Y992042D01*
X1365053Y992250D01*
X1365187Y992500D01*
X1365213Y992750D01*
X1365160Y993042D01*
X1364973Y993250D01*
X1364787Y993333D01*
X1364547D01*
G01X1364787D02*
X1364947Y993458D01*
X1365080Y993667D01*
X1365133Y993917D01*
X1365080Y994167D01*
X1364947Y994375D01*
X1364707Y994500D01*
X1364467Y994458D01*
X1364227Y994292D01*
G01X1366800Y994500D02*
X1366587Y994417D01*
X1366427Y994208D01*
X1366320Y993958D01*
X1366240Y993625D01*
X1366213Y993250D01*
X1366240Y992875D01*
X1366320Y992542D01*
X1366427Y992292D01*
X1366587Y992083D01*
X1366800Y992000D01*
X1367013Y992083D01*
X1367173Y992292D01*
X1367280Y992542D01*
X1367360Y992875D01*
X1367387Y993250D01*
X1367360Y993625D01*
X1367280Y993958D01*
X1367173Y994208D01*
X1367013Y994417D01*
X1366800Y994500D01*
G01X1368493Y992000D02*
Y994500D01*
X1369507D01*
G01X1369133Y993292D02*
X1368493D01*
G01X1365200Y983800D02*
Y981200D01*
X1359000D01*
Y983800D01*
X1365200D01*
G01X1366233Y996600D02*
Y1001600D01*
X1367816D01*
X1368323Y1001350D01*
X1368639Y1001017D01*
X1368766Y1000350D01*
X1368639Y999683D01*
X1368259Y999267D01*
X1367816Y999017D01*
X1366233D01*
G01X1367816D02*
X1368766Y996600D01*
G01X1372597D02*
Y1001600D01*
X1371838Y1000600D01*
G01Y996600D02*
X1373357D01*
G01X1376303Y997600D02*
X1376682Y997017D01*
X1377189Y996683D01*
X1377759Y996600D01*
X1378265Y996683D01*
X1378772Y997100D01*
X1379088Y997600D01*
X1379152Y998100D01*
X1379025Y998683D01*
X1378582Y999100D01*
X1378139Y999267D01*
X1377569D01*
G01X1378139D02*
X1378519Y999517D01*
X1378835Y999933D01*
X1378962Y1000433D01*
X1378835Y1000933D01*
X1378519Y1001350D01*
X1377949Y1001600D01*
X1377379Y1001517D01*
X1376809Y1001183D01*
G01X1369400Y993700D02*
Y996300D01*
X1375600D01*
Y993700D01*
X1369400D01*
G01Y1001200D02*
Y1003800D01*
X1375600D01*
Y1001200D01*
X1369400D01*
G01X1358800Y1001300D02*
Y1003900D01*
X1365000D01*
Y1001300D01*
X1358800D01*
G01X1366133Y1003800D02*
Y1008800D01*
X1367716D01*
X1368223Y1008550D01*
X1368539Y1008217D01*
X1368666Y1007550D01*
X1368539Y1006883D01*
X1368159Y1006467D01*
X1367716Y1006217D01*
X1366133D01*
G01X1367716D02*
X1368666Y1003800D01*
G01X1372497D02*
Y1008800D01*
X1371738Y1007800D01*
G01Y1003800D02*
X1373257D01*
G01X1376203Y1004550D02*
X1376582Y1004133D01*
X1377026Y1003883D01*
X1377595Y1003800D01*
X1378165Y1003967D01*
X1378609Y1004300D01*
X1378925Y1004883D01*
X1378988Y1005550D01*
X1378862Y1006217D01*
X1378545Y1006633D01*
X1378102Y1006967D01*
X1377659Y1007050D01*
X1377216Y1006967D01*
X1376646Y1006633D01*
X1376836Y1008800D01*
X1378545D01*
G01X1363100Y1028800D02*
Y1026200D01*
X1356900D01*
Y1028800D01*
X1363100D01*
G01X1354033Y1021300D02*
Y1026300D01*
X1355616D01*
X1356123Y1026050D01*
X1356439Y1025717D01*
X1356566Y1025050D01*
X1356439Y1024383D01*
X1356059Y1023967D01*
X1355616Y1023717D01*
X1354033D01*
G01X1355616D02*
X1356566Y1021300D01*
G01X1359194Y1025467D02*
X1359574Y1025967D01*
X1360018Y1026217D01*
X1360524Y1026300D01*
X1361157Y1026133D01*
X1361601Y1025717D01*
X1361727Y1025217D01*
X1361664Y1024717D01*
X1361411Y1024300D01*
X1360144Y1023467D01*
X1359574Y1022883D01*
X1359194Y1022050D01*
X1359068Y1021300D01*
X1361727D01*
G01X1364103Y1022300D02*
X1364482Y1021717D01*
X1364989Y1021383D01*
X1365559Y1021300D01*
X1366065Y1021383D01*
X1366572Y1021800D01*
X1366888Y1022300D01*
X1366952Y1022800D01*
X1366825Y1023383D01*
X1366382Y1023800D01*
X1365939Y1023967D01*
X1365369D01*
G01X1365939D02*
X1366319Y1024217D01*
X1366635Y1024633D01*
X1366762Y1025133D01*
X1366635Y1025633D01*
X1366319Y1026050D01*
X1365749Y1026300D01*
X1365179Y1026217D01*
X1364609Y1025883D01*
G01X1356900Y1018700D02*
Y1021300D01*
X1363100D01*
Y1018700D01*
X1356900D01*
G01X1378772Y1021850D02*
X1375228D01*
Y1015550D01*
X1378772D01*
Y1021850D01*
G01X1379367Y1052500D02*
Y1047500D01*
X1377784D01*
X1377277Y1047750D01*
X1376961Y1048083D01*
X1376834Y1048750D01*
X1376961Y1049417D01*
X1377341Y1049833D01*
X1377784Y1050083D01*
X1379367D01*
G01X1377784D02*
X1376834Y1052500D01*
G01X1374206Y1048333D02*
X1373826Y1047833D01*
X1373382Y1047583D01*
X1372876Y1047500D01*
X1372243Y1047667D01*
X1371799Y1048083D01*
X1371673Y1048583D01*
X1371736Y1049083D01*
X1371989Y1049500D01*
X1373256Y1050333D01*
X1373826Y1050917D01*
X1374206Y1051750D01*
X1374332Y1052500D01*
X1371673D01*
G01X1374400Y1033700D02*
Y1036300D01*
X1380600D01*
Y1033700D01*
X1374400D01*
G01X1366267Y1034000D02*
Y1029000D01*
X1364684D01*
X1364177Y1029250D01*
X1363861Y1029583D01*
X1363734Y1030250D01*
X1363861Y1030917D01*
X1364241Y1031333D01*
X1364684Y1031583D01*
X1366267D01*
G01X1364684D02*
X1363734Y1034000D01*
G01X1359903D02*
Y1029000D01*
X1360662Y1030000D01*
G01Y1034000D02*
X1359143D01*
G01X1355881Y1033417D02*
X1355438Y1033833D01*
X1354931Y1034000D01*
X1354425Y1033833D01*
X1353981Y1033333D01*
X1353665Y1032583D01*
X1353538Y1031833D01*
Y1030917D01*
X1353665Y1030167D01*
X1353981Y1029500D01*
X1354361Y1029167D01*
X1354805Y1029000D01*
X1355311Y1029167D01*
X1355691Y1029500D01*
X1355944Y1030000D01*
X1356071Y1030667D01*
X1355944Y1031250D01*
X1355628Y1031833D01*
X1355248Y1032167D01*
X1354805Y1032250D01*
X1354298Y1032083D01*
X1353918Y1031667D01*
X1353538Y1030917D01*
G01X1353133Y1037100D02*
Y1042100D01*
X1354716D01*
X1355223Y1041850D01*
X1355539Y1041517D01*
X1355666Y1040850D01*
X1355539Y1040183D01*
X1355159Y1039767D01*
X1354716Y1039517D01*
X1353133D01*
G01X1354716D02*
X1355666Y1037100D01*
G01X1358294Y1041267D02*
X1358674Y1041767D01*
X1359118Y1042017D01*
X1359624Y1042100D01*
X1360257Y1041933D01*
X1360701Y1041517D01*
X1360827Y1041017D01*
X1360764Y1040517D01*
X1360511Y1040100D01*
X1359244Y1039267D01*
X1358674Y1038683D01*
X1358294Y1037850D01*
X1358168Y1037100D01*
X1360827D01*
G01X1364595Y1042100D02*
X1364089Y1041933D01*
X1363709Y1041517D01*
X1363456Y1041017D01*
X1363266Y1040350D01*
X1363203Y1039600D01*
X1363266Y1038850D01*
X1363456Y1038183D01*
X1363709Y1037683D01*
X1364089Y1037267D01*
X1364595Y1037100D01*
X1365102Y1037267D01*
X1365482Y1037683D01*
X1365735Y1038183D01*
X1365925Y1038850D01*
X1365988Y1039600D01*
X1365925Y1040350D01*
X1365735Y1041017D01*
X1365482Y1041517D01*
X1365102Y1041933D01*
X1364595Y1042100D01*
G01X1356900Y1033700D02*
Y1036300D01*
X1363100D01*
Y1033700D01*
X1356900D01*
G01X1354750Y1045000D02*
G03I-1000J0D01*
G01X1355000Y1042500D02*
Y1062500D01*
G01X1380000Y1079000D02*
X1360000D01*
Y1071000D01*
X1380000D01*
Y1079000D01*
G01X1378100Y1056300D02*
Y1053700D01*
X1371900D01*
Y1056300D01*
X1378100D01*
G01X1384367Y1062500D02*
Y1057500D01*
X1382784D01*
X1382277Y1057750D01*
X1381961Y1058083D01*
X1381834Y1058750D01*
X1381961Y1059417D01*
X1382341Y1059833D01*
X1382784Y1060083D01*
X1384367D01*
G01X1382784D02*
X1381834Y1062500D01*
G01X1379395Y1061500D02*
X1379016Y1062083D01*
X1378509Y1062417D01*
X1377939Y1062500D01*
X1377433Y1062417D01*
X1376926Y1062000D01*
X1376610Y1061500D01*
X1376546Y1061000D01*
X1376673Y1060417D01*
X1377116Y1060000D01*
X1377559Y1059833D01*
X1378129D01*
G01X1377559D02*
X1377179Y1059583D01*
X1376863Y1059167D01*
X1376736Y1058667D01*
X1376863Y1058167D01*
X1377179Y1057750D01*
X1377749Y1057500D01*
X1378319Y1057583D01*
X1378889Y1057917D01*
G01X1383100Y1066300D02*
Y1063700D01*
X1376900D01*
Y1066300D01*
X1383100D01*
G01X1359567Y1082900D02*
Y1080400D01*
X1360633D01*
G01X1361607D02*
Y1082900D01*
X1362300Y1080817D01*
X1362993Y1082900D01*
Y1080400D01*
G01X1365087Y1082692D02*
X1364927Y1082817D01*
X1364740Y1082900D01*
X1364527D01*
X1364287Y1082775D01*
X1364100Y1082567D01*
X1363967Y1082317D01*
X1363860Y1081900D01*
X1363833Y1081525D01*
X1363887Y1081150D01*
X1363967Y1080900D01*
X1364127Y1080650D01*
X1364313Y1080483D01*
X1364500Y1080400D01*
X1364687D01*
X1364873Y1080483D01*
X1365033Y1080608D01*
X1365167Y1080775D01*
G01X1366113D02*
X1366273Y1080567D01*
X1366460Y1080442D01*
X1366700Y1080400D01*
X1366940Y1080483D01*
X1367127Y1080650D01*
X1367260Y1080942D01*
X1367287Y1081275D01*
X1367233Y1081608D01*
X1367100Y1081817D01*
X1366913Y1081983D01*
X1366727Y1082025D01*
X1366540Y1081983D01*
X1366300Y1081817D01*
X1366380Y1082900D01*
X1367100D01*
G01X1368313Y1080775D02*
X1368473Y1080567D01*
X1368660Y1080442D01*
X1368900Y1080400D01*
X1369140Y1080483D01*
X1369327Y1080650D01*
X1369460Y1080942D01*
X1369487Y1081275D01*
X1369433Y1081608D01*
X1369300Y1081817D01*
X1369113Y1081983D01*
X1368927Y1082025D01*
X1368740Y1081983D01*
X1368500Y1081817D01*
X1368580Y1082900D01*
X1369300D01*
G01X1370513Y1080775D02*
X1370673Y1080567D01*
X1370860Y1080442D01*
X1371100Y1080400D01*
X1371340Y1080483D01*
X1371527Y1080650D01*
X1371660Y1080942D01*
X1371687Y1081275D01*
X1371633Y1081608D01*
X1371500Y1081817D01*
X1371313Y1081983D01*
X1371127Y1082025D01*
X1370940Y1081983D01*
X1370700Y1081817D01*
X1370780Y1082900D01*
X1371500D01*
G01X1372500Y1079567D02*
X1374100D01*
G01X1376033Y1080400D02*
X1374967D01*
Y1082900D01*
X1376033D01*
G01X1375607Y1081692D02*
X1374967D01*
G01X1377087Y1080400D02*
Y1082900D01*
X1378313Y1080400D01*
Y1082900D01*
G01X1378713Y968500D02*
Y966708D01*
X1378820Y966333D01*
X1379033Y966083D01*
X1379300Y966000D01*
X1379567Y966083D01*
X1379780Y966333D01*
X1379887Y966708D01*
Y968500D01*
G01X1380967Y966000D02*
Y968500D01*
X1381607D01*
X1381820Y968375D01*
X1381980Y968083D01*
X1382033Y967750D01*
X1381980Y967417D01*
X1381847Y967167D01*
X1381607Y967042D01*
X1380967D01*
G01X1383300Y967125D02*
X1384153D01*
X1384073Y967417D01*
X1383940Y967583D01*
X1383753Y967667D01*
X1383567Y967625D01*
X1383407Y967500D01*
X1383300Y967208D01*
X1383247Y966958D01*
Y966708D01*
X1383300Y966458D01*
X1383433Y966208D01*
X1383593Y966042D01*
X1383780Y966000D01*
X1383967Y966083D01*
X1384153Y966333D01*
G01X1385447Y966000D02*
Y967667D01*
G01Y967250D02*
X1385553Y967458D01*
X1385713Y967625D01*
X1385927Y967667D01*
X1386113Y967625D01*
X1386273Y967458D01*
X1386353Y967167D01*
Y966000D01*
G01X1387647D02*
Y967667D01*
G01Y967250D02*
X1387753Y967458D01*
X1387913Y967625D01*
X1388127Y967667D01*
X1388313Y967625D01*
X1388473Y967458D01*
X1388553Y967167D01*
Y966000D01*
G01X1391940D02*
Y968500D01*
G01X1393060D02*
Y966000D01*
G01Y967250D02*
X1391940D01*
G01X1394700Y967667D02*
Y966000D01*
G01Y968333D02*
X1394647Y968375D01*
Y968458D01*
X1394700Y968500D01*
X1394753Y968458D01*
Y968375D01*
X1394700Y968333D01*
G01X1396527Y965375D02*
X1396713Y965208D01*
X1396927Y965167D01*
X1397113Y965208D01*
X1397273Y965417D01*
X1397380Y965708D01*
Y967667D01*
G01Y967333D02*
X1397273Y967500D01*
X1397113Y967625D01*
X1396927Y967667D01*
X1396713Y967583D01*
X1396580Y967417D01*
X1396473Y967125D01*
X1396420Y966833D01*
X1396447Y966583D01*
X1396553Y966292D01*
X1396713Y966083D01*
X1396927Y966000D01*
X1397087Y966042D01*
X1397273Y966208D01*
X1397380Y966375D01*
G01X1398647Y966000D02*
Y968500D01*
G01Y967292D02*
X1398780Y967500D01*
X1398913Y967625D01*
X1399127Y967667D01*
X1399287Y967625D01*
X1399473Y967458D01*
X1399553Y967208D01*
Y966000D01*
G01X1404033D02*
X1402967D01*
Y968500D01*
X1404033D01*
G01X1403607Y967292D02*
X1402967D01*
G01X1405247Y966000D02*
Y967667D01*
G01Y967250D02*
X1405353Y967458D01*
X1405513Y967625D01*
X1405727Y967667D01*
X1405913Y967625D01*
X1406073Y967458D01*
X1406153Y967167D01*
Y966000D01*
G01X1407500Y967125D02*
X1408353D01*
X1408273Y967417D01*
X1408140Y967583D01*
X1407953Y967667D01*
X1407767Y967625D01*
X1407607Y967500D01*
X1407500Y967208D01*
X1407447Y966958D01*
Y966708D01*
X1407500Y966458D01*
X1407633Y966208D01*
X1407793Y966042D01*
X1407980Y966000D01*
X1408167Y966083D01*
X1408353Y966333D01*
G01X1409727Y966000D02*
Y967667D01*
G01Y967333D02*
X1409860Y967500D01*
X1409993Y967625D01*
X1410180Y967667D01*
X1410313Y967625D01*
X1410473Y967500D01*
G01X1411927Y965375D02*
X1412113Y965208D01*
X1412327Y965167D01*
X1412513Y965208D01*
X1412673Y965417D01*
X1412780Y965708D01*
Y967667D01*
G01Y967333D02*
X1412673Y967500D01*
X1412513Y967625D01*
X1412327Y967667D01*
X1412113Y967583D01*
X1411980Y967417D01*
X1411873Y967125D01*
X1411820Y966833D01*
X1411847Y966583D01*
X1411953Y966292D01*
X1412113Y966083D01*
X1412327Y966000D01*
X1412487Y966042D01*
X1412673Y966208D01*
X1412780Y966375D01*
G01X1413940Y965250D02*
X1414100Y965167D01*
X1414313Y965250D01*
X1414447Y965417D01*
X1414553Y965625D01*
X1414713Y966292D01*
X1415060Y967667D01*
G01X1414207D02*
X1414713Y966292D01*
G01X1418367Y966000D02*
Y968500D01*
X1419007D01*
X1419220Y968375D01*
X1419380Y968083D01*
X1419433Y967750D01*
X1419380Y967417D01*
X1419247Y967167D01*
X1419007Y967042D01*
X1418367D01*
G01X1420647Y966000D02*
Y968500D01*
G01Y967292D02*
X1420780Y967500D01*
X1420913Y967625D01*
X1421127Y967667D01*
X1421287Y967625D01*
X1421473Y967458D01*
X1421553Y967208D01*
Y966000D01*
G01X1422740Y965250D02*
X1422900Y965167D01*
X1423113Y965250D01*
X1423247Y965417D01*
X1423353Y965625D01*
X1423513Y966292D01*
X1423860Y967667D01*
G01X1423007D02*
X1423513Y966292D01*
G01X1425100D02*
X1425233Y966125D01*
X1425420Y966000D01*
X1425580D01*
X1425740Y966083D01*
X1425847Y966208D01*
X1425900Y966375D01*
X1425873Y966625D01*
X1425767Y966750D01*
X1425287Y967000D01*
X1425180Y967292D01*
X1425233Y967500D01*
X1425340Y967625D01*
X1425500Y967667D01*
X1425660Y967625D01*
X1425820Y967500D01*
G01X1427700Y967667D02*
Y966000D01*
G01Y968333D02*
X1427647Y968375D01*
Y968458D01*
X1427700Y968500D01*
X1427753Y968458D01*
Y968375D01*
X1427700Y968333D01*
G01X1430327Y967458D02*
X1430140Y967625D01*
X1429980Y967667D01*
X1429767Y967583D01*
X1429607Y967417D01*
X1429500Y967125D01*
X1429473Y966833D01*
X1429500Y966542D01*
X1429607Y966292D01*
X1429767Y966083D01*
X1429980Y966000D01*
X1430167Y966083D01*
X1430327Y966250D01*
G01X1431700Y966292D02*
X1431833Y966125D01*
X1432020Y966000D01*
X1432180D01*
X1432340Y966083D01*
X1432447Y966208D01*
X1432500Y966375D01*
X1432473Y966625D01*
X1432367Y966750D01*
X1431887Y967000D01*
X1431780Y967292D01*
X1431833Y967500D01*
X1431940Y967625D01*
X1432100Y967667D01*
X1432260Y967625D01*
X1432420Y967500D01*
G01X1435993Y968083D02*
X1436153Y968333D01*
X1436340Y968458D01*
X1436553Y968500D01*
X1436820Y968417D01*
X1437007Y968208D01*
X1437060Y967958D01*
X1437033Y967708D01*
X1436927Y967500D01*
X1436393Y967083D01*
X1436153Y966792D01*
X1435993Y966375D01*
X1435940Y966000D01*
X1437060D01*
G01X1438220Y965917D02*
X1439180Y968500D01*
G01X1440900Y966000D02*
Y968500D01*
X1440580Y968000D01*
G01Y966000D02*
X1441220D01*
G01X1443100Y968500D02*
X1442887Y968417D01*
X1442727Y968208D01*
X1442620Y967958D01*
X1442540Y967625D01*
X1442513Y967250D01*
X1442540Y966875D01*
X1442620Y966542D01*
X1442727Y966292D01*
X1442887Y966083D01*
X1443100Y966000D01*
X1443313Y966083D01*
X1443473Y966292D01*
X1443580Y966542D01*
X1443660Y966875D01*
X1443687Y967250D01*
X1443660Y967625D01*
X1443580Y967958D01*
X1443473Y968208D01*
X1443313Y968417D01*
X1443100Y968500D01*
G01X1444820Y965917D02*
X1445780Y968500D01*
G01X1446993Y968083D02*
X1447153Y968333D01*
X1447340Y968458D01*
X1447553Y968500D01*
X1447820Y968417D01*
X1448007Y968208D01*
X1448060Y967958D01*
X1448033Y967708D01*
X1447927Y967500D01*
X1447393Y967083D01*
X1447153Y966792D01*
X1446993Y966375D01*
X1446940Y966000D01*
X1448060D01*
G01X1449700Y968500D02*
X1449487Y968417D01*
X1449327Y968208D01*
X1449220Y967958D01*
X1449140Y967625D01*
X1449113Y967250D01*
X1449140Y966875D01*
X1449220Y966542D01*
X1449327Y966292D01*
X1449487Y966083D01*
X1449700Y966000D01*
X1449913Y966083D01*
X1450073Y966292D01*
X1450180Y966542D01*
X1450260Y966875D01*
X1450287Y967250D01*
X1450260Y967625D01*
X1450180Y967958D01*
X1450073Y968208D01*
X1449913Y968417D01*
X1449700Y968500D01*
G01X1451900Y966000D02*
Y968500D01*
X1451580Y968000D01*
G01Y966000D02*
X1452220D01*
G01X1454047D02*
X1454100Y966542D01*
X1454180Y967000D01*
X1454287Y967417D01*
X1454420Y967875D01*
X1454633Y968500D01*
X1453567D01*
G01X1378267Y976000D02*
Y978500D01*
X1378907D01*
X1379120Y978375D01*
X1379280Y978083D01*
X1379333Y977750D01*
X1379280Y977417D01*
X1379147Y977167D01*
X1378907Y977042D01*
X1378267D01*
G01X1380307Y976000D02*
Y978500D01*
X1381000Y976417D01*
X1381693Y978500D01*
Y976000D01*
G01X1383200Y978500D02*
Y976000D01*
G01X1382587Y978500D02*
X1383813D01*
G01X1387067Y976000D02*
Y978500D01*
X1387707D01*
X1387920Y978375D01*
X1388080Y978083D01*
X1388133Y977750D01*
X1388080Y977417D01*
X1387947Y977167D01*
X1387707Y977042D01*
X1387067D01*
G01X1389347Y977667D02*
Y976500D01*
X1389453Y976208D01*
X1389613Y976042D01*
X1389800Y976000D01*
X1389987Y976042D01*
X1390147Y976208D01*
X1390253Y976500D01*
G01Y976000D02*
Y977667D01*
G01X1392000Y976000D02*
Y978500D01*
G01X1393800Y976292D02*
X1393933Y976125D01*
X1394120Y976000D01*
X1394280D01*
X1394440Y976083D01*
X1394547Y976208D01*
X1394600Y976375D01*
X1394573Y976625D01*
X1394467Y976750D01*
X1393987Y977000D01*
X1393880Y977292D01*
X1393933Y977500D01*
X1394040Y977625D01*
X1394200Y977667D01*
X1394360Y977625D01*
X1394520Y977500D01*
G01X1396000Y977125D02*
X1396853D01*
X1396773Y977417D01*
X1396640Y977583D01*
X1396453Y977667D01*
X1396267Y977625D01*
X1396107Y977500D01*
X1396000Y977208D01*
X1395947Y976958D01*
Y976708D01*
X1396000Y976458D01*
X1396133Y976208D01*
X1396293Y976042D01*
X1396480Y976000D01*
X1396667Y976083D01*
X1396853Y976333D01*
G01X1398227Y976000D02*
Y977667D01*
G01Y977333D02*
X1398360Y977500D01*
X1398493Y977625D01*
X1398680Y977667D01*
X1398813Y977625D01*
X1398973Y977500D01*
G01X1403213Y977333D02*
X1403320Y977458D01*
X1403400Y977667D01*
X1403453Y977958D01*
X1403400Y978208D01*
X1403293Y978375D01*
X1403107Y978500D01*
X1402387D01*
Y976000D01*
X1403267D01*
X1403453Y976167D01*
X1403560Y976417D01*
X1403613Y976708D01*
X1403560Y977000D01*
X1403400Y977250D01*
X1403213Y977333D01*
X1402387D01*
G01X1405200Y976000D02*
X1405040Y976042D01*
X1404880Y976208D01*
X1404773Y976500D01*
X1404720Y976833D01*
X1404773Y977167D01*
X1404880Y977458D01*
X1405040Y977625D01*
X1405200Y977667D01*
X1405360Y977625D01*
X1405520Y977458D01*
X1405627Y977167D01*
X1405653Y976833D01*
X1405627Y976500D01*
X1405520Y976208D01*
X1405360Y976042D01*
X1405200Y976000D01*
G01X1407880D02*
Y977667D01*
G01Y977375D02*
X1407773Y977542D01*
X1407613Y977625D01*
X1407427Y977667D01*
X1407240Y977583D01*
X1407080Y977417D01*
X1406973Y977167D01*
X1406920Y976833D01*
X1406973Y976500D01*
X1407080Y976250D01*
X1407240Y976083D01*
X1407427Y976000D01*
X1407613Y976042D01*
X1407773Y976167D01*
X1407880Y976333D01*
G01X1409227Y976000D02*
Y977667D01*
G01Y977333D02*
X1409360Y977500D01*
X1409493Y977625D01*
X1409680Y977667D01*
X1409813Y977625D01*
X1409973Y977500D01*
G01X1412280Y978500D02*
Y976000D01*
G01Y976375D02*
X1412173Y976167D01*
X1412013Y976042D01*
X1411827Y976000D01*
X1411613Y976083D01*
X1411453Y976292D01*
X1411347Y976542D01*
X1411320Y976833D01*
X1411347Y977125D01*
X1411453Y977375D01*
X1411613Y977583D01*
X1411827Y977667D01*
X1412013Y977625D01*
X1412147Y977542D01*
X1412280Y977375D01*
G01X1378267Y986000D02*
Y988500D01*
X1378933D01*
X1379147Y988375D01*
X1379280Y988208D01*
X1379333Y987875D01*
X1379280Y987542D01*
X1379120Y987333D01*
X1378933Y987208D01*
X1378267D01*
G01X1378933D02*
X1379333Y986000D01*
G01X1382640D02*
Y988500D01*
G01X1383760D02*
Y986000D01*
G01Y987250D02*
X1382640D01*
G01X1384813Y988500D02*
Y986708D01*
X1384920Y986333D01*
X1385133Y986083D01*
X1385400Y986000D01*
X1385667Y986083D01*
X1385880Y986333D01*
X1385987Y986708D01*
Y988500D01*
G01X1391107Y986000D02*
Y988500D01*
X1391800Y986417D01*
X1392493Y988500D01*
Y986000D01*
G01X1395587D02*
Y988500D01*
X1396813Y986000D01*
Y988500D01*
G01X1398000Y987125D02*
X1398853D01*
X1398773Y987417D01*
X1398640Y987583D01*
X1398453Y987667D01*
X1398267Y987625D01*
X1398107Y987500D01*
X1398000Y987208D01*
X1397947Y986958D01*
Y986708D01*
X1398000Y986458D01*
X1398133Y986208D01*
X1398293Y986042D01*
X1398480Y986000D01*
X1398667Y986083D01*
X1398853Y986333D01*
G01X1399933Y987667D02*
X1400253Y986000D01*
X1400600Y987667D01*
X1400947Y986000D01*
X1401267Y987667D01*
G01X1403227Y987458D02*
X1403040Y987625D01*
X1402880Y987667D01*
X1402667Y987583D01*
X1402507Y987417D01*
X1402400Y987125D01*
X1402373Y986833D01*
X1402400Y986542D01*
X1402507Y986292D01*
X1402667Y986083D01*
X1402880Y986000D01*
X1403067Y986083D01*
X1403227Y986250D01*
G01X1405000Y986000D02*
X1404840Y986042D01*
X1404680Y986208D01*
X1404573Y986500D01*
X1404520Y986833D01*
X1404573Y987167D01*
X1404680Y987458D01*
X1404840Y987625D01*
X1405000Y987667D01*
X1405160Y987625D01*
X1405320Y987458D01*
X1405427Y987167D01*
X1405453Y986833D01*
X1405427Y986500D01*
X1405320Y986208D01*
X1405160Y986042D01*
X1405000Y986000D01*
G01X1406400D02*
Y987667D01*
G01Y987208D02*
X1406480Y987417D01*
X1406613Y987583D01*
X1406800Y987667D01*
X1406987Y987583D01*
X1407120Y987417D01*
X1407200Y987208D01*
Y986000D01*
G01Y987208D02*
X1407280Y987417D01*
X1407413Y987583D01*
X1407600Y987667D01*
X1407787Y987583D01*
X1407920Y987417D01*
X1408000Y987167D01*
Y986000D01*
G01X1409000Y987125D02*
X1409853D01*
X1409773Y987417D01*
X1409640Y987583D01*
X1409453Y987667D01*
X1409267Y987625D01*
X1409107Y987500D01*
X1409000Y987208D01*
X1408947Y986958D01*
Y986708D01*
X1409000Y986458D01*
X1409133Y986208D01*
X1409293Y986042D01*
X1409480Y986000D01*
X1409667Y986083D01*
X1409853Y986333D01*
G01X1411227Y986000D02*
Y987667D01*
G01Y987333D02*
X1411360Y987500D01*
X1411493Y987625D01*
X1411680Y987667D01*
X1411813Y987625D01*
X1411973Y987500D01*
G01X1400113Y1015233D02*
X1400220Y1015358D01*
X1400300Y1015567D01*
X1400353Y1015858D01*
X1400300Y1016108D01*
X1400193Y1016275D01*
X1400007Y1016400D01*
X1399287D01*
Y1013900D01*
X1400167D01*
X1400353Y1014067D01*
X1400460Y1014317D01*
X1400513Y1014608D01*
X1400460Y1014900D01*
X1400300Y1015150D01*
X1400113Y1015233D01*
X1399287D01*
G01X1401433Y1013900D02*
X1402100Y1016400D01*
X1402767Y1013900D01*
G01X1402527Y1014775D02*
X1401673D01*
G01X1403740Y1014233D02*
X1403953Y1014025D01*
X1404193Y1013900D01*
X1404407D01*
X1404620Y1014025D01*
X1404780Y1014233D01*
X1404860Y1014525D01*
X1404807Y1014817D01*
X1404673Y1015067D01*
X1404433Y1015233D01*
X1404113Y1015317D01*
X1403927Y1015483D01*
X1403847Y1015775D01*
X1403900Y1016067D01*
X1404033Y1016275D01*
X1404220Y1016400D01*
X1404407D01*
X1404593Y1016317D01*
X1404753Y1016108D01*
G01X1406447Y1013900D02*
X1406500Y1014442D01*
X1406580Y1014900D01*
X1406687Y1015317D01*
X1406820Y1015775D01*
X1407033Y1016400D01*
X1405967D01*
G01X1408700D02*
X1408487Y1016317D01*
X1408327Y1016108D01*
X1408220Y1015858D01*
X1408140Y1015525D01*
X1408113Y1015150D01*
X1408140Y1014775D01*
X1408220Y1014442D01*
X1408327Y1014192D01*
X1408487Y1013983D01*
X1408700Y1013900D01*
X1408913Y1013983D01*
X1409073Y1014192D01*
X1409180Y1014442D01*
X1409260Y1014775D01*
X1409287Y1015150D01*
X1409260Y1015525D01*
X1409180Y1015858D01*
X1409073Y1016108D01*
X1408913Y1016317D01*
X1408700Y1016400D01*
G01X1410100Y1013067D02*
X1411700D01*
G01X1413100Y1016400D02*
X1412887Y1016317D01*
X1412727Y1016108D01*
X1412620Y1015858D01*
X1412540Y1015525D01*
X1412513Y1015150D01*
X1412540Y1014775D01*
X1412620Y1014442D01*
X1412727Y1014192D01*
X1412887Y1013983D01*
X1413100Y1013900D01*
X1413313Y1013983D01*
X1413473Y1014192D01*
X1413580Y1014442D01*
X1413660Y1014775D01*
X1413687Y1015150D01*
X1413660Y1015525D01*
X1413580Y1015858D01*
X1413473Y1016108D01*
X1413313Y1016317D01*
X1413100Y1016400D01*
G01X1415620Y1013900D02*
Y1016400D01*
X1414633Y1014608D01*
X1415967D01*
G01X1379167Y1036200D02*
Y1038700D01*
X1379833D01*
X1380047Y1038575D01*
X1380180Y1038408D01*
X1380233Y1038075D01*
X1380180Y1037742D01*
X1380020Y1037533D01*
X1379833Y1037408D01*
X1379167D01*
G01X1379833D02*
X1380233Y1036200D01*
G01X1381313Y1036575D02*
X1381473Y1036367D01*
X1381660Y1036242D01*
X1381900Y1036200D01*
X1382140Y1036283D01*
X1382327Y1036450D01*
X1382460Y1036742D01*
X1382487Y1037075D01*
X1382433Y1037408D01*
X1382300Y1037617D01*
X1382113Y1037783D01*
X1381927Y1037825D01*
X1381740Y1037783D01*
X1381500Y1037617D01*
X1381580Y1038700D01*
X1382300D01*
G01X1390667Y1033300D02*
Y1028300D01*
X1389084D01*
X1388577Y1028550D01*
X1388261Y1028883D01*
X1388134Y1029550D01*
X1388261Y1030217D01*
X1388641Y1030633D01*
X1389084Y1030883D01*
X1390667D01*
G01X1389084D02*
X1388134Y1033300D01*
G01X1385506Y1031217D02*
X1385062Y1030633D01*
X1384682Y1030300D01*
X1384176Y1030133D01*
X1383733Y1030300D01*
X1383416Y1030633D01*
X1383163Y1031133D01*
X1383099Y1031717D01*
X1383163Y1032217D01*
X1383416Y1032717D01*
X1383796Y1033133D01*
X1384239Y1033300D01*
X1384746Y1033133D01*
X1385189Y1032633D01*
X1385442Y1031883D01*
X1385506Y1031050D01*
X1385379Y1029967D01*
X1385189Y1029383D01*
X1384872Y1028800D01*
X1384429Y1028383D01*
X1383986Y1028300D01*
X1383543Y1028467D01*
X1383226Y1028883D01*
G01X1390600Y1036300D02*
Y1033700D01*
X1384400D01*
Y1036300D01*
X1390600D01*
G01X1389267Y1039300D02*
Y1036800D01*
X1390333D01*
G01X1391307D02*
Y1039300D01*
X1392000Y1037217D01*
X1392693Y1039300D01*
Y1036800D01*
G01X1394787Y1039092D02*
X1394627Y1039217D01*
X1394440Y1039300D01*
X1394227D01*
X1393987Y1039175D01*
X1393800Y1038967D01*
X1393667Y1038717D01*
X1393560Y1038300D01*
X1393533Y1037925D01*
X1393587Y1037550D01*
X1393667Y1037300D01*
X1393827Y1037050D01*
X1394013Y1036883D01*
X1394200Y1036800D01*
X1394387D01*
X1394573Y1036883D01*
X1394733Y1037008D01*
X1394867Y1037175D01*
G01X1395813D02*
X1395973Y1036967D01*
X1396160Y1036842D01*
X1396400Y1036800D01*
X1396640Y1036883D01*
X1396827Y1037050D01*
X1396960Y1037342D01*
X1396987Y1037675D01*
X1396933Y1038008D01*
X1396800Y1038217D01*
X1396613Y1038383D01*
X1396427Y1038425D01*
X1396240Y1038383D01*
X1396000Y1038217D01*
X1396080Y1039300D01*
X1396800D01*
G01X1398013Y1037175D02*
X1398173Y1036967D01*
X1398360Y1036842D01*
X1398600Y1036800D01*
X1398840Y1036883D01*
X1399027Y1037050D01*
X1399160Y1037342D01*
X1399187Y1037675D01*
X1399133Y1038008D01*
X1399000Y1038217D01*
X1398813Y1038383D01*
X1398627Y1038425D01*
X1398440Y1038383D01*
X1398200Y1038217D01*
X1398280Y1039300D01*
X1399000D01*
G01X1400213Y1037175D02*
X1400373Y1036967D01*
X1400560Y1036842D01*
X1400800Y1036800D01*
X1401040Y1036883D01*
X1401227Y1037050D01*
X1401360Y1037342D01*
X1401387Y1037675D01*
X1401333Y1038008D01*
X1401200Y1038217D01*
X1401013Y1038383D01*
X1400827Y1038425D01*
X1400640Y1038383D01*
X1400400Y1038217D01*
X1400480Y1039300D01*
X1401200D01*
G01X1388250Y1040000D02*
Y1060000D01*
X1401750D01*
Y1040000D01*
X1388250D01*
G01X1390000Y1060000D02*
Y1040000D01*
G01X1384984Y1071001D02*
X1404984D01*
G01X1384984Y1079001D02*
Y1071001D01*
G01X1394367Y1071200D02*
Y1066200D01*
X1392784D01*
X1392277Y1066450D01*
X1391961Y1066783D01*
X1391834Y1067450D01*
X1391961Y1068117D01*
X1392341Y1068533D01*
X1392784Y1068783D01*
X1394367D01*
G01X1392784D02*
X1391834Y1071200D01*
G01X1387243D02*
Y1066200D01*
X1389585Y1069783D01*
X1386420D01*
G01X1393100Y1066300D02*
Y1063700D01*
X1386900D01*
Y1066300D01*
X1393100D01*
G01X1392250Y1057500D02*
G03I-1000J0D01*
G01X1382307Y1081233D02*
X1382947D01*
G01X1382600Y1081775D02*
Y1080692D01*
G01X1384240Y1080733D02*
X1384453Y1080525D01*
X1384693Y1080400D01*
X1384907D01*
X1385120Y1080525D01*
X1385280Y1080733D01*
X1385360Y1081025D01*
X1385307Y1081317D01*
X1385173Y1081567D01*
X1384933Y1081733D01*
X1384613Y1081817D01*
X1384427Y1081983D01*
X1384347Y1082275D01*
X1384400Y1082567D01*
X1384533Y1082775D01*
X1384720Y1082900D01*
X1384907D01*
X1385093Y1082817D01*
X1385253Y1082608D01*
G01X1387427Y1081858D02*
X1387240Y1082025D01*
X1387080Y1082067D01*
X1386867Y1081983D01*
X1386707Y1081817D01*
X1386600Y1081525D01*
X1386573Y1081233D01*
X1386600Y1080942D01*
X1386707Y1080692D01*
X1386867Y1080483D01*
X1387080Y1080400D01*
X1387267Y1080483D01*
X1387427Y1080650D01*
G01X1389200Y1080400D02*
X1389040Y1080442D01*
X1388880Y1080608D01*
X1388773Y1080900D01*
X1388720Y1081233D01*
X1388773Y1081567D01*
X1388880Y1081858D01*
X1389040Y1082025D01*
X1389200Y1082067D01*
X1389360Y1082025D01*
X1389520Y1081858D01*
X1389627Y1081567D01*
X1389653Y1081233D01*
X1389627Y1080900D01*
X1389520Y1080608D01*
X1389360Y1080442D01*
X1389200Y1080400D01*
G01X1390920Y1079567D02*
Y1082067D01*
G01Y1081692D02*
X1391053Y1081900D01*
X1391187Y1082025D01*
X1391400Y1082067D01*
X1391587Y1082025D01*
X1391773Y1081817D01*
X1391853Y1081525D01*
X1391880Y1081233D01*
X1391853Y1080942D01*
X1391773Y1080650D01*
X1391613Y1080483D01*
X1391400Y1080400D01*
X1391213Y1080442D01*
X1391027Y1080567D01*
X1390920Y1080733D01*
G01X1393200Y1081525D02*
X1394053D01*
X1393973Y1081817D01*
X1393840Y1081983D01*
X1393653Y1082067D01*
X1393467Y1082025D01*
X1393307Y1081900D01*
X1393200Y1081608D01*
X1393147Y1081358D01*
Y1081108D01*
X1393200Y1080858D01*
X1393333Y1080608D01*
X1393493Y1080442D01*
X1393680Y1080400D01*
X1393867Y1080483D01*
X1394053Y1080733D01*
G01X1395000Y1079567D02*
X1396600D01*
G01X1398000Y1082900D02*
Y1080400D01*
G01X1397387Y1082900D02*
X1398613D01*
G01X1399827Y1080400D02*
Y1082067D01*
G01Y1081733D02*
X1399960Y1081900D01*
X1400093Y1082025D01*
X1400280Y1082067D01*
X1400413Y1082025D01*
X1400573Y1081900D01*
G01X1402400Y1082067D02*
Y1080400D01*
G01Y1082733D02*
X1402347Y1082775D01*
Y1082858D01*
X1402400Y1082900D01*
X1402453Y1082858D01*
Y1082775D01*
X1402400Y1082733D01*
G01X1404227Y1079775D02*
X1404413Y1079608D01*
X1404627Y1079567D01*
X1404813Y1079608D01*
X1404973Y1079817D01*
X1405080Y1080108D01*
Y1082067D01*
G01Y1081733D02*
X1404973Y1081900D01*
X1404813Y1082025D01*
X1404627Y1082067D01*
X1404413Y1081983D01*
X1404280Y1081817D01*
X1404173Y1081525D01*
X1404120Y1081233D01*
X1404147Y1080983D01*
X1404253Y1080692D01*
X1404413Y1080483D01*
X1404627Y1080400D01*
X1404787Y1080442D01*
X1404973Y1080608D01*
X1405080Y1080775D01*
G01X1406453Y1081233D02*
X1407147D01*
G01X1404984Y1079001D02*
X1384984D01*
G01X1431567Y977900D02*
Y972900D01*
X1429984D01*
X1429477Y973150D01*
X1429161Y973483D01*
X1429034Y974150D01*
X1429161Y974817D01*
X1429541Y975233D01*
X1429984Y975483D01*
X1431567D01*
G01X1429984D02*
X1429034Y977900D01*
G01X1426595Y977150D02*
X1426216Y977567D01*
X1425772Y977817D01*
X1425203Y977900D01*
X1424633Y977733D01*
X1424189Y977400D01*
X1423873Y976817D01*
X1423810Y976150D01*
X1423936Y975483D01*
X1424253Y975067D01*
X1424696Y974733D01*
X1425139Y974650D01*
X1425582Y974733D01*
X1426152Y975067D01*
X1425962Y972900D01*
X1424253D01*
G01X1421497Y976900D02*
X1421118Y977483D01*
X1420611Y977817D01*
X1420041Y977900D01*
X1419535Y977817D01*
X1419028Y977400D01*
X1418712Y976900D01*
X1418648Y976400D01*
X1418775Y975817D01*
X1419218Y975400D01*
X1419661Y975233D01*
X1420231D01*
G01X1419661D02*
X1419281Y974983D01*
X1418965Y974567D01*
X1418838Y974067D01*
X1418965Y973567D01*
X1419281Y973150D01*
X1419851Y972900D01*
X1420421Y972983D01*
X1420991Y973317D01*
G01X1425667Y998300D02*
Y993300D01*
X1424084D01*
X1423577Y993550D01*
X1423261Y993883D01*
X1423134Y994550D01*
X1423261Y995217D01*
X1423641Y995633D01*
X1424084Y995883D01*
X1425667D01*
G01X1424084D02*
X1423134Y998300D01*
G01X1420695Y997550D02*
X1420316Y997967D01*
X1419872Y998217D01*
X1419303Y998300D01*
X1418733Y998133D01*
X1418289Y997800D01*
X1417973Y997217D01*
X1417910Y996550D01*
X1418036Y995883D01*
X1418353Y995467D01*
X1418796Y995133D01*
X1419239Y995050D01*
X1419682Y995133D01*
X1420252Y995467D01*
X1420062Y993300D01*
X1418353D01*
G01X1415408Y994133D02*
X1415028Y993633D01*
X1414584Y993383D01*
X1414078Y993300D01*
X1413445Y993467D01*
X1413001Y993883D01*
X1412875Y994383D01*
X1412938Y994883D01*
X1413191Y995300D01*
X1414458Y996133D01*
X1415028Y996717D01*
X1415408Y997550D01*
X1415534Y998300D01*
X1412875D01*
G01X1425600Y1001300D02*
Y998700D01*
X1419400D01*
Y1001300D01*
X1425600D01*
G01X1425100Y981300D02*
Y978700D01*
X1418900D01*
Y981300D01*
X1425100D01*
G01X1429970Y1019000D02*
G03I-1970J0D01*
G01X1428267Y1027100D02*
Y1022100D01*
X1426684D01*
X1426177Y1022350D01*
X1425861Y1022683D01*
X1425734Y1023350D01*
X1425861Y1024017D01*
X1426241Y1024433D01*
X1426684Y1024683D01*
X1428267D01*
G01X1426684D02*
X1425734Y1027100D01*
G01X1423295Y1026350D02*
X1422916Y1026767D01*
X1422472Y1027017D01*
X1421903Y1027100D01*
X1421333Y1026933D01*
X1420889Y1026600D01*
X1420573Y1026017D01*
X1420510Y1025350D01*
X1420636Y1024683D01*
X1420953Y1024267D01*
X1421396Y1023933D01*
X1421839Y1023850D01*
X1422282Y1023933D01*
X1422852Y1024267D01*
X1422662Y1022100D01*
X1420953D01*
G01X1416805Y1027100D02*
Y1022100D01*
X1417564Y1023100D01*
G01Y1027100D02*
X1416045D01*
G01X1426267Y1047400D02*
Y1042400D01*
X1424684D01*
X1424177Y1042650D01*
X1423861Y1042983D01*
X1423734Y1043650D01*
X1423861Y1044317D01*
X1424241Y1044733D01*
X1424684Y1044983D01*
X1426267D01*
G01X1424684D02*
X1423734Y1047400D01*
G01X1421295Y1046650D02*
X1420916Y1047067D01*
X1420472Y1047317D01*
X1419903Y1047400D01*
X1419333Y1047233D01*
X1418889Y1046900D01*
X1418573Y1046317D01*
X1418510Y1045650D01*
X1418636Y1044983D01*
X1418953Y1044567D01*
X1419396Y1044233D01*
X1419839Y1044150D01*
X1420282Y1044233D01*
X1420852Y1044567D01*
X1420662Y1042400D01*
X1418953D01*
G01X1414805D02*
X1415311Y1042567D01*
X1415691Y1042983D01*
X1415944Y1043483D01*
X1416134Y1044150D01*
X1416197Y1044900D01*
X1416134Y1045650D01*
X1415944Y1046317D01*
X1415691Y1046817D01*
X1415311Y1047233D01*
X1414805Y1047400D01*
X1414298Y1047233D01*
X1413918Y1046817D01*
X1413665Y1046317D01*
X1413475Y1045650D01*
X1413412Y1044900D01*
X1413475Y1044150D01*
X1413665Y1043483D01*
X1413918Y1042983D01*
X1414298Y1042567D01*
X1414805Y1042400D01*
G01X1425100Y1051300D02*
Y1048700D01*
X1418900D01*
Y1051300D01*
X1425100D01*
G01X1425600Y1031300D02*
Y1028700D01*
X1419400D01*
Y1031300D01*
X1425600D01*
G01X1428970Y1069500D02*
G03I-1970J0D01*
G01X1404984Y1071001D02*
Y1079001D01*
G01X1460667Y977300D02*
Y972300D01*
X1459084D01*
X1458577Y972550D01*
X1458261Y972883D01*
X1458134Y973550D01*
X1458261Y974217D01*
X1458641Y974633D01*
X1459084Y974883D01*
X1460667D01*
G01X1459084D02*
X1458134Y977300D01*
G01X1455695Y976300D02*
X1455316Y976883D01*
X1454809Y977217D01*
X1454239Y977300D01*
X1453733Y977217D01*
X1453226Y976800D01*
X1452910Y976300D01*
X1452846Y975800D01*
X1452973Y975217D01*
X1453416Y974800D01*
X1453859Y974633D01*
X1454429D01*
G01X1453859D02*
X1453479Y974383D01*
X1453163Y973967D01*
X1453036Y973467D01*
X1453163Y972967D01*
X1453479Y972550D01*
X1454049Y972300D01*
X1454619Y972383D01*
X1455189Y972717D01*
G01X1450281Y976717D02*
X1449838Y977133D01*
X1449331Y977300D01*
X1448825Y977133D01*
X1448381Y976633D01*
X1448065Y975883D01*
X1447938Y975133D01*
Y974217D01*
X1448065Y973467D01*
X1448381Y972800D01*
X1448761Y972467D01*
X1449205Y972300D01*
X1449711Y972467D01*
X1450091Y972800D01*
X1450344Y973300D01*
X1450471Y973967D01*
X1450344Y974550D01*
X1450028Y975133D01*
X1449648Y975467D01*
X1449205Y975550D01*
X1448698Y975383D01*
X1448318Y974967D01*
X1447938Y974217D01*
G01X1460767Y1002300D02*
Y997300D01*
X1459184D01*
X1458677Y997550D01*
X1458361Y997883D01*
X1458234Y998550D01*
X1458361Y999217D01*
X1458741Y999633D01*
X1459184Y999883D01*
X1460767D01*
G01X1459184D02*
X1458234Y1002300D01*
G01X1455795Y1001300D02*
X1455416Y1001883D01*
X1454909Y1002217D01*
X1454339Y1002300D01*
X1453833Y1002217D01*
X1453326Y1001800D01*
X1453010Y1001300D01*
X1452946Y1000800D01*
X1453073Y1000217D01*
X1453516Y999800D01*
X1453959Y999633D01*
X1454529D01*
G01X1453959D02*
X1453579Y999383D01*
X1453263Y998967D01*
X1453136Y998467D01*
X1453263Y997967D01*
X1453579Y997550D01*
X1454149Y997300D01*
X1454719Y997383D01*
X1455289Y997717D01*
G01X1449305Y1002300D02*
X1448861Y1002217D01*
X1448355Y1001967D01*
X1448038Y1001550D01*
X1447912Y1000967D01*
X1448038Y1000383D01*
X1448418Y999883D01*
X1448988Y999633D01*
X1449621D01*
X1450001Y999467D01*
X1450318Y999050D01*
X1450444Y998467D01*
X1450254Y997883D01*
X1449811Y997467D01*
X1449305Y997300D01*
X1448798Y997467D01*
X1448355Y997883D01*
X1448165Y998467D01*
X1448291Y999050D01*
X1448608Y999467D01*
X1448988Y999633D01*
X1449621D01*
X1450191Y999883D01*
X1450571Y1000383D01*
X1450697Y1000967D01*
X1450571Y1001550D01*
X1450254Y1001967D01*
X1449748Y1002217D01*
X1449305Y1002300D01*
G01X1459967Y1027400D02*
Y1022400D01*
X1458384D01*
X1457877Y1022650D01*
X1457561Y1022983D01*
X1457434Y1023650D01*
X1457561Y1024317D01*
X1457941Y1024733D01*
X1458384Y1024983D01*
X1459967D01*
G01X1458384D02*
X1457434Y1027400D01*
G01X1454995Y1026400D02*
X1454616Y1026983D01*
X1454109Y1027317D01*
X1453539Y1027400D01*
X1453033Y1027317D01*
X1452526Y1026900D01*
X1452210Y1026400D01*
X1452146Y1025900D01*
X1452273Y1025317D01*
X1452716Y1024900D01*
X1453159Y1024733D01*
X1453729D01*
G01X1453159D02*
X1452779Y1024483D01*
X1452463Y1024067D01*
X1452336Y1023567D01*
X1452463Y1023067D01*
X1452779Y1022650D01*
X1453349Y1022400D01*
X1453919Y1022483D01*
X1454489Y1022817D01*
G01X1449708Y1025317D02*
X1449264Y1024733D01*
X1448884Y1024400D01*
X1448378Y1024233D01*
X1447935Y1024400D01*
X1447618Y1024733D01*
X1447365Y1025233D01*
X1447301Y1025817D01*
X1447365Y1026317D01*
X1447618Y1026817D01*
X1447998Y1027233D01*
X1448441Y1027400D01*
X1448948Y1027233D01*
X1449391Y1026733D01*
X1449644Y1025983D01*
X1449708Y1025150D01*
X1449581Y1024067D01*
X1449391Y1023483D01*
X1449074Y1022900D01*
X1448631Y1022483D01*
X1448188Y1022400D01*
X1447745Y1022567D01*
X1447428Y1022983D01*
G01X1461067Y1016800D02*
Y1011800D01*
X1459484D01*
X1458977Y1012050D01*
X1458661Y1012383D01*
X1458534Y1013050D01*
X1458661Y1013717D01*
X1459041Y1014133D01*
X1459484Y1014383D01*
X1461067D01*
G01X1459484D02*
X1458534Y1016800D01*
G01X1456095Y1015800D02*
X1455716Y1016383D01*
X1455209Y1016717D01*
X1454639Y1016800D01*
X1454133Y1016717D01*
X1453626Y1016300D01*
X1453310Y1015800D01*
X1453246Y1015300D01*
X1453373Y1014717D01*
X1453816Y1014300D01*
X1454259Y1014133D01*
X1454829D01*
G01X1454259D02*
X1453879Y1013883D01*
X1453563Y1013467D01*
X1453436Y1012967D01*
X1453563Y1012467D01*
X1453879Y1012050D01*
X1454449Y1011800D01*
X1455019Y1011883D01*
X1455589Y1012217D01*
G01X1449731Y1016800D02*
X1449605Y1015717D01*
X1449415Y1014800D01*
X1449161Y1013967D01*
X1448845Y1013050D01*
X1448338Y1011800D01*
X1450871D01*
G01X1430040Y1018600D02*
Y1021100D01*
G01X1431160D02*
Y1018600D01*
G01Y1019850D02*
X1430040D01*
G01X1432293Y1018600D02*
Y1021100D01*
X1433307D01*
G01X1432933Y1019892D02*
X1432293D01*
G01X1434333Y1018600D02*
X1435000Y1021100D01*
X1435667Y1018600D01*
G01X1435427Y1019475D02*
X1434573D01*
G01X1436613Y1019100D02*
X1436773Y1018808D01*
X1436987Y1018642D01*
X1437227Y1018600D01*
X1437440Y1018642D01*
X1437653Y1018850D01*
X1437787Y1019100D01*
X1437813Y1019350D01*
X1437760Y1019642D01*
X1437573Y1019850D01*
X1437387Y1019933D01*
X1437147D01*
G01X1437387D02*
X1437547Y1020058D01*
X1437680Y1020267D01*
X1437733Y1020517D01*
X1437680Y1020767D01*
X1437547Y1020975D01*
X1437307Y1021100D01*
X1437067Y1021058D01*
X1436827Y1020892D01*
G01X1439400Y1018600D02*
Y1021100D01*
X1439080Y1020600D01*
G01Y1018600D02*
X1439720D01*
G01X1441093Y1020683D02*
X1441253Y1020933D01*
X1441440Y1021058D01*
X1441653Y1021100D01*
X1441920Y1021017D01*
X1442107Y1020808D01*
X1442160Y1020558D01*
X1442133Y1020308D01*
X1442027Y1020100D01*
X1441493Y1019683D01*
X1441253Y1019392D01*
X1441093Y1018975D01*
X1441040Y1018600D01*
X1442160D01*
G01X1443800D02*
X1443987Y1018642D01*
X1444200Y1018767D01*
X1444333Y1018975D01*
X1444387Y1019267D01*
X1444333Y1019558D01*
X1444173Y1019808D01*
X1443933Y1019933D01*
X1443667D01*
X1443507Y1020017D01*
X1443373Y1020225D01*
X1443320Y1020517D01*
X1443400Y1020808D01*
X1443587Y1021017D01*
X1443800Y1021100D01*
X1444013Y1021017D01*
X1444200Y1020808D01*
X1444280Y1020517D01*
X1444227Y1020225D01*
X1444093Y1020017D01*
X1443933Y1019933D01*
X1443667D01*
X1443427Y1019808D01*
X1443267Y1019558D01*
X1443213Y1019267D01*
X1443267Y1018975D01*
X1443400Y1018767D01*
X1443613Y1018642D01*
X1443800Y1018600D01*
G01X1446213Y1019933D02*
X1446320Y1020058D01*
X1446400Y1020267D01*
X1446453Y1020558D01*
X1446400Y1020808D01*
X1446293Y1020975D01*
X1446107Y1021100D01*
X1445387D01*
Y1018600D01*
X1446267D01*
X1446453Y1018767D01*
X1446560Y1019017D01*
X1446613Y1019308D01*
X1446560Y1019600D01*
X1446400Y1019850D01*
X1446213Y1019933D01*
X1445387D01*
G01X1447747Y1018892D02*
X1447933Y1018683D01*
X1448147Y1018600D01*
X1448360Y1018683D01*
X1448547Y1018933D01*
X1448680Y1019308D01*
X1448733Y1019683D01*
Y1020142D01*
X1448680Y1020517D01*
X1448547Y1020850D01*
X1448387Y1021017D01*
X1448200Y1021100D01*
X1447987Y1021017D01*
X1447827Y1020850D01*
X1447720Y1020600D01*
X1447667Y1020267D01*
X1447720Y1019975D01*
X1447853Y1019683D01*
X1448013Y1019517D01*
X1448200Y1019475D01*
X1448413Y1019558D01*
X1448573Y1019767D01*
X1448733Y1020142D01*
G01X1449893Y1019642D02*
X1450080Y1019933D01*
X1450240Y1020100D01*
X1450453Y1020183D01*
X1450640Y1020100D01*
X1450773Y1019933D01*
X1450880Y1019683D01*
X1450907Y1019392D01*
X1450880Y1019142D01*
X1450773Y1018892D01*
X1450613Y1018683D01*
X1450427Y1018600D01*
X1450213Y1018683D01*
X1450027Y1018933D01*
X1449920Y1019308D01*
X1449893Y1019725D01*
X1449947Y1020267D01*
X1450027Y1020558D01*
X1450160Y1020850D01*
X1450347Y1021058D01*
X1450533Y1021100D01*
X1450720Y1021017D01*
X1450853Y1020808D01*
G01X1461567Y1052400D02*
Y1047400D01*
X1459984D01*
X1459477Y1047650D01*
X1459161Y1047983D01*
X1459034Y1048650D01*
X1459161Y1049317D01*
X1459541Y1049733D01*
X1459984Y1049983D01*
X1461567D01*
G01X1459984D02*
X1459034Y1052400D01*
G01X1456595Y1051400D02*
X1456216Y1051983D01*
X1455709Y1052317D01*
X1455139Y1052400D01*
X1454633Y1052317D01*
X1454126Y1051900D01*
X1453810Y1051400D01*
X1453746Y1050900D01*
X1453873Y1050317D01*
X1454316Y1049900D01*
X1454759Y1049733D01*
X1455329D01*
G01X1454759D02*
X1454379Y1049483D01*
X1454063Y1049067D01*
X1453936Y1048567D01*
X1454063Y1048067D01*
X1454379Y1047650D01*
X1454949Y1047400D01*
X1455519Y1047483D01*
X1456089Y1047817D01*
G01X1451497Y1051650D02*
X1451118Y1052067D01*
X1450674Y1052317D01*
X1450105Y1052400D01*
X1449535Y1052233D01*
X1449091Y1051900D01*
X1448775Y1051317D01*
X1448712Y1050650D01*
X1448838Y1049983D01*
X1449155Y1049567D01*
X1449598Y1049233D01*
X1450041Y1049150D01*
X1450484Y1049233D01*
X1451054Y1049567D01*
X1450864Y1047400D01*
X1449155D01*
G01X1465067Y1067800D02*
Y1062800D01*
X1463484D01*
X1462977Y1063050D01*
X1462661Y1063383D01*
X1462534Y1064050D01*
X1462661Y1064717D01*
X1463041Y1065133D01*
X1463484Y1065383D01*
X1465067D01*
G01X1463484D02*
X1462534Y1067800D01*
G01X1460095Y1066800D02*
X1459716Y1067383D01*
X1459209Y1067717D01*
X1458639Y1067800D01*
X1458133Y1067717D01*
X1457626Y1067300D01*
X1457310Y1066800D01*
X1457246Y1066300D01*
X1457373Y1065717D01*
X1457816Y1065300D01*
X1458259Y1065133D01*
X1458829D01*
G01X1458259D02*
X1457879Y1064883D01*
X1457563Y1064467D01*
X1457436Y1063967D01*
X1457563Y1063467D01*
X1457879Y1063050D01*
X1458449Y1062800D01*
X1459019Y1062883D01*
X1459589Y1063217D01*
G01X1452845Y1067800D02*
Y1062800D01*
X1455187Y1066383D01*
X1452022D01*
G01X1429540Y1068600D02*
Y1071100D01*
G01X1430660D02*
Y1068600D01*
G01Y1069850D02*
X1429540D01*
G01X1431793Y1068600D02*
Y1071100D01*
X1432807D01*
G01X1432433Y1069892D02*
X1431793D01*
G01X1433833Y1068600D02*
X1434500Y1071100D01*
X1435167Y1068600D01*
G01X1434927Y1069475D02*
X1434073D01*
G01X1436113Y1069100D02*
X1436273Y1068808D01*
X1436487Y1068642D01*
X1436727Y1068600D01*
X1436940Y1068642D01*
X1437153Y1068850D01*
X1437287Y1069100D01*
X1437313Y1069350D01*
X1437260Y1069642D01*
X1437073Y1069850D01*
X1436887Y1069933D01*
X1436647D01*
G01X1436887D02*
X1437047Y1070058D01*
X1437180Y1070267D01*
X1437233Y1070517D01*
X1437180Y1070767D01*
X1437047Y1070975D01*
X1436807Y1071100D01*
X1436567Y1071058D01*
X1436327Y1070892D01*
G01X1438900Y1068600D02*
Y1071100D01*
X1438580Y1070600D01*
G01Y1068600D02*
X1439220D01*
G01X1440593Y1070683D02*
X1440753Y1070933D01*
X1440940Y1071058D01*
X1441153Y1071100D01*
X1441420Y1071017D01*
X1441607Y1070808D01*
X1441660Y1070558D01*
X1441633Y1070308D01*
X1441527Y1070100D01*
X1440993Y1069683D01*
X1440753Y1069392D01*
X1440593Y1068975D01*
X1440540Y1068600D01*
X1441660D01*
G01X1443300D02*
X1443487Y1068642D01*
X1443700Y1068767D01*
X1443833Y1068975D01*
X1443887Y1069267D01*
X1443833Y1069558D01*
X1443673Y1069808D01*
X1443433Y1069933D01*
X1443167D01*
X1443007Y1070017D01*
X1442873Y1070225D01*
X1442820Y1070517D01*
X1442900Y1070808D01*
X1443087Y1071017D01*
X1443300Y1071100D01*
X1443513Y1071017D01*
X1443700Y1070808D01*
X1443780Y1070517D01*
X1443727Y1070225D01*
X1443593Y1070017D01*
X1443433Y1069933D01*
X1443167D01*
X1442927Y1069808D01*
X1442767Y1069558D01*
X1442713Y1069267D01*
X1442767Y1068975D01*
X1442900Y1068767D01*
X1443113Y1068642D01*
X1443300Y1068600D01*
G01X1445713Y1069933D02*
X1445820Y1070058D01*
X1445900Y1070267D01*
X1445953Y1070558D01*
X1445900Y1070808D01*
X1445793Y1070975D01*
X1445607Y1071100D01*
X1444887D01*
Y1068600D01*
X1445767D01*
X1445953Y1068767D01*
X1446060Y1069017D01*
X1446113Y1069308D01*
X1446060Y1069600D01*
X1445900Y1069850D01*
X1445713Y1069933D01*
X1444887D01*
G01X1447247Y1068892D02*
X1447433Y1068683D01*
X1447647Y1068600D01*
X1447860Y1068683D01*
X1448047Y1068933D01*
X1448180Y1069308D01*
X1448233Y1069683D01*
Y1070142D01*
X1448180Y1070517D01*
X1448047Y1070850D01*
X1447887Y1071017D01*
X1447700Y1071100D01*
X1447487Y1071017D01*
X1447327Y1070850D01*
X1447220Y1070600D01*
X1447167Y1070267D01*
X1447220Y1069975D01*
X1447353Y1069683D01*
X1447513Y1069517D01*
X1447700Y1069475D01*
X1447913Y1069558D01*
X1448073Y1069767D01*
X1448233Y1070142D01*
G01X1449393Y1069642D02*
X1449580Y1069933D01*
X1449740Y1070100D01*
X1449953Y1070183D01*
X1450140Y1070100D01*
X1450273Y1069933D01*
X1450380Y1069683D01*
X1450407Y1069392D01*
X1450380Y1069142D01*
X1450273Y1068892D01*
X1450113Y1068683D01*
X1449927Y1068600D01*
X1449713Y1068683D01*
X1449527Y1068933D01*
X1449420Y1069308D01*
X1449393Y1069725D01*
X1449447Y1070267D01*
X1449527Y1070558D01*
X1449660Y1070850D01*
X1449847Y1071058D01*
X1450033Y1071100D01*
X1450220Y1071017D01*
X1450353Y1070808D01*
G01X1461100Y981300D02*
Y978700D01*
X1454900D01*
Y981300D01*
X1461100D01*
G01X1475567Y982800D02*
Y977800D01*
X1473984D01*
X1473477Y978050D01*
X1473161Y978383D01*
X1473034Y979050D01*
X1473161Y979717D01*
X1473541Y980133D01*
X1473984Y980383D01*
X1475567D01*
G01X1473984D02*
X1473034Y982800D01*
G01X1468443D02*
Y977800D01*
X1470785Y981383D01*
X1467620D01*
G01X1465308Y978633D02*
X1464928Y978133D01*
X1464484Y977883D01*
X1463978Y977800D01*
X1463345Y977967D01*
X1462901Y978383D01*
X1462775Y978883D01*
X1462838Y979383D01*
X1463091Y979800D01*
X1464358Y980633D01*
X1464928Y981217D01*
X1465308Y982050D01*
X1465434Y982800D01*
X1462775D01*
G01X1483100Y981300D02*
Y978700D01*
X1476900D01*
Y981300D01*
X1483100D01*
G01X1475367Y992700D02*
Y987700D01*
X1473784D01*
X1473277Y987950D01*
X1472961Y988283D01*
X1472834Y988950D01*
X1472961Y989617D01*
X1473341Y990033D01*
X1473784Y990283D01*
X1475367D01*
G01X1473784D02*
X1472834Y992700D01*
G01X1468243D02*
Y987700D01*
X1470585Y991283D01*
X1467420D01*
G01X1465297Y991700D02*
X1464918Y992283D01*
X1464411Y992617D01*
X1463841Y992700D01*
X1463335Y992617D01*
X1462828Y992200D01*
X1462512Y991700D01*
X1462448Y991200D01*
X1462575Y990617D01*
X1463018Y990200D01*
X1463461Y990033D01*
X1464031D01*
G01X1463461D02*
X1463081Y989783D01*
X1462765Y989367D01*
X1462638Y988867D01*
X1462765Y988367D01*
X1463081Y987950D01*
X1463651Y987700D01*
X1464221Y987783D01*
X1464791Y988117D01*
G01X1483100Y991300D02*
Y988700D01*
X1476900D01*
Y991300D01*
X1483100D01*
G01X1475067Y1002700D02*
Y997700D01*
X1473484D01*
X1472977Y997950D01*
X1472661Y998283D01*
X1472534Y998950D01*
X1472661Y999617D01*
X1473041Y1000033D01*
X1473484Y1000283D01*
X1475067D01*
G01X1473484D02*
X1472534Y1002700D01*
G01X1467943D02*
Y997700D01*
X1470285Y1001283D01*
X1467120D01*
G01X1464681Y1002117D02*
X1464238Y1002533D01*
X1463731Y1002700D01*
X1463225Y1002533D01*
X1462781Y1002033D01*
X1462465Y1001283D01*
X1462338Y1000533D01*
Y999617D01*
X1462465Y998867D01*
X1462781Y998200D01*
X1463161Y997867D01*
X1463605Y997700D01*
X1464111Y997867D01*
X1464491Y998200D01*
X1464744Y998700D01*
X1464871Y999367D01*
X1464744Y999950D01*
X1464428Y1000533D01*
X1464048Y1000867D01*
X1463605Y1000950D01*
X1463098Y1000783D01*
X1462718Y1000367D01*
X1462338Y999617D01*
G01X1476900Y998700D02*
Y1001300D01*
X1483100D01*
Y998700D01*
X1476900D01*
G01X1461600Y1010800D02*
Y1008200D01*
X1455400D01*
Y1010800D01*
X1461600D01*
G01Y1005800D02*
Y1003200D01*
X1455400D01*
Y1005800D01*
X1461600D01*
G01X1474967Y1031600D02*
Y1026600D01*
X1473384D01*
X1472877Y1026850D01*
X1472561Y1027183D01*
X1472434Y1027850D01*
X1472561Y1028517D01*
X1472941Y1028933D01*
X1473384Y1029183D01*
X1474967D01*
G01X1473384D02*
X1472434Y1031600D01*
G01X1467843D02*
Y1026600D01*
X1470185Y1030183D01*
X1467020D01*
G01X1463505Y1026600D02*
X1464011Y1026767D01*
X1464391Y1027183D01*
X1464644Y1027683D01*
X1464834Y1028350D01*
X1464897Y1029100D01*
X1464834Y1029850D01*
X1464644Y1030517D01*
X1464391Y1031017D01*
X1464011Y1031433D01*
X1463505Y1031600D01*
X1462998Y1031433D01*
X1462618Y1031017D01*
X1462365Y1030517D01*
X1462175Y1029850D01*
X1462112Y1029100D01*
X1462175Y1028350D01*
X1462365Y1027683D01*
X1462618Y1027183D01*
X1462998Y1026767D01*
X1463505Y1026600D01*
G01X1475767Y1021600D02*
Y1016600D01*
X1474184D01*
X1473677Y1016850D01*
X1473361Y1017183D01*
X1473234Y1017850D01*
X1473361Y1018517D01*
X1473741Y1018933D01*
X1474184Y1019183D01*
X1475767D01*
G01X1474184D02*
X1473234Y1021600D01*
G01X1468643D02*
Y1016600D01*
X1470985Y1020183D01*
X1467820D01*
G01X1465697Y1020850D02*
X1465318Y1021267D01*
X1464874Y1021517D01*
X1464305Y1021600D01*
X1463735Y1021433D01*
X1463291Y1021100D01*
X1462975Y1020517D01*
X1462912Y1019850D01*
X1463038Y1019183D01*
X1463355Y1018767D01*
X1463798Y1018433D01*
X1464241Y1018350D01*
X1464684Y1018433D01*
X1465254Y1018767D01*
X1465064Y1016600D01*
X1463355D01*
G01X1483100Y1021300D02*
Y1018700D01*
X1476900D01*
Y1021300D01*
X1483100D01*
G01X1475567Y1013100D02*
Y1008100D01*
X1473984D01*
X1473477Y1008350D01*
X1473161Y1008683D01*
X1473034Y1009350D01*
X1473161Y1010017D01*
X1473541Y1010433D01*
X1473984Y1010683D01*
X1475567D01*
G01X1473984D02*
X1473034Y1013100D01*
G01X1468443D02*
Y1008100D01*
X1470785Y1011683D01*
X1467620D01*
G01X1464105Y1013100D02*
X1463661Y1013017D01*
X1463155Y1012767D01*
X1462838Y1012350D01*
X1462712Y1011767D01*
X1462838Y1011183D01*
X1463218Y1010683D01*
X1463788Y1010433D01*
X1464421D01*
X1464801Y1010267D01*
X1465118Y1009850D01*
X1465244Y1009267D01*
X1465054Y1008683D01*
X1464611Y1008267D01*
X1464105Y1008100D01*
X1463598Y1008267D01*
X1463155Y1008683D01*
X1462965Y1009267D01*
X1463091Y1009850D01*
X1463408Y1010267D01*
X1463788Y1010433D01*
X1464421D01*
X1464991Y1010683D01*
X1465371Y1011183D01*
X1465497Y1011767D01*
X1465371Y1012350D01*
X1465054Y1012767D01*
X1464548Y1013017D01*
X1464105Y1013100D01*
G01X1476900Y1008700D02*
Y1011300D01*
X1483100D01*
Y1008700D01*
X1476900D01*
G01X1461600Y1031300D02*
Y1028700D01*
X1455400D01*
Y1031300D01*
X1461600D01*
G01X1483100D02*
Y1028700D01*
X1476900D01*
Y1031300D01*
X1483100D01*
G01X1474567Y1042500D02*
Y1037500D01*
X1472984D01*
X1472477Y1037750D01*
X1472161Y1038083D01*
X1472034Y1038750D01*
X1472161Y1039417D01*
X1472541Y1039833D01*
X1472984Y1040083D01*
X1474567D01*
G01X1472984D02*
X1472034Y1042500D01*
G01X1467443D02*
Y1037500D01*
X1469785Y1041083D01*
X1466620D01*
G01X1463105Y1042500D02*
Y1037500D01*
X1463864Y1038500D01*
G01Y1042500D02*
X1462345D01*
G01X1483100Y1041300D02*
Y1038700D01*
X1476900D01*
Y1041300D01*
X1483100D01*
G01X1476267Y1052400D02*
Y1047400D01*
X1474684D01*
X1474177Y1047650D01*
X1473861Y1047983D01*
X1473734Y1048650D01*
X1473861Y1049317D01*
X1474241Y1049733D01*
X1474684Y1049983D01*
X1476267D01*
G01X1474684D02*
X1473734Y1052400D01*
G01X1469143D02*
Y1047400D01*
X1471485Y1050983D01*
X1468320D01*
G01X1464931Y1052400D02*
X1464805Y1051317D01*
X1464615Y1050400D01*
X1464361Y1049567D01*
X1464045Y1048650D01*
X1463538Y1047400D01*
X1466071D01*
G01X1476900Y1048700D02*
Y1051300D01*
X1483100D01*
Y1048700D01*
X1476900D01*
G01X1462100Y1061300D02*
Y1058700D01*
X1455900D01*
Y1061300D01*
X1462100D01*
G01X1461600Y1056300D02*
Y1053700D01*
X1455400D01*
Y1056300D01*
X1461600D01*
G01X1484867Y1077600D02*
Y1072600D01*
X1483284D01*
X1482777Y1072850D01*
X1482461Y1073183D01*
X1482334Y1073850D01*
X1482461Y1074517D01*
X1482841Y1074933D01*
X1483284Y1075183D01*
X1484867D01*
G01X1483284D02*
X1482334Y1077600D01*
G01X1477743D02*
Y1072600D01*
X1480085Y1076183D01*
X1476920D01*
G01X1472645Y1077600D02*
Y1072600D01*
X1474987Y1076183D01*
X1471822D01*
G01X1483100Y1071300D02*
Y1068700D01*
X1476900D01*
Y1071300D01*
X1483100D01*
G01X1474967Y1062300D02*
Y1057300D01*
X1473384D01*
X1472877Y1057550D01*
X1472561Y1057883D01*
X1472434Y1058550D01*
X1472561Y1059217D01*
X1472941Y1059633D01*
X1473384Y1059883D01*
X1474967D01*
G01X1473384D02*
X1472434Y1062300D01*
G01X1467843D02*
Y1057300D01*
X1470185Y1060883D01*
X1467020D01*
G01X1464708Y1060217D02*
X1464264Y1059633D01*
X1463884Y1059300D01*
X1463378Y1059133D01*
X1462935Y1059300D01*
X1462618Y1059633D01*
X1462365Y1060133D01*
X1462301Y1060717D01*
X1462365Y1061217D01*
X1462618Y1061717D01*
X1462998Y1062133D01*
X1463441Y1062300D01*
X1463948Y1062133D01*
X1464391Y1061633D01*
X1464644Y1060883D01*
X1464708Y1060050D01*
X1464581Y1058967D01*
X1464391Y1058383D01*
X1464074Y1057800D01*
X1463631Y1057383D01*
X1463188Y1057300D01*
X1462745Y1057467D01*
X1462428Y1057883D01*
G01X1476900Y1058700D02*
Y1061300D01*
X1483100D01*
Y1058700D01*
X1476900D01*
G01X1490000Y973500D02*
X1510000D01*
Y981500D01*
X1490000D01*
Y973500D01*
G01Y993500D02*
X1510000D01*
Y1001500D01*
X1490000D01*
Y993500D01*
G01Y983500D02*
X1510000D01*
Y991500D01*
X1490000D01*
Y983500D01*
G01Y1023500D02*
X1510000D01*
Y1031500D01*
X1490000D01*
Y1023500D01*
G01Y1013500D02*
X1510000D01*
Y1021500D01*
X1490000D01*
Y1013500D01*
G01Y1003500D02*
X1510000D01*
Y1011500D01*
X1490000D01*
Y1003500D01*
G01Y1043500D02*
X1510000D01*
Y1051500D01*
X1490000D01*
Y1043500D01*
G01Y1033500D02*
X1510000D01*
Y1041500D01*
X1490000D01*
Y1033500D01*
G01X1510192Y1071675D02*
X1490192D01*
G01Y1063675D02*
X1510192D01*
G01X1490192Y1071675D02*
Y1063675D01*
G01X1490000Y1053500D02*
X1510000D01*
Y1061500D01*
X1490000D01*
Y1053500D01*
G01X1520000Y973500D02*
X1540000D01*
Y981500D01*
X1520000D01*
Y973500D01*
G01X1510800Y995000D02*
X1510587Y995042D01*
X1510400Y995208D01*
X1510240Y995458D01*
X1510133Y995750D01*
X1510080Y996083D01*
Y996417D01*
X1510133Y996750D01*
X1510240Y997042D01*
X1510400Y997292D01*
X1510587Y997458D01*
X1510800Y997500D01*
X1511013Y997458D01*
X1511200Y997292D01*
X1511360Y997042D01*
X1511467Y996750D01*
X1511520Y996417D01*
Y996083D01*
X1511467Y995750D01*
X1511360Y995458D01*
X1511200Y995208D01*
X1511013Y995042D01*
X1510800Y995000D01*
G01X1512413Y997500D02*
Y995708D01*
X1512520Y995333D01*
X1512733Y995083D01*
X1513000Y995000D01*
X1513267Y995083D01*
X1513480Y995333D01*
X1513587Y995708D01*
Y997500D01*
G01X1515200D02*
Y995000D01*
G01X1514587Y997500D02*
X1515813D01*
G01X1516600Y994167D02*
X1518200D01*
G01X1519147Y995292D02*
X1519333Y995083D01*
X1519547Y995000D01*
X1519760Y995083D01*
X1519947Y995333D01*
X1520080Y995708D01*
X1520133Y996083D01*
Y996542D01*
X1520080Y996917D01*
X1519947Y997250D01*
X1519787Y997417D01*
X1519600Y997500D01*
X1519387Y997417D01*
X1519227Y997250D01*
X1519120Y997000D01*
X1519067Y996667D01*
X1519120Y996375D01*
X1519253Y996083D01*
X1519413Y995917D01*
X1519600Y995875D01*
X1519813Y995958D01*
X1519973Y996167D01*
X1520133Y996542D01*
G01X1510800Y985000D02*
X1510587Y985042D01*
X1510400Y985208D01*
X1510240Y985458D01*
X1510133Y985750D01*
X1510080Y986083D01*
Y986417D01*
X1510133Y986750D01*
X1510240Y987042D01*
X1510400Y987292D01*
X1510587Y987458D01*
X1510800Y987500D01*
X1511013Y987458D01*
X1511200Y987292D01*
X1511360Y987042D01*
X1511467Y986750D01*
X1511520Y986417D01*
Y986083D01*
X1511467Y985750D01*
X1511360Y985458D01*
X1511200Y985208D01*
X1511013Y985042D01*
X1510800Y985000D01*
G01X1512413Y987500D02*
Y985708D01*
X1512520Y985333D01*
X1512733Y985083D01*
X1513000Y985000D01*
X1513267Y985083D01*
X1513480Y985333D01*
X1513587Y985708D01*
Y987500D01*
G01X1515200D02*
Y985000D01*
G01X1514587Y987500D02*
X1515813D01*
G01X1516600Y984167D02*
X1518200D01*
G01X1519600Y985000D02*
Y987500D01*
X1519280Y987000D01*
G01Y985000D02*
X1519920D01*
G01X1521800Y987500D02*
X1521587Y987417D01*
X1521427Y987208D01*
X1521320Y986958D01*
X1521240Y986625D01*
X1521213Y986250D01*
X1521240Y985875D01*
X1521320Y985542D01*
X1521427Y985292D01*
X1521587Y985083D01*
X1521800Y985000D01*
X1522013Y985083D01*
X1522173Y985292D01*
X1522280Y985542D01*
X1522360Y985875D01*
X1522387Y986250D01*
X1522360Y986625D01*
X1522280Y986958D01*
X1522173Y987208D01*
X1522013Y987417D01*
X1521800Y987500D01*
G01X1520000Y993500D02*
X1540000D01*
Y1001500D01*
X1520000D01*
Y993500D01*
G01Y983500D02*
X1540000D01*
Y991500D01*
X1520000D01*
Y983500D01*
G01X1510800Y1025000D02*
X1510587Y1025042D01*
X1510400Y1025208D01*
X1510240Y1025458D01*
X1510133Y1025750D01*
X1510080Y1026083D01*
Y1026417D01*
X1510133Y1026750D01*
X1510240Y1027042D01*
X1510400Y1027292D01*
X1510587Y1027458D01*
X1510800Y1027500D01*
X1511013Y1027458D01*
X1511200Y1027292D01*
X1511360Y1027042D01*
X1511467Y1026750D01*
X1511520Y1026417D01*
Y1026083D01*
X1511467Y1025750D01*
X1511360Y1025458D01*
X1511200Y1025208D01*
X1511013Y1025042D01*
X1510800Y1025000D01*
G01X1512413Y1027500D02*
Y1025708D01*
X1512520Y1025333D01*
X1512733Y1025083D01*
X1513000Y1025000D01*
X1513267Y1025083D01*
X1513480Y1025333D01*
X1513587Y1025708D01*
Y1027500D01*
G01X1515200D02*
Y1025000D01*
G01X1514587Y1027500D02*
X1515813D01*
G01X1516600Y1024167D02*
X1518200D01*
G01X1519093Y1026042D02*
X1519280Y1026333D01*
X1519440Y1026500D01*
X1519653Y1026583D01*
X1519840Y1026500D01*
X1519973Y1026333D01*
X1520080Y1026083D01*
X1520107Y1025792D01*
X1520080Y1025542D01*
X1519973Y1025292D01*
X1519813Y1025083D01*
X1519627Y1025000D01*
X1519413Y1025083D01*
X1519227Y1025333D01*
X1519120Y1025708D01*
X1519093Y1026125D01*
X1519147Y1026667D01*
X1519227Y1026958D01*
X1519360Y1027250D01*
X1519547Y1027458D01*
X1519733Y1027500D01*
X1519920Y1027417D01*
X1520053Y1027208D01*
G01X1510800Y1015000D02*
X1510587Y1015042D01*
X1510400Y1015208D01*
X1510240Y1015458D01*
X1510133Y1015750D01*
X1510080Y1016083D01*
Y1016417D01*
X1510133Y1016750D01*
X1510240Y1017042D01*
X1510400Y1017292D01*
X1510587Y1017458D01*
X1510800Y1017500D01*
X1511013Y1017458D01*
X1511200Y1017292D01*
X1511360Y1017042D01*
X1511467Y1016750D01*
X1511520Y1016417D01*
Y1016083D01*
X1511467Y1015750D01*
X1511360Y1015458D01*
X1511200Y1015208D01*
X1511013Y1015042D01*
X1510800Y1015000D01*
G01X1512413Y1017500D02*
Y1015708D01*
X1512520Y1015333D01*
X1512733Y1015083D01*
X1513000Y1015000D01*
X1513267Y1015083D01*
X1513480Y1015333D01*
X1513587Y1015708D01*
Y1017500D01*
G01X1515200D02*
Y1015000D01*
G01X1514587Y1017500D02*
X1515813D01*
G01X1516600Y1014167D02*
X1518200D01*
G01X1519547Y1015000D02*
X1519600Y1015542D01*
X1519680Y1016000D01*
X1519787Y1016417D01*
X1519920Y1016875D01*
X1520133Y1017500D01*
X1519067D01*
G01X1510800Y1005000D02*
X1510587Y1005042D01*
X1510400Y1005208D01*
X1510240Y1005458D01*
X1510133Y1005750D01*
X1510080Y1006083D01*
Y1006417D01*
X1510133Y1006750D01*
X1510240Y1007042D01*
X1510400Y1007292D01*
X1510587Y1007458D01*
X1510800Y1007500D01*
X1511013Y1007458D01*
X1511200Y1007292D01*
X1511360Y1007042D01*
X1511467Y1006750D01*
X1511520Y1006417D01*
Y1006083D01*
X1511467Y1005750D01*
X1511360Y1005458D01*
X1511200Y1005208D01*
X1511013Y1005042D01*
X1510800Y1005000D01*
G01X1512413Y1007500D02*
Y1005708D01*
X1512520Y1005333D01*
X1512733Y1005083D01*
X1513000Y1005000D01*
X1513267Y1005083D01*
X1513480Y1005333D01*
X1513587Y1005708D01*
Y1007500D01*
G01X1515200D02*
Y1005000D01*
G01X1514587Y1007500D02*
X1515813D01*
G01X1516600Y1004167D02*
X1518200D01*
G01X1519600Y1005000D02*
X1519787Y1005042D01*
X1520000Y1005167D01*
X1520133Y1005375D01*
X1520187Y1005667D01*
X1520133Y1005958D01*
X1519973Y1006208D01*
X1519733Y1006333D01*
X1519467D01*
X1519307Y1006417D01*
X1519173Y1006625D01*
X1519120Y1006917D01*
X1519200Y1007208D01*
X1519387Y1007417D01*
X1519600Y1007500D01*
X1519813Y1007417D01*
X1520000Y1007208D01*
X1520080Y1006917D01*
X1520027Y1006625D01*
X1519893Y1006417D01*
X1519733Y1006333D01*
X1519467D01*
X1519227Y1006208D01*
X1519067Y1005958D01*
X1519013Y1005667D01*
X1519067Y1005375D01*
X1519200Y1005167D01*
X1519413Y1005042D01*
X1519600Y1005000D01*
G01X1520000Y1023500D02*
X1540000D01*
Y1031500D01*
X1520000D01*
Y1023500D01*
G01Y1013500D02*
X1540000D01*
Y1021500D01*
X1520000D01*
Y1013500D01*
G01Y1003500D02*
X1540000D01*
Y1011500D01*
X1520000D01*
Y1003500D01*
G01X1510800Y1045000D02*
X1510587Y1045042D01*
X1510400Y1045208D01*
X1510240Y1045458D01*
X1510133Y1045750D01*
X1510080Y1046083D01*
Y1046417D01*
X1510133Y1046750D01*
X1510240Y1047042D01*
X1510400Y1047292D01*
X1510587Y1047458D01*
X1510800Y1047500D01*
X1511013Y1047458D01*
X1511200Y1047292D01*
X1511360Y1047042D01*
X1511467Y1046750D01*
X1511520Y1046417D01*
Y1046083D01*
X1511467Y1045750D01*
X1511360Y1045458D01*
X1511200Y1045208D01*
X1511013Y1045042D01*
X1510800Y1045000D01*
G01X1512413Y1047500D02*
Y1045708D01*
X1512520Y1045333D01*
X1512733Y1045083D01*
X1513000Y1045000D01*
X1513267Y1045083D01*
X1513480Y1045333D01*
X1513587Y1045708D01*
Y1047500D01*
G01X1515200D02*
Y1045000D01*
G01X1514587Y1047500D02*
X1515813D01*
G01X1516600Y1044167D02*
X1518200D01*
G01X1519920Y1045000D02*
Y1047500D01*
X1518933Y1045708D01*
X1520267D01*
G01X1510800Y1035000D02*
X1510587Y1035042D01*
X1510400Y1035208D01*
X1510240Y1035458D01*
X1510133Y1035750D01*
X1510080Y1036083D01*
Y1036417D01*
X1510133Y1036750D01*
X1510240Y1037042D01*
X1510400Y1037292D01*
X1510587Y1037458D01*
X1510800Y1037500D01*
X1511013Y1037458D01*
X1511200Y1037292D01*
X1511360Y1037042D01*
X1511467Y1036750D01*
X1511520Y1036417D01*
Y1036083D01*
X1511467Y1035750D01*
X1511360Y1035458D01*
X1511200Y1035208D01*
X1511013Y1035042D01*
X1510800Y1035000D01*
G01X1512413Y1037500D02*
Y1035708D01*
X1512520Y1035333D01*
X1512733Y1035083D01*
X1513000Y1035000D01*
X1513267Y1035083D01*
X1513480Y1035333D01*
X1513587Y1035708D01*
Y1037500D01*
G01X1515200D02*
Y1035000D01*
G01X1514587Y1037500D02*
X1515813D01*
G01X1516600Y1034167D02*
X1518200D01*
G01X1519013Y1035375D02*
X1519173Y1035167D01*
X1519360Y1035042D01*
X1519600Y1035000D01*
X1519840Y1035083D01*
X1520027Y1035250D01*
X1520160Y1035542D01*
X1520187Y1035875D01*
X1520133Y1036208D01*
X1520000Y1036417D01*
X1519813Y1036583D01*
X1519627Y1036625D01*
X1519440Y1036583D01*
X1519200Y1036417D01*
X1519280Y1037500D01*
X1520000D01*
G01Y1043500D02*
X1540000D01*
Y1051500D01*
X1520000D01*
Y1043500D01*
G01Y1033500D02*
X1540000D01*
Y1041500D01*
X1520000D01*
Y1033500D01*
G01X1510800Y1075000D02*
X1510587Y1075042D01*
X1510400Y1075208D01*
X1510240Y1075458D01*
X1510133Y1075750D01*
X1510080Y1076083D01*
Y1076417D01*
X1510133Y1076750D01*
X1510240Y1077042D01*
X1510400Y1077292D01*
X1510587Y1077458D01*
X1510800Y1077500D01*
X1511013Y1077458D01*
X1511200Y1077292D01*
X1511360Y1077042D01*
X1511467Y1076750D01*
X1511520Y1076417D01*
Y1076083D01*
X1511467Y1075750D01*
X1511360Y1075458D01*
X1511200Y1075208D01*
X1511013Y1075042D01*
X1510800Y1075000D01*
G01X1512413Y1077500D02*
Y1075708D01*
X1512520Y1075333D01*
X1512733Y1075083D01*
X1513000Y1075000D01*
X1513267Y1075083D01*
X1513480Y1075333D01*
X1513587Y1075708D01*
Y1077500D01*
G01X1515200D02*
Y1075000D01*
G01X1514587Y1077500D02*
X1515813D01*
G01X1516600Y1074167D02*
X1518200D01*
G01X1519600Y1075000D02*
Y1077500D01*
X1519280Y1077000D01*
G01Y1075000D02*
X1519920D01*
G01X1510800Y1065000D02*
X1510587Y1065042D01*
X1510400Y1065208D01*
X1510240Y1065458D01*
X1510133Y1065750D01*
X1510080Y1066083D01*
Y1066417D01*
X1510133Y1066750D01*
X1510240Y1067042D01*
X1510400Y1067292D01*
X1510587Y1067458D01*
X1510800Y1067500D01*
X1511013Y1067458D01*
X1511200Y1067292D01*
X1511360Y1067042D01*
X1511467Y1066750D01*
X1511520Y1066417D01*
Y1066083D01*
X1511467Y1065750D01*
X1511360Y1065458D01*
X1511200Y1065208D01*
X1511013Y1065042D01*
X1510800Y1065000D01*
G01X1512413Y1067500D02*
Y1065708D01*
X1512520Y1065333D01*
X1512733Y1065083D01*
X1513000Y1065000D01*
X1513267Y1065083D01*
X1513480Y1065333D01*
X1513587Y1065708D01*
Y1067500D01*
G01X1515200D02*
Y1065000D01*
G01X1514587Y1067500D02*
X1515813D01*
G01X1516600Y1064167D02*
X1518200D01*
G01X1519093Y1067083D02*
X1519253Y1067333D01*
X1519440Y1067458D01*
X1519653Y1067500D01*
X1519920Y1067417D01*
X1520107Y1067208D01*
X1520160Y1066958D01*
X1520133Y1066708D01*
X1520027Y1066500D01*
X1519493Y1066083D01*
X1519253Y1065792D01*
X1519093Y1065375D01*
X1519040Y1065000D01*
X1520160D01*
G01X1510800Y1055000D02*
X1510587Y1055042D01*
X1510400Y1055208D01*
X1510240Y1055458D01*
X1510133Y1055750D01*
X1510080Y1056083D01*
Y1056417D01*
X1510133Y1056750D01*
X1510240Y1057042D01*
X1510400Y1057292D01*
X1510587Y1057458D01*
X1510800Y1057500D01*
X1511013Y1057458D01*
X1511200Y1057292D01*
X1511360Y1057042D01*
X1511467Y1056750D01*
X1511520Y1056417D01*
Y1056083D01*
X1511467Y1055750D01*
X1511360Y1055458D01*
X1511200Y1055208D01*
X1511013Y1055042D01*
X1510800Y1055000D01*
G01X1512413Y1057500D02*
Y1055708D01*
X1512520Y1055333D01*
X1512733Y1055083D01*
X1513000Y1055000D01*
X1513267Y1055083D01*
X1513480Y1055333D01*
X1513587Y1055708D01*
Y1057500D01*
G01X1515200D02*
Y1055000D01*
G01X1514587Y1057500D02*
X1515813D01*
G01X1516600Y1054167D02*
X1518200D01*
G01X1519013Y1055500D02*
X1519173Y1055208D01*
X1519387Y1055042D01*
X1519627Y1055000D01*
X1519840Y1055042D01*
X1520053Y1055250D01*
X1520187Y1055500D01*
X1520213Y1055750D01*
X1520160Y1056042D01*
X1519973Y1056250D01*
X1519787Y1056333D01*
X1519547D01*
G01X1519787D02*
X1519947Y1056458D01*
X1520080Y1056667D01*
X1520133Y1056917D01*
X1520080Y1057167D01*
X1519947Y1057375D01*
X1519707Y1057500D01*
X1519467Y1057458D01*
X1519227Y1057292D01*
G01X1510192Y1063675D02*
Y1071675D01*
G01X1520000Y1063500D02*
X1540000D01*
Y1071500D01*
X1520000D01*
Y1063500D01*
G01Y1053500D02*
X1540000D01*
Y1061500D01*
X1520000D01*
Y1053500D01*
G01X1544000Y947000D02*
X1566000D01*
Y969000D01*
X1544000D01*
Y947000D01*
G01Y1076000D02*
X1566000D01*
Y1098000D01*
X1544000D01*
Y1076000D01*
G01X1568707Y963000D02*
Y959417D01*
X1568960Y958667D01*
X1569467Y958167D01*
X1570100Y958000D01*
X1570733Y958167D01*
X1571240Y958667D01*
X1571493Y959417D01*
Y963000D01*
G01X1575200Y958000D02*
Y963000D01*
X1574440Y962000D01*
G01Y958000D02*
X1575960D01*
G01X1581060D02*
Y963000D01*
X1578717Y959417D01*
X1581883D01*
G01X1568707Y1092000D02*
Y1088417D01*
X1568960Y1087667D01*
X1569467Y1087167D01*
X1570100Y1087000D01*
X1570733Y1087167D01*
X1571240Y1087667D01*
X1571493Y1088417D01*
Y1092000D01*
G01X1575200Y1087000D02*
Y1092000D01*
X1574440Y1091000D01*
G01Y1087000D02*
X1575960D01*
G01X1578907Y1087750D02*
X1579287Y1087333D01*
X1579730Y1087083D01*
X1580300Y1087000D01*
X1580870Y1087167D01*
X1581313Y1087500D01*
X1581630Y1088083D01*
X1581693Y1088750D01*
X1581567Y1089417D01*
X1581250Y1089833D01*
X1580807Y1090167D01*
X1580363Y1090250D01*
X1579920Y1090167D01*
X1579350Y1089833D01*
X1579540Y1092000D01*
X1581250D01*
M02*
