G04 ================== begin FILE IDENTIFICATION RECORD ==================*
G04 Layout Name:  pmtpulser.brd*
G04 Film Name:    Silkscreen_Top*
G04 File Format:  Gerber RS274X*
G04 File Origin:  Cadence Allegro 16.6-P004*
G04 Origin Date:  Fri Jan 13 14:44:14 2017*
G04 *
G04 Layer:  REF DES/SILKSCREEN_TOP*
G04 Layer:  PACKAGE GEOMETRY/SILKSCREEN_TOP*
G04 Layer:  DEVICE TYPE/SILKSCREEN_TOP*
G04 Layer:  BOARD GEOMETRY/SILKSCREEN_TOP*
G04 *
G04 Offset:    (0.00 0.00)*
G04 Mirror:    No*
G04 Mode:      Positive*
G04 Rotation:  0*
G04 FullContactRelief:  No*
G04 UndefLineWidth:     5.00*
G04 ================== end FILE IDENTIFICATION RECORD ====================*
%FSLAX25Y25*MOIN*%
%IR0*IPPOS*OFA0.00000B0.00000*MIA0B0*SFA1.00000B1.00000*%
%ADD10C,.01*%
%ADD11C,.004*%
%ADD12C,.005*%
G75*
%LPD*%
G75*
G36*
G01X1225000Y1022500D02*
Y1073287D01*
X1274606D01*
Y1022500D01*
X1225000D01*
G37*
G36*
G01X1295782Y1002400D02*
G03I-1082J0D01*
G37*
G36*
G01X1346982Y985100D02*
G03I-1082J0D01*
G37*
G36*
G01X1346582Y1004700D02*
G03I-1082J0D01*
G37*
G36*
G01X1354782Y1045000D02*
G03I-1082J0D01*
G37*
G36*
G01X1360082Y1041800D02*
G03I-1082J0D01*
G37*
G36*
G01X1396782Y1004700D02*
G03I-1082J0D01*
G37*
G36*
G01X1392282Y1057500D02*
G03I-1082J0D01*
G37*
G36*
G01X1387282Y1060600D02*
G03I-1082J0D01*
G37*
G54D10*
G01X1437750Y1015000D02*
G03I-1000J0D01*
G01Y1065000D02*
G03I-1000J0D01*
G54D11*
G01X1254093Y992642D02*
X1253863Y992797D01*
X1253595Y992900D01*
X1253288D01*
X1252943Y992745D01*
X1252675Y992487D01*
X1252483Y992177D01*
X1252330Y991660D01*
X1252292Y991195D01*
X1252368Y990730D01*
X1252483Y990420D01*
X1252713Y990110D01*
X1252982Y989903D01*
X1253250Y989800D01*
X1253518D01*
X1253787Y989903D01*
X1254017Y990058D01*
X1254208Y990265D01*
G01X1255698Y990162D02*
X1255967Y989903D01*
X1256273Y989800D01*
X1256580Y989903D01*
X1256848Y990213D01*
X1257040Y990678D01*
X1257117Y991143D01*
Y991712D01*
X1257040Y992177D01*
X1256848Y992590D01*
X1256618Y992797D01*
X1256350Y992900D01*
X1256043Y992797D01*
X1255813Y992590D01*
X1255660Y992280D01*
X1255583Y991867D01*
X1255660Y991505D01*
X1255852Y991143D01*
X1256082Y990937D01*
X1256350Y990885D01*
X1256657Y990988D01*
X1256887Y991247D01*
X1257117Y991712D01*
G01X1253800Y989300D02*
X1251400D01*
Y985700D01*
X1253800D01*
G01X1279807Y968158D02*
X1280037Y968003D01*
X1280305Y967900D01*
X1280612D01*
X1280957Y968055D01*
X1281225Y968313D01*
X1281417Y968623D01*
X1281570Y969140D01*
X1281608Y969605D01*
X1281532Y970070D01*
X1281417Y970380D01*
X1281187Y970690D01*
X1280918Y970897D01*
X1280650Y971000D01*
X1280382D01*
X1280113Y970897D01*
X1279883Y970742D01*
X1279692Y970535D01*
G01X1277550Y971000D02*
Y967900D01*
X1278010Y968520D01*
G01Y971000D02*
X1277090D01*
G01X1274450Y967900D02*
X1274757Y968003D01*
X1274987Y968262D01*
X1275140Y968572D01*
X1275255Y968985D01*
X1275293Y969450D01*
X1275255Y969915D01*
X1275140Y970328D01*
X1274987Y970638D01*
X1274757Y970897D01*
X1274450Y971000D01*
X1274143Y970897D01*
X1273913Y970638D01*
X1273760Y970328D01*
X1273645Y969915D01*
X1273607Y969450D01*
X1273645Y968985D01*
X1273760Y968572D01*
X1273913Y968262D01*
X1274143Y968003D01*
X1274450Y967900D01*
G01X1268800Y971800D02*
X1266400D01*
Y968200D01*
X1268800D01*
G01X1271200D02*
X1273600D01*
Y971800D01*
X1271200D01*
G01X1256200Y985700D02*
X1258600D01*
Y989300D01*
X1256200D01*
G01X1275600Y993100D02*
X1278000D01*
Y996700D01*
X1275600D01*
G01X1273200D02*
X1270800D01*
Y993100D01*
X1273200D01*
G01X1282207Y1039758D02*
X1282437Y1039603D01*
X1282705Y1039500D01*
X1283012D01*
X1283357Y1039655D01*
X1283625Y1039913D01*
X1283817Y1040223D01*
X1283970Y1040740D01*
X1284008Y1041205D01*
X1283932Y1041670D01*
X1283817Y1041980D01*
X1283587Y1042290D01*
X1283318Y1042497D01*
X1283050Y1042600D01*
X1282782D01*
X1282513Y1042497D01*
X1282283Y1042342D01*
X1282092Y1042135D01*
G01X1280678Y1040017D02*
X1280448Y1039707D01*
X1280180Y1039552D01*
X1279873Y1039500D01*
X1279490Y1039603D01*
X1279222Y1039862D01*
X1279145Y1040172D01*
X1279183Y1040482D01*
X1279337Y1040740D01*
X1280103Y1041257D01*
X1280448Y1041618D01*
X1280678Y1042135D01*
X1280755Y1042600D01*
X1279145D01*
G01X1277578Y1040017D02*
X1277348Y1039707D01*
X1277080Y1039552D01*
X1276773Y1039500D01*
X1276390Y1039603D01*
X1276122Y1039862D01*
X1276045Y1040172D01*
X1276083Y1040482D01*
X1276237Y1040740D01*
X1277003Y1041257D01*
X1277348Y1041618D01*
X1277578Y1042135D01*
X1277655Y1042600D01*
X1276045D01*
G01X1278600Y1037900D02*
X1276200D01*
Y1034300D01*
X1278600D01*
G01X1280493Y999342D02*
X1280263Y999497D01*
X1279995Y999600D01*
X1279688D01*
X1279343Y999445D01*
X1279075Y999187D01*
X1278883Y998877D01*
X1278730Y998360D01*
X1278692Y997895D01*
X1278768Y997430D01*
X1278883Y997120D01*
X1279113Y996810D01*
X1279382Y996603D01*
X1279650Y996500D01*
X1279918D01*
X1280187Y996603D01*
X1280417Y996758D01*
X1280608Y996965D01*
G01X1282022Y999083D02*
X1282252Y999393D01*
X1282520Y999548D01*
X1282827Y999600D01*
X1283210Y999497D01*
X1283478Y999238D01*
X1283555Y998928D01*
X1283517Y998618D01*
X1283363Y998360D01*
X1282597Y997843D01*
X1282252Y997482D01*
X1282022Y996965D01*
X1281945Y996500D01*
X1283555D01*
G01X1286310D02*
Y999600D01*
X1284892Y997378D01*
X1286808D01*
G01X1281000Y1034300D02*
X1283400D01*
Y1037900D01*
X1281000D01*
G01X1330400Y993200D02*
X1326400D01*
Y985200D01*
X1330400D01*
G01X1325193Y1016042D02*
X1324963Y1016197D01*
X1324695Y1016300D01*
X1324388D01*
X1324043Y1016145D01*
X1323775Y1015887D01*
X1323583Y1015577D01*
X1323430Y1015060D01*
X1323392Y1014595D01*
X1323468Y1014130D01*
X1323583Y1013820D01*
X1323813Y1013510D01*
X1324082Y1013303D01*
X1324350Y1013200D01*
X1324618D01*
X1324887Y1013303D01*
X1325117Y1013458D01*
X1325308Y1013665D01*
G01X1326722Y1014492D02*
X1326990Y1014853D01*
X1327220Y1015060D01*
X1327527Y1015163D01*
X1327795Y1015060D01*
X1327987Y1014853D01*
X1328140Y1014543D01*
X1328178Y1014182D01*
X1328140Y1013872D01*
X1327987Y1013562D01*
X1327757Y1013303D01*
X1327488Y1013200D01*
X1327182Y1013303D01*
X1326913Y1013613D01*
X1326760Y1014078D01*
X1326722Y1014595D01*
X1326798Y1015267D01*
X1326913Y1015628D01*
X1327105Y1015990D01*
X1327373Y1016248D01*
X1327642Y1016300D01*
X1327910Y1016197D01*
X1328102Y1015938D01*
G01X1327100Y1005100D02*
X1329500D01*
Y1008700D01*
X1327100D01*
G01X1324700D02*
X1322300D01*
Y1005100D01*
X1324700D01*
G01X1315742Y1040007D02*
X1315897Y1040237D01*
X1316000Y1040505D01*
Y1040812D01*
X1315845Y1041157D01*
X1315587Y1041425D01*
X1315277Y1041617D01*
X1314760Y1041770D01*
X1314295Y1041808D01*
X1313830Y1041732D01*
X1313520Y1041617D01*
X1313210Y1041387D01*
X1313003Y1041118D01*
X1312900Y1040850D01*
Y1040582D01*
X1313003Y1040313D01*
X1313158Y1040083D01*
X1313365Y1039892D01*
G01X1312900Y1037750D02*
X1316000D01*
X1315380Y1038210D01*
G01X1312900D02*
Y1037290D01*
G01X1316100Y1034700D02*
Y1032300D01*
X1319700D01*
Y1034700D01*
G01Y1037100D02*
Y1039500D01*
X1316100D01*
Y1037100D01*
G01X1328700Y974000D02*
Y963000D01*
X1333700D01*
Y974000D01*
X1328700D01*
G01X1328100Y980583D02*
X1331200D01*
Y982117D01*
G01Y984450D02*
X1328100D01*
X1328720Y983990D01*
G01X1331200D02*
Y984910D01*
G01X1345600Y993200D02*
X1349600D01*
Y985200D01*
X1345600D01*
G01X1349193Y1028942D02*
X1348963Y1029097D01*
X1348695Y1029200D01*
X1348388D01*
X1348043Y1029045D01*
X1347775Y1028787D01*
X1347583Y1028477D01*
X1347430Y1027960D01*
X1347392Y1027495D01*
X1347468Y1027030D01*
X1347583Y1026720D01*
X1347813Y1026410D01*
X1348082Y1026203D01*
X1348350Y1026100D01*
X1348618D01*
X1348887Y1026203D01*
X1349117Y1026358D01*
X1349308Y1026565D01*
G01X1351450Y1026100D02*
X1351718Y1026152D01*
X1352025Y1026307D01*
X1352217Y1026565D01*
X1352293Y1026927D01*
X1352217Y1027288D01*
X1351987Y1027598D01*
X1351642Y1027753D01*
X1351258D01*
X1351028Y1027857D01*
X1350837Y1028115D01*
X1350760Y1028477D01*
X1350875Y1028838D01*
X1351143Y1029097D01*
X1351450Y1029200D01*
X1351757Y1029097D01*
X1352025Y1028838D01*
X1352140Y1028477D01*
X1352063Y1028115D01*
X1351872Y1027857D01*
X1351642Y1027753D01*
X1351258D01*
X1350913Y1027598D01*
X1350683Y1027288D01*
X1350607Y1026927D01*
X1350683Y1026565D01*
X1350875Y1026307D01*
X1351182Y1026152D01*
X1351450Y1026100D01*
G01X1351200Y1025700D02*
X1353600D01*
Y1029300D01*
X1351200D01*
G01X1348800D02*
X1346400D01*
Y1025700D01*
X1348800D01*
G01X1374193Y1028942D02*
X1373963Y1029097D01*
X1373695Y1029200D01*
X1373388D01*
X1373043Y1029045D01*
X1372775Y1028787D01*
X1372583Y1028477D01*
X1372430Y1027960D01*
X1372392Y1027495D01*
X1372468Y1027030D01*
X1372583Y1026720D01*
X1372813Y1026410D01*
X1373082Y1026203D01*
X1373350Y1026100D01*
X1373618D01*
X1373887Y1026203D01*
X1374117Y1026358D01*
X1374308Y1026565D01*
G01X1375722Y1028683D02*
X1375952Y1028993D01*
X1376220Y1029148D01*
X1376527Y1029200D01*
X1376910Y1029097D01*
X1377178Y1028838D01*
X1377255Y1028528D01*
X1377217Y1028218D01*
X1377063Y1027960D01*
X1376297Y1027443D01*
X1375952Y1027082D01*
X1375722Y1026565D01*
X1375645Y1026100D01*
X1377255D01*
G01X1376200Y1025700D02*
X1378600D01*
Y1029300D01*
X1376200D01*
G01X1373800D02*
X1371400D01*
Y1025700D01*
X1373800D01*
G01X1359493Y1015342D02*
X1359263Y1015497D01*
X1358995Y1015600D01*
X1358688D01*
X1358343Y1015445D01*
X1358075Y1015187D01*
X1357883Y1014877D01*
X1357730Y1014360D01*
X1357692Y1013895D01*
X1357768Y1013430D01*
X1357883Y1013120D01*
X1358113Y1012810D01*
X1358382Y1012603D01*
X1358650Y1012500D01*
X1358918D01*
X1359187Y1012603D01*
X1359417Y1012758D01*
X1359608Y1012965D01*
G01X1361673Y1012500D02*
X1361750Y1013172D01*
X1361865Y1013740D01*
X1362018Y1014257D01*
X1362210Y1014825D01*
X1362517Y1015600D01*
X1360983D01*
G01X1361200Y1010700D02*
X1363600D01*
Y1014300D01*
X1361200D01*
G01X1358800D02*
X1356400D01*
Y1010700D01*
X1358800D01*
G01X1370807Y1043558D02*
X1371037Y1043403D01*
X1371305Y1043300D01*
X1371612D01*
X1371957Y1043455D01*
X1372225Y1043713D01*
X1372417Y1044023D01*
X1372570Y1044540D01*
X1372608Y1045005D01*
X1372532Y1045470D01*
X1372417Y1045780D01*
X1372187Y1046090D01*
X1371918Y1046297D01*
X1371650Y1046400D01*
X1371382D01*
X1371113Y1046297D01*
X1370883Y1046142D01*
X1370692Y1045935D01*
G01X1368090Y1046400D02*
Y1043300D01*
X1369508Y1045522D01*
X1367592D01*
G01X1368800Y1046800D02*
X1366400D01*
Y1043200D01*
X1368800D01*
G01X1371200D02*
X1373600D01*
Y1046800D01*
X1371200D01*
G01X1370293Y1066042D02*
X1370063Y1066197D01*
X1369795Y1066300D01*
X1369488D01*
X1369143Y1066145D01*
X1368875Y1065887D01*
X1368683Y1065577D01*
X1368530Y1065060D01*
X1368492Y1064595D01*
X1368568Y1064130D01*
X1368683Y1063820D01*
X1368913Y1063510D01*
X1369182Y1063303D01*
X1369450Y1063200D01*
X1369718D01*
X1369987Y1063303D01*
X1370217Y1063458D01*
X1370408Y1063665D01*
G01X1371822Y1065783D02*
X1372052Y1066093D01*
X1372320Y1066248D01*
X1372627Y1066300D01*
X1373010Y1066197D01*
X1373278Y1065938D01*
X1373355Y1065628D01*
X1373317Y1065318D01*
X1373163Y1065060D01*
X1372397Y1064543D01*
X1372052Y1064182D01*
X1371822Y1063665D01*
X1371745Y1063200D01*
X1373355D01*
G01X1375650D02*
Y1066300D01*
X1375190Y1065680D01*
G01Y1063200D02*
X1376110D01*
G01X1372300Y1062800D02*
X1374700D01*
Y1066400D01*
X1372300D01*
G01X1369900D02*
X1367500D01*
Y1062800D01*
X1369900D01*
G01X1383207Y996258D02*
X1383437Y996103D01*
X1383705Y996000D01*
X1384012D01*
X1384357Y996155D01*
X1384625Y996413D01*
X1384817Y996723D01*
X1384970Y997240D01*
X1385008Y997705D01*
X1384932Y998170D01*
X1384817Y998480D01*
X1384587Y998790D01*
X1384318Y998997D01*
X1384050Y999100D01*
X1383782D01*
X1383513Y998997D01*
X1383283Y998842D01*
X1383092Y998635D01*
G01X1381793D02*
X1381563Y998893D01*
X1381295Y999048D01*
X1380950Y999100D01*
X1380605Y998997D01*
X1380337Y998790D01*
X1380145Y998428D01*
X1380107Y998015D01*
X1380183Y997602D01*
X1380375Y997343D01*
X1380643Y997137D01*
X1380912Y997085D01*
X1381180Y997137D01*
X1381525Y997343D01*
X1381410Y996000D01*
X1380375D01*
G01X1381300Y1004300D02*
X1378900D01*
Y1000700D01*
X1381300D01*
G01X1383700D02*
X1386100D01*
Y1004300D01*
X1383700D01*
G01X1404193Y1033942D02*
X1403963Y1034097D01*
X1403695Y1034200D01*
X1403388D01*
X1403043Y1034045D01*
X1402775Y1033787D01*
X1402583Y1033477D01*
X1402430Y1032960D01*
X1402392Y1032495D01*
X1402468Y1032030D01*
X1402583Y1031720D01*
X1402813Y1031410D01*
X1403082Y1031203D01*
X1403350Y1031100D01*
X1403618D01*
X1403887Y1031203D01*
X1404117Y1031358D01*
X1404308Y1031565D01*
G01X1405607Y1031720D02*
X1405837Y1031358D01*
X1406143Y1031152D01*
X1406488Y1031100D01*
X1406795Y1031152D01*
X1407102Y1031410D01*
X1407293Y1031720D01*
X1407332Y1032030D01*
X1407255Y1032392D01*
X1406987Y1032650D01*
X1406718Y1032753D01*
X1406373D01*
G01X1406718D02*
X1406948Y1032908D01*
X1407140Y1033167D01*
X1407217Y1033477D01*
X1407140Y1033787D01*
X1406948Y1034045D01*
X1406603Y1034200D01*
X1406258Y1034148D01*
X1405913Y1033942D01*
G01X1403800Y1034300D02*
X1401400D01*
Y1030700D01*
X1403800D01*
G01X1405600Y1067300D02*
X1403200D01*
Y1063700D01*
X1405600D01*
G01X1406200Y1030700D02*
X1408600D01*
Y1034300D01*
X1406200D01*
G01X1412907Y1060258D02*
X1413137Y1060103D01*
X1413405Y1060000D01*
X1413712D01*
X1414057Y1060155D01*
X1414325Y1060413D01*
X1414517Y1060723D01*
X1414670Y1061240D01*
X1414708Y1061705D01*
X1414632Y1062170D01*
X1414517Y1062480D01*
X1414287Y1062790D01*
X1414018Y1062997D01*
X1413750Y1063100D01*
X1413482D01*
X1413213Y1062997D01*
X1412983Y1062842D01*
X1412792Y1062635D01*
G01X1411378Y1060517D02*
X1411148Y1060207D01*
X1410880Y1060052D01*
X1410573Y1060000D01*
X1410190Y1060103D01*
X1409922Y1060362D01*
X1409845Y1060672D01*
X1409883Y1060982D01*
X1410037Y1061240D01*
X1410803Y1061757D01*
X1411148Y1062118D01*
X1411378Y1062635D01*
X1411455Y1063100D01*
X1409845D01*
G01X1408393Y1062480D02*
X1408163Y1062842D01*
X1407857Y1063048D01*
X1407512Y1063100D01*
X1407205Y1063048D01*
X1406898Y1062790D01*
X1406707Y1062480D01*
X1406668Y1062170D01*
X1406745Y1061808D01*
X1407013Y1061550D01*
X1407282Y1061447D01*
X1407627D01*
G01X1407282D02*
X1407052Y1061292D01*
X1406860Y1061033D01*
X1406783Y1060723D01*
X1406860Y1060413D01*
X1407052Y1060155D01*
X1407397Y1060000D01*
X1407742Y1060052D01*
X1408087Y1060258D01*
G01X1408000Y1063700D02*
X1410400D01*
Y1067300D01*
X1408000D01*
G01X1477993Y976342D02*
X1477763Y976497D01*
X1477495Y976600D01*
X1477188D01*
X1476843Y976445D01*
X1476575Y976187D01*
X1476383Y975877D01*
X1476230Y975360D01*
X1476192Y974895D01*
X1476268Y974430D01*
X1476383Y974120D01*
X1476613Y973810D01*
X1476882Y973603D01*
X1477150Y973500D01*
X1477418D01*
X1477687Y973603D01*
X1477917Y973758D01*
X1478108Y973965D01*
G01X1479522Y976083D02*
X1479752Y976393D01*
X1480020Y976548D01*
X1480327Y976600D01*
X1480710Y976497D01*
X1480978Y976238D01*
X1481055Y975928D01*
X1481017Y975618D01*
X1480863Y975360D01*
X1480097Y974843D01*
X1479752Y974482D01*
X1479522Y973965D01*
X1479445Y973500D01*
X1481055D01*
G01X1483350Y976600D02*
X1483043Y976497D01*
X1482813Y976238D01*
X1482660Y975928D01*
X1482545Y975515D01*
X1482507Y975050D01*
X1482545Y974585D01*
X1482660Y974172D01*
X1482813Y973862D01*
X1483043Y973603D01*
X1483350Y973500D01*
X1483657Y973603D01*
X1483887Y973862D01*
X1484040Y974172D01*
X1484155Y974585D01*
X1484193Y975050D01*
X1484155Y975515D01*
X1484040Y975928D01*
X1483887Y976238D01*
X1483657Y976497D01*
X1483350Y976600D01*
G01X1478800Y976800D02*
X1476400D01*
Y973200D01*
X1478800D01*
G01X1477993Y996242D02*
X1477763Y996397D01*
X1477495Y996500D01*
X1477188D01*
X1476843Y996345D01*
X1476575Y996087D01*
X1476383Y995777D01*
X1476230Y995260D01*
X1476192Y994795D01*
X1476268Y994330D01*
X1476383Y994020D01*
X1476613Y993710D01*
X1476882Y993503D01*
X1477150Y993400D01*
X1477418D01*
X1477687Y993503D01*
X1477917Y993658D01*
X1478108Y993865D01*
G01X1480250Y993400D02*
Y996500D01*
X1479790Y995880D01*
G01Y993400D02*
X1480710D01*
G01X1483350D02*
X1483618Y993452D01*
X1483925Y993607D01*
X1484117Y993865D01*
X1484193Y994227D01*
X1484117Y994588D01*
X1483887Y994898D01*
X1483542Y995053D01*
X1483158D01*
X1482928Y995157D01*
X1482737Y995415D01*
X1482660Y995777D01*
X1482775Y996138D01*
X1483043Y996397D01*
X1483350Y996500D01*
X1483657Y996397D01*
X1483925Y996138D01*
X1484040Y995777D01*
X1483963Y995415D01*
X1483772Y995157D01*
X1483542Y995053D01*
X1483158D01*
X1482813Y994898D01*
X1482583Y994588D01*
X1482507Y994227D01*
X1482583Y993865D01*
X1482775Y993607D01*
X1483082Y993452D01*
X1483350Y993400D01*
G01X1478800Y996800D02*
X1476400D01*
Y993200D01*
X1478800D01*
G01X1478393Y986442D02*
X1478163Y986597D01*
X1477895Y986700D01*
X1477588D01*
X1477243Y986545D01*
X1476975Y986287D01*
X1476783Y985977D01*
X1476630Y985460D01*
X1476592Y984995D01*
X1476668Y984530D01*
X1476783Y984220D01*
X1477013Y983910D01*
X1477282Y983703D01*
X1477550Y983600D01*
X1477818D01*
X1478087Y983703D01*
X1478317Y983858D01*
X1478508Y984065D01*
G01X1480650Y983600D02*
Y986700D01*
X1480190Y986080D01*
G01Y983600D02*
X1481110D01*
G01X1483098Y983962D02*
X1483367Y983703D01*
X1483673Y983600D01*
X1483980Y983703D01*
X1484248Y984013D01*
X1484440Y984478D01*
X1484517Y984943D01*
Y985512D01*
X1484440Y985977D01*
X1484248Y986390D01*
X1484018Y986597D01*
X1483750Y986700D01*
X1483443Y986597D01*
X1483213Y986390D01*
X1483060Y986080D01*
X1482983Y985667D01*
X1483060Y985305D01*
X1483252Y984943D01*
X1483482Y984737D01*
X1483750Y984685D01*
X1484057Y984788D01*
X1484287Y985047D01*
X1484517Y985512D01*
G01X1478800Y986800D02*
X1476400D01*
Y983200D01*
X1478800D01*
G01X1477993Y1026342D02*
X1477763Y1026497D01*
X1477495Y1026600D01*
X1477188D01*
X1476843Y1026445D01*
X1476575Y1026187D01*
X1476383Y1025877D01*
X1476230Y1025360D01*
X1476192Y1024895D01*
X1476268Y1024430D01*
X1476383Y1024120D01*
X1476613Y1023810D01*
X1476882Y1023603D01*
X1477150Y1023500D01*
X1477418D01*
X1477687Y1023603D01*
X1477917Y1023758D01*
X1478108Y1023965D01*
G01X1480250Y1023500D02*
Y1026600D01*
X1479790Y1025980D01*
G01Y1023500D02*
X1480710D01*
G01X1482507Y1023965D02*
X1482737Y1023707D01*
X1483005Y1023552D01*
X1483350Y1023500D01*
X1483695Y1023603D01*
X1483963Y1023810D01*
X1484155Y1024172D01*
X1484193Y1024585D01*
X1484117Y1024998D01*
X1483925Y1025257D01*
X1483657Y1025463D01*
X1483388Y1025515D01*
X1483120Y1025463D01*
X1482775Y1025257D01*
X1482890Y1026600D01*
X1483925D01*
G01X1478800Y1026800D02*
X1476400D01*
Y1023200D01*
X1478800D01*
G01X1477993Y1016442D02*
X1477763Y1016597D01*
X1477495Y1016700D01*
X1477188D01*
X1476843Y1016545D01*
X1476575Y1016287D01*
X1476383Y1015977D01*
X1476230Y1015460D01*
X1476192Y1014995D01*
X1476268Y1014530D01*
X1476383Y1014220D01*
X1476613Y1013910D01*
X1476882Y1013703D01*
X1477150Y1013600D01*
X1477418D01*
X1477687Y1013703D01*
X1477917Y1013858D01*
X1478108Y1014065D01*
G01X1480250Y1013600D02*
Y1016700D01*
X1479790Y1016080D01*
G01Y1013600D02*
X1480710D01*
G01X1482622Y1014892D02*
X1482890Y1015253D01*
X1483120Y1015460D01*
X1483427Y1015563D01*
X1483695Y1015460D01*
X1483887Y1015253D01*
X1484040Y1014943D01*
X1484078Y1014582D01*
X1484040Y1014272D01*
X1483887Y1013962D01*
X1483657Y1013703D01*
X1483388Y1013600D01*
X1483082Y1013703D01*
X1482813Y1014013D01*
X1482660Y1014478D01*
X1482622Y1014995D01*
X1482698Y1015667D01*
X1482813Y1016028D01*
X1483005Y1016390D01*
X1483273Y1016648D01*
X1483542Y1016700D01*
X1483810Y1016597D01*
X1484002Y1016338D01*
G01X1478800Y1016800D02*
X1476400D01*
Y1013200D01*
X1478800D01*
G01X1478093Y1006242D02*
X1477863Y1006397D01*
X1477595Y1006500D01*
X1477288D01*
X1476943Y1006345D01*
X1476675Y1006087D01*
X1476483Y1005777D01*
X1476330Y1005260D01*
X1476292Y1004795D01*
X1476368Y1004330D01*
X1476483Y1004020D01*
X1476713Y1003710D01*
X1476982Y1003503D01*
X1477250Y1003400D01*
X1477518D01*
X1477787Y1003503D01*
X1478017Y1003658D01*
X1478208Y1003865D01*
G01X1480350Y1003400D02*
Y1006500D01*
X1479890Y1005880D01*
G01Y1003400D02*
X1480810D01*
G01X1483373D02*
X1483450Y1004072D01*
X1483565Y1004640D01*
X1483718Y1005157D01*
X1483910Y1005725D01*
X1484217Y1006500D01*
X1482683D01*
G01X1478800Y1006800D02*
X1476400D01*
Y1003200D01*
X1478800D01*
G01X1477893Y1046342D02*
X1477663Y1046497D01*
X1477395Y1046600D01*
X1477088D01*
X1476743Y1046445D01*
X1476475Y1046187D01*
X1476283Y1045877D01*
X1476130Y1045360D01*
X1476092Y1044895D01*
X1476168Y1044430D01*
X1476283Y1044120D01*
X1476513Y1043810D01*
X1476782Y1043603D01*
X1477050Y1043500D01*
X1477318D01*
X1477587Y1043603D01*
X1477817Y1043758D01*
X1478008Y1043965D01*
G01X1480150Y1043500D02*
Y1046600D01*
X1479690Y1045980D01*
G01Y1043500D02*
X1480610D01*
G01X1482407Y1044120D02*
X1482637Y1043758D01*
X1482943Y1043552D01*
X1483288Y1043500D01*
X1483595Y1043552D01*
X1483902Y1043810D01*
X1484093Y1044120D01*
X1484132Y1044430D01*
X1484055Y1044792D01*
X1483787Y1045050D01*
X1483518Y1045153D01*
X1483173D01*
G01X1483518D02*
X1483748Y1045308D01*
X1483940Y1045567D01*
X1484017Y1045877D01*
X1483940Y1046187D01*
X1483748Y1046445D01*
X1483403Y1046600D01*
X1483058Y1046548D01*
X1482713Y1046342D01*
G01X1478800Y1046800D02*
X1476400D01*
Y1043200D01*
X1478800D01*
G01X1477893Y1036242D02*
X1477663Y1036397D01*
X1477395Y1036500D01*
X1477088D01*
X1476743Y1036345D01*
X1476475Y1036087D01*
X1476283Y1035777D01*
X1476130Y1035260D01*
X1476092Y1034795D01*
X1476168Y1034330D01*
X1476283Y1034020D01*
X1476513Y1033710D01*
X1476782Y1033503D01*
X1477050Y1033400D01*
X1477318D01*
X1477587Y1033503D01*
X1477817Y1033658D01*
X1478008Y1033865D01*
G01X1480150Y1033400D02*
Y1036500D01*
X1479690Y1035880D01*
G01Y1033400D02*
X1480610D01*
G01X1483710D02*
Y1036500D01*
X1482292Y1034278D01*
X1484208D01*
G01X1478800Y1036800D02*
X1476400D01*
Y1033200D01*
X1478800D01*
G01X1478093Y1066442D02*
X1477863Y1066597D01*
X1477595Y1066700D01*
X1477288D01*
X1476943Y1066545D01*
X1476675Y1066287D01*
X1476483Y1065977D01*
X1476330Y1065460D01*
X1476292Y1064995D01*
X1476368Y1064530D01*
X1476483Y1064220D01*
X1476713Y1063910D01*
X1476982Y1063703D01*
X1477250Y1063600D01*
X1477518D01*
X1477787Y1063703D01*
X1478017Y1063858D01*
X1478208Y1064065D01*
G01X1480350Y1063600D02*
Y1066700D01*
X1479890Y1066080D01*
G01Y1063600D02*
X1480810D01*
G01X1483450D02*
Y1066700D01*
X1482990Y1066080D01*
G01Y1063600D02*
X1483910D01*
G01X1478800Y1066800D02*
X1476400D01*
Y1063200D01*
X1478800D01*
G01X1478193Y1056442D02*
X1477963Y1056597D01*
X1477695Y1056700D01*
X1477388D01*
X1477043Y1056545D01*
X1476775Y1056287D01*
X1476583Y1055977D01*
X1476430Y1055460D01*
X1476392Y1054995D01*
X1476468Y1054530D01*
X1476583Y1054220D01*
X1476813Y1053910D01*
X1477082Y1053703D01*
X1477350Y1053600D01*
X1477618D01*
X1477887Y1053703D01*
X1478117Y1053858D01*
X1478308Y1054065D01*
G01X1480450Y1053600D02*
Y1056700D01*
X1479990Y1056080D01*
G01Y1053600D02*
X1480910D01*
G01X1482822Y1056183D02*
X1483052Y1056493D01*
X1483320Y1056648D01*
X1483627Y1056700D01*
X1484010Y1056597D01*
X1484278Y1056338D01*
X1484355Y1056028D01*
X1484317Y1055718D01*
X1484163Y1055460D01*
X1483397Y1054943D01*
X1483052Y1054582D01*
X1482822Y1054065D01*
X1482745Y1053600D01*
X1484355D01*
G01X1478800Y1056800D02*
X1476400D01*
Y1053200D01*
X1478800D01*
G01X1481200Y973200D02*
X1483600D01*
Y976800D01*
X1481200D01*
G01Y993200D02*
X1483600D01*
Y996800D01*
X1481200D01*
G01Y983200D02*
X1483600D01*
Y986800D01*
X1481200D01*
G01Y1023200D02*
X1483600D01*
Y1026800D01*
X1481200D01*
G01Y1013200D02*
X1483600D01*
Y1016800D01*
X1481200D01*
G01Y1003200D02*
X1483600D01*
Y1006800D01*
X1481200D01*
G01Y1043200D02*
X1483600D01*
Y1046800D01*
X1481200D01*
G01Y1033200D02*
X1483600D01*
Y1036800D01*
X1481200D01*
G01Y1063200D02*
X1483600D01*
Y1066800D01*
X1481200D01*
G01Y1053200D02*
X1483600D01*
Y1056800D01*
X1481200D01*
G54D12*
G01X1329666Y976000D02*
G03I-1166J0D01*
G01X1434000Y1017500D02*
Y977500D01*
X1446000D01*
Y1017500D01*
X1434000D01*
G01Y1067500D02*
Y1027500D01*
X1446000D01*
Y1067500D01*
X1434000D01*
G01X1223167Y975700D02*
Y978200D01*
X1223807D01*
X1224020Y978075D01*
X1224180Y977783D01*
X1224233Y977450D01*
X1224180Y977117D01*
X1224047Y976867D01*
X1223807Y976742D01*
X1223167D01*
G01X1225447Y977367D02*
Y976200D01*
X1225553Y975908D01*
X1225713Y975742D01*
X1225900Y975700D01*
X1226087Y975742D01*
X1226247Y975908D01*
X1226353Y976200D01*
G01Y975700D02*
Y977367D01*
G01X1228100Y975700D02*
Y978200D01*
G01X1229900Y975992D02*
X1230033Y975825D01*
X1230220Y975700D01*
X1230380D01*
X1230540Y975783D01*
X1230647Y975908D01*
X1230700Y976075D01*
X1230673Y976325D01*
X1230567Y976450D01*
X1230087Y976700D01*
X1229980Y976992D01*
X1230033Y977200D01*
X1230140Y977325D01*
X1230300Y977367D01*
X1230460Y977325D01*
X1230620Y977200D01*
G01X1232100Y976825D02*
X1232953D01*
X1232873Y977117D01*
X1232740Y977283D01*
X1232553Y977367D01*
X1232367Y977325D01*
X1232207Y977200D01*
X1232100Y976908D01*
X1232047Y976658D01*
Y976408D01*
X1232100Y976158D01*
X1232233Y975908D01*
X1232393Y975742D01*
X1232580Y975700D01*
X1232767Y975783D01*
X1232953Y976033D01*
G01X1233900Y974867D02*
X1235500D01*
G01X1237487Y977992D02*
X1237327Y978117D01*
X1237140Y978200D01*
X1236927D01*
X1236687Y978075D01*
X1236500Y977867D01*
X1236367Y977617D01*
X1236260Y977200D01*
X1236233Y976825D01*
X1236287Y976450D01*
X1236367Y976200D01*
X1236527Y975950D01*
X1236713Y975783D01*
X1236900Y975700D01*
X1237087D01*
X1237273Y975783D01*
X1237433Y975908D01*
X1237567Y976075D01*
G01X1238647Y977367D02*
Y976200D01*
X1238753Y975908D01*
X1238913Y975742D01*
X1239100Y975700D01*
X1239287Y975742D01*
X1239447Y975908D01*
X1239553Y976200D01*
G01Y975700D02*
Y977367D01*
G01X1240927Y975700D02*
Y977367D01*
G01Y977033D02*
X1241060Y977200D01*
X1241193Y977325D01*
X1241380Y977367D01*
X1241513Y977325D01*
X1241673Y977200D01*
G01X1243127Y975700D02*
Y977367D01*
G01Y977033D02*
X1243260Y977200D01*
X1243393Y977325D01*
X1243580Y977367D01*
X1243713Y977325D01*
X1243873Y977200D01*
G01X1245300Y976825D02*
X1246153D01*
X1246073Y977117D01*
X1245940Y977283D01*
X1245753Y977367D01*
X1245567Y977325D01*
X1245407Y977200D01*
X1245300Y976908D01*
X1245247Y976658D01*
Y976408D01*
X1245300Y976158D01*
X1245433Y975908D01*
X1245593Y975742D01*
X1245780Y975700D01*
X1245967Y975783D01*
X1246153Y976033D01*
G01X1247447Y975700D02*
Y977367D01*
G01Y976950D02*
X1247553Y977158D01*
X1247713Y977325D01*
X1247927Y977367D01*
X1248113Y977325D01*
X1248273Y977158D01*
X1248353Y976867D01*
Y975700D01*
G01X1250100Y978200D02*
Y975700D01*
G01X1249727Y977367D02*
X1250473D01*
G01X1224900Y964100D02*
X1254900D01*
Y974100D01*
X1224900D01*
Y964100D01*
G01X1227333Y1003100D02*
X1228000Y1000600D01*
X1228667Y1003100D01*
G01X1229400Y999767D02*
X1231000D01*
G01X1231867Y1000600D02*
Y1003100D01*
X1232533D01*
X1232747Y1002975D01*
X1232880Y1002808D01*
X1232933Y1002475D01*
X1232880Y1002142D01*
X1232720Y1001933D01*
X1232533Y1001808D01*
X1231867D01*
G01X1232533D02*
X1232933Y1000600D01*
G01X1235133D02*
X1234067D01*
Y1003100D01*
X1235133D01*
G01X1234707Y1001892D02*
X1234067D01*
G01X1236293Y1000600D02*
Y1003100D01*
X1237307D01*
G01X1236933Y1001892D02*
X1236293D01*
G01X1238200Y999767D02*
X1239800D01*
G01X1240880Y1003100D02*
X1241520D01*
G01X1241200D02*
Y1000600D01*
G01X1240880D02*
X1241520D01*
G01X1242787D02*
Y1003100D01*
X1244013Y1000600D01*
Y1003100D01*
G01X1225000Y991000D02*
X1245000D01*
Y999000D01*
X1225000D01*
Y991000D01*
G01Y978500D02*
X1245000D01*
Y986500D01*
X1225000D01*
Y978500D01*
G01X1245000Y1011500D02*
X1225000D01*
Y1003500D01*
X1245000D01*
Y1011500D01*
G01X1237033Y963800D02*
X1237700Y961300D01*
X1238367Y963800D01*
G01X1239580D02*
X1240220D01*
G01X1239900D02*
Y961300D01*
G01X1239580D02*
X1240220D01*
G01X1241487D02*
Y963800D01*
X1242713Y961300D01*
Y963800D01*
G01X1239900Y976207D02*
X1243483D01*
X1244233Y976460D01*
X1244733Y976967D01*
X1244900Y977600D01*
X1244733Y978233D01*
X1244233Y978740D01*
X1243483Y978993D01*
X1239900D01*
G01X1243900Y981307D02*
X1244483Y981687D01*
X1244817Y982193D01*
X1244900Y982763D01*
X1244817Y983270D01*
X1244400Y983777D01*
X1243900Y984093D01*
X1243400Y984157D01*
X1242817Y984030D01*
X1242400Y983587D01*
X1242233Y983143D01*
Y982573D01*
G01Y983143D02*
X1241983Y983523D01*
X1241567Y983840D01*
X1241067Y983967D01*
X1240567Y983840D01*
X1240150Y983523D01*
X1239900Y982953D01*
X1239983Y982383D01*
X1240317Y981813D01*
G01X1231033Y990400D02*
X1231700Y987900D01*
X1232367Y990400D01*
G01X1233367Y987900D02*
Y990400D01*
X1234033D01*
X1234247Y990275D01*
X1234380Y990108D01*
X1234433Y989775D01*
X1234380Y989442D01*
X1234220Y989233D01*
X1234033Y989108D01*
X1233367D01*
G01X1234033D02*
X1234433Y987900D01*
G01X1235780Y990400D02*
X1236420D01*
G01X1236100D02*
Y987900D01*
G01X1235780D02*
X1236420D01*
G01X1237687D02*
Y990400D01*
X1238913Y987900D01*
Y990400D01*
G01X1239700Y987067D02*
X1241300D01*
G01X1243233Y987900D02*
X1242167D01*
Y990400D01*
X1243233D01*
G01X1242807Y989192D02*
X1242167D01*
G01X1244287Y987900D02*
Y990400D01*
X1245513Y987900D01*
Y990400D01*
G01X1246333Y996800D02*
Y1001800D01*
X1247916D01*
X1248423Y1001550D01*
X1248739Y1001217D01*
X1248866Y1000550D01*
X1248739Y999883D01*
X1248359Y999467D01*
X1247916Y999217D01*
X1246333D01*
G01X1247916D02*
X1248866Y996800D01*
G01X1251494Y1000967D02*
X1251874Y1001467D01*
X1252318Y1001717D01*
X1252824Y1001800D01*
X1253457Y1001633D01*
X1253901Y1001217D01*
X1254027Y1000717D01*
X1253964Y1000217D01*
X1253711Y999800D01*
X1252444Y998967D01*
X1251874Y998383D01*
X1251494Y997550D01*
X1251368Y996800D01*
X1254027D01*
G01X1256719Y997383D02*
X1257162Y996967D01*
X1257669Y996800D01*
X1258175Y996967D01*
X1258619Y997467D01*
X1258935Y998217D01*
X1259062Y998967D01*
Y999883D01*
X1258935Y1000633D01*
X1258619Y1001300D01*
X1258239Y1001633D01*
X1257795Y1001800D01*
X1257289Y1001633D01*
X1256909Y1001300D01*
X1256656Y1000800D01*
X1256529Y1000133D01*
X1256656Y999550D01*
X1256972Y998967D01*
X1257352Y998633D01*
X1257795Y998550D01*
X1258302Y998717D01*
X1258682Y999133D01*
X1259062Y999883D01*
G01X1251900Y993700D02*
Y996300D01*
X1258100D01*
Y993700D01*
X1251900D01*
G01X1248633Y980700D02*
Y985700D01*
X1250216D01*
X1250723Y985450D01*
X1251039Y985117D01*
X1251166Y984450D01*
X1251039Y983783D01*
X1250659Y983367D01*
X1250216Y983117D01*
X1248633D01*
G01X1250216D02*
X1251166Y980700D01*
G01X1253605Y981700D02*
X1253984Y981117D01*
X1254491Y980783D01*
X1255061Y980700D01*
X1255567Y980783D01*
X1256074Y981200D01*
X1256390Y981700D01*
X1256454Y982200D01*
X1256327Y982783D01*
X1255884Y983200D01*
X1255441Y983367D01*
X1254871D01*
G01X1255441D02*
X1255821Y983617D01*
X1256137Y984033D01*
X1256264Y984533D01*
X1256137Y985033D01*
X1255821Y985450D01*
X1255251Y985700D01*
X1254681Y985617D01*
X1254111Y985283D01*
G01X1260095Y985700D02*
X1259589Y985533D01*
X1259209Y985117D01*
X1258956Y984617D01*
X1258766Y983950D01*
X1258703Y983200D01*
X1258766Y982450D01*
X1258956Y981783D01*
X1259209Y981283D01*
X1259589Y980867D01*
X1260095Y980700D01*
X1260602Y980867D01*
X1260982Y981283D01*
X1261235Y981783D01*
X1261425Y982450D01*
X1261488Y983200D01*
X1261425Y983950D01*
X1261235Y984617D01*
X1260982Y985117D01*
X1260602Y985533D01*
X1260095Y985700D01*
G01X1251900Y978700D02*
Y981300D01*
X1258100D01*
Y978700D01*
X1251900D01*
G01X1252500Y1003500D02*
X1272500D01*
Y1011500D01*
X1252500D01*
Y1003500D01*
G01X1245607Y1053800D02*
Y1050217D01*
X1245860Y1049467D01*
X1246367Y1048967D01*
X1247000Y1048800D01*
X1247633Y1048967D01*
X1248140Y1049467D01*
X1248393Y1050217D01*
Y1053800D01*
G01X1250897Y1050883D02*
X1251340Y1051467D01*
X1251720Y1051800D01*
X1252227Y1051967D01*
X1252670Y1051800D01*
X1252987Y1051467D01*
X1253240Y1050967D01*
X1253303Y1050383D01*
X1253240Y1049883D01*
X1252987Y1049383D01*
X1252607Y1048967D01*
X1252163Y1048800D01*
X1251657Y1048967D01*
X1251213Y1049467D01*
X1250960Y1050217D01*
X1250897Y1051050D01*
X1251023Y1052133D01*
X1251213Y1052717D01*
X1251530Y1053300D01*
X1251973Y1053717D01*
X1252417Y1053800D01*
X1252860Y1053633D01*
X1253177Y1053217D01*
G01X1236867Y1074600D02*
Y1077100D01*
X1237533D01*
X1237747Y1076975D01*
X1237880Y1076808D01*
X1237933Y1076475D01*
X1237880Y1076142D01*
X1237720Y1075933D01*
X1237533Y1075808D01*
X1236867D01*
G01X1237533D02*
X1237933Y1074600D01*
G01X1239013D02*
Y1077100D01*
G01X1240027D02*
X1239013Y1075558D01*
G01X1240187Y1074600D02*
X1239467Y1076267D01*
G01X1241800Y1077100D02*
X1241587Y1077017D01*
X1241427Y1076808D01*
X1241320Y1076558D01*
X1241240Y1076225D01*
X1241213Y1075850D01*
X1241240Y1075475D01*
X1241320Y1075142D01*
X1241427Y1074892D01*
X1241587Y1074683D01*
X1241800Y1074600D01*
X1242013Y1074683D01*
X1242173Y1074892D01*
X1242280Y1075142D01*
X1242360Y1075475D01*
X1242387Y1075850D01*
X1242360Y1076225D01*
X1242280Y1076558D01*
X1242173Y1076808D01*
X1242013Y1077017D01*
X1241800Y1077100D01*
G01X1243547Y1074892D02*
X1243733Y1074683D01*
X1243947Y1074600D01*
X1244160Y1074683D01*
X1244347Y1074933D01*
X1244480Y1075308D01*
X1244533Y1075683D01*
Y1076142D01*
X1244480Y1076517D01*
X1244347Y1076850D01*
X1244187Y1077017D01*
X1244000Y1077100D01*
X1243787Y1077017D01*
X1243627Y1076850D01*
X1243520Y1076600D01*
X1243467Y1076267D01*
X1243520Y1075975D01*
X1243653Y1075683D01*
X1243813Y1075517D01*
X1244000Y1075475D01*
X1244213Y1075558D01*
X1244373Y1075767D01*
X1244533Y1076142D01*
G01X1245667Y1077100D02*
Y1074600D01*
X1246733D01*
G01X1248400D02*
Y1077100D01*
X1248080Y1076600D01*
G01Y1074600D02*
X1248720D01*
G01X1250600D02*
Y1077100D01*
X1250280Y1076600D01*
G01Y1074600D02*
X1250920D01*
G01X1253120D02*
Y1077100D01*
X1252133Y1075308D01*
X1253467D01*
G01X1255000Y1077100D02*
X1254787Y1077017D01*
X1254627Y1076808D01*
X1254520Y1076558D01*
X1254440Y1076225D01*
X1254413Y1075850D01*
X1254440Y1075475D01*
X1254520Y1075142D01*
X1254627Y1074892D01*
X1254787Y1074683D01*
X1255000Y1074600D01*
X1255213Y1074683D01*
X1255373Y1074892D01*
X1255480Y1075142D01*
X1255560Y1075475D01*
X1255587Y1075850D01*
X1255560Y1076225D01*
X1255480Y1076558D01*
X1255373Y1076808D01*
X1255213Y1077017D01*
X1255000Y1077100D01*
G01X1256533Y1074600D02*
X1257200Y1077100D01*
X1257867Y1074600D01*
G01X1257627Y1075475D02*
X1256773D01*
G01X1258893Y1076683D02*
X1259053Y1076933D01*
X1259240Y1077058D01*
X1259453Y1077100D01*
X1259720Y1077017D01*
X1259907Y1076808D01*
X1259960Y1076558D01*
X1259933Y1076308D01*
X1259827Y1076100D01*
X1259293Y1075683D01*
X1259053Y1075392D01*
X1258893Y1074975D01*
X1258840Y1074600D01*
X1259960D01*
G01X1261013Y1077100D02*
Y1075308D01*
X1261120Y1074933D01*
X1261333Y1074683D01*
X1261600Y1074600D01*
X1261867Y1074683D01*
X1262080Y1074933D01*
X1262187Y1075308D01*
Y1077100D01*
G01X1266367Y976900D02*
Y974400D01*
X1267433D01*
G01X1269100Y976900D02*
Y974400D01*
G01X1268487Y976900D02*
X1269713D01*
G01X1271887Y976692D02*
X1271727Y976817D01*
X1271540Y976900D01*
X1271327D01*
X1271087Y976775D01*
X1270900Y976567D01*
X1270767Y976317D01*
X1270660Y975900D01*
X1270633Y975525D01*
X1270687Y975150D01*
X1270767Y974900D01*
X1270927Y974650D01*
X1271113Y974483D01*
X1271300Y974400D01*
X1271487D01*
X1271673Y974483D01*
X1271833Y974608D01*
X1271967Y974775D01*
G01X1272993Y976483D02*
X1273153Y976733D01*
X1273340Y976858D01*
X1273553Y976900D01*
X1273820Y976817D01*
X1274007Y976608D01*
X1274060Y976358D01*
X1274033Y976108D01*
X1273927Y975900D01*
X1273393Y975483D01*
X1273153Y975192D01*
X1272993Y974775D01*
X1272940Y974400D01*
X1274060D01*
G01X1275700Y976900D02*
X1275487Y976817D01*
X1275327Y976608D01*
X1275220Y976358D01*
X1275140Y976025D01*
X1275113Y975650D01*
X1275140Y975275D01*
X1275220Y974942D01*
X1275327Y974692D01*
X1275487Y974483D01*
X1275700Y974400D01*
X1275913Y974483D01*
X1276073Y974692D01*
X1276180Y974942D01*
X1276260Y975275D01*
X1276287Y975650D01*
X1276260Y976025D01*
X1276180Y976358D01*
X1276073Y976608D01*
X1275913Y976817D01*
X1275700Y976900D01*
G01X1277313Y974775D02*
X1277473Y974567D01*
X1277660Y974442D01*
X1277900Y974400D01*
X1278140Y974483D01*
X1278327Y974650D01*
X1278460Y974942D01*
X1278487Y975275D01*
X1278433Y975608D01*
X1278300Y975817D01*
X1278113Y975983D01*
X1277927Y976025D01*
X1277740Y975983D01*
X1277500Y975817D01*
X1277580Y976900D01*
X1278300D01*
G01X1280100D02*
X1279887Y976817D01*
X1279727Y976608D01*
X1279620Y976358D01*
X1279540Y976025D01*
X1279513Y975650D01*
X1279540Y975275D01*
X1279620Y974942D01*
X1279727Y974692D01*
X1279887Y974483D01*
X1280100Y974400D01*
X1280313Y974483D01*
X1280473Y974692D01*
X1280580Y974942D01*
X1280660Y975275D01*
X1280687Y975650D01*
X1280660Y976025D01*
X1280580Y976358D01*
X1280473Y976608D01*
X1280313Y976817D01*
X1280100Y976900D01*
G01X1274433Y962000D02*
Y967000D01*
X1276016D01*
X1276523Y966750D01*
X1276839Y966417D01*
X1276966Y965750D01*
X1276839Y965083D01*
X1276459Y964667D01*
X1276016Y964417D01*
X1274433D01*
G01X1276016D02*
X1276966Y962000D01*
G01X1279405Y963000D02*
X1279784Y962417D01*
X1280291Y962083D01*
X1280861Y962000D01*
X1281367Y962083D01*
X1281874Y962500D01*
X1282190Y963000D01*
X1282254Y963500D01*
X1282127Y964083D01*
X1281684Y964500D01*
X1281241Y964667D01*
X1280671D01*
G01X1281241D02*
X1281621Y964917D01*
X1281937Y965333D01*
X1282064Y965833D01*
X1281937Y966333D01*
X1281621Y966750D01*
X1281051Y967000D01*
X1280481Y966917D01*
X1279911Y966583D01*
G01X1285895Y962000D02*
Y967000D01*
X1285136Y966000D01*
G01Y962000D02*
X1286655D01*
G01X1266900Y963600D02*
Y966200D01*
X1273100D01*
Y963600D01*
X1266900D01*
G01X1254233Y965200D02*
Y970200D01*
X1255816D01*
X1256323Y969950D01*
X1256639Y969617D01*
X1256766Y968950D01*
X1256639Y968283D01*
X1256259Y967867D01*
X1255816Y967617D01*
X1254233D01*
G01X1255816D02*
X1256766Y965200D01*
G01X1259205Y966200D02*
X1259584Y965617D01*
X1260091Y965283D01*
X1260661Y965200D01*
X1261167Y965283D01*
X1261674Y965700D01*
X1261990Y966200D01*
X1262054Y966700D01*
X1261927Y967283D01*
X1261484Y967700D01*
X1261041Y967867D01*
X1260471D01*
G01X1261041D02*
X1261421Y968117D01*
X1261737Y968533D01*
X1261864Y969033D01*
X1261737Y969533D01*
X1261421Y969950D01*
X1260851Y970200D01*
X1260281Y970117D01*
X1259711Y969783D01*
G01X1264492Y969367D02*
X1264872Y969867D01*
X1265316Y970117D01*
X1265822Y970200D01*
X1266455Y970033D01*
X1266899Y969617D01*
X1267025Y969117D01*
X1266962Y968617D01*
X1266709Y968200D01*
X1265442Y967367D01*
X1264872Y966783D01*
X1264492Y965950D01*
X1264366Y965200D01*
X1267025D01*
G01X1257500Y969300D02*
Y971900D01*
X1263700D01*
Y969300D01*
X1257500D01*
G01X1259233Y988300D02*
Y993300D01*
X1260816D01*
X1261323Y993050D01*
X1261639Y992717D01*
X1261766Y992050D01*
X1261639Y991383D01*
X1261259Y990967D01*
X1260816Y990717D01*
X1259233D01*
G01X1260816D02*
X1261766Y988300D01*
G01X1264394Y992467D02*
X1264774Y992967D01*
X1265218Y993217D01*
X1265724Y993300D01*
X1266357Y993133D01*
X1266801Y992717D01*
X1266927Y992217D01*
X1266864Y991717D01*
X1266611Y991300D01*
X1265344Y990467D01*
X1264774Y989883D01*
X1264394Y989050D01*
X1264268Y988300D01*
X1266927D01*
G01X1270695D02*
X1271139Y988383D01*
X1271645Y988633D01*
X1271962Y989050D01*
X1272088Y989633D01*
X1271962Y990217D01*
X1271582Y990717D01*
X1271012Y990967D01*
X1270379D01*
X1269999Y991133D01*
X1269682Y991550D01*
X1269556Y992133D01*
X1269746Y992717D01*
X1270189Y993133D01*
X1270695Y993300D01*
X1271202Y993133D01*
X1271645Y992717D01*
X1271835Y992133D01*
X1271709Y991550D01*
X1271392Y991133D01*
X1271012Y990967D01*
X1270379D01*
X1269809Y990717D01*
X1269429Y990217D01*
X1269303Y989633D01*
X1269429Y989050D01*
X1269746Y988633D01*
X1270252Y988383D01*
X1270695Y988300D01*
G01X1268100Y996300D02*
Y993700D01*
X1261900D01*
Y996300D01*
X1268100D01*
G01X1267033Y1001100D02*
Y1006100D01*
X1268616D01*
X1269123Y1005850D01*
X1269439Y1005517D01*
X1269566Y1004850D01*
X1269439Y1004183D01*
X1269059Y1003767D01*
X1268616Y1003517D01*
X1267033D01*
G01X1268616D02*
X1269566Y1001100D01*
G01X1272005Y1002100D02*
X1272384Y1001517D01*
X1272891Y1001183D01*
X1273461Y1001100D01*
X1273967Y1001183D01*
X1274474Y1001600D01*
X1274790Y1002100D01*
X1274854Y1002600D01*
X1274727Y1003183D01*
X1274284Y1003600D01*
X1273841Y1003767D01*
X1273271D01*
G01X1273841D02*
X1274221Y1004017D01*
X1274537Y1004433D01*
X1274664Y1004933D01*
X1274537Y1005433D01*
X1274221Y1005850D01*
X1273651Y1006100D01*
X1273081Y1006017D01*
X1272511Y1005683D01*
G01X1277103Y1002100D02*
X1277482Y1001517D01*
X1277989Y1001183D01*
X1278559Y1001100D01*
X1279065Y1001183D01*
X1279572Y1001600D01*
X1279888Y1002100D01*
X1279952Y1002600D01*
X1279825Y1003183D01*
X1279382Y1003600D01*
X1278939Y1003767D01*
X1278369D01*
G01X1278939D02*
X1279319Y1004017D01*
X1279635Y1004433D01*
X1279762Y1004933D01*
X1279635Y1005433D01*
X1279319Y1005850D01*
X1278749Y1006100D01*
X1278179Y1006017D01*
X1277609Y1005683D01*
G01X1270300Y997900D02*
Y1000500D01*
X1276500D01*
Y997900D01*
X1270300D01*
G01X1269700Y977400D02*
X1275300D01*
Y987600D01*
X1269700D01*
Y977400D01*
G01X1253867Y1013100D02*
Y1015600D01*
X1254507D01*
X1254720Y1015475D01*
X1254880Y1015183D01*
X1254933Y1014850D01*
X1254880Y1014517D01*
X1254747Y1014267D01*
X1254507Y1014142D01*
X1253867D01*
G01X1256600Y1013100D02*
X1256387Y1013142D01*
X1256200Y1013308D01*
X1256040Y1013558D01*
X1255933Y1013850D01*
X1255880Y1014183D01*
Y1014517D01*
X1255933Y1014850D01*
X1256040Y1015142D01*
X1256200Y1015392D01*
X1256387Y1015558D01*
X1256600Y1015600D01*
X1256813Y1015558D01*
X1257000Y1015392D01*
X1257160Y1015142D01*
X1257267Y1014850D01*
X1257320Y1014517D01*
Y1014183D01*
X1257267Y1013850D01*
X1257160Y1013558D01*
X1257000Y1013308D01*
X1256813Y1013142D01*
X1256600Y1013100D01*
G01X1258800Y1015600D02*
Y1013100D01*
G01X1258187Y1015600D02*
X1259413D01*
G01X1260200Y1012267D02*
X1261800D01*
G01X1262667Y1013100D02*
Y1015600D01*
X1263333D01*
X1263547Y1015475D01*
X1263680Y1015308D01*
X1263733Y1014975D01*
X1263680Y1014642D01*
X1263520Y1014433D01*
X1263333Y1014308D01*
X1262667D01*
G01X1263333D02*
X1263733Y1013100D01*
G01X1264813D02*
Y1015600D01*
G01X1265827D02*
X1264813Y1014058D01*
G01X1265987Y1013100D02*
X1265267Y1014767D01*
G01X1267600Y1015600D02*
X1267387Y1015517D01*
X1267227Y1015308D01*
X1267120Y1015058D01*
X1267040Y1014725D01*
X1267013Y1014350D01*
X1267040Y1013975D01*
X1267120Y1013642D01*
X1267227Y1013392D01*
X1267387Y1013183D01*
X1267600Y1013100D01*
X1267813Y1013183D01*
X1267973Y1013392D01*
X1268080Y1013642D01*
X1268160Y1013975D01*
X1268187Y1014350D01*
X1268160Y1014725D01*
X1268080Y1015058D01*
X1267973Y1015308D01*
X1267813Y1015517D01*
X1267600Y1015600D01*
G01X1269347Y1013392D02*
X1269533Y1013183D01*
X1269747Y1013100D01*
X1269960Y1013183D01*
X1270147Y1013433D01*
X1270280Y1013808D01*
X1270333Y1014183D01*
Y1014642D01*
X1270280Y1015017D01*
X1270147Y1015350D01*
X1269987Y1015517D01*
X1269800Y1015600D01*
X1269587Y1015517D01*
X1269427Y1015350D01*
X1269320Y1015100D01*
X1269267Y1014767D01*
X1269320Y1014475D01*
X1269453Y1014183D01*
X1269613Y1014017D01*
X1269800Y1013975D01*
X1270013Y1014058D01*
X1270173Y1014267D01*
X1270333Y1014642D01*
G01X1271200Y1012267D02*
X1272800D01*
G01X1274733Y1013100D02*
X1273667D01*
Y1015600D01*
X1274733D01*
G01X1274307Y1014392D02*
X1273667D01*
G01X1275787Y1013100D02*
Y1015600D01*
X1277013Y1013100D01*
Y1015600D01*
G01X1274733Y1044100D02*
Y1049100D01*
X1276316D01*
X1276823Y1048850D01*
X1277139Y1048517D01*
X1277266Y1047850D01*
X1277139Y1047183D01*
X1276759Y1046767D01*
X1276316Y1046517D01*
X1274733D01*
G01X1276316D02*
X1277266Y1044100D01*
G01X1279894Y1048267D02*
X1280274Y1048767D01*
X1280718Y1049017D01*
X1281224Y1049100D01*
X1281857Y1048933D01*
X1282301Y1048517D01*
X1282427Y1048017D01*
X1282364Y1047517D01*
X1282111Y1047100D01*
X1280844Y1046267D01*
X1280274Y1045683D01*
X1279894Y1044850D01*
X1279768Y1044100D01*
X1282427D01*
G01X1286069D02*
X1286195Y1045183D01*
X1286385Y1046100D01*
X1286639Y1046933D01*
X1286955Y1047850D01*
X1287462Y1049100D01*
X1284929D01*
G01X1277100Y1053500D02*
Y1056100D01*
X1283300D01*
Y1053500D01*
X1277100D01*
G01X1275153Y1081333D02*
X1275847D01*
G01X1278233Y1080500D02*
X1277167D01*
Y1083000D01*
X1278233D01*
G01X1277807Y1081792D02*
X1277167D01*
G01X1279500Y1082167D02*
X1280300Y1080500D01*
G01Y1082167D02*
X1279500Y1080500D01*
G01X1282100Y1083000D02*
Y1080500D01*
G01X1281727Y1082167D02*
X1282473D01*
G01X1283900Y1081625D02*
X1284753D01*
X1284673Y1081917D01*
X1284540Y1082083D01*
X1284353Y1082167D01*
X1284167Y1082125D01*
X1284007Y1082000D01*
X1283900Y1081708D01*
X1283847Y1081458D01*
Y1081208D01*
X1283900Y1080958D01*
X1284033Y1080708D01*
X1284193Y1080542D01*
X1284380Y1080500D01*
X1284567Y1080583D01*
X1284753Y1080833D01*
G01X1286127Y1080500D02*
Y1082167D01*
G01Y1081833D02*
X1286260Y1082000D01*
X1286393Y1082125D01*
X1286580Y1082167D01*
X1286713Y1082125D01*
X1286873Y1082000D01*
G01X1288247Y1080500D02*
Y1082167D01*
G01Y1081750D02*
X1288353Y1081958D01*
X1288513Y1082125D01*
X1288727Y1082167D01*
X1288913Y1082125D01*
X1289073Y1081958D01*
X1289153Y1081667D01*
Y1080500D01*
G01X1291380D02*
Y1082167D01*
G01Y1081875D02*
X1291273Y1082042D01*
X1291113Y1082125D01*
X1290927Y1082167D01*
X1290740Y1082083D01*
X1290580Y1081917D01*
X1290473Y1081667D01*
X1290420Y1081333D01*
X1290473Y1081000D01*
X1290580Y1080750D01*
X1290740Y1080583D01*
X1290927Y1080500D01*
X1291113Y1080542D01*
X1291273Y1080667D01*
X1291380Y1080833D01*
G01X1293100Y1080500D02*
Y1083000D01*
G01X1294500Y1079667D02*
X1296100D01*
G01X1297500Y1083000D02*
Y1080500D01*
G01X1296887Y1083000D02*
X1298113D01*
G01X1299327Y1080500D02*
Y1082167D01*
G01Y1081833D02*
X1299460Y1082000D01*
X1299593Y1082125D01*
X1299780Y1082167D01*
X1299913Y1082125D01*
X1300073Y1082000D01*
G01X1301900Y1082167D02*
Y1080500D01*
G01Y1082833D02*
X1301847Y1082875D01*
Y1082958D01*
X1301900Y1083000D01*
X1301953Y1082958D01*
Y1082875D01*
X1301900Y1082833D01*
G01X1303727Y1079875D02*
X1303913Y1079708D01*
X1304127Y1079667D01*
X1304313Y1079708D01*
X1304473Y1079917D01*
X1304580Y1080208D01*
Y1082167D01*
G01Y1081833D02*
X1304473Y1082000D01*
X1304313Y1082125D01*
X1304127Y1082167D01*
X1303913Y1082083D01*
X1303780Y1081917D01*
X1303673Y1081625D01*
X1303620Y1081333D01*
X1303647Y1081083D01*
X1303753Y1080792D01*
X1303913Y1080583D01*
X1304127Y1080500D01*
X1304287Y1080542D01*
X1304473Y1080708D01*
X1304580Y1080875D01*
G01X1306007Y1081333D02*
X1306647D01*
G01X1306300Y1081875D02*
Y1080792D01*
G01X1320700Y963800D02*
X1280700D01*
Y1023800D01*
X1320700D01*
Y963800D01*
G01X1302100Y1026900D02*
X1302607Y1026817D01*
X1303050Y1026483D01*
X1303430Y1025983D01*
X1303683Y1025400D01*
X1303810Y1024733D01*
Y1024067D01*
X1303683Y1023400D01*
X1303430Y1022817D01*
X1303050Y1022317D01*
X1302607Y1021983D01*
X1302100Y1021900D01*
X1301593Y1021983D01*
X1301150Y1022317D01*
X1300770Y1022817D01*
X1300517Y1023400D01*
X1300390Y1024067D01*
Y1024733D01*
X1300517Y1025400D01*
X1300770Y1025983D01*
X1301150Y1026483D01*
X1301593Y1026817D01*
X1302100Y1026900D01*
G01X1301593Y1025567D02*
X1300833Y1026900D01*
G01X1297000D02*
Y1021900D01*
X1297760Y1022900D01*
G01Y1026900D02*
X1296240D01*
G01X1318633Y1031200D02*
Y1028700D01*
X1317993D01*
X1317780Y1028825D01*
X1317620Y1029117D01*
X1317567Y1029450D01*
X1317620Y1029783D01*
X1317753Y1030033D01*
X1317993Y1030158D01*
X1318633D01*
G01X1316567Y1028700D02*
X1315900Y1031200D01*
X1315233Y1028700D01*
G01X1314287Y1030700D02*
X1314127Y1030992D01*
X1313913Y1031158D01*
X1313673Y1031200D01*
X1313460Y1031158D01*
X1313247Y1030950D01*
X1313113Y1030700D01*
X1313087Y1030450D01*
X1313140Y1030158D01*
X1313327Y1029950D01*
X1313513Y1029867D01*
X1313753D01*
G01X1313513D02*
X1313353Y1029742D01*
X1313220Y1029533D01*
X1313167Y1029283D01*
X1313220Y1029033D01*
X1313353Y1028825D01*
X1313593Y1028700D01*
X1313833Y1028742D01*
X1314073Y1028908D01*
G01X1311553Y1031200D02*
X1311500Y1030658D01*
X1311420Y1030200D01*
X1311313Y1029783D01*
X1311180Y1029325D01*
X1310967Y1028700D01*
X1312033D01*
G01X1307100Y1031200D02*
Y1028700D01*
X1307420Y1029200D01*
G01Y1031200D02*
X1306780D01*
G01X1304900Y1028700D02*
X1305113Y1028783D01*
X1305273Y1028992D01*
X1305380Y1029242D01*
X1305460Y1029575D01*
X1305487Y1029950D01*
X1305460Y1030325D01*
X1305380Y1030658D01*
X1305273Y1030908D01*
X1305113Y1031117D01*
X1304900Y1031200D01*
X1304687Y1031117D01*
X1304527Y1030908D01*
X1304420Y1030658D01*
X1304340Y1030325D01*
X1304313Y1029950D01*
X1304340Y1029575D01*
X1304420Y1029242D01*
X1304527Y1028992D01*
X1304687Y1028783D01*
X1304900Y1028700D01*
G01X1303153Y1031200D02*
Y1028700D01*
G01X1302300Y1029533D02*
X1303153Y1030492D01*
G01X1302807Y1030117D02*
X1302247Y1031200D01*
G01X1298300Y1028700D02*
Y1031200D01*
G01X1298913Y1028700D02*
X1297687D01*
G01X1296473Y1031200D02*
Y1029533D01*
G01Y1029867D02*
X1296340Y1029700D01*
X1296207Y1029575D01*
X1296020Y1029533D01*
X1295887Y1029575D01*
X1295727Y1029700D01*
G01X1293900Y1029533D02*
Y1031200D01*
G01Y1028867D02*
X1293953Y1028825D01*
Y1028742D01*
X1293900Y1028700D01*
X1293847Y1028742D01*
Y1028825D01*
X1293900Y1028867D01*
G01X1292500Y1031200D02*
Y1029533D01*
G01Y1029992D02*
X1292420Y1029783D01*
X1292287Y1029617D01*
X1292100Y1029533D01*
X1291913Y1029617D01*
X1291780Y1029783D01*
X1291700Y1029992D01*
Y1031200D01*
G01Y1029992D02*
X1291620Y1029783D01*
X1291487Y1029617D01*
X1291300Y1029533D01*
X1291113Y1029617D01*
X1290980Y1029783D01*
X1290900Y1030033D01*
Y1031200D01*
G01X1287833D02*
Y1028700D01*
X1287193D01*
X1286980Y1028825D01*
X1286820Y1029117D01*
X1286767Y1029450D01*
X1286820Y1029783D01*
X1286953Y1030033D01*
X1287193Y1030158D01*
X1287833D01*
G01X1285100Y1031200D02*
X1285260Y1031158D01*
X1285420Y1030992D01*
X1285527Y1030700D01*
X1285580Y1030367D01*
X1285527Y1030033D01*
X1285420Y1029742D01*
X1285260Y1029575D01*
X1285100Y1029533D01*
X1284940Y1029575D01*
X1284780Y1029742D01*
X1284673Y1030033D01*
X1284647Y1030367D01*
X1284673Y1030700D01*
X1284780Y1030992D01*
X1284940Y1031158D01*
X1285100Y1031200D01*
G01X1282900Y1028700D02*
Y1031200D01*
G01X1283273Y1029533D02*
X1282527D01*
G01X1291800Y1050567D02*
X1296800D01*
Y1048984D01*
X1296550Y1048477D01*
X1296217Y1048161D01*
X1295550Y1048034D01*
X1294883Y1048161D01*
X1294467Y1048541D01*
X1294217Y1048984D01*
Y1050567D01*
G01Y1048984D02*
X1291800Y1048034D01*
G01X1295967Y1045406D02*
X1296467Y1045026D01*
X1296717Y1044582D01*
X1296800Y1044076D01*
X1296633Y1043443D01*
X1296217Y1042999D01*
X1295717Y1042873D01*
X1295217Y1042936D01*
X1294800Y1043189D01*
X1293967Y1044456D01*
X1293383Y1045026D01*
X1292550Y1045406D01*
X1291800Y1045532D01*
Y1042873D01*
G01X1292550Y1040497D02*
X1292133Y1040118D01*
X1291883Y1039674D01*
X1291800Y1039105D01*
X1291967Y1038535D01*
X1292300Y1038091D01*
X1292883Y1037775D01*
X1293550Y1037712D01*
X1294217Y1037838D01*
X1294633Y1038155D01*
X1294967Y1038598D01*
X1295050Y1039041D01*
X1294967Y1039484D01*
X1294633Y1040054D01*
X1296800Y1039864D01*
Y1038155D01*
G01X1288200Y1047800D02*
X1290800D01*
Y1041600D01*
X1288200D01*
Y1047800D01*
G01X1297100Y1042400D02*
Y1067400D01*
X1317100D01*
Y1042400D01*
X1297100D01*
G01X1282500Y1071000D02*
X1302500D01*
Y1079000D01*
X1282500D01*
Y1071000D01*
G01X1300433Y1060400D02*
Y1065400D01*
X1302017D01*
X1302523Y1065150D01*
X1302840Y1064817D01*
X1302967Y1064150D01*
X1302840Y1063483D01*
X1302460Y1063067D01*
X1302017Y1062817D01*
X1300433D01*
G01X1302017D02*
X1302967Y1060400D01*
G01X1305597Y1064567D02*
X1305977Y1065067D01*
X1306420Y1065317D01*
X1306927Y1065400D01*
X1307560Y1065233D01*
X1308003Y1064817D01*
X1308130Y1064317D01*
X1308067Y1063817D01*
X1307813Y1063400D01*
X1306547Y1062567D01*
X1305977Y1061983D01*
X1305597Y1061150D01*
X1305470Y1060400D01*
X1308130D01*
G01X1310697Y1062483D02*
X1311140Y1063067D01*
X1311520Y1063400D01*
X1312027Y1063567D01*
X1312470Y1063400D01*
X1312787Y1063067D01*
X1313040Y1062567D01*
X1313103Y1061983D01*
X1313040Y1061483D01*
X1312787Y1060983D01*
X1312407Y1060567D01*
X1311963Y1060400D01*
X1311457Y1060567D01*
X1311013Y1061067D01*
X1310760Y1061817D01*
X1310697Y1062650D01*
X1310823Y1063733D01*
X1311013Y1064317D01*
X1311330Y1064900D01*
X1311773Y1065317D01*
X1312217Y1065400D01*
X1312660Y1065233D01*
X1312977Y1064817D01*
G01X1315933Y999700D02*
Y1004700D01*
X1317516D01*
X1318023Y1004450D01*
X1318339Y1004117D01*
X1318466Y1003450D01*
X1318339Y1002783D01*
X1317959Y1002367D01*
X1317516Y1002117D01*
X1315933D01*
G01X1317516D02*
X1318466Y999700D01*
G01X1321221Y1000283D02*
X1321664Y999867D01*
X1322171Y999700D01*
X1322677Y999867D01*
X1323121Y1000367D01*
X1323437Y1001117D01*
X1323564Y1001867D01*
Y1002783D01*
X1323437Y1003533D01*
X1323121Y1004200D01*
X1322741Y1004533D01*
X1322297Y1004700D01*
X1321791Y1004533D01*
X1321411Y1004200D01*
X1321158Y1003700D01*
X1321031Y1003033D01*
X1321158Y1002450D01*
X1321474Y1001867D01*
X1321854Y1001533D01*
X1322297Y1001450D01*
X1322804Y1001617D01*
X1323184Y1002033D01*
X1323564Y1002783D01*
G01X1324100Y1000500D02*
Y1003100D01*
X1330300D01*
Y1000500D01*
X1324100D01*
G01X1322433Y991500D02*
Y996500D01*
X1324016D01*
X1324523Y996250D01*
X1324839Y995917D01*
X1324966Y995250D01*
X1324839Y994583D01*
X1324459Y994167D01*
X1324016Y993917D01*
X1322433D01*
G01X1324016D02*
X1324966Y991500D01*
G01X1327594Y995667D02*
X1327974Y996167D01*
X1328418Y996417D01*
X1328924Y996500D01*
X1329557Y996333D01*
X1330001Y995917D01*
X1330127Y995417D01*
X1330064Y994917D01*
X1329811Y994500D01*
X1328544Y993667D01*
X1327974Y993083D01*
X1327594Y992250D01*
X1327468Y991500D01*
X1330127D01*
G01X1332692Y995667D02*
X1333072Y996167D01*
X1333516Y996417D01*
X1334022Y996500D01*
X1334655Y996333D01*
X1335099Y995917D01*
X1335225Y995417D01*
X1335162Y994917D01*
X1334909Y994500D01*
X1333642Y993667D01*
X1333072Y993083D01*
X1332692Y992250D01*
X1332566Y991500D01*
X1335225D01*
G01X1326900Y996200D02*
Y998800D01*
X1333100D01*
Y996200D01*
X1326900D01*
G01X1323700Y1053400D02*
X1321200D01*
G01X1323700Y1054013D02*
Y1052787D01*
G01X1321200Y1051573D02*
X1322867D01*
G01X1322533D02*
X1322700Y1051440D01*
X1322825Y1051307D01*
X1322867Y1051120D01*
X1322825Y1050987D01*
X1322700Y1050827D01*
G01X1322867Y1049000D02*
X1321200D01*
G01X1323533D02*
X1323575Y1049053D01*
X1323658D01*
X1323700Y1049000D01*
X1323658Y1048947D01*
X1323575D01*
X1323533Y1049000D01*
G01X1321200Y1047600D02*
X1322867D01*
G01X1322408D02*
X1322617Y1047520D01*
X1322783Y1047387D01*
X1322867Y1047200D01*
X1322783Y1047013D01*
X1322617Y1046880D01*
X1322408Y1046800D01*
X1321200D01*
G01X1322408D02*
X1322617Y1046720D01*
X1322783Y1046587D01*
X1322867Y1046400D01*
X1322783Y1046213D01*
X1322617Y1046080D01*
X1322367Y1046000D01*
X1321200D01*
G01X1320367Y1045400D02*
Y1043800D01*
G01X1321200Y1042933D02*
X1323700D01*
Y1042293D01*
X1323575Y1042080D01*
X1323283Y1041920D01*
X1322950Y1041867D01*
X1322617Y1041920D01*
X1322367Y1042053D01*
X1322242Y1042293D01*
Y1042933D01*
G01X1321200Y1040200D02*
X1321242Y1040360D01*
X1321408Y1040520D01*
X1321700Y1040627D01*
X1322033Y1040680D01*
X1322367Y1040627D01*
X1322658Y1040520D01*
X1322825Y1040360D01*
X1322867Y1040200D01*
X1322825Y1040040D01*
X1322658Y1039880D01*
X1322367Y1039773D01*
X1322033Y1039747D01*
X1321700Y1039773D01*
X1321408Y1039880D01*
X1321242Y1040040D01*
X1321200Y1040200D01*
G01X1323700Y1038000D02*
X1321200D01*
G01X1322867Y1038373D02*
Y1037627D01*
G01X1320367Y1036600D02*
Y1035000D01*
G01X1321200Y1033067D02*
Y1034133D01*
X1323700D01*
Y1033067D01*
G01X1322492Y1033493D02*
Y1034133D01*
G01X1321200Y1031853D02*
X1322867D01*
G01X1322450D02*
X1322658Y1031747D01*
X1322825Y1031587D01*
X1322867Y1031373D01*
X1322825Y1031187D01*
X1322658Y1031027D01*
X1322367Y1030947D01*
X1321200D01*
G01X1323500Y1050000D02*
Y1030000D01*
X1331500D01*
Y1050000D01*
X1323500D01*
G01X1310000Y1071000D02*
X1330000D01*
Y1079000D01*
X1310000D01*
Y1071000D01*
G01X1319333Y1061700D02*
Y1066700D01*
X1320916D01*
X1321423Y1066450D01*
X1321739Y1066117D01*
X1321866Y1065450D01*
X1321739Y1064783D01*
X1321359Y1064367D01*
X1320916Y1064117D01*
X1319333D01*
G01X1320916D02*
X1321866Y1061700D01*
G01X1325697D02*
Y1066700D01*
X1324938Y1065700D01*
G01Y1061700D02*
X1326457D01*
G01X1319400Y1058700D02*
Y1061300D01*
X1325600D01*
Y1058700D01*
X1319400D01*
G01X1311533Y1080200D02*
X1310467D01*
Y1082700D01*
X1311533D01*
G01X1311107Y1081492D02*
X1310467D01*
G01X1312800Y1081867D02*
X1313600Y1080200D01*
G01Y1081867D02*
X1312800Y1080200D01*
G01X1315400Y1082700D02*
Y1080200D01*
G01X1315027Y1081867D02*
X1315773D01*
G01X1317200Y1081325D02*
X1318053D01*
X1317973Y1081617D01*
X1317840Y1081783D01*
X1317653Y1081867D01*
X1317467Y1081825D01*
X1317307Y1081700D01*
X1317200Y1081408D01*
X1317147Y1081158D01*
Y1080908D01*
X1317200Y1080658D01*
X1317333Y1080408D01*
X1317493Y1080242D01*
X1317680Y1080200D01*
X1317867Y1080283D01*
X1318053Y1080533D01*
G01X1319427Y1080200D02*
Y1081867D01*
G01Y1081533D02*
X1319560Y1081700D01*
X1319693Y1081825D01*
X1319880Y1081867D01*
X1320013Y1081825D01*
X1320173Y1081700D01*
G01X1321547Y1080200D02*
Y1081867D01*
G01Y1081450D02*
X1321653Y1081658D01*
X1321813Y1081825D01*
X1322027Y1081867D01*
X1322213Y1081825D01*
X1322373Y1081658D01*
X1322453Y1081367D01*
Y1080200D01*
G01X1323400Y1079367D02*
X1325000D01*
G01X1326400Y1082700D02*
Y1080200D01*
G01X1325787Y1082700D02*
X1327013D01*
G01X1329133Y1080200D02*
X1328067D01*
Y1082700D01*
X1329133D01*
G01X1328707Y1081492D02*
X1328067D01*
G01X1330267Y1080200D02*
Y1082700D01*
X1330933D01*
X1331147Y1082575D01*
X1331280Y1082408D01*
X1331333Y1082075D01*
X1331280Y1081742D01*
X1331120Y1081533D01*
X1330933Y1081408D01*
X1330267D01*
G01X1330933D02*
X1331333Y1080200D01*
G01X1332307D02*
Y1082700D01*
X1333000Y1080617D01*
X1333693Y1082700D01*
Y1080200D01*
G01X1336413Y964633D02*
X1336520Y964758D01*
X1336600Y964967D01*
X1336653Y965258D01*
X1336600Y965508D01*
X1336493Y965675D01*
X1336307Y965800D01*
X1335587D01*
Y963300D01*
X1336467D01*
X1336653Y963467D01*
X1336760Y963717D01*
X1336813Y964008D01*
X1336760Y964300D01*
X1336600Y964550D01*
X1336413Y964633D01*
X1335587D01*
G01X1337893Y963300D02*
Y965800D01*
X1338907D01*
G01X1338533Y964592D02*
X1337893D01*
G01X1340600Y963300D02*
Y965800D01*
X1340280Y965300D01*
G01Y963300D02*
X1340920D01*
G01X1342800D02*
X1342987Y963342D01*
X1343200Y963467D01*
X1343333Y963675D01*
X1343387Y963967D01*
X1343333Y964258D01*
X1343173Y964508D01*
X1342933Y964633D01*
X1342667D01*
X1342507Y964717D01*
X1342373Y964925D01*
X1342320Y965217D01*
X1342400Y965508D01*
X1342587Y965717D01*
X1342800Y965800D01*
X1343013Y965717D01*
X1343200Y965508D01*
X1343280Y965217D01*
X1343227Y964925D01*
X1343093Y964717D01*
X1342933Y964633D01*
X1342667D01*
X1342427Y964508D01*
X1342267Y964258D01*
X1342213Y963967D01*
X1342267Y963675D01*
X1342400Y963467D01*
X1342613Y963342D01*
X1342800Y963300D01*
G01X1344493Y965383D02*
X1344653Y965633D01*
X1344840Y965758D01*
X1345053Y965800D01*
X1345320Y965717D01*
X1345507Y965508D01*
X1345560Y965258D01*
X1345533Y965008D01*
X1345427Y964800D01*
X1344893Y964383D01*
X1344653Y964092D01*
X1344493Y963675D01*
X1344440Y963300D01*
X1345560D01*
G01X1349513Y972933D02*
X1349620Y973058D01*
X1349700Y973267D01*
X1349753Y973558D01*
X1349700Y973808D01*
X1349593Y973975D01*
X1349407Y974100D01*
X1348687D01*
Y971600D01*
X1349567D01*
X1349753Y971767D01*
X1349860Y972017D01*
X1349913Y972308D01*
X1349860Y972600D01*
X1349700Y972850D01*
X1349513Y972933D01*
X1348687D01*
G01X1350993Y971600D02*
Y974100D01*
X1352007D01*
G01X1351633Y972892D02*
X1350993D01*
G01X1353113Y974100D02*
Y972308D01*
X1353220Y971933D01*
X1353433Y971683D01*
X1353700Y971600D01*
X1353967Y971683D01*
X1354180Y971933D01*
X1354287Y972308D01*
Y974100D01*
G01X1355847Y971600D02*
X1355900Y972142D01*
X1355980Y972600D01*
X1356087Y973017D01*
X1356220Y973475D01*
X1356433Y974100D01*
X1355367D01*
G01X1357513Y972100D02*
X1357673Y971808D01*
X1357887Y971642D01*
X1358127Y971600D01*
X1358340Y971642D01*
X1358553Y971850D01*
X1358687Y972100D01*
X1358713Y972350D01*
X1358660Y972642D01*
X1358473Y972850D01*
X1358287Y972933D01*
X1358047D01*
G01X1358287D02*
X1358447Y973058D01*
X1358580Y973267D01*
X1358633Y973517D01*
X1358580Y973767D01*
X1358447Y973975D01*
X1358207Y974100D01*
X1357967Y974058D01*
X1357727Y973892D01*
G01X1360300Y974100D02*
X1360087Y974017D01*
X1359927Y973808D01*
X1359820Y973558D01*
X1359740Y973225D01*
X1359713Y972850D01*
X1359740Y972475D01*
X1359820Y972142D01*
X1359927Y971892D01*
X1360087Y971683D01*
X1360300Y971600D01*
X1360513Y971683D01*
X1360673Y971892D01*
X1360780Y972142D01*
X1360860Y972475D01*
X1360887Y972850D01*
X1360860Y973225D01*
X1360780Y973558D01*
X1360673Y973808D01*
X1360513Y974017D01*
X1360300Y974100D01*
G01X1361993Y971600D02*
Y974100D01*
X1363007D01*
G01X1362633Y972892D02*
X1361993D01*
G01X1333833Y970400D02*
Y975400D01*
X1335416D01*
X1335923Y975150D01*
X1336239Y974817D01*
X1336366Y974150D01*
X1336239Y973483D01*
X1335859Y973067D01*
X1335416Y972817D01*
X1333833D01*
G01X1335416D02*
X1336366Y970400D01*
G01X1340197D02*
Y975400D01*
X1339438Y974400D01*
G01Y970400D02*
X1340957D01*
G01X1344092Y974567D02*
X1344472Y975067D01*
X1344916Y975317D01*
X1345422Y975400D01*
X1346055Y975233D01*
X1346499Y974817D01*
X1346625Y974317D01*
X1346562Y973817D01*
X1346309Y973400D01*
X1345042Y972567D01*
X1344472Y971983D01*
X1344092Y971150D01*
X1343966Y970400D01*
X1346625D01*
G01X1336900Y976200D02*
Y978800D01*
X1343100D01*
Y976200D01*
X1336900D01*
G01X1329800Y966107D02*
X1332022D01*
X1332487Y966260D01*
X1332797Y966567D01*
X1332900Y966950D01*
X1332797Y967333D01*
X1332487Y967640D01*
X1332022Y967793D01*
X1329800D01*
G01X1332900Y970050D02*
X1332848Y970318D01*
X1332693Y970625D01*
X1332435Y970817D01*
X1332073Y970893D01*
X1331712Y970817D01*
X1331402Y970587D01*
X1331247Y970242D01*
Y969858D01*
X1331143Y969628D01*
X1330885Y969437D01*
X1330523Y969360D01*
X1330162Y969475D01*
X1329903Y969743D01*
X1329800Y970050D01*
X1329903Y970357D01*
X1330162Y970625D01*
X1330523Y970740D01*
X1330885Y970663D01*
X1331143Y970472D01*
X1331247Y970242D01*
Y969858D01*
X1331402Y969513D01*
X1331712Y969283D01*
X1332073Y969207D01*
X1332435Y969283D01*
X1332693Y969475D01*
X1332848Y969782D01*
X1332900Y970050D01*
G01X1345607Y983100D02*
Y979517D01*
X1345860Y978767D01*
X1346367Y978267D01*
X1347000Y978100D01*
X1347633Y978267D01*
X1348140Y978767D01*
X1348393Y979517D01*
Y983100D01*
G01X1352860Y978100D02*
Y983100D01*
X1350517Y979517D01*
X1353683D01*
G01X1347300Y975700D02*
X1352700D01*
Y984300D01*
X1347300D01*
Y975700D01*
G01X1333433Y983300D02*
Y988300D01*
X1335016D01*
X1335523Y988050D01*
X1335839Y987717D01*
X1335966Y987050D01*
X1335839Y986383D01*
X1335459Y985967D01*
X1335016Y985717D01*
X1333433D01*
G01X1335016D02*
X1335966Y983300D01*
G01X1339797D02*
Y988300D01*
X1339038Y987300D01*
G01Y983300D02*
X1340557D01*
G01X1345655D02*
Y988300D01*
X1343313Y984717D01*
X1346478D01*
G01X1336900Y981200D02*
Y983800D01*
X1343100D01*
Y981200D01*
X1336900D01*
G01Y1001200D02*
Y1003800D01*
X1343100D01*
Y1001200D01*
X1336900D01*
G01X1336333Y991300D02*
Y996300D01*
X1337916D01*
X1338423Y996050D01*
X1338739Y995717D01*
X1338866Y995050D01*
X1338739Y994383D01*
X1338359Y993967D01*
X1337916Y993717D01*
X1336333D01*
G01X1337916D02*
X1338866Y991300D01*
G01X1341494Y995467D02*
X1341874Y995967D01*
X1342318Y996217D01*
X1342824Y996300D01*
X1343457Y996133D01*
X1343901Y995717D01*
X1344027Y995217D01*
X1343964Y994717D01*
X1343711Y994300D01*
X1342444Y993467D01*
X1341874Y992883D01*
X1341494Y992050D01*
X1341368Y991300D01*
X1344027D01*
G01X1347795D02*
Y996300D01*
X1347036Y995300D01*
G01Y991300D02*
X1348555D01*
G01X1336900Y996200D02*
Y998800D01*
X1343100D01*
Y996200D01*
X1336900D01*
G01X1346407Y1002300D02*
Y998717D01*
X1346660Y997967D01*
X1347167Y997467D01*
X1347800Y997300D01*
X1348433Y997467D01*
X1348940Y997967D01*
X1349193Y998717D01*
Y1002300D01*
G01X1351507Y998050D02*
X1351887Y997633D01*
X1352330Y997383D01*
X1352900Y997300D01*
X1353470Y997467D01*
X1353913Y997800D01*
X1354230Y998383D01*
X1354293Y999050D01*
X1354167Y999717D01*
X1353850Y1000133D01*
X1353407Y1000467D01*
X1352963Y1000550D01*
X1352520Y1000467D01*
X1351950Y1000133D01*
X1352140Y1002300D01*
X1353850D01*
G01X1347300Y995700D02*
X1352700D01*
Y1004300D01*
X1347300D01*
Y995700D01*
G01X1343233Y1010500D02*
Y1015500D01*
X1344816D01*
X1345323Y1015250D01*
X1345639Y1014917D01*
X1345766Y1014250D01*
X1345639Y1013583D01*
X1345259Y1013167D01*
X1344816Y1012917D01*
X1343233D01*
G01X1344816D02*
X1345766Y1010500D01*
G01X1349597D02*
Y1015500D01*
X1348838Y1014500D01*
G01Y1010500D02*
X1350357D01*
G01X1354695Y1015500D02*
X1354189Y1015333D01*
X1353809Y1014917D01*
X1353556Y1014417D01*
X1353366Y1013750D01*
X1353303Y1013000D01*
X1353366Y1012250D01*
X1353556Y1011583D01*
X1353809Y1011083D01*
X1354189Y1010667D01*
X1354695Y1010500D01*
X1355202Y1010667D01*
X1355582Y1011083D01*
X1355835Y1011583D01*
X1356025Y1012250D01*
X1356088Y1013000D01*
X1356025Y1013750D01*
X1355835Y1014417D01*
X1355582Y1014917D01*
X1355202Y1015333D01*
X1354695Y1015500D01*
G01X1346900Y1016200D02*
Y1018800D01*
X1353100D01*
Y1016200D01*
X1346900D01*
G01X1332833Y1018600D02*
Y1023600D01*
X1334416D01*
X1334923Y1023350D01*
X1335239Y1023017D01*
X1335366Y1022350D01*
X1335239Y1021683D01*
X1334859Y1021267D01*
X1334416Y1021017D01*
X1332833D01*
G01X1334416D02*
X1335366Y1018600D01*
G01X1339197D02*
Y1023600D01*
X1338438Y1022600D01*
G01Y1018600D02*
X1339957D01*
G01X1344295D02*
Y1023600D01*
X1343536Y1022600D01*
G01Y1018600D02*
X1345055D01*
G01X1336900Y1016200D02*
Y1018800D01*
X1343100D01*
Y1016200D01*
X1336900D01*
G01X1333133Y1026400D02*
Y1031400D01*
X1334716D01*
X1335223Y1031150D01*
X1335539Y1030817D01*
X1335666Y1030150D01*
X1335539Y1029483D01*
X1335159Y1029067D01*
X1334716Y1028817D01*
X1333133D01*
G01X1334716D02*
X1335666Y1026400D01*
G01X1339497D02*
Y1031400D01*
X1338738Y1030400D01*
G01Y1026400D02*
X1340257D01*
G01X1343392Y1028483D02*
X1343836Y1029067D01*
X1344216Y1029400D01*
X1344722Y1029567D01*
X1345165Y1029400D01*
X1345482Y1029067D01*
X1345735Y1028567D01*
X1345799Y1027983D01*
X1345735Y1027483D01*
X1345482Y1026983D01*
X1345102Y1026567D01*
X1344659Y1026400D01*
X1344152Y1026567D01*
X1343709Y1027067D01*
X1343456Y1027817D01*
X1343392Y1028650D01*
X1343519Y1029733D01*
X1343709Y1030317D01*
X1344026Y1030900D01*
X1344469Y1031317D01*
X1344912Y1031400D01*
X1345355Y1031233D01*
X1345672Y1030817D01*
G01X1336900Y1023700D02*
Y1026300D01*
X1343100D01*
Y1023700D01*
X1336900D01*
G01X1353533Y1004700D02*
Y1009700D01*
X1355116D01*
X1355623Y1009450D01*
X1355939Y1009117D01*
X1356066Y1008450D01*
X1355939Y1007783D01*
X1355559Y1007367D01*
X1355116Y1007117D01*
X1353533D01*
G01X1355116D02*
X1356066Y1004700D01*
G01X1359897D02*
Y1009700D01*
X1359138Y1008700D01*
G01Y1004700D02*
X1360657D01*
G01X1364869D02*
X1364995Y1005783D01*
X1365185Y1006700D01*
X1365439Y1007533D01*
X1365755Y1008450D01*
X1366262Y1009700D01*
X1363729D01*
G01X1340733Y1003900D02*
Y1008900D01*
X1342316D01*
X1342823Y1008650D01*
X1343139Y1008317D01*
X1343266Y1007650D01*
X1343139Y1006983D01*
X1342759Y1006567D01*
X1342316Y1006317D01*
X1340733D01*
G01X1342316D02*
X1343266Y1003900D01*
G01X1347097D02*
Y1008900D01*
X1346338Y1007900D01*
G01Y1003900D02*
X1347857D01*
G01X1352195D02*
X1352639Y1003983D01*
X1353145Y1004233D01*
X1353462Y1004650D01*
X1353588Y1005233D01*
X1353462Y1005817D01*
X1353082Y1006317D01*
X1352512Y1006567D01*
X1351879D01*
X1351499Y1006733D01*
X1351182Y1007150D01*
X1351056Y1007733D01*
X1351246Y1008317D01*
X1351689Y1008733D01*
X1352195Y1008900D01*
X1352702Y1008733D01*
X1353145Y1008317D01*
X1353335Y1007733D01*
X1353209Y1007150D01*
X1352892Y1006733D01*
X1352512Y1006567D01*
X1351879D01*
X1351309Y1006317D01*
X1350929Y1005817D01*
X1350803Y1005233D01*
X1350929Y1004650D01*
X1351246Y1004233D01*
X1351752Y1003983D01*
X1352195Y1003900D01*
G01X1334400Y1047567D02*
X1333900Y1047250D01*
X1333567Y1046870D01*
X1333400Y1046427D01*
X1333567Y1045920D01*
X1333900Y1045540D01*
X1334400Y1045160D01*
X1335067Y1045033D01*
X1338400D01*
G01X1335483Y1042403D02*
X1336067Y1041960D01*
X1336400Y1041580D01*
X1336567Y1041073D01*
X1336400Y1040630D01*
X1336067Y1040313D01*
X1335567Y1040060D01*
X1334983Y1039997D01*
X1334483Y1040060D01*
X1333983Y1040313D01*
X1333567Y1040693D01*
X1333400Y1041137D01*
X1333567Y1041643D01*
X1334067Y1042087D01*
X1334817Y1042340D01*
X1335650Y1042403D01*
X1336733Y1042277D01*
X1337317Y1042087D01*
X1337900Y1041770D01*
X1338317Y1041327D01*
X1338400Y1040883D01*
X1338233Y1040440D01*
X1337817Y1040123D01*
G01X1336833Y1034200D02*
Y1039200D01*
X1338416D01*
X1338923Y1038950D01*
X1339239Y1038617D01*
X1339366Y1037950D01*
X1339239Y1037283D01*
X1338859Y1036867D01*
X1338416Y1036617D01*
X1336833D01*
G01X1338416D02*
X1339366Y1034200D01*
G01X1343071D02*
X1343197Y1035283D01*
X1343387Y1036200D01*
X1343641Y1037033D01*
X1343957Y1037950D01*
X1344464Y1039200D01*
X1341931D01*
G01X1336900Y1031200D02*
Y1033800D01*
X1343100D01*
Y1031200D01*
X1336900D01*
G01X1366267Y1034000D02*
Y1029000D01*
X1364684D01*
X1364177Y1029250D01*
X1363861Y1029583D01*
X1363734Y1030250D01*
X1363861Y1030917D01*
X1364241Y1031333D01*
X1364684Y1031583D01*
X1366267D01*
G01X1364684D02*
X1363734Y1034000D01*
G01X1359903D02*
Y1029000D01*
X1360662Y1030000D01*
G01Y1034000D02*
X1359143D01*
G01X1355881Y1033417D02*
X1355438Y1033833D01*
X1354931Y1034000D01*
X1354425Y1033833D01*
X1353981Y1033333D01*
X1353665Y1032583D01*
X1353538Y1031833D01*
Y1030917D01*
X1353665Y1030167D01*
X1353981Y1029500D01*
X1354361Y1029167D01*
X1354805Y1029000D01*
X1355311Y1029167D01*
X1355691Y1029500D01*
X1355944Y1030000D01*
X1356071Y1030667D01*
X1355944Y1031250D01*
X1355628Y1031833D01*
X1355248Y1032167D01*
X1354805Y1032250D01*
X1354298Y1032083D01*
X1353918Y1031667D01*
X1353538Y1030917D01*
G01X1353133Y1037100D02*
Y1042100D01*
X1354716D01*
X1355223Y1041850D01*
X1355539Y1041517D01*
X1355666Y1040850D01*
X1355539Y1040183D01*
X1355159Y1039767D01*
X1354716Y1039517D01*
X1353133D01*
G01X1354716D02*
X1355666Y1037100D01*
G01X1358294Y1041267D02*
X1358674Y1041767D01*
X1359118Y1042017D01*
X1359624Y1042100D01*
X1360257Y1041933D01*
X1360701Y1041517D01*
X1360827Y1041017D01*
X1360764Y1040517D01*
X1360511Y1040100D01*
X1359244Y1039267D01*
X1358674Y1038683D01*
X1358294Y1037850D01*
X1358168Y1037100D01*
X1360827D01*
G01X1364595Y1042100D02*
X1364089Y1041933D01*
X1363709Y1041517D01*
X1363456Y1041017D01*
X1363266Y1040350D01*
X1363203Y1039600D01*
X1363266Y1038850D01*
X1363456Y1038183D01*
X1363709Y1037683D01*
X1364089Y1037267D01*
X1364595Y1037100D01*
X1365102Y1037267D01*
X1365482Y1037683D01*
X1365735Y1038183D01*
X1365925Y1038850D01*
X1365988Y1039600D01*
X1365925Y1040350D01*
X1365735Y1041017D01*
X1365482Y1041517D01*
X1365102Y1041933D01*
X1364595Y1042100D01*
G01X1356750Y1062500D02*
Y1042500D01*
X1343250D01*
Y1062500D01*
X1356750D01*
G01X1354750Y1045000D02*
G03I-1000J0D01*
G01X1337033Y1067500D02*
X1335967D01*
Y1070000D01*
X1337033D01*
G01X1336607Y1068792D02*
X1335967D01*
G01X1338300Y1069167D02*
X1339100Y1067500D01*
G01Y1069167D02*
X1338300Y1067500D01*
G01X1340900Y1070000D02*
Y1067500D01*
G01X1340527Y1069167D02*
X1341273D01*
G01X1342700Y1068625D02*
X1343553D01*
X1343473Y1068917D01*
X1343340Y1069083D01*
X1343153Y1069167D01*
X1342967Y1069125D01*
X1342807Y1069000D01*
X1342700Y1068708D01*
X1342647Y1068458D01*
Y1068208D01*
X1342700Y1067958D01*
X1342833Y1067708D01*
X1342993Y1067542D01*
X1343180Y1067500D01*
X1343367Y1067583D01*
X1343553Y1067833D01*
G01X1344927Y1067500D02*
Y1069167D01*
G01Y1068833D02*
X1345060Y1069000D01*
X1345193Y1069125D01*
X1345380Y1069167D01*
X1345513Y1069125D01*
X1345673Y1069000D01*
G01X1347047Y1067500D02*
Y1069167D01*
G01Y1068750D02*
X1347153Y1068958D01*
X1347313Y1069125D01*
X1347527Y1069167D01*
X1347713Y1069125D01*
X1347873Y1068958D01*
X1347953Y1068667D01*
Y1067500D01*
G01X1348900Y1066667D02*
X1350500D01*
G01X1352433Y1067500D02*
X1351367D01*
Y1070000D01*
X1352433D01*
G01X1352007Y1068792D02*
X1351367D01*
G01X1353487Y1067500D02*
Y1070000D01*
X1354713Y1067500D01*
Y1070000D01*
G01X1335000Y1071000D02*
X1355000D01*
Y1079000D01*
X1335000D01*
Y1071000D01*
G01X1356967Y1066000D02*
X1356300Y1063500D01*
X1355633Y1066000D01*
G01X1355873Y1065125D02*
X1356727D01*
G01X1354687Y1066000D02*
Y1063500D01*
X1354153D01*
X1353940Y1063625D01*
X1353780Y1063792D01*
X1353647Y1064042D01*
X1353540Y1064333D01*
X1353513Y1064750D01*
X1353540Y1065167D01*
X1353647Y1065458D01*
X1353780Y1065708D01*
X1353940Y1065875D01*
X1354153Y1066000D01*
X1354687D01*
G01X1352513D02*
Y1063500D01*
X1351287Y1066000D01*
Y1063500D01*
G01X1349380Y1066000D02*
Y1063500D01*
X1350367Y1065292D01*
X1349033D01*
G01X1348007Y1064958D02*
X1347820Y1064667D01*
X1347660Y1064500D01*
X1347447Y1064417D01*
X1347260Y1064500D01*
X1347127Y1064667D01*
X1347020Y1064917D01*
X1346993Y1065208D01*
X1347020Y1065458D01*
X1347127Y1065708D01*
X1347287Y1065917D01*
X1347473Y1066000D01*
X1347687Y1065917D01*
X1347873Y1065667D01*
X1347980Y1065292D01*
X1348007Y1064875D01*
X1347953Y1064333D01*
X1347873Y1064042D01*
X1347740Y1063750D01*
X1347553Y1063542D01*
X1347367Y1063500D01*
X1347180Y1063583D01*
X1347047Y1063792D01*
G01X1345807Y1064958D02*
X1345620Y1064667D01*
X1345460Y1064500D01*
X1345247Y1064417D01*
X1345060Y1064500D01*
X1344927Y1064667D01*
X1344820Y1064917D01*
X1344793Y1065208D01*
X1344820Y1065458D01*
X1344927Y1065708D01*
X1345087Y1065917D01*
X1345273Y1066000D01*
X1345487Y1065917D01*
X1345673Y1065667D01*
X1345780Y1065292D01*
X1345807Y1064875D01*
X1345753Y1064333D01*
X1345673Y1064042D01*
X1345540Y1063750D01*
X1345353Y1063542D01*
X1345167Y1063500D01*
X1344980Y1063583D01*
X1344847Y1063792D01*
G01X1343100Y1066000D02*
Y1063500D01*
X1343420Y1064000D01*
G01Y1066000D02*
X1342780D01*
G01X1375613Y968100D02*
Y966308D01*
X1375720Y965933D01*
X1375933Y965683D01*
X1376200Y965600D01*
X1376467Y965683D01*
X1376680Y965933D01*
X1376787Y966308D01*
Y968100D01*
G01X1377867Y965600D02*
Y968100D01*
X1378507D01*
X1378720Y967975D01*
X1378880Y967683D01*
X1378933Y967350D01*
X1378880Y967017D01*
X1378747Y966767D01*
X1378507Y966642D01*
X1377867D01*
G01X1380200Y966725D02*
X1381053D01*
X1380973Y967017D01*
X1380840Y967183D01*
X1380653Y967267D01*
X1380467Y967225D01*
X1380307Y967100D01*
X1380200Y966808D01*
X1380147Y966558D01*
Y966308D01*
X1380200Y966058D01*
X1380333Y965808D01*
X1380493Y965642D01*
X1380680Y965600D01*
X1380867Y965683D01*
X1381053Y965933D01*
G01X1382347Y965600D02*
Y967267D01*
G01Y966850D02*
X1382453Y967058D01*
X1382613Y967225D01*
X1382827Y967267D01*
X1383013Y967225D01*
X1383173Y967058D01*
X1383253Y966767D01*
Y965600D01*
G01X1384547D02*
Y967267D01*
G01Y966850D02*
X1384653Y967058D01*
X1384813Y967225D01*
X1385027Y967267D01*
X1385213Y967225D01*
X1385373Y967058D01*
X1385453Y966767D01*
Y965600D01*
G01X1388840D02*
Y968100D01*
G01X1389960D02*
Y965600D01*
G01Y966850D02*
X1388840D01*
G01X1391600Y967267D02*
Y965600D01*
G01Y967933D02*
X1391547Y967975D01*
Y968058D01*
X1391600Y968100D01*
X1391653Y968058D01*
Y967975D01*
X1391600Y967933D01*
G01X1393427Y964975D02*
X1393613Y964808D01*
X1393827Y964767D01*
X1394013Y964808D01*
X1394173Y965017D01*
X1394280Y965308D01*
Y967267D01*
G01Y966933D02*
X1394173Y967100D01*
X1394013Y967225D01*
X1393827Y967267D01*
X1393613Y967183D01*
X1393480Y967017D01*
X1393373Y966725D01*
X1393320Y966433D01*
X1393347Y966183D01*
X1393453Y965892D01*
X1393613Y965683D01*
X1393827Y965600D01*
X1393987Y965642D01*
X1394173Y965808D01*
X1394280Y965975D01*
G01X1395547Y965600D02*
Y968100D01*
G01Y966892D02*
X1395680Y967100D01*
X1395813Y967225D01*
X1396027Y967267D01*
X1396187Y967225D01*
X1396373Y967058D01*
X1396453Y966808D01*
Y965600D01*
G01X1400933D02*
X1399867D01*
Y968100D01*
X1400933D01*
G01X1400507Y966892D02*
X1399867D01*
G01X1402147Y965600D02*
Y967267D01*
G01Y966850D02*
X1402253Y967058D01*
X1402413Y967225D01*
X1402627Y967267D01*
X1402813Y967225D01*
X1402973Y967058D01*
X1403053Y966767D01*
Y965600D01*
G01X1404400Y966725D02*
X1405253D01*
X1405173Y967017D01*
X1405040Y967183D01*
X1404853Y967267D01*
X1404667Y967225D01*
X1404507Y967100D01*
X1404400Y966808D01*
X1404347Y966558D01*
Y966308D01*
X1404400Y966058D01*
X1404533Y965808D01*
X1404693Y965642D01*
X1404880Y965600D01*
X1405067Y965683D01*
X1405253Y965933D01*
G01X1406627Y965600D02*
Y967267D01*
G01Y966933D02*
X1406760Y967100D01*
X1406893Y967225D01*
X1407080Y967267D01*
X1407213Y967225D01*
X1407373Y967100D01*
G01X1408827Y964975D02*
X1409013Y964808D01*
X1409227Y964767D01*
X1409413Y964808D01*
X1409573Y965017D01*
X1409680Y965308D01*
Y967267D01*
G01Y966933D02*
X1409573Y967100D01*
X1409413Y967225D01*
X1409227Y967267D01*
X1409013Y967183D01*
X1408880Y967017D01*
X1408773Y966725D01*
X1408720Y966433D01*
X1408747Y966183D01*
X1408853Y965892D01*
X1409013Y965683D01*
X1409227Y965600D01*
X1409387Y965642D01*
X1409573Y965808D01*
X1409680Y965975D01*
G01X1410840Y964850D02*
X1411000Y964767D01*
X1411213Y964850D01*
X1411347Y965017D01*
X1411453Y965225D01*
X1411613Y965892D01*
X1411960Y967267D01*
G01X1411107D02*
X1411613Y965892D01*
G01X1415267Y965600D02*
Y968100D01*
X1415907D01*
X1416120Y967975D01*
X1416280Y967683D01*
X1416333Y967350D01*
X1416280Y967017D01*
X1416147Y966767D01*
X1415907Y966642D01*
X1415267D01*
G01X1417547Y965600D02*
Y968100D01*
G01Y966892D02*
X1417680Y967100D01*
X1417813Y967225D01*
X1418027Y967267D01*
X1418187Y967225D01*
X1418373Y967058D01*
X1418453Y966808D01*
Y965600D01*
G01X1419640Y964850D02*
X1419800Y964767D01*
X1420013Y964850D01*
X1420147Y965017D01*
X1420253Y965225D01*
X1420413Y965892D01*
X1420760Y967267D01*
G01X1419907D02*
X1420413Y965892D01*
G01X1422000D02*
X1422133Y965725D01*
X1422320Y965600D01*
X1422480D01*
X1422640Y965683D01*
X1422747Y965808D01*
X1422800Y965975D01*
X1422773Y966225D01*
X1422667Y966350D01*
X1422187Y966600D01*
X1422080Y966892D01*
X1422133Y967100D01*
X1422240Y967225D01*
X1422400Y967267D01*
X1422560Y967225D01*
X1422720Y967100D01*
G01X1424600Y967267D02*
Y965600D01*
G01Y967933D02*
X1424547Y967975D01*
Y968058D01*
X1424600Y968100D01*
X1424653Y968058D01*
Y967975D01*
X1424600Y967933D01*
G01X1427227Y967058D02*
X1427040Y967225D01*
X1426880Y967267D01*
X1426667Y967183D01*
X1426507Y967017D01*
X1426400Y966725D01*
X1426373Y966433D01*
X1426400Y966142D01*
X1426507Y965892D01*
X1426667Y965683D01*
X1426880Y965600D01*
X1427067Y965683D01*
X1427227Y965850D01*
G01X1428600Y965892D02*
X1428733Y965725D01*
X1428920Y965600D01*
X1429080D01*
X1429240Y965683D01*
X1429347Y965808D01*
X1429400Y965975D01*
X1429373Y966225D01*
X1429267Y966350D01*
X1428787Y966600D01*
X1428680Y966892D01*
X1428733Y967100D01*
X1428840Y967225D01*
X1429000Y967267D01*
X1429160Y967225D01*
X1429320Y967100D01*
G01X1433400Y965600D02*
Y968100D01*
X1433080Y967600D01*
G01Y965600D02*
X1433720D01*
G01X1435120Y965517D02*
X1436080Y968100D01*
G01X1437800Y965600D02*
Y968100D01*
X1437480Y967600D01*
G01Y965600D02*
X1438120D01*
G01X1439413Y966100D02*
X1439573Y965808D01*
X1439787Y965642D01*
X1440027Y965600D01*
X1440240Y965642D01*
X1440453Y965850D01*
X1440587Y966100D01*
X1440613Y966350D01*
X1440560Y966642D01*
X1440373Y966850D01*
X1440187Y966933D01*
X1439947D01*
G01X1440187D02*
X1440347Y967058D01*
X1440480Y967267D01*
X1440533Y967517D01*
X1440480Y967767D01*
X1440347Y967975D01*
X1440107Y968100D01*
X1439867Y968058D01*
X1439627Y967892D01*
G01X1441720Y965517D02*
X1442680Y968100D01*
G01X1443893Y967683D02*
X1444053Y967933D01*
X1444240Y968058D01*
X1444453Y968100D01*
X1444720Y968017D01*
X1444907Y967808D01*
X1444960Y967558D01*
X1444933Y967308D01*
X1444827Y967100D01*
X1444293Y966683D01*
X1444053Y966392D01*
X1443893Y965975D01*
X1443840Y965600D01*
X1444960D01*
G01X1446600Y968100D02*
X1446387Y968017D01*
X1446227Y967808D01*
X1446120Y967558D01*
X1446040Y967225D01*
X1446013Y966850D01*
X1446040Y966475D01*
X1446120Y966142D01*
X1446227Y965892D01*
X1446387Y965683D01*
X1446600Y965600D01*
X1446813Y965683D01*
X1446973Y965892D01*
X1447080Y966142D01*
X1447160Y966475D01*
X1447187Y966850D01*
X1447160Y967225D01*
X1447080Y967558D01*
X1446973Y967808D01*
X1446813Y968017D01*
X1446600Y968100D01*
G01X1448800Y965600D02*
Y968100D01*
X1448480Y967600D01*
G01Y965600D02*
X1449120D01*
G01X1450947D02*
X1451000Y966142D01*
X1451080Y966600D01*
X1451187Y967017D01*
X1451320Y967475D01*
X1451533Y968100D01*
X1450467D01*
G01X1375567Y973700D02*
Y976200D01*
X1376233D01*
X1376447Y976075D01*
X1376580Y975908D01*
X1376633Y975575D01*
X1376580Y975242D01*
X1376420Y975033D01*
X1376233Y974908D01*
X1375567D01*
G01X1376233D02*
X1376633Y973700D01*
G01X1377740D02*
Y976200D01*
G01X1378860D02*
Y973700D01*
G01Y974950D02*
X1377740D01*
G01X1375567Y969400D02*
Y971900D01*
X1376207D01*
X1376420Y971775D01*
X1376580Y971483D01*
X1376633Y971150D01*
X1376580Y970817D01*
X1376447Y970567D01*
X1376207Y970442D01*
X1375567D01*
G01X1377607Y969400D02*
Y971900D01*
X1378300Y969817D01*
X1378993Y971900D01*
Y969400D01*
G01X1380500Y971900D02*
Y969400D01*
G01X1379887Y971900D02*
X1381113D01*
G01X1384367Y969400D02*
Y971900D01*
X1385007D01*
X1385220Y971775D01*
X1385380Y971483D01*
X1385433Y971150D01*
X1385380Y970817D01*
X1385247Y970567D01*
X1385007Y970442D01*
X1384367D01*
G01X1386647Y971067D02*
Y969900D01*
X1386753Y969608D01*
X1386913Y969442D01*
X1387100Y969400D01*
X1387287Y969442D01*
X1387447Y969608D01*
X1387553Y969900D01*
G01Y969400D02*
Y971067D01*
G01X1389300Y969400D02*
Y971900D01*
G01X1391100Y969692D02*
X1391233Y969525D01*
X1391420Y969400D01*
X1391580D01*
X1391740Y969483D01*
X1391847Y969608D01*
X1391900Y969775D01*
X1391873Y970025D01*
X1391767Y970150D01*
X1391287Y970400D01*
X1391180Y970692D01*
X1391233Y970900D01*
X1391340Y971025D01*
X1391500Y971067D01*
X1391660Y971025D01*
X1391820Y970900D01*
G01X1393300Y970525D02*
X1394153D01*
X1394073Y970817D01*
X1393940Y970983D01*
X1393753Y971067D01*
X1393567Y971025D01*
X1393407Y970900D01*
X1393300Y970608D01*
X1393247Y970358D01*
Y970108D01*
X1393300Y969858D01*
X1393433Y969608D01*
X1393593Y969442D01*
X1393780Y969400D01*
X1393967Y969483D01*
X1394153Y969733D01*
G01X1395527Y969400D02*
Y971067D01*
G01Y970733D02*
X1395660Y970900D01*
X1395793Y971025D01*
X1395980Y971067D01*
X1396113Y971025D01*
X1396273Y970900D01*
G01X1400513Y970733D02*
X1400620Y970858D01*
X1400700Y971067D01*
X1400753Y971358D01*
X1400700Y971608D01*
X1400593Y971775D01*
X1400407Y971900D01*
X1399687D01*
Y969400D01*
X1400567D01*
X1400753Y969567D01*
X1400860Y969817D01*
X1400913Y970108D01*
X1400860Y970400D01*
X1400700Y970650D01*
X1400513Y970733D01*
X1399687D01*
G01X1402500Y969400D02*
X1402340Y969442D01*
X1402180Y969608D01*
X1402073Y969900D01*
X1402020Y970233D01*
X1402073Y970567D01*
X1402180Y970858D01*
X1402340Y971025D01*
X1402500Y971067D01*
X1402660Y971025D01*
X1402820Y970858D01*
X1402927Y970567D01*
X1402953Y970233D01*
X1402927Y969900D01*
X1402820Y969608D01*
X1402660Y969442D01*
X1402500Y969400D01*
G01X1405180D02*
Y971067D01*
G01Y970775D02*
X1405073Y970942D01*
X1404913Y971025D01*
X1404727Y971067D01*
X1404540Y970983D01*
X1404380Y970817D01*
X1404273Y970567D01*
X1404220Y970233D01*
X1404273Y969900D01*
X1404380Y969650D01*
X1404540Y969483D01*
X1404727Y969400D01*
X1404913Y969442D01*
X1405073Y969567D01*
X1405180Y969733D01*
G01X1406527Y969400D02*
Y971067D01*
G01Y970733D02*
X1406660Y970900D01*
X1406793Y971025D01*
X1406980Y971067D01*
X1407113Y971025D01*
X1407273Y970900D01*
G01X1409580Y971900D02*
Y969400D01*
G01Y969775D02*
X1409473Y969567D01*
X1409313Y969442D01*
X1409127Y969400D01*
X1408913Y969483D01*
X1408753Y969692D01*
X1408647Y969942D01*
X1408620Y970233D01*
X1408647Y970525D01*
X1408753Y970775D01*
X1408913Y970983D01*
X1409127Y971067D01*
X1409313Y971025D01*
X1409447Y970942D01*
X1409580Y970775D01*
G01X1362967Y980200D02*
Y975200D01*
X1361384D01*
X1360877Y975450D01*
X1360561Y975783D01*
X1360434Y976450D01*
X1360561Y977117D01*
X1360941Y977533D01*
X1361384Y977783D01*
X1362967D01*
G01X1361384D02*
X1360434Y980200D01*
G01X1356603D02*
X1356159Y980117D01*
X1355653Y979867D01*
X1355336Y979450D01*
X1355210Y978867D01*
X1355336Y978283D01*
X1355716Y977783D01*
X1356286Y977533D01*
X1356919D01*
X1357299Y977367D01*
X1357616Y976950D01*
X1357742Y976367D01*
X1357552Y975783D01*
X1357109Y975367D01*
X1356603Y975200D01*
X1356096Y975367D01*
X1355653Y975783D01*
X1355463Y976367D01*
X1355589Y976950D01*
X1355906Y977367D01*
X1356286Y977533D01*
X1356919D01*
X1357489Y977783D01*
X1357869Y978283D01*
X1357995Y978867D01*
X1357869Y979450D01*
X1357552Y979867D01*
X1357046Y980117D01*
X1356603Y980200D01*
G01X1355613Y994333D02*
X1355720Y994458D01*
X1355800Y994667D01*
X1355853Y994958D01*
X1355800Y995208D01*
X1355693Y995375D01*
X1355507Y995500D01*
X1354787D01*
Y993000D01*
X1355667D01*
X1355853Y993167D01*
X1355960Y993417D01*
X1356013Y993708D01*
X1355960Y994000D01*
X1355800Y994250D01*
X1355613Y994333D01*
X1354787D01*
G01X1357093Y993000D02*
Y995500D01*
X1358107D01*
G01X1357733Y994292D02*
X1357093D01*
G01X1359213Y995500D02*
Y993708D01*
X1359320Y993333D01*
X1359533Y993083D01*
X1359800Y993000D01*
X1360067Y993083D01*
X1360280Y993333D01*
X1360387Y993708D01*
Y995500D01*
G01X1361947Y993000D02*
X1362000Y993542D01*
X1362080Y994000D01*
X1362187Y994417D01*
X1362320Y994875D01*
X1362533Y995500D01*
X1361467D01*
G01X1363613Y993500D02*
X1363773Y993208D01*
X1363987Y993042D01*
X1364227Y993000D01*
X1364440Y993042D01*
X1364653Y993250D01*
X1364787Y993500D01*
X1364813Y993750D01*
X1364760Y994042D01*
X1364573Y994250D01*
X1364387Y994333D01*
X1364147D01*
G01X1364387D02*
X1364547Y994458D01*
X1364680Y994667D01*
X1364733Y994917D01*
X1364680Y995167D01*
X1364547Y995375D01*
X1364307Y995500D01*
X1364067Y995458D01*
X1363827Y995292D01*
G01X1366400Y995500D02*
X1366187Y995417D01*
X1366027Y995208D01*
X1365920Y994958D01*
X1365840Y994625D01*
X1365813Y994250D01*
X1365840Y993875D01*
X1365920Y993542D01*
X1366027Y993292D01*
X1366187Y993083D01*
X1366400Y993000D01*
X1366613Y993083D01*
X1366773Y993292D01*
X1366880Y993542D01*
X1366960Y993875D01*
X1366987Y994250D01*
X1366960Y994625D01*
X1366880Y994958D01*
X1366773Y995208D01*
X1366613Y995417D01*
X1366400Y995500D01*
G01X1368093Y993000D02*
Y995500D01*
X1369107D01*
G01X1368733Y994292D02*
X1368093D01*
G01X1363100Y983800D02*
Y981200D01*
X1356900D01*
Y983800D01*
X1363100D01*
G01X1366233Y996600D02*
Y1001600D01*
X1367816D01*
X1368323Y1001350D01*
X1368639Y1001017D01*
X1368766Y1000350D01*
X1368639Y999683D01*
X1368259Y999267D01*
X1367816Y999017D01*
X1366233D01*
G01X1367816D02*
X1368766Y996600D01*
G01X1372597D02*
Y1001600D01*
X1371838Y1000600D01*
G01Y996600D02*
X1373357D01*
G01X1376303Y997600D02*
X1376682Y997017D01*
X1377189Y996683D01*
X1377759Y996600D01*
X1378265Y996683D01*
X1378772Y997100D01*
X1379088Y997600D01*
X1379152Y998100D01*
X1379025Y998683D01*
X1378582Y999100D01*
X1378139Y999267D01*
X1377569D01*
G01X1378139D02*
X1378519Y999517D01*
X1378835Y999933D01*
X1378962Y1000433D01*
X1378835Y1000933D01*
X1378519Y1001350D01*
X1377949Y1001600D01*
X1377379Y1001517D01*
X1376809Y1001183D01*
G01X1369400Y993700D02*
Y996300D01*
X1375600D01*
Y993700D01*
X1369400D01*
G01X1366133Y1003800D02*
Y1008800D01*
X1367716D01*
X1368223Y1008550D01*
X1368539Y1008217D01*
X1368666Y1007550D01*
X1368539Y1006883D01*
X1368159Y1006467D01*
X1367716Y1006217D01*
X1366133D01*
G01X1367716D02*
X1368666Y1003800D01*
G01X1372497D02*
Y1008800D01*
X1371738Y1007800D01*
G01Y1003800D02*
X1373257D01*
G01X1376203Y1004550D02*
X1376582Y1004133D01*
X1377026Y1003883D01*
X1377595Y1003800D01*
X1378165Y1003967D01*
X1378609Y1004300D01*
X1378925Y1004883D01*
X1378988Y1005550D01*
X1378862Y1006217D01*
X1378545Y1006633D01*
X1378102Y1006967D01*
X1377659Y1007050D01*
X1377216Y1006967D01*
X1376646Y1006633D01*
X1376836Y1008800D01*
X1378545D01*
G01X1369400Y1001200D02*
Y1003800D01*
X1375600D01*
Y1001200D01*
X1369400D01*
G01X1356900D02*
Y1003800D01*
X1363100D01*
Y1001200D01*
X1356900D01*
G01X1363100Y1028800D02*
Y1026200D01*
X1356900D01*
Y1028800D01*
X1363100D01*
G01X1354033Y1021300D02*
Y1026300D01*
X1355616D01*
X1356123Y1026050D01*
X1356439Y1025717D01*
X1356566Y1025050D01*
X1356439Y1024383D01*
X1356059Y1023967D01*
X1355616Y1023717D01*
X1354033D01*
G01X1355616D02*
X1356566Y1021300D01*
G01X1359194Y1025467D02*
X1359574Y1025967D01*
X1360018Y1026217D01*
X1360524Y1026300D01*
X1361157Y1026133D01*
X1361601Y1025717D01*
X1361727Y1025217D01*
X1361664Y1024717D01*
X1361411Y1024300D01*
X1360144Y1023467D01*
X1359574Y1022883D01*
X1359194Y1022050D01*
X1359068Y1021300D01*
X1361727D01*
G01X1364103Y1022300D02*
X1364482Y1021717D01*
X1364989Y1021383D01*
X1365559Y1021300D01*
X1366065Y1021383D01*
X1366572Y1021800D01*
X1366888Y1022300D01*
X1366952Y1022800D01*
X1366825Y1023383D01*
X1366382Y1023800D01*
X1365939Y1023967D01*
X1365369D01*
G01X1365939D02*
X1366319Y1024217D01*
X1366635Y1024633D01*
X1366762Y1025133D01*
X1366635Y1025633D01*
X1366319Y1026050D01*
X1365749Y1026300D01*
X1365179Y1026217D01*
X1364609Y1025883D01*
G01X1356900Y1018700D02*
Y1021300D01*
X1363100D01*
Y1018700D01*
X1356900D01*
G01X1365533Y1011900D02*
Y1016900D01*
X1367116D01*
X1367623Y1016650D01*
X1367939Y1016317D01*
X1368066Y1015650D01*
X1367939Y1014983D01*
X1367559Y1014567D01*
X1367116Y1014317D01*
X1365533D01*
G01X1367116D02*
X1368066Y1011900D01*
G01X1370694Y1016067D02*
X1371074Y1016567D01*
X1371518Y1016817D01*
X1372024Y1016900D01*
X1372657Y1016733D01*
X1373101Y1016317D01*
X1373227Y1015817D01*
X1373164Y1015317D01*
X1372911Y1014900D01*
X1371644Y1014067D01*
X1371074Y1013483D01*
X1370694Y1012650D01*
X1370568Y1011900D01*
X1373227D01*
G01X1377755D02*
Y1016900D01*
X1375413Y1013317D01*
X1378578D01*
G01X1369400Y1008700D02*
Y1011300D01*
X1375600D01*
Y1008700D01*
X1369400D01*
G01X1378167Y1053300D02*
Y1048300D01*
X1376584D01*
X1376077Y1048550D01*
X1375761Y1048883D01*
X1375634Y1049550D01*
X1375761Y1050217D01*
X1376141Y1050633D01*
X1376584Y1050883D01*
X1378167D01*
G01X1376584D02*
X1375634Y1053300D01*
G01X1373006Y1049133D02*
X1372626Y1048633D01*
X1372182Y1048383D01*
X1371676Y1048300D01*
X1371043Y1048467D01*
X1370599Y1048883D01*
X1370473Y1049383D01*
X1370536Y1049883D01*
X1370789Y1050300D01*
X1372056Y1051133D01*
X1372626Y1051717D01*
X1373006Y1052550D01*
X1373132Y1053300D01*
X1370473D01*
G01X1374333Y1036700D02*
Y1041700D01*
X1375916D01*
X1376423Y1041450D01*
X1376739Y1041117D01*
X1376866Y1040450D01*
X1376739Y1039783D01*
X1376359Y1039367D01*
X1375916Y1039117D01*
X1374333D01*
G01X1375916D02*
X1376866Y1036700D01*
G01X1379305Y1037450D02*
X1379684Y1037033D01*
X1380128Y1036783D01*
X1380697Y1036700D01*
X1381267Y1036867D01*
X1381711Y1037200D01*
X1382027Y1037783D01*
X1382090Y1038450D01*
X1381964Y1039117D01*
X1381647Y1039533D01*
X1381204Y1039867D01*
X1380761Y1039950D01*
X1380318Y1039867D01*
X1379748Y1039533D01*
X1379938Y1041700D01*
X1381647D01*
G01X1374400Y1033700D02*
Y1036300D01*
X1380600D01*
Y1033700D01*
X1374400D01*
G01X1356900D02*
Y1036300D01*
X1363100D01*
Y1033700D01*
X1356900D01*
G01X1355000Y1042500D02*
Y1062500D01*
G01X1380000Y1079000D02*
X1360000D01*
Y1071000D01*
X1380000D01*
Y1079000D01*
G01X1378100Y1056300D02*
Y1053700D01*
X1371900D01*
Y1056300D01*
X1378100D01*
G01X1384367Y1062500D02*
Y1057500D01*
X1382784D01*
X1382277Y1057750D01*
X1381961Y1058083D01*
X1381834Y1058750D01*
X1381961Y1059417D01*
X1382341Y1059833D01*
X1382784Y1060083D01*
X1384367D01*
G01X1382784D02*
X1381834Y1062500D01*
G01X1379395Y1061500D02*
X1379016Y1062083D01*
X1378509Y1062417D01*
X1377939Y1062500D01*
X1377433Y1062417D01*
X1376926Y1062000D01*
X1376610Y1061500D01*
X1376546Y1061000D01*
X1376673Y1060417D01*
X1377116Y1060000D01*
X1377559Y1059833D01*
X1378129D01*
G01X1377559D02*
X1377179Y1059583D01*
X1376863Y1059167D01*
X1376736Y1058667D01*
X1376863Y1058167D01*
X1377179Y1057750D01*
X1377749Y1057500D01*
X1378319Y1057583D01*
X1378889Y1057917D01*
G01X1383100Y1066300D02*
Y1063700D01*
X1376900D01*
Y1066300D01*
X1383100D01*
G01X1359567Y1082900D02*
Y1080400D01*
X1360633D01*
G01X1361607D02*
Y1082900D01*
X1362300Y1080817D01*
X1362993Y1082900D01*
Y1080400D01*
G01X1365087Y1082692D02*
X1364927Y1082817D01*
X1364740Y1082900D01*
X1364527D01*
X1364287Y1082775D01*
X1364100Y1082567D01*
X1363967Y1082317D01*
X1363860Y1081900D01*
X1363833Y1081525D01*
X1363887Y1081150D01*
X1363967Y1080900D01*
X1364127Y1080650D01*
X1364313Y1080483D01*
X1364500Y1080400D01*
X1364687D01*
X1364873Y1080483D01*
X1365033Y1080608D01*
X1365167Y1080775D01*
G01X1366113D02*
X1366273Y1080567D01*
X1366460Y1080442D01*
X1366700Y1080400D01*
X1366940Y1080483D01*
X1367127Y1080650D01*
X1367260Y1080942D01*
X1367287Y1081275D01*
X1367233Y1081608D01*
X1367100Y1081817D01*
X1366913Y1081983D01*
X1366727Y1082025D01*
X1366540Y1081983D01*
X1366300Y1081817D01*
X1366380Y1082900D01*
X1367100D01*
G01X1368313Y1080775D02*
X1368473Y1080567D01*
X1368660Y1080442D01*
X1368900Y1080400D01*
X1369140Y1080483D01*
X1369327Y1080650D01*
X1369460Y1080942D01*
X1369487Y1081275D01*
X1369433Y1081608D01*
X1369300Y1081817D01*
X1369113Y1081983D01*
X1368927Y1082025D01*
X1368740Y1081983D01*
X1368500Y1081817D01*
X1368580Y1082900D01*
X1369300D01*
G01X1370513Y1080775D02*
X1370673Y1080567D01*
X1370860Y1080442D01*
X1371100Y1080400D01*
X1371340Y1080483D01*
X1371527Y1080650D01*
X1371660Y1080942D01*
X1371687Y1081275D01*
X1371633Y1081608D01*
X1371500Y1081817D01*
X1371313Y1081983D01*
X1371127Y1082025D01*
X1370940Y1081983D01*
X1370700Y1081817D01*
X1370780Y1082900D01*
X1371500D01*
G01X1372500Y1079567D02*
X1374100D01*
G01X1376033Y1080400D02*
X1374967D01*
Y1082900D01*
X1376033D01*
G01X1375607Y1081692D02*
X1374967D01*
G01X1377087Y1080400D02*
Y1082900D01*
X1378313Y1080400D01*
Y1082900D01*
G01X1394317Y991777D02*
Y988194D01*
X1394570Y987444D01*
X1395076Y986944D01*
X1395709Y986777D01*
X1396343Y986944D01*
X1396849Y987444D01*
X1397102Y988194D01*
Y991777D01*
G01X1400807Y986777D02*
Y991777D01*
X1400048Y990777D01*
G01Y986777D02*
X1401567D01*
G01X1404702Y990944D02*
X1405082Y991444D01*
X1405526Y991694D01*
X1406032Y991777D01*
X1406665Y991610D01*
X1407109Y991194D01*
X1407235Y990694D01*
X1407172Y990194D01*
X1406919Y989777D01*
X1405652Y988944D01*
X1405082Y988360D01*
X1404702Y987527D01*
X1404576Y986777D01*
X1407235D01*
G01X1388928Y981950D02*
X1392472D01*
Y988250D01*
X1388928D01*
Y981950D01*
G01X1400113Y1015233D02*
X1400220Y1015358D01*
X1400300Y1015567D01*
X1400353Y1015858D01*
X1400300Y1016108D01*
X1400193Y1016275D01*
X1400007Y1016400D01*
X1399287D01*
Y1013900D01*
X1400167D01*
X1400353Y1014067D01*
X1400460Y1014317D01*
X1400513Y1014608D01*
X1400460Y1014900D01*
X1400300Y1015150D01*
X1400113Y1015233D01*
X1399287D01*
G01X1401433Y1013900D02*
X1402100Y1016400D01*
X1402767Y1013900D01*
G01X1402527Y1014775D02*
X1401673D01*
G01X1403740Y1014233D02*
X1403953Y1014025D01*
X1404193Y1013900D01*
X1404407D01*
X1404620Y1014025D01*
X1404780Y1014233D01*
X1404860Y1014525D01*
X1404807Y1014817D01*
X1404673Y1015067D01*
X1404433Y1015233D01*
X1404113Y1015317D01*
X1403927Y1015483D01*
X1403847Y1015775D01*
X1403900Y1016067D01*
X1404033Y1016275D01*
X1404220Y1016400D01*
X1404407D01*
X1404593Y1016317D01*
X1404753Y1016108D01*
G01X1406447Y1013900D02*
X1406500Y1014442D01*
X1406580Y1014900D01*
X1406687Y1015317D01*
X1406820Y1015775D01*
X1407033Y1016400D01*
X1405967D01*
G01X1408700D02*
X1408487Y1016317D01*
X1408327Y1016108D01*
X1408220Y1015858D01*
X1408140Y1015525D01*
X1408113Y1015150D01*
X1408140Y1014775D01*
X1408220Y1014442D01*
X1408327Y1014192D01*
X1408487Y1013983D01*
X1408700Y1013900D01*
X1408913Y1013983D01*
X1409073Y1014192D01*
X1409180Y1014442D01*
X1409260Y1014775D01*
X1409287Y1015150D01*
X1409260Y1015525D01*
X1409180Y1015858D01*
X1409073Y1016108D01*
X1408913Y1016317D01*
X1408700Y1016400D01*
G01X1410100Y1013067D02*
X1411700D01*
G01X1413100Y1016400D02*
X1412887Y1016317D01*
X1412727Y1016108D01*
X1412620Y1015858D01*
X1412540Y1015525D01*
X1412513Y1015150D01*
X1412540Y1014775D01*
X1412620Y1014442D01*
X1412727Y1014192D01*
X1412887Y1013983D01*
X1413100Y1013900D01*
X1413313Y1013983D01*
X1413473Y1014192D01*
X1413580Y1014442D01*
X1413660Y1014775D01*
X1413687Y1015150D01*
X1413660Y1015525D01*
X1413580Y1015858D01*
X1413473Y1016108D01*
X1413313Y1016317D01*
X1413100Y1016400D01*
G01X1415620Y1013900D02*
Y1016400D01*
X1414633Y1014608D01*
X1415967D01*
G01X1390667Y1033300D02*
Y1028300D01*
X1389084D01*
X1388577Y1028550D01*
X1388261Y1028883D01*
X1388134Y1029550D01*
X1388261Y1030217D01*
X1388641Y1030633D01*
X1389084Y1030883D01*
X1390667D01*
G01X1389084D02*
X1388134Y1033300D01*
G01X1385506Y1031217D02*
X1385062Y1030633D01*
X1384682Y1030300D01*
X1384176Y1030133D01*
X1383733Y1030300D01*
X1383416Y1030633D01*
X1383163Y1031133D01*
X1383099Y1031717D01*
X1383163Y1032217D01*
X1383416Y1032717D01*
X1383796Y1033133D01*
X1384239Y1033300D01*
X1384746Y1033133D01*
X1385189Y1032633D01*
X1385442Y1031883D01*
X1385506Y1031050D01*
X1385379Y1029967D01*
X1385189Y1029383D01*
X1384872Y1028800D01*
X1384429Y1028383D01*
X1383986Y1028300D01*
X1383543Y1028467D01*
X1383226Y1028883D01*
G01X1390600Y1036300D02*
Y1033700D01*
X1384400D01*
Y1036300D01*
X1390600D01*
G01X1389267Y1039300D02*
Y1036800D01*
X1390333D01*
G01X1391307D02*
Y1039300D01*
X1392000Y1037217D01*
X1392693Y1039300D01*
Y1036800D01*
G01X1394787Y1039092D02*
X1394627Y1039217D01*
X1394440Y1039300D01*
X1394227D01*
X1393987Y1039175D01*
X1393800Y1038967D01*
X1393667Y1038717D01*
X1393560Y1038300D01*
X1393533Y1037925D01*
X1393587Y1037550D01*
X1393667Y1037300D01*
X1393827Y1037050D01*
X1394013Y1036883D01*
X1394200Y1036800D01*
X1394387D01*
X1394573Y1036883D01*
X1394733Y1037008D01*
X1394867Y1037175D01*
G01X1395813D02*
X1395973Y1036967D01*
X1396160Y1036842D01*
X1396400Y1036800D01*
X1396640Y1036883D01*
X1396827Y1037050D01*
X1396960Y1037342D01*
X1396987Y1037675D01*
X1396933Y1038008D01*
X1396800Y1038217D01*
X1396613Y1038383D01*
X1396427Y1038425D01*
X1396240Y1038383D01*
X1396000Y1038217D01*
X1396080Y1039300D01*
X1396800D01*
G01X1398013Y1037175D02*
X1398173Y1036967D01*
X1398360Y1036842D01*
X1398600Y1036800D01*
X1398840Y1036883D01*
X1399027Y1037050D01*
X1399160Y1037342D01*
X1399187Y1037675D01*
X1399133Y1038008D01*
X1399000Y1038217D01*
X1398813Y1038383D01*
X1398627Y1038425D01*
X1398440Y1038383D01*
X1398200Y1038217D01*
X1398280Y1039300D01*
X1399000D01*
G01X1400213Y1037175D02*
X1400373Y1036967D01*
X1400560Y1036842D01*
X1400800Y1036800D01*
X1401040Y1036883D01*
X1401227Y1037050D01*
X1401360Y1037342D01*
X1401387Y1037675D01*
X1401333Y1038008D01*
X1401200Y1038217D01*
X1401013Y1038383D01*
X1400827Y1038425D01*
X1400640Y1038383D01*
X1400400Y1038217D01*
X1400480Y1039300D01*
X1401200D01*
G01X1388250Y1040000D02*
Y1060000D01*
X1401750D01*
Y1040000D01*
X1388250D01*
G01X1390000Y1060000D02*
Y1040000D01*
G01X1384984Y1071001D02*
X1404984D01*
G01X1384984Y1079001D02*
Y1071001D01*
G01X1394367Y1071200D02*
Y1066200D01*
X1392784D01*
X1392277Y1066450D01*
X1391961Y1066783D01*
X1391834Y1067450D01*
X1391961Y1068117D01*
X1392341Y1068533D01*
X1392784Y1068783D01*
X1394367D01*
G01X1392784D02*
X1391834Y1071200D01*
G01X1387243D02*
Y1066200D01*
X1389585Y1069783D01*
X1386420D01*
G01X1393100Y1066300D02*
Y1063700D01*
X1386900D01*
Y1066300D01*
X1393100D01*
G01X1387463Y1063500D02*
Y1061708D01*
X1387570Y1061333D01*
X1387783Y1061083D01*
X1388050Y1061000D01*
X1388317Y1061083D01*
X1388530Y1061333D01*
X1388637Y1061708D01*
Y1063500D01*
G01X1390250Y1061000D02*
Y1063500D01*
X1389930Y1063000D01*
G01Y1061000D02*
X1390570D01*
G01X1392250Y1057500D02*
G03I-1000J0D01*
G01X1382307Y1081233D02*
X1382947D01*
G01X1382600Y1081775D02*
Y1080692D01*
G01X1384240Y1080733D02*
X1384453Y1080525D01*
X1384693Y1080400D01*
X1384907D01*
X1385120Y1080525D01*
X1385280Y1080733D01*
X1385360Y1081025D01*
X1385307Y1081317D01*
X1385173Y1081567D01*
X1384933Y1081733D01*
X1384613Y1081817D01*
X1384427Y1081983D01*
X1384347Y1082275D01*
X1384400Y1082567D01*
X1384533Y1082775D01*
X1384720Y1082900D01*
X1384907D01*
X1385093Y1082817D01*
X1385253Y1082608D01*
G01X1387427Y1081858D02*
X1387240Y1082025D01*
X1387080Y1082067D01*
X1386867Y1081983D01*
X1386707Y1081817D01*
X1386600Y1081525D01*
X1386573Y1081233D01*
X1386600Y1080942D01*
X1386707Y1080692D01*
X1386867Y1080483D01*
X1387080Y1080400D01*
X1387267Y1080483D01*
X1387427Y1080650D01*
G01X1389200Y1080400D02*
X1389040Y1080442D01*
X1388880Y1080608D01*
X1388773Y1080900D01*
X1388720Y1081233D01*
X1388773Y1081567D01*
X1388880Y1081858D01*
X1389040Y1082025D01*
X1389200Y1082067D01*
X1389360Y1082025D01*
X1389520Y1081858D01*
X1389627Y1081567D01*
X1389653Y1081233D01*
X1389627Y1080900D01*
X1389520Y1080608D01*
X1389360Y1080442D01*
X1389200Y1080400D01*
G01X1390920Y1079567D02*
Y1082067D01*
G01Y1081692D02*
X1391053Y1081900D01*
X1391187Y1082025D01*
X1391400Y1082067D01*
X1391587Y1082025D01*
X1391773Y1081817D01*
X1391853Y1081525D01*
X1391880Y1081233D01*
X1391853Y1080942D01*
X1391773Y1080650D01*
X1391613Y1080483D01*
X1391400Y1080400D01*
X1391213Y1080442D01*
X1391027Y1080567D01*
X1390920Y1080733D01*
G01X1393200Y1081525D02*
X1394053D01*
X1393973Y1081817D01*
X1393840Y1081983D01*
X1393653Y1082067D01*
X1393467Y1082025D01*
X1393307Y1081900D01*
X1393200Y1081608D01*
X1393147Y1081358D01*
Y1081108D01*
X1393200Y1080858D01*
X1393333Y1080608D01*
X1393493Y1080442D01*
X1393680Y1080400D01*
X1393867Y1080483D01*
X1394053Y1080733D01*
G01X1395000Y1079567D02*
X1396600D01*
G01X1398000Y1082900D02*
Y1080400D01*
G01X1397387Y1082900D02*
X1398613D01*
G01X1399827Y1080400D02*
Y1082067D01*
G01Y1081733D02*
X1399960Y1081900D01*
X1400093Y1082025D01*
X1400280Y1082067D01*
X1400413Y1082025D01*
X1400573Y1081900D01*
G01X1402400Y1082067D02*
Y1080400D01*
G01Y1082733D02*
X1402347Y1082775D01*
Y1082858D01*
X1402400Y1082900D01*
X1402453Y1082858D01*
Y1082775D01*
X1402400Y1082733D01*
G01X1404227Y1079775D02*
X1404413Y1079608D01*
X1404627Y1079567D01*
X1404813Y1079608D01*
X1404973Y1079817D01*
X1405080Y1080108D01*
Y1082067D01*
G01Y1081733D02*
X1404973Y1081900D01*
X1404813Y1082025D01*
X1404627Y1082067D01*
X1404413Y1081983D01*
X1404280Y1081817D01*
X1404173Y1081525D01*
X1404120Y1081233D01*
X1404147Y1080983D01*
X1404253Y1080692D01*
X1404413Y1080483D01*
X1404627Y1080400D01*
X1404787Y1080442D01*
X1404973Y1080608D01*
X1405080Y1080775D01*
G01X1406453Y1081233D02*
X1407147D01*
G01X1404984Y1079001D02*
X1384984D01*
G01X1423767Y977100D02*
Y972100D01*
X1422184D01*
X1421677Y972350D01*
X1421361Y972683D01*
X1421234Y973350D01*
X1421361Y974017D01*
X1421741Y974433D01*
X1422184Y974683D01*
X1423767D01*
G01X1422184D02*
X1421234Y977100D01*
G01X1418795Y976350D02*
X1418416Y976767D01*
X1417972Y977017D01*
X1417403Y977100D01*
X1416833Y976933D01*
X1416389Y976600D01*
X1416073Y976017D01*
X1416010Y975350D01*
X1416136Y974683D01*
X1416453Y974267D01*
X1416896Y973933D01*
X1417339Y973850D01*
X1417782Y973933D01*
X1418352Y974267D01*
X1418162Y972100D01*
X1416453D01*
G01X1413697Y976100D02*
X1413318Y976683D01*
X1412811Y977017D01*
X1412241Y977100D01*
X1411735Y977017D01*
X1411228Y976600D01*
X1410912Y976100D01*
X1410848Y975600D01*
X1410975Y975017D01*
X1411418Y974600D01*
X1411861Y974433D01*
X1412431D01*
G01X1411861D02*
X1411481Y974183D01*
X1411165Y973767D01*
X1411038Y973267D01*
X1411165Y972767D01*
X1411481Y972350D01*
X1412051Y972100D01*
X1412621Y972183D01*
X1413191Y972517D01*
G01X1425667Y998300D02*
Y993300D01*
X1424084D01*
X1423577Y993550D01*
X1423261Y993883D01*
X1423134Y994550D01*
X1423261Y995217D01*
X1423641Y995633D01*
X1424084Y995883D01*
X1425667D01*
G01X1424084D02*
X1423134Y998300D01*
G01X1420695Y997550D02*
X1420316Y997967D01*
X1419872Y998217D01*
X1419303Y998300D01*
X1418733Y998133D01*
X1418289Y997800D01*
X1417973Y997217D01*
X1417910Y996550D01*
X1418036Y995883D01*
X1418353Y995467D01*
X1418796Y995133D01*
X1419239Y995050D01*
X1419682Y995133D01*
X1420252Y995467D01*
X1420062Y993300D01*
X1418353D01*
G01X1415408Y994133D02*
X1415028Y993633D01*
X1414584Y993383D01*
X1414078Y993300D01*
X1413445Y993467D01*
X1413001Y993883D01*
X1412875Y994383D01*
X1412938Y994883D01*
X1413191Y995300D01*
X1414458Y996133D01*
X1415028Y996717D01*
X1415408Y997550D01*
X1415534Y998300D01*
X1412875D01*
G01X1425600Y1001300D02*
Y998700D01*
X1419400D01*
Y1001300D01*
X1425600D01*
G01X1425100Y981300D02*
Y978700D01*
X1418900D01*
Y981300D01*
X1425100D01*
G01X1429970Y1019000D02*
G03I-1970J0D01*
G01X1428267Y1027100D02*
Y1022100D01*
X1426684D01*
X1426177Y1022350D01*
X1425861Y1022683D01*
X1425734Y1023350D01*
X1425861Y1024017D01*
X1426241Y1024433D01*
X1426684Y1024683D01*
X1428267D01*
G01X1426684D02*
X1425734Y1027100D01*
G01X1423295Y1026350D02*
X1422916Y1026767D01*
X1422472Y1027017D01*
X1421903Y1027100D01*
X1421333Y1026933D01*
X1420889Y1026600D01*
X1420573Y1026017D01*
X1420510Y1025350D01*
X1420636Y1024683D01*
X1420953Y1024267D01*
X1421396Y1023933D01*
X1421839Y1023850D01*
X1422282Y1023933D01*
X1422852Y1024267D01*
X1422662Y1022100D01*
X1420953D01*
G01X1416805Y1027100D02*
Y1022100D01*
X1417564Y1023100D01*
G01Y1027100D02*
X1416045D01*
G01X1426267Y1047400D02*
Y1042400D01*
X1424684D01*
X1424177Y1042650D01*
X1423861Y1042983D01*
X1423734Y1043650D01*
X1423861Y1044317D01*
X1424241Y1044733D01*
X1424684Y1044983D01*
X1426267D01*
G01X1424684D02*
X1423734Y1047400D01*
G01X1421295Y1046650D02*
X1420916Y1047067D01*
X1420472Y1047317D01*
X1419903Y1047400D01*
X1419333Y1047233D01*
X1418889Y1046900D01*
X1418573Y1046317D01*
X1418510Y1045650D01*
X1418636Y1044983D01*
X1418953Y1044567D01*
X1419396Y1044233D01*
X1419839Y1044150D01*
X1420282Y1044233D01*
X1420852Y1044567D01*
X1420662Y1042400D01*
X1418953D01*
G01X1414805D02*
X1415311Y1042567D01*
X1415691Y1042983D01*
X1415944Y1043483D01*
X1416134Y1044150D01*
X1416197Y1044900D01*
X1416134Y1045650D01*
X1415944Y1046317D01*
X1415691Y1046817D01*
X1415311Y1047233D01*
X1414805Y1047400D01*
X1414298Y1047233D01*
X1413918Y1046817D01*
X1413665Y1046317D01*
X1413475Y1045650D01*
X1413412Y1044900D01*
X1413475Y1044150D01*
X1413665Y1043483D01*
X1413918Y1042983D01*
X1414298Y1042567D01*
X1414805Y1042400D01*
G01X1425100Y1051300D02*
Y1048700D01*
X1418900D01*
Y1051300D01*
X1425100D01*
G01X1425600Y1031300D02*
Y1028700D01*
X1419400D01*
Y1031300D01*
X1425600D01*
G01X1428970Y1069500D02*
G03I-1970J0D01*
G01X1404984Y1071001D02*
Y1079001D01*
G01X1456467Y977200D02*
Y972200D01*
X1454884D01*
X1454377Y972450D01*
X1454061Y972783D01*
X1453934Y973450D01*
X1454061Y974117D01*
X1454441Y974533D01*
X1454884Y974783D01*
X1456467D01*
G01X1454884D02*
X1453934Y977200D01*
G01X1451495Y976200D02*
X1451116Y976783D01*
X1450609Y977117D01*
X1450039Y977200D01*
X1449533Y977117D01*
X1449026Y976700D01*
X1448710Y976200D01*
X1448646Y975700D01*
X1448773Y975117D01*
X1449216Y974700D01*
X1449659Y974533D01*
X1450229D01*
G01X1449659D02*
X1449279Y974283D01*
X1448963Y973867D01*
X1448836Y973367D01*
X1448963Y972867D01*
X1449279Y972450D01*
X1449849Y972200D01*
X1450419Y972283D01*
X1450989Y972617D01*
G01X1446081Y976617D02*
X1445638Y977033D01*
X1445131Y977200D01*
X1444625Y977033D01*
X1444181Y976533D01*
X1443865Y975783D01*
X1443738Y975033D01*
Y974117D01*
X1443865Y973367D01*
X1444181Y972700D01*
X1444561Y972367D01*
X1445005Y972200D01*
X1445511Y972367D01*
X1445891Y972700D01*
X1446144Y973200D01*
X1446271Y973867D01*
X1446144Y974450D01*
X1445828Y975033D01*
X1445448Y975367D01*
X1445005Y975450D01*
X1444498Y975283D01*
X1444118Y974867D01*
X1443738Y974117D01*
G01X1460767Y1002300D02*
Y997300D01*
X1459184D01*
X1458677Y997550D01*
X1458361Y997883D01*
X1458234Y998550D01*
X1458361Y999217D01*
X1458741Y999633D01*
X1459184Y999883D01*
X1460767D01*
G01X1459184D02*
X1458234Y1002300D01*
G01X1455795Y1001300D02*
X1455416Y1001883D01*
X1454909Y1002217D01*
X1454339Y1002300D01*
X1453833Y1002217D01*
X1453326Y1001800D01*
X1453010Y1001300D01*
X1452946Y1000800D01*
X1453073Y1000217D01*
X1453516Y999800D01*
X1453959Y999633D01*
X1454529D01*
G01X1453959D02*
X1453579Y999383D01*
X1453263Y998967D01*
X1453136Y998467D01*
X1453263Y997967D01*
X1453579Y997550D01*
X1454149Y997300D01*
X1454719Y997383D01*
X1455289Y997717D01*
G01X1449305Y1002300D02*
X1448861Y1002217D01*
X1448355Y1001967D01*
X1448038Y1001550D01*
X1447912Y1000967D01*
X1448038Y1000383D01*
X1448418Y999883D01*
X1448988Y999633D01*
X1449621D01*
X1450001Y999467D01*
X1450318Y999050D01*
X1450444Y998467D01*
X1450254Y997883D01*
X1449811Y997467D01*
X1449305Y997300D01*
X1448798Y997467D01*
X1448355Y997883D01*
X1448165Y998467D01*
X1448291Y999050D01*
X1448608Y999467D01*
X1448988Y999633D01*
X1449621D01*
X1450191Y999883D01*
X1450571Y1000383D01*
X1450697Y1000967D01*
X1450571Y1001550D01*
X1450254Y1001967D01*
X1449748Y1002217D01*
X1449305Y1002300D01*
G01X1437713Y1004400D02*
Y1002608D01*
X1437820Y1002233D01*
X1438033Y1001983D01*
X1438300Y1001900D01*
X1438567Y1001983D01*
X1438780Y1002233D01*
X1438887Y1002608D01*
Y1004400D01*
G01X1440500Y1001900D02*
Y1004400D01*
X1440180Y1003900D01*
G01Y1001900D02*
X1440820D01*
G01X1442700Y1004400D02*
X1442487Y1004317D01*
X1442327Y1004108D01*
X1442220Y1003858D01*
X1442140Y1003525D01*
X1442113Y1003150D01*
X1442140Y1002775D01*
X1442220Y1002442D01*
X1442327Y1002192D01*
X1442487Y1001983D01*
X1442700Y1001900D01*
X1442913Y1001983D01*
X1443073Y1002192D01*
X1443180Y1002442D01*
X1443260Y1002775D01*
X1443287Y1003150D01*
X1443260Y1003525D01*
X1443180Y1003858D01*
X1443073Y1004108D01*
X1442913Y1004317D01*
X1442700Y1004400D01*
G01X1460367Y1027800D02*
Y1022800D01*
X1458784D01*
X1458277Y1023050D01*
X1457961Y1023383D01*
X1457834Y1024050D01*
X1457961Y1024717D01*
X1458341Y1025133D01*
X1458784Y1025383D01*
X1460367D01*
G01X1458784D02*
X1457834Y1027800D01*
G01X1455395Y1026800D02*
X1455016Y1027383D01*
X1454509Y1027717D01*
X1453939Y1027800D01*
X1453433Y1027717D01*
X1452926Y1027300D01*
X1452610Y1026800D01*
X1452546Y1026300D01*
X1452673Y1025717D01*
X1453116Y1025300D01*
X1453559Y1025133D01*
X1454129D01*
G01X1453559D02*
X1453179Y1024883D01*
X1452863Y1024467D01*
X1452736Y1023967D01*
X1452863Y1023467D01*
X1453179Y1023050D01*
X1453749Y1022800D01*
X1454319Y1022883D01*
X1454889Y1023217D01*
G01X1450108Y1025717D02*
X1449664Y1025133D01*
X1449284Y1024800D01*
X1448778Y1024633D01*
X1448335Y1024800D01*
X1448018Y1025133D01*
X1447765Y1025633D01*
X1447701Y1026217D01*
X1447765Y1026717D01*
X1448018Y1027217D01*
X1448398Y1027633D01*
X1448841Y1027800D01*
X1449348Y1027633D01*
X1449791Y1027133D01*
X1450044Y1026383D01*
X1450108Y1025550D01*
X1449981Y1024467D01*
X1449791Y1023883D01*
X1449474Y1023300D01*
X1449031Y1022883D01*
X1448588Y1022800D01*
X1448145Y1022967D01*
X1447828Y1023383D01*
G01X1461067Y1016800D02*
Y1011800D01*
X1459484D01*
X1458977Y1012050D01*
X1458661Y1012383D01*
X1458534Y1013050D01*
X1458661Y1013717D01*
X1459041Y1014133D01*
X1459484Y1014383D01*
X1461067D01*
G01X1459484D02*
X1458534Y1016800D01*
G01X1456095Y1015800D02*
X1455716Y1016383D01*
X1455209Y1016717D01*
X1454639Y1016800D01*
X1454133Y1016717D01*
X1453626Y1016300D01*
X1453310Y1015800D01*
X1453246Y1015300D01*
X1453373Y1014717D01*
X1453816Y1014300D01*
X1454259Y1014133D01*
X1454829D01*
G01X1454259D02*
X1453879Y1013883D01*
X1453563Y1013467D01*
X1453436Y1012967D01*
X1453563Y1012467D01*
X1453879Y1012050D01*
X1454449Y1011800D01*
X1455019Y1011883D01*
X1455589Y1012217D01*
G01X1449731Y1016800D02*
X1449605Y1015717D01*
X1449415Y1014800D01*
X1449161Y1013967D01*
X1448845Y1013050D01*
X1448338Y1011800D01*
X1450871D01*
G01X1430040Y1018600D02*
Y1021100D01*
G01X1431160D02*
Y1018600D01*
G01Y1019850D02*
X1430040D01*
G01X1432293Y1018600D02*
Y1021100D01*
X1433307D01*
G01X1432933Y1019892D02*
X1432293D01*
G01X1434333Y1018600D02*
X1435000Y1021100D01*
X1435667Y1018600D01*
G01X1435427Y1019475D02*
X1434573D01*
G01X1436613Y1019100D02*
X1436773Y1018808D01*
X1436987Y1018642D01*
X1437227Y1018600D01*
X1437440Y1018642D01*
X1437653Y1018850D01*
X1437787Y1019100D01*
X1437813Y1019350D01*
X1437760Y1019642D01*
X1437573Y1019850D01*
X1437387Y1019933D01*
X1437147D01*
G01X1437387D02*
X1437547Y1020058D01*
X1437680Y1020267D01*
X1437733Y1020517D01*
X1437680Y1020767D01*
X1437547Y1020975D01*
X1437307Y1021100D01*
X1437067Y1021058D01*
X1436827Y1020892D01*
G01X1439400Y1018600D02*
Y1021100D01*
X1439080Y1020600D01*
G01Y1018600D02*
X1439720D01*
G01X1441093Y1020683D02*
X1441253Y1020933D01*
X1441440Y1021058D01*
X1441653Y1021100D01*
X1441920Y1021017D01*
X1442107Y1020808D01*
X1442160Y1020558D01*
X1442133Y1020308D01*
X1442027Y1020100D01*
X1441493Y1019683D01*
X1441253Y1019392D01*
X1441093Y1018975D01*
X1441040Y1018600D01*
X1442160D01*
G01X1443800D02*
X1443987Y1018642D01*
X1444200Y1018767D01*
X1444333Y1018975D01*
X1444387Y1019267D01*
X1444333Y1019558D01*
X1444173Y1019808D01*
X1443933Y1019933D01*
X1443667D01*
X1443507Y1020017D01*
X1443373Y1020225D01*
X1443320Y1020517D01*
X1443400Y1020808D01*
X1443587Y1021017D01*
X1443800Y1021100D01*
X1444013Y1021017D01*
X1444200Y1020808D01*
X1444280Y1020517D01*
X1444227Y1020225D01*
X1444093Y1020017D01*
X1443933Y1019933D01*
X1443667D01*
X1443427Y1019808D01*
X1443267Y1019558D01*
X1443213Y1019267D01*
X1443267Y1018975D01*
X1443400Y1018767D01*
X1443613Y1018642D01*
X1443800Y1018600D01*
G01X1446213Y1019933D02*
X1446320Y1020058D01*
X1446400Y1020267D01*
X1446453Y1020558D01*
X1446400Y1020808D01*
X1446293Y1020975D01*
X1446107Y1021100D01*
X1445387D01*
Y1018600D01*
X1446267D01*
X1446453Y1018767D01*
X1446560Y1019017D01*
X1446613Y1019308D01*
X1446560Y1019600D01*
X1446400Y1019850D01*
X1446213Y1019933D01*
X1445387D01*
G01X1447747Y1018892D02*
X1447933Y1018683D01*
X1448147Y1018600D01*
X1448360Y1018683D01*
X1448547Y1018933D01*
X1448680Y1019308D01*
X1448733Y1019683D01*
Y1020142D01*
X1448680Y1020517D01*
X1448547Y1020850D01*
X1448387Y1021017D01*
X1448200Y1021100D01*
X1447987Y1021017D01*
X1447827Y1020850D01*
X1447720Y1020600D01*
X1447667Y1020267D01*
X1447720Y1019975D01*
X1447853Y1019683D01*
X1448013Y1019517D01*
X1448200Y1019475D01*
X1448413Y1019558D01*
X1448573Y1019767D01*
X1448733Y1020142D01*
G01X1449893Y1019642D02*
X1450080Y1019933D01*
X1450240Y1020100D01*
X1450453Y1020183D01*
X1450640Y1020100D01*
X1450773Y1019933D01*
X1450880Y1019683D01*
X1450907Y1019392D01*
X1450880Y1019142D01*
X1450773Y1018892D01*
X1450613Y1018683D01*
X1450427Y1018600D01*
X1450213Y1018683D01*
X1450027Y1018933D01*
X1449920Y1019308D01*
X1449893Y1019725D01*
X1449947Y1020267D01*
X1450027Y1020558D01*
X1450160Y1020850D01*
X1450347Y1021058D01*
X1450533Y1021100D01*
X1450720Y1021017D01*
X1450853Y1020808D01*
G01X1461567Y1052400D02*
Y1047400D01*
X1459984D01*
X1459477Y1047650D01*
X1459161Y1047983D01*
X1459034Y1048650D01*
X1459161Y1049317D01*
X1459541Y1049733D01*
X1459984Y1049983D01*
X1461567D01*
G01X1459984D02*
X1459034Y1052400D01*
G01X1456595Y1051400D02*
X1456216Y1051983D01*
X1455709Y1052317D01*
X1455139Y1052400D01*
X1454633Y1052317D01*
X1454126Y1051900D01*
X1453810Y1051400D01*
X1453746Y1050900D01*
X1453873Y1050317D01*
X1454316Y1049900D01*
X1454759Y1049733D01*
X1455329D01*
G01X1454759D02*
X1454379Y1049483D01*
X1454063Y1049067D01*
X1453936Y1048567D01*
X1454063Y1048067D01*
X1454379Y1047650D01*
X1454949Y1047400D01*
X1455519Y1047483D01*
X1456089Y1047817D01*
G01X1451497Y1051650D02*
X1451118Y1052067D01*
X1450674Y1052317D01*
X1450105Y1052400D01*
X1449535Y1052233D01*
X1449091Y1051900D01*
X1448775Y1051317D01*
X1448712Y1050650D01*
X1448838Y1049983D01*
X1449155Y1049567D01*
X1449598Y1049233D01*
X1450041Y1049150D01*
X1450484Y1049233D01*
X1451054Y1049567D01*
X1450864Y1047400D01*
X1449155D01*
G01X1438613Y1050800D02*
Y1049008D01*
X1438720Y1048633D01*
X1438933Y1048383D01*
X1439200Y1048300D01*
X1439467Y1048383D01*
X1439680Y1048633D01*
X1439787Y1049008D01*
Y1050800D01*
G01X1440947Y1048592D02*
X1441133Y1048383D01*
X1441347Y1048300D01*
X1441560Y1048383D01*
X1441747Y1048633D01*
X1441880Y1049008D01*
X1441933Y1049383D01*
Y1049842D01*
X1441880Y1050217D01*
X1441747Y1050550D01*
X1441587Y1050717D01*
X1441400Y1050800D01*
X1441187Y1050717D01*
X1441027Y1050550D01*
X1440920Y1050300D01*
X1440867Y1049967D01*
X1440920Y1049675D01*
X1441053Y1049383D01*
X1441213Y1049217D01*
X1441400Y1049175D01*
X1441613Y1049258D01*
X1441773Y1049467D01*
X1441933Y1049842D01*
G01X1465667Y1067100D02*
Y1062100D01*
X1464084D01*
X1463577Y1062350D01*
X1463261Y1062683D01*
X1463134Y1063350D01*
X1463261Y1064017D01*
X1463641Y1064433D01*
X1464084Y1064683D01*
X1465667D01*
G01X1464084D02*
X1463134Y1067100D01*
G01X1460695Y1066100D02*
X1460316Y1066683D01*
X1459809Y1067017D01*
X1459239Y1067100D01*
X1458733Y1067017D01*
X1458226Y1066600D01*
X1457910Y1066100D01*
X1457846Y1065600D01*
X1457973Y1065017D01*
X1458416Y1064600D01*
X1458859Y1064433D01*
X1459429D01*
G01X1458859D02*
X1458479Y1064183D01*
X1458163Y1063767D01*
X1458036Y1063267D01*
X1458163Y1062767D01*
X1458479Y1062350D01*
X1459049Y1062100D01*
X1459619Y1062183D01*
X1460189Y1062517D01*
G01X1453445Y1067100D02*
Y1062100D01*
X1455787Y1065683D01*
X1452622D01*
G01X1429540Y1068600D02*
Y1071100D01*
G01X1430660D02*
Y1068600D01*
G01Y1069850D02*
X1429540D01*
G01X1431793Y1068600D02*
Y1071100D01*
X1432807D01*
G01X1432433Y1069892D02*
X1431793D01*
G01X1433833Y1068600D02*
X1434500Y1071100D01*
X1435167Y1068600D01*
G01X1434927Y1069475D02*
X1434073D01*
G01X1436113Y1069100D02*
X1436273Y1068808D01*
X1436487Y1068642D01*
X1436727Y1068600D01*
X1436940Y1068642D01*
X1437153Y1068850D01*
X1437287Y1069100D01*
X1437313Y1069350D01*
X1437260Y1069642D01*
X1437073Y1069850D01*
X1436887Y1069933D01*
X1436647D01*
G01X1436887D02*
X1437047Y1070058D01*
X1437180Y1070267D01*
X1437233Y1070517D01*
X1437180Y1070767D01*
X1437047Y1070975D01*
X1436807Y1071100D01*
X1436567Y1071058D01*
X1436327Y1070892D01*
G01X1438900Y1068600D02*
Y1071100D01*
X1438580Y1070600D01*
G01Y1068600D02*
X1439220D01*
G01X1440593Y1070683D02*
X1440753Y1070933D01*
X1440940Y1071058D01*
X1441153Y1071100D01*
X1441420Y1071017D01*
X1441607Y1070808D01*
X1441660Y1070558D01*
X1441633Y1070308D01*
X1441527Y1070100D01*
X1440993Y1069683D01*
X1440753Y1069392D01*
X1440593Y1068975D01*
X1440540Y1068600D01*
X1441660D01*
G01X1443300D02*
X1443487Y1068642D01*
X1443700Y1068767D01*
X1443833Y1068975D01*
X1443887Y1069267D01*
X1443833Y1069558D01*
X1443673Y1069808D01*
X1443433Y1069933D01*
X1443167D01*
X1443007Y1070017D01*
X1442873Y1070225D01*
X1442820Y1070517D01*
X1442900Y1070808D01*
X1443087Y1071017D01*
X1443300Y1071100D01*
X1443513Y1071017D01*
X1443700Y1070808D01*
X1443780Y1070517D01*
X1443727Y1070225D01*
X1443593Y1070017D01*
X1443433Y1069933D01*
X1443167D01*
X1442927Y1069808D01*
X1442767Y1069558D01*
X1442713Y1069267D01*
X1442767Y1068975D01*
X1442900Y1068767D01*
X1443113Y1068642D01*
X1443300Y1068600D01*
G01X1445713Y1069933D02*
X1445820Y1070058D01*
X1445900Y1070267D01*
X1445953Y1070558D01*
X1445900Y1070808D01*
X1445793Y1070975D01*
X1445607Y1071100D01*
X1444887D01*
Y1068600D01*
X1445767D01*
X1445953Y1068767D01*
X1446060Y1069017D01*
X1446113Y1069308D01*
X1446060Y1069600D01*
X1445900Y1069850D01*
X1445713Y1069933D01*
X1444887D01*
G01X1447247Y1068892D02*
X1447433Y1068683D01*
X1447647Y1068600D01*
X1447860Y1068683D01*
X1448047Y1068933D01*
X1448180Y1069308D01*
X1448233Y1069683D01*
Y1070142D01*
X1448180Y1070517D01*
X1448047Y1070850D01*
X1447887Y1071017D01*
X1447700Y1071100D01*
X1447487Y1071017D01*
X1447327Y1070850D01*
X1447220Y1070600D01*
X1447167Y1070267D01*
X1447220Y1069975D01*
X1447353Y1069683D01*
X1447513Y1069517D01*
X1447700Y1069475D01*
X1447913Y1069558D01*
X1448073Y1069767D01*
X1448233Y1070142D01*
G01X1449393Y1069642D02*
X1449580Y1069933D01*
X1449740Y1070100D01*
X1449953Y1070183D01*
X1450140Y1070100D01*
X1450273Y1069933D01*
X1450380Y1069683D01*
X1450407Y1069392D01*
X1450380Y1069142D01*
X1450273Y1068892D01*
X1450113Y1068683D01*
X1449927Y1068600D01*
X1449713Y1068683D01*
X1449527Y1068933D01*
X1449420Y1069308D01*
X1449393Y1069725D01*
X1449447Y1070267D01*
X1449527Y1070558D01*
X1449660Y1070850D01*
X1449847Y1071058D01*
X1450033Y1071100D01*
X1450220Y1071017D01*
X1450353Y1070808D01*
G01X1475567Y977800D02*
Y972800D01*
X1473984D01*
X1473477Y973050D01*
X1473161Y973383D01*
X1473034Y974050D01*
X1473161Y974717D01*
X1473541Y975133D01*
X1473984Y975383D01*
X1475567D01*
G01X1473984D02*
X1473034Y977800D01*
G01X1468443D02*
Y972800D01*
X1470785Y976383D01*
X1467620D01*
G01X1465308Y973633D02*
X1464928Y973133D01*
X1464484Y972883D01*
X1463978Y972800D01*
X1463345Y972967D01*
X1462901Y973383D01*
X1462775Y973883D01*
X1462838Y974383D01*
X1463091Y974800D01*
X1464358Y975633D01*
X1464928Y976217D01*
X1465308Y977050D01*
X1465434Y977800D01*
X1462775D01*
G01X1461100Y981300D02*
Y978700D01*
X1454900D01*
Y981300D01*
X1461100D01*
G01X1483100D02*
Y978700D01*
X1476900D01*
Y981300D01*
X1483100D01*
G01X1475167Y988700D02*
Y983700D01*
X1473584D01*
X1473077Y983950D01*
X1472761Y984283D01*
X1472634Y984950D01*
X1472761Y985617D01*
X1473141Y986033D01*
X1473584Y986283D01*
X1475167D01*
G01X1473584D02*
X1472634Y988700D01*
G01X1468043D02*
Y983700D01*
X1470385Y987283D01*
X1467220D01*
G01X1465097Y987700D02*
X1464718Y988283D01*
X1464211Y988617D01*
X1463641Y988700D01*
X1463135Y988617D01*
X1462628Y988200D01*
X1462312Y987700D01*
X1462248Y987200D01*
X1462375Y986617D01*
X1462818Y986200D01*
X1463261Y986033D01*
X1463831D01*
G01X1463261D02*
X1462881Y985783D01*
X1462565Y985367D01*
X1462438Y984867D01*
X1462565Y984367D01*
X1462881Y983950D01*
X1463451Y983700D01*
X1464021Y983783D01*
X1464591Y984117D01*
G01X1483100Y991300D02*
Y988700D01*
X1476900D01*
Y991300D01*
X1483100D01*
G01X1475067Y1002700D02*
Y997700D01*
X1473484D01*
X1472977Y997950D01*
X1472661Y998283D01*
X1472534Y998950D01*
X1472661Y999617D01*
X1473041Y1000033D01*
X1473484Y1000283D01*
X1475067D01*
G01X1473484D02*
X1472534Y1002700D01*
G01X1467943D02*
Y997700D01*
X1470285Y1001283D01*
X1467120D01*
G01X1464681Y1002117D02*
X1464238Y1002533D01*
X1463731Y1002700D01*
X1463225Y1002533D01*
X1462781Y1002033D01*
X1462465Y1001283D01*
X1462338Y1000533D01*
Y999617D01*
X1462465Y998867D01*
X1462781Y998200D01*
X1463161Y997867D01*
X1463605Y997700D01*
X1464111Y997867D01*
X1464491Y998200D01*
X1464744Y998700D01*
X1464871Y999367D01*
X1464744Y999950D01*
X1464428Y1000533D01*
X1464048Y1000867D01*
X1463605Y1000950D01*
X1463098Y1000783D01*
X1462718Y1000367D01*
X1462338Y999617D01*
G01X1476900Y998700D02*
Y1001300D01*
X1483100D01*
Y998700D01*
X1476900D01*
G01X1461600Y1010800D02*
Y1008200D01*
X1455400D01*
Y1010800D01*
X1461600D01*
G01Y1005800D02*
Y1003200D01*
X1455400D01*
Y1005800D01*
X1461600D01*
G01X1474967Y1031600D02*
Y1026600D01*
X1473384D01*
X1472877Y1026850D01*
X1472561Y1027183D01*
X1472434Y1027850D01*
X1472561Y1028517D01*
X1472941Y1028933D01*
X1473384Y1029183D01*
X1474967D01*
G01X1473384D02*
X1472434Y1031600D01*
G01X1467843D02*
Y1026600D01*
X1470185Y1030183D01*
X1467020D01*
G01X1463505Y1026600D02*
X1464011Y1026767D01*
X1464391Y1027183D01*
X1464644Y1027683D01*
X1464834Y1028350D01*
X1464897Y1029100D01*
X1464834Y1029850D01*
X1464644Y1030517D01*
X1464391Y1031017D01*
X1464011Y1031433D01*
X1463505Y1031600D01*
X1462998Y1031433D01*
X1462618Y1031017D01*
X1462365Y1030517D01*
X1462175Y1029850D01*
X1462112Y1029100D01*
X1462175Y1028350D01*
X1462365Y1027683D01*
X1462618Y1027183D01*
X1462998Y1026767D01*
X1463505Y1026600D01*
G01X1475767Y1021600D02*
Y1016600D01*
X1474184D01*
X1473677Y1016850D01*
X1473361Y1017183D01*
X1473234Y1017850D01*
X1473361Y1018517D01*
X1473741Y1018933D01*
X1474184Y1019183D01*
X1475767D01*
G01X1474184D02*
X1473234Y1021600D01*
G01X1468643D02*
Y1016600D01*
X1470985Y1020183D01*
X1467820D01*
G01X1465697Y1020850D02*
X1465318Y1021267D01*
X1464874Y1021517D01*
X1464305Y1021600D01*
X1463735Y1021433D01*
X1463291Y1021100D01*
X1462975Y1020517D01*
X1462912Y1019850D01*
X1463038Y1019183D01*
X1463355Y1018767D01*
X1463798Y1018433D01*
X1464241Y1018350D01*
X1464684Y1018433D01*
X1465254Y1018767D01*
X1465064Y1016600D01*
X1463355D01*
G01X1483100Y1021300D02*
Y1018700D01*
X1476900D01*
Y1021300D01*
X1483100D01*
G01X1475567Y1013100D02*
Y1008100D01*
X1473984D01*
X1473477Y1008350D01*
X1473161Y1008683D01*
X1473034Y1009350D01*
X1473161Y1010017D01*
X1473541Y1010433D01*
X1473984Y1010683D01*
X1475567D01*
G01X1473984D02*
X1473034Y1013100D01*
G01X1468443D02*
Y1008100D01*
X1470785Y1011683D01*
X1467620D01*
G01X1464105Y1013100D02*
X1463661Y1013017D01*
X1463155Y1012767D01*
X1462838Y1012350D01*
X1462712Y1011767D01*
X1462838Y1011183D01*
X1463218Y1010683D01*
X1463788Y1010433D01*
X1464421D01*
X1464801Y1010267D01*
X1465118Y1009850D01*
X1465244Y1009267D01*
X1465054Y1008683D01*
X1464611Y1008267D01*
X1464105Y1008100D01*
X1463598Y1008267D01*
X1463155Y1008683D01*
X1462965Y1009267D01*
X1463091Y1009850D01*
X1463408Y1010267D01*
X1463788Y1010433D01*
X1464421D01*
X1464991Y1010683D01*
X1465371Y1011183D01*
X1465497Y1011767D01*
X1465371Y1012350D01*
X1465054Y1012767D01*
X1464548Y1013017D01*
X1464105Y1013100D01*
G01X1476900Y1008700D02*
Y1011300D01*
X1483100D01*
Y1008700D01*
X1476900D01*
G01X1461600Y1031300D02*
Y1028700D01*
X1455400D01*
Y1031300D01*
X1461600D01*
G01X1483100D02*
Y1028700D01*
X1476900D01*
Y1031300D01*
X1483100D01*
G01X1474567Y1042500D02*
Y1037500D01*
X1472984D01*
X1472477Y1037750D01*
X1472161Y1038083D01*
X1472034Y1038750D01*
X1472161Y1039417D01*
X1472541Y1039833D01*
X1472984Y1040083D01*
X1474567D01*
G01X1472984D02*
X1472034Y1042500D01*
G01X1467443D02*
Y1037500D01*
X1469785Y1041083D01*
X1466620D01*
G01X1463105Y1042500D02*
Y1037500D01*
X1463864Y1038500D01*
G01Y1042500D02*
X1462345D01*
G01X1483100Y1041300D02*
Y1038700D01*
X1476900D01*
Y1041300D01*
X1483100D01*
G01X1476267Y1052400D02*
Y1047400D01*
X1474684D01*
X1474177Y1047650D01*
X1473861Y1047983D01*
X1473734Y1048650D01*
X1473861Y1049317D01*
X1474241Y1049733D01*
X1474684Y1049983D01*
X1476267D01*
G01X1474684D02*
X1473734Y1052400D01*
G01X1469143D02*
Y1047400D01*
X1471485Y1050983D01*
X1468320D01*
G01X1464931Y1052400D02*
X1464805Y1051317D01*
X1464615Y1050400D01*
X1464361Y1049567D01*
X1464045Y1048650D01*
X1463538Y1047400D01*
X1466071D01*
G01X1476900Y1048700D02*
Y1051300D01*
X1483100D01*
Y1048700D01*
X1476900D01*
G01X1462100Y1061300D02*
Y1058700D01*
X1455900D01*
Y1061300D01*
X1462100D01*
G01X1461600Y1056300D02*
Y1053700D01*
X1455400D01*
Y1056300D01*
X1461600D01*
G01X1484867Y1077600D02*
Y1072600D01*
X1483284D01*
X1482777Y1072850D01*
X1482461Y1073183D01*
X1482334Y1073850D01*
X1482461Y1074517D01*
X1482841Y1074933D01*
X1483284Y1075183D01*
X1484867D01*
G01X1483284D02*
X1482334Y1077600D01*
G01X1477743D02*
Y1072600D01*
X1480085Y1076183D01*
X1476920D01*
G01X1472645Y1077600D02*
Y1072600D01*
X1474987Y1076183D01*
X1471822D01*
G01X1483100Y1071300D02*
Y1068700D01*
X1476900D01*
Y1071300D01*
X1483100D01*
G01X1474967Y1062300D02*
Y1057300D01*
X1473384D01*
X1472877Y1057550D01*
X1472561Y1057883D01*
X1472434Y1058550D01*
X1472561Y1059217D01*
X1472941Y1059633D01*
X1473384Y1059883D01*
X1474967D01*
G01X1473384D02*
X1472434Y1062300D01*
G01X1467843D02*
Y1057300D01*
X1470185Y1060883D01*
X1467020D01*
G01X1464708Y1060217D02*
X1464264Y1059633D01*
X1463884Y1059300D01*
X1463378Y1059133D01*
X1462935Y1059300D01*
X1462618Y1059633D01*
X1462365Y1060133D01*
X1462301Y1060717D01*
X1462365Y1061217D01*
X1462618Y1061717D01*
X1462998Y1062133D01*
X1463441Y1062300D01*
X1463948Y1062133D01*
X1464391Y1061633D01*
X1464644Y1060883D01*
X1464708Y1060050D01*
X1464581Y1058967D01*
X1464391Y1058383D01*
X1464074Y1057800D01*
X1463631Y1057383D01*
X1463188Y1057300D01*
X1462745Y1057467D01*
X1462428Y1057883D01*
G01X1476900Y1058700D02*
Y1061300D01*
X1483100D01*
Y1058700D01*
X1476900D01*
G01X1490000Y973500D02*
X1510000D01*
Y981500D01*
X1490000D01*
Y973500D01*
G01Y993500D02*
X1510000D01*
Y1001500D01*
X1490000D01*
Y993500D01*
G01Y983500D02*
X1510000D01*
Y991500D01*
X1490000D01*
Y983500D01*
G01Y1023500D02*
X1510000D01*
Y1031500D01*
X1490000D01*
Y1023500D01*
G01Y1013500D02*
X1510000D01*
Y1021500D01*
X1490000D01*
Y1013500D01*
G01Y1003500D02*
X1510000D01*
Y1011500D01*
X1490000D01*
Y1003500D01*
G01Y1043500D02*
X1510000D01*
Y1051500D01*
X1490000D01*
Y1043500D01*
G01Y1033500D02*
X1510000D01*
Y1041500D01*
X1490000D01*
Y1033500D01*
G01X1510192Y1071675D02*
X1490192D01*
G01Y1063675D02*
X1510192D01*
G01X1490192Y1071675D02*
Y1063675D01*
G01X1490000Y1053500D02*
X1510000D01*
Y1061500D01*
X1490000D01*
Y1053500D01*
G01X1520000Y973500D02*
X1540000D01*
Y981500D01*
X1520000D01*
Y973500D01*
G01X1510500Y1000900D02*
X1510287Y1000942D01*
X1510100Y1001108D01*
X1509940Y1001358D01*
X1509833Y1001650D01*
X1509780Y1001983D01*
Y1002317D01*
X1509833Y1002650D01*
X1509940Y1002942D01*
X1510100Y1003192D01*
X1510287Y1003358D01*
X1510500Y1003400D01*
X1510713Y1003358D01*
X1510900Y1003192D01*
X1511060Y1002942D01*
X1511167Y1002650D01*
X1511220Y1002317D01*
Y1001983D01*
X1511167Y1001650D01*
X1511060Y1001358D01*
X1510900Y1001108D01*
X1510713Y1000942D01*
X1510500Y1000900D01*
G01X1512113Y1003400D02*
Y1001608D01*
X1512220Y1001233D01*
X1512433Y1000983D01*
X1512700Y1000900D01*
X1512967Y1000983D01*
X1513180Y1001233D01*
X1513287Y1001608D01*
Y1003400D01*
G01X1514900D02*
Y1000900D01*
G01X1514287Y1003400D02*
X1515513D01*
G01X1516300Y1000067D02*
X1517900D01*
G01X1519300Y1000900D02*
X1519487Y1000942D01*
X1519700Y1001067D01*
X1519833Y1001275D01*
X1519887Y1001567D01*
X1519833Y1001858D01*
X1519673Y1002108D01*
X1519433Y1002233D01*
X1519167D01*
X1519007Y1002317D01*
X1518873Y1002525D01*
X1518820Y1002817D01*
X1518900Y1003108D01*
X1519087Y1003317D01*
X1519300Y1003400D01*
X1519513Y1003317D01*
X1519700Y1003108D01*
X1519780Y1002817D01*
X1519727Y1002525D01*
X1519593Y1002317D01*
X1519433Y1002233D01*
X1519167D01*
X1518927Y1002108D01*
X1518767Y1001858D01*
X1518713Y1001567D01*
X1518767Y1001275D01*
X1518900Y1001067D01*
X1519113Y1000942D01*
X1519300Y1000900D01*
G01X1510800Y990500D02*
X1510587Y990542D01*
X1510400Y990708D01*
X1510240Y990958D01*
X1510133Y991250D01*
X1510080Y991583D01*
Y991917D01*
X1510133Y992250D01*
X1510240Y992542D01*
X1510400Y992792D01*
X1510587Y992958D01*
X1510800Y993000D01*
X1511013Y992958D01*
X1511200Y992792D01*
X1511360Y992542D01*
X1511467Y992250D01*
X1511520Y991917D01*
Y991583D01*
X1511467Y991250D01*
X1511360Y990958D01*
X1511200Y990708D01*
X1511013Y990542D01*
X1510800Y990500D01*
G01X1512413Y993000D02*
Y991208D01*
X1512520Y990833D01*
X1512733Y990583D01*
X1513000Y990500D01*
X1513267Y990583D01*
X1513480Y990833D01*
X1513587Y991208D01*
Y993000D01*
G01X1515200D02*
Y990500D01*
G01X1514587Y993000D02*
X1515813D01*
G01X1516600Y989667D02*
X1518200D01*
G01X1519147Y990792D02*
X1519333Y990583D01*
X1519547Y990500D01*
X1519760Y990583D01*
X1519947Y990833D01*
X1520080Y991208D01*
X1520133Y991583D01*
Y992042D01*
X1520080Y992417D01*
X1519947Y992750D01*
X1519787Y992917D01*
X1519600Y993000D01*
X1519387Y992917D01*
X1519227Y992750D01*
X1519120Y992500D01*
X1519067Y992167D01*
X1519120Y991875D01*
X1519253Y991583D01*
X1519413Y991417D01*
X1519600Y991375D01*
X1519813Y991458D01*
X1519973Y991667D01*
X1520133Y992042D01*
G01X1510100Y980700D02*
X1509887Y980742D01*
X1509700Y980908D01*
X1509540Y981158D01*
X1509433Y981450D01*
X1509380Y981783D01*
Y982117D01*
X1509433Y982450D01*
X1509540Y982742D01*
X1509700Y982992D01*
X1509887Y983158D01*
X1510100Y983200D01*
X1510313Y983158D01*
X1510500Y982992D01*
X1510660Y982742D01*
X1510767Y982450D01*
X1510820Y982117D01*
Y981783D01*
X1510767Y981450D01*
X1510660Y981158D01*
X1510500Y980908D01*
X1510313Y980742D01*
X1510100Y980700D01*
G01X1511713Y983200D02*
Y981408D01*
X1511820Y981033D01*
X1512033Y980783D01*
X1512300Y980700D01*
X1512567Y980783D01*
X1512780Y981033D01*
X1512887Y981408D01*
Y983200D01*
G01X1514500D02*
Y980700D01*
G01X1513887Y983200D02*
X1515113D01*
G01X1515900Y979867D02*
X1517500D01*
G01X1518900Y980700D02*
Y983200D01*
X1518580Y982700D01*
G01Y980700D02*
X1519220D01*
G01X1521100Y983200D02*
X1520887Y983117D01*
X1520727Y982908D01*
X1520620Y982658D01*
X1520540Y982325D01*
X1520513Y981950D01*
X1520540Y981575D01*
X1520620Y981242D01*
X1520727Y980992D01*
X1520887Y980783D01*
X1521100Y980700D01*
X1521313Y980783D01*
X1521473Y980992D01*
X1521580Y981242D01*
X1521660Y981575D01*
X1521687Y981950D01*
X1521660Y982325D01*
X1521580Y982658D01*
X1521473Y982908D01*
X1521313Y983117D01*
X1521100Y983200D01*
G01X1520000Y993500D02*
X1540000D01*
Y1001500D01*
X1520000D01*
Y993500D01*
G01Y983500D02*
X1540000D01*
Y991500D01*
X1520000D01*
Y983500D01*
G01X1510800Y1021100D02*
X1510587Y1021142D01*
X1510400Y1021308D01*
X1510240Y1021558D01*
X1510133Y1021850D01*
X1510080Y1022183D01*
Y1022517D01*
X1510133Y1022850D01*
X1510240Y1023142D01*
X1510400Y1023392D01*
X1510587Y1023558D01*
X1510800Y1023600D01*
X1511013Y1023558D01*
X1511200Y1023392D01*
X1511360Y1023142D01*
X1511467Y1022850D01*
X1511520Y1022517D01*
Y1022183D01*
X1511467Y1021850D01*
X1511360Y1021558D01*
X1511200Y1021308D01*
X1511013Y1021142D01*
X1510800Y1021100D01*
G01X1512413Y1023600D02*
Y1021808D01*
X1512520Y1021433D01*
X1512733Y1021183D01*
X1513000Y1021100D01*
X1513267Y1021183D01*
X1513480Y1021433D01*
X1513587Y1021808D01*
Y1023600D01*
G01X1515200D02*
Y1021100D01*
G01X1514587Y1023600D02*
X1515813D01*
G01X1516600Y1020267D02*
X1518200D01*
G01X1519093Y1022142D02*
X1519280Y1022433D01*
X1519440Y1022600D01*
X1519653Y1022683D01*
X1519840Y1022600D01*
X1519973Y1022433D01*
X1520080Y1022183D01*
X1520107Y1021892D01*
X1520080Y1021642D01*
X1519973Y1021392D01*
X1519813Y1021183D01*
X1519627Y1021100D01*
X1519413Y1021183D01*
X1519227Y1021433D01*
X1519120Y1021808D01*
X1519093Y1022225D01*
X1519147Y1022767D01*
X1519227Y1023058D01*
X1519360Y1023350D01*
X1519547Y1023558D01*
X1519733Y1023600D01*
X1519920Y1023517D01*
X1520053Y1023308D01*
G01X1510700Y1010900D02*
X1510487Y1010942D01*
X1510300Y1011108D01*
X1510140Y1011358D01*
X1510033Y1011650D01*
X1509980Y1011983D01*
Y1012317D01*
X1510033Y1012650D01*
X1510140Y1012942D01*
X1510300Y1013192D01*
X1510487Y1013358D01*
X1510700Y1013400D01*
X1510913Y1013358D01*
X1511100Y1013192D01*
X1511260Y1012942D01*
X1511367Y1012650D01*
X1511420Y1012317D01*
Y1011983D01*
X1511367Y1011650D01*
X1511260Y1011358D01*
X1511100Y1011108D01*
X1510913Y1010942D01*
X1510700Y1010900D01*
G01X1512313Y1013400D02*
Y1011608D01*
X1512420Y1011233D01*
X1512633Y1010983D01*
X1512900Y1010900D01*
X1513167Y1010983D01*
X1513380Y1011233D01*
X1513487Y1011608D01*
Y1013400D01*
G01X1515100D02*
Y1010900D01*
G01X1514487Y1013400D02*
X1515713D01*
G01X1516500Y1010067D02*
X1518100D01*
G01X1519447Y1010900D02*
X1519500Y1011442D01*
X1519580Y1011900D01*
X1519687Y1012317D01*
X1519820Y1012775D01*
X1520033Y1013400D01*
X1518967D01*
G01X1520000Y1023500D02*
X1540000D01*
Y1031500D01*
X1520000D01*
Y1023500D01*
G01Y1013500D02*
X1540000D01*
Y1021500D01*
X1520000D01*
Y1013500D01*
G01Y1003500D02*
X1540000D01*
Y1011500D01*
X1520000D01*
Y1003500D01*
G01X1510000Y1050900D02*
X1509787Y1050942D01*
X1509600Y1051108D01*
X1509440Y1051358D01*
X1509333Y1051650D01*
X1509280Y1051983D01*
Y1052317D01*
X1509333Y1052650D01*
X1509440Y1052942D01*
X1509600Y1053192D01*
X1509787Y1053358D01*
X1510000Y1053400D01*
X1510213Y1053358D01*
X1510400Y1053192D01*
X1510560Y1052942D01*
X1510667Y1052650D01*
X1510720Y1052317D01*
Y1051983D01*
X1510667Y1051650D01*
X1510560Y1051358D01*
X1510400Y1051108D01*
X1510213Y1050942D01*
X1510000Y1050900D01*
G01X1511613Y1053400D02*
Y1051608D01*
X1511720Y1051233D01*
X1511933Y1050983D01*
X1512200Y1050900D01*
X1512467Y1050983D01*
X1512680Y1051233D01*
X1512787Y1051608D01*
Y1053400D01*
G01X1514400D02*
Y1050900D01*
G01X1513787Y1053400D02*
X1515013D01*
G01X1515800Y1050067D02*
X1517400D01*
G01X1518213Y1051400D02*
X1518373Y1051108D01*
X1518587Y1050942D01*
X1518827Y1050900D01*
X1519040Y1050942D01*
X1519253Y1051150D01*
X1519387Y1051400D01*
X1519413Y1051650D01*
X1519360Y1051942D01*
X1519173Y1052150D01*
X1518987Y1052233D01*
X1518747D01*
G01X1518987D02*
X1519147Y1052358D01*
X1519280Y1052567D01*
X1519333Y1052817D01*
X1519280Y1053067D01*
X1519147Y1053275D01*
X1518907Y1053400D01*
X1518667Y1053358D01*
X1518427Y1053192D01*
G01X1510700Y1040800D02*
X1510487Y1040842D01*
X1510300Y1041008D01*
X1510140Y1041258D01*
X1510033Y1041550D01*
X1509980Y1041883D01*
Y1042217D01*
X1510033Y1042550D01*
X1510140Y1042842D01*
X1510300Y1043092D01*
X1510487Y1043258D01*
X1510700Y1043300D01*
X1510913Y1043258D01*
X1511100Y1043092D01*
X1511260Y1042842D01*
X1511367Y1042550D01*
X1511420Y1042217D01*
Y1041883D01*
X1511367Y1041550D01*
X1511260Y1041258D01*
X1511100Y1041008D01*
X1510913Y1040842D01*
X1510700Y1040800D01*
G01X1512313Y1043300D02*
Y1041508D01*
X1512420Y1041133D01*
X1512633Y1040883D01*
X1512900Y1040800D01*
X1513167Y1040883D01*
X1513380Y1041133D01*
X1513487Y1041508D01*
Y1043300D01*
G01X1515100D02*
Y1040800D01*
G01X1514487Y1043300D02*
X1515713D01*
G01X1516500Y1039967D02*
X1518100D01*
G01X1519820Y1040800D02*
Y1043300D01*
X1518833Y1041508D01*
X1520167D01*
G01X1510700Y1030900D02*
X1510487Y1030942D01*
X1510300Y1031108D01*
X1510140Y1031358D01*
X1510033Y1031650D01*
X1509980Y1031983D01*
Y1032317D01*
X1510033Y1032650D01*
X1510140Y1032942D01*
X1510300Y1033192D01*
X1510487Y1033358D01*
X1510700Y1033400D01*
X1510913Y1033358D01*
X1511100Y1033192D01*
X1511260Y1032942D01*
X1511367Y1032650D01*
X1511420Y1032317D01*
Y1031983D01*
X1511367Y1031650D01*
X1511260Y1031358D01*
X1511100Y1031108D01*
X1510913Y1030942D01*
X1510700Y1030900D01*
G01X1512313Y1033400D02*
Y1031608D01*
X1512420Y1031233D01*
X1512633Y1030983D01*
X1512900Y1030900D01*
X1513167Y1030983D01*
X1513380Y1031233D01*
X1513487Y1031608D01*
Y1033400D01*
G01X1515100D02*
Y1030900D01*
G01X1514487Y1033400D02*
X1515713D01*
G01X1516500Y1030067D02*
X1518100D01*
G01X1518913Y1031275D02*
X1519073Y1031067D01*
X1519260Y1030942D01*
X1519500Y1030900D01*
X1519740Y1030983D01*
X1519927Y1031150D01*
X1520060Y1031442D01*
X1520087Y1031775D01*
X1520033Y1032108D01*
X1519900Y1032317D01*
X1519713Y1032483D01*
X1519527Y1032525D01*
X1519340Y1032483D01*
X1519100Y1032317D01*
X1519180Y1033400D01*
X1519900D01*
G01X1520000Y1043500D02*
X1540000D01*
Y1051500D01*
X1520000D01*
Y1043500D01*
G01Y1033500D02*
X1540000D01*
Y1041500D01*
X1520000D01*
Y1033500D01*
G01X1510800Y1071600D02*
X1510587Y1071642D01*
X1510400Y1071808D01*
X1510240Y1072058D01*
X1510133Y1072350D01*
X1510080Y1072683D01*
Y1073017D01*
X1510133Y1073350D01*
X1510240Y1073642D01*
X1510400Y1073892D01*
X1510587Y1074058D01*
X1510800Y1074100D01*
X1511013Y1074058D01*
X1511200Y1073892D01*
X1511360Y1073642D01*
X1511467Y1073350D01*
X1511520Y1073017D01*
Y1072683D01*
X1511467Y1072350D01*
X1511360Y1072058D01*
X1511200Y1071808D01*
X1511013Y1071642D01*
X1510800Y1071600D01*
G01X1512413Y1074100D02*
Y1072308D01*
X1512520Y1071933D01*
X1512733Y1071683D01*
X1513000Y1071600D01*
X1513267Y1071683D01*
X1513480Y1071933D01*
X1513587Y1072308D01*
Y1074100D01*
G01X1515200D02*
Y1071600D01*
G01X1514587Y1074100D02*
X1515813D01*
G01X1516600Y1070767D02*
X1518200D01*
G01X1519600Y1071600D02*
Y1074100D01*
X1519280Y1073600D01*
G01Y1071600D02*
X1519920D01*
G01X1510800Y1061000D02*
X1510587Y1061042D01*
X1510400Y1061208D01*
X1510240Y1061458D01*
X1510133Y1061750D01*
X1510080Y1062083D01*
Y1062417D01*
X1510133Y1062750D01*
X1510240Y1063042D01*
X1510400Y1063292D01*
X1510587Y1063458D01*
X1510800Y1063500D01*
X1511013Y1063458D01*
X1511200Y1063292D01*
X1511360Y1063042D01*
X1511467Y1062750D01*
X1511520Y1062417D01*
Y1062083D01*
X1511467Y1061750D01*
X1511360Y1061458D01*
X1511200Y1061208D01*
X1511013Y1061042D01*
X1510800Y1061000D01*
G01X1512413Y1063500D02*
Y1061708D01*
X1512520Y1061333D01*
X1512733Y1061083D01*
X1513000Y1061000D01*
X1513267Y1061083D01*
X1513480Y1061333D01*
X1513587Y1061708D01*
Y1063500D01*
G01X1515200D02*
Y1061000D01*
G01X1514587Y1063500D02*
X1515813D01*
G01X1516600Y1060167D02*
X1518200D01*
G01X1519093Y1063083D02*
X1519253Y1063333D01*
X1519440Y1063458D01*
X1519653Y1063500D01*
X1519920Y1063417D01*
X1520107Y1063208D01*
X1520160Y1062958D01*
X1520133Y1062708D01*
X1520027Y1062500D01*
X1519493Y1062083D01*
X1519253Y1061792D01*
X1519093Y1061375D01*
X1519040Y1061000D01*
X1520160D01*
G01X1510192Y1063675D02*
Y1071675D01*
G01X1520000Y1063500D02*
X1540000D01*
Y1071500D01*
X1520000D01*
Y1063500D01*
G01Y1053500D02*
X1540000D01*
Y1061500D01*
X1520000D01*
Y1053500D01*
M02*
