G04 ================== begin FILE IDENTIFICATION RECORD ==================*
G04 Layout Name:  pmtpulser.brd*
G04 Film Name:    Soldermask_Bottom*
G04 File Format:  Gerber RS274X*
G04 File Origin:  Cadence Allegro 16.6-P004*
G04 Origin Date:  Fri Feb 10 18:08:51 2017*
G04 *
G04 Layer:  VIA CLASS/SOLDERMASK_BOTTOM*
G04 Layer:  PIN/SOLDERMASK_BOTTOM*
G04 Layer:  PACKAGE GEOMETRY/SOLDERMASK_TOP*
G04 Layer:  DRC ERROR CLASS/SOLDERMASK_BOTTOM*
G04 Layer:  BOARD GEOMETRY/SOLDERMASK_BOTTOM*
G04 *
G04 Offset:    (0.00 0.00)*
G04 Mirror:    No*
G04 Mode:      Positive*
G04 Rotation:  0*
G04 FullContactRelief:  No*
G04 UndefLineWidth:     0.00*
G04 ================== end FILE IDENTIFICATION RECORD ====================*
%FSLAX25Y25*MOIN*%
%IR0*IPPOS*OFA0.00000B0.00000*MIA0B0*SFA1.00000B1.00000*%
%ADD18C,.042*%
%ADD11C,.06*%
%ADD12C,.034*%
%ADD13C,.075*%
%ADD17C,.095*%
%ADD15C,.05937*%
%ADD16C,.17*%
%ADD14C,.11024*%
%ADD10C,.186*%
G75*
%LPD*%
G75*
G36*
G01X1546510Y941510D02*
X1546500Y941500D01*
X1221500D01*
X1197000D01*
Y1104000D01*
X1221500D01*
X1571000D01*
Y941500D01*
X1546520D01*
X1546510Y941510D01*
G37*
%LPC*%
G75*
G36*
G01X1560000Y955000D02*
X1210000D01*
Y1090000D01*
X1560000D01*
Y955000D01*
G37*
%LPD*%
G75*
G54D10*
X1215000Y958000D03*
Y1087000D03*
X1555000Y958000D03*
Y1087000D03*
G54D11*
X1229900Y969100D03*
X1249900D03*
X1239900D03*
X1302100Y1054900D03*
X1312100Y1044900D03*
Y1064900D03*
G54D12*
X1205000Y970000D03*
Y980000D03*
Y990000D03*
Y1000000D03*
X1214759Y1020119D03*
X1205000Y1020000D03*
Y1010000D03*
X1214759Y1030119D03*
Y1040119D03*
X1205000Y1030000D03*
Y1050000D03*
Y1040000D03*
Y1070000D03*
Y1060000D03*
X1240000Y950000D03*
X1230000D03*
X1250000D03*
X1248600Y984300D03*
Y991400D03*
X1250000Y1095000D03*
X1240000D03*
X1230000D03*
X1270000Y950000D03*
X1260000D03*
X1262900Y964900D03*
X1278300Y995600D03*
X1262500Y982500D03*
X1257500Y1018500D03*
X1266500D03*
X1260000Y1095000D03*
X1270000D03*
X1300000Y950000D03*
X1290000D03*
X1280000D03*
X1287000Y970000D03*
Y981000D03*
X1282200Y989500D03*
X1285972Y1042928D03*
X1293000Y1057000D03*
Y1065000D03*
X1290000Y1095000D03*
X1280000D03*
X1300000D03*
X1310000Y950000D03*
X1320000D03*
X1314000Y970000D03*
Y981000D03*
X1321800Y998200D03*
X1325000Y990000D03*
X1324400Y1019000D03*
X1320000Y1095000D03*
X1310000D03*
X1330000Y950000D03*
X1350000D03*
X1340000D03*
X1351400Y993000D03*
X1333100Y982902D03*
X1338400Y1006100D03*
X1343000Y1012000D03*
X1332500Y1020000D03*
X1331700Y1009100D03*
X1333500Y1051500D03*
X1353000Y1038000D03*
X1348000Y1032000D03*
X1335500Y1064500D03*
X1346000D03*
X1340000Y1095000D03*
X1330000D03*
X1350000D03*
X1370000Y950000D03*
X1360000D03*
X1376000Y972500D03*
X1376210Y962321D03*
X1366210D03*
X1356210D03*
X1363000Y990000D03*
X1358500Y996500D03*
X1370000Y982500D03*
X1356800Y986600D03*
X1370728Y990728D03*
X1365200Y1024400D03*
X1371526Y1031300D03*
X1372000Y1040500D03*
X1378400Y1050900D03*
X1379000Y1040000D03*
X1359750Y1068450D03*
Y1063250D03*
X1360000Y1095000D03*
X1370000D03*
X1400000Y950000D03*
X1390000D03*
X1380000D03*
X1386100Y962376D03*
X1396100D03*
X1386100Y972376D03*
X1396100D03*
X1396000Y1000000D03*
X1396063Y992660D03*
X1386100Y982376D03*
X1396100D03*
X1380500Y998000D03*
X1396000Y1028000D03*
Y1018000D03*
X1401000Y1023000D03*
X1391000D03*
X1382869Y1016731D03*
X1385250Y1060350D03*
X1390250D03*
X1397500Y1065000D03*
X1390000Y1095000D03*
X1400000D03*
X1380000D03*
X1410000Y950000D03*
X1420000D03*
X1424685Y962001D03*
X1414685D03*
X1424713Y972208D03*
X1406100Y962376D03*
Y972376D03*
X1406000Y1000000D03*
X1406063Y992660D03*
X1406100Y982376D03*
X1407000Y1028000D03*
X1410000Y1047500D03*
X1415000Y1065000D03*
X1408800Y1070000D03*
X1412500Y1057500D03*
X1420382Y1081002D03*
Y1088002D03*
X1420000Y1095000D03*
X1410000D03*
X1430000Y950000D03*
X1450000D03*
X1440000D03*
X1434685Y962001D03*
X1454575Y962056D03*
X1444575D03*
X1434713Y972208D03*
X1444713D03*
X1441700Y979800D03*
X1436600Y997600D03*
X1441100Y1005000D03*
X1442000Y1031000D03*
X1434900Y1055000D03*
X1430382Y1081002D03*
X1440382D03*
X1450382D03*
X1430382Y1088002D03*
X1440382D03*
X1450382D03*
X1430000Y1095000D03*
X1450000D03*
X1440000D03*
X1470000Y950000D03*
X1460000D03*
X1464575Y962056D03*
X1472685Y962001D03*
X1474000Y979800D03*
X1472500Y995000D03*
X1457000Y985000D03*
X1467300D03*
X1470000Y1015000D03*
X1457500D03*
X1472500Y1005000D03*
X1467500Y1031500D03*
X1455500Y1035000D03*
X1470700Y1035800D03*
X1455500Y1050000D03*
X1472500Y1030000D03*
X1456200Y1065000D03*
X1466900D03*
X1472500Y1055000D03*
X1460382Y1081002D03*
X1470382D03*
X1460382Y1088002D03*
X1470382D03*
X1470000Y1095000D03*
X1460000D03*
X1490000Y950000D03*
X1500000D03*
X1480000D03*
X1502575Y962056D03*
X1482685Y962001D03*
X1492685D03*
X1487271Y993298D03*
X1487400Y982200D03*
X1487200Y1002100D03*
X1487400Y1022200D03*
X1487100Y1012200D03*
X1487400Y1042100D03*
Y1032100D03*
X1487600Y1051700D03*
X1487700Y1061500D03*
X1487501Y1071850D03*
X1500000Y1095000D03*
X1490000D03*
X1480000D03*
X1510000Y950000D03*
X1530000D03*
X1520000D03*
X1512575Y962056D03*
X1522575D03*
X1530000Y1095000D03*
X1520000D03*
X1510000D03*
X1540000Y950000D03*
X1547469Y999843D03*
Y1009843D03*
Y1019843D03*
Y1029843D03*
Y1039843D03*
X1540000Y1095000D03*
X1565000Y970000D03*
X1556969Y999843D03*
X1565000Y990000D03*
Y1000000D03*
Y980000D03*
X1556969Y1009843D03*
Y1019843D03*
X1565000Y1010000D03*
Y1020000D03*
X1556969Y1029843D03*
Y1039843D03*
X1565000Y1030000D03*
Y1050000D03*
Y1040000D03*
Y1070000D03*
Y1060000D03*
G54D13*
X1230000Y995000D03*
Y982500D03*
Y1007500D03*
X1240000Y995000D03*
Y982500D03*
Y1007500D03*
X1267500D03*
X1257500D03*
X1297500Y1075000D03*
X1287500D03*
X1327500Y1035000D03*
Y1045000D03*
X1325000Y1075000D03*
X1315000D03*
X1350000D03*
X1340000D03*
X1365000D03*
X1375000D03*
X1390000D03*
X1400000D03*
X1505000Y977500D03*
X1495000D03*
X1505000Y997500D03*
X1495000D03*
X1505000Y987500D03*
X1495000D03*
X1505000Y1027500D03*
X1495000D03*
X1505000Y1017500D03*
X1495000D03*
X1505000Y1007500D03*
X1495000D03*
X1505000Y1047500D03*
X1495000D03*
X1505000Y1037500D03*
X1495000D03*
X1505000Y1067500D03*
X1495000D03*
X1505000Y1057500D03*
X1495000D03*
X1525000Y977500D03*
Y997500D03*
Y987500D03*
Y1027500D03*
Y1017500D03*
Y1007500D03*
Y1047500D03*
Y1037500D03*
Y1067500D03*
Y1057500D03*
X1535000Y977500D03*
Y997500D03*
Y987500D03*
Y1027500D03*
Y1017500D03*
Y1007500D03*
Y1047500D03*
Y1037500D03*
Y1067500D03*
Y1057500D03*
G54D14*
X1231102Y1055965D03*
X1268504D03*
G54D15*
X1249803Y1026437D03*
X1239961D03*
X1259646D03*
G54D16*
X1300700Y976300D03*
G54D17*
Y1033800D03*
X1290700D03*
X1310700D03*
G54D18*
X1368500Y1015000D03*
X1416700Y1021500D03*
X1463100Y1021200D03*
M02*
