G04 ================== begin FILE IDENTIFICATION RECORD ==================*
G04 Layout Name:  pmtpulser.brd*
G04 Film Name:    TOP*
G04 File Format:  Gerber RS274X*
G04 File Origin:  Cadence Allegro 16.6-P004*
G04 Origin Date:  Fri Jan 13 17:38:06 2017*
G04 *
G04 Layer:  ETCH/TOP*
G04 Layer:  PIN/TOP*
G04 Layer:  VIA CLASS/TOP*
G04 *
G04 Offset:    (0.00 0.00)*
G04 Mirror:    No*
G04 Mode:      Positive*
G04 Rotation:  0*
G04 FullContactRelief:  No*
G04 UndefLineWidth:     0.00*
G04 ================== end FILE IDENTIFICATION RECORD ====================*
%FSLAX25Y25*MOIN*%
%IR0*IPPOS*OFA0.00000B0.00000*MIA0B0*SFA1.00000B1.00000*%
%ADD10C,.06*%
%ADD18C,.08*%
%ADD14C,.026*%
%ADD11C,.062*%
%ADD13R,.025X.025*%
%ADD15C,.05937*%
%ADD22R,.02X.025*%
%ADD20R,.02X.017*%
%ADD23R,.05X.025*%
%ADD19R,.04X.028*%
%ADD24R,.026X.016*%
%ADD21R,.05X.055*%
%ADD17C,.16*%
%ADD12C,.11024*%
%ADD16R,.039X.028*%
%ADD25C,.01*%
%ADD26C,.015*%
G75*
%LPD*%
G75*
G54D10*
X1229900Y969100D03*
X1249900D03*
X1239900D03*
X1302100Y1054900D03*
X1312100Y1044900D03*
Y1064900D03*
G54D20*
X1352600Y977400D03*
X1347400D03*
X1352600Y982600D03*
Y1002600D03*
Y997400D03*
X1347400D03*
G54D11*
X1230000Y995000D03*
Y982500D03*
Y1007500D03*
X1240000Y995000D03*
Y982500D03*
Y1007500D03*
X1267500D03*
X1257500D03*
X1297500Y1075000D03*
X1287500D03*
X1327500Y1035000D03*
Y1045000D03*
X1325000Y1075000D03*
X1315000D03*
X1350000D03*
X1340000D03*
X1365000D03*
X1375000D03*
X1390000D03*
X1400000D03*
X1505000Y977500D03*
X1495000D03*
X1505000Y997500D03*
X1495000D03*
X1505000Y987500D03*
X1495000D03*
X1505000Y1027500D03*
X1495000D03*
X1505000Y1017500D03*
X1495000D03*
X1505000Y1007500D03*
X1495000D03*
X1505000Y1047500D03*
X1495000D03*
X1505000Y1037500D03*
X1495000D03*
X1505000Y1067500D03*
X1495000D03*
X1505000Y1057500D03*
X1495000D03*
X1525000Y977500D03*
Y997500D03*
Y987500D03*
Y1027500D03*
Y1017500D03*
Y1007500D03*
Y1047500D03*
Y1037500D03*
Y1067500D03*
Y1057500D03*
X1535000Y977500D03*
Y997500D03*
Y987500D03*
Y1027500D03*
Y1017500D03*
Y1007500D03*
Y1047500D03*
Y1037500D03*
Y1067500D03*
Y1057500D03*
G54D12*
X1231102Y1055965D03*
X1268504D03*
G54D21*
X1344800Y989200D03*
X1331200D03*
G54D22*
X1347400Y982200D03*
Y1002200D03*
G54D13*
X1253000Y987500D03*
X1253228Y995000D03*
Y980000D03*
X1268000Y970000D03*
X1272000D03*
X1271772Y964900D03*
X1268228D03*
X1262372Y970600D03*
X1258828D03*
X1257000Y987500D03*
X1276400Y994900D03*
X1272400D03*
X1263228Y995000D03*
X1266772D03*
X1256772D03*
Y980000D03*
X1275172Y999200D03*
X1271628D03*
X1277400Y1041500D03*
X1278428Y1054800D03*
X1281400Y1041500D03*
X1289500Y1042928D03*
Y1046472D03*
X1281972Y1054800D03*
X1328228Y997500D03*
X1324400Y1023600D03*
Y1027600D03*
X1328100Y1009400D03*
X1324100D03*
X1328072Y1003800D03*
X1324528D03*
X1324272Y1060000D03*
X1320728D03*
X1341772Y977500D03*
X1338228D03*
X1341772Y982500D03*
X1338228D03*
X1341772Y1002500D03*
X1338228D03*
X1341772Y997500D03*
X1338228D03*
X1331772D03*
X1352000Y1027500D03*
X1348000D03*
X1351772Y1017500D03*
X1348228D03*
X1341772D03*
X1338228D03*
X1341772Y1025000D03*
X1338228D03*
X1341772Y1032500D03*
X1338228D03*
X1358228Y982500D03*
X1361772D03*
X1374272Y995000D03*
X1370728D03*
X1374272Y1002500D03*
X1370728D03*
X1361772D03*
X1358228D03*
X1377000Y1027500D03*
X1373000D03*
X1362000Y1012500D03*
X1358000D03*
X1358228Y1027500D03*
X1361772D03*
Y1020000D03*
X1358228D03*
X1374272Y1010000D03*
X1370728D03*
X1368000Y1045000D03*
X1372000D03*
X1375728Y1035000D03*
X1361772D03*
X1358228D03*
X1373100Y1064600D03*
X1369100D03*
X1373228Y1055000D03*
X1376772D03*
X1378228Y1065000D03*
X1380500Y1002500D03*
X1384500D03*
X1403000Y1032500D03*
X1379272Y1035000D03*
X1385728D03*
X1389272D03*
X1381772Y1065000D03*
X1388228D03*
X1391772D03*
X1420728Y1000000D03*
X1424272D03*
X1420228Y980000D03*
X1423772D03*
X1407000Y1032500D03*
X1420228Y1050000D03*
X1423772D03*
X1420728Y1030000D03*
X1424272D03*
X1404800Y1065500D03*
X1408800D03*
X1478000Y975000D03*
Y995000D03*
Y985000D03*
X1456228Y980000D03*
X1459772D03*
X1478228D03*
Y990000D03*
Y1000000D03*
X1478000Y1025000D03*
Y1015000D03*
Y1005000D03*
X1456728Y1009500D03*
X1460272D03*
X1456728Y1004500D03*
X1460272D03*
X1478228Y1020000D03*
Y1010000D03*
X1478000Y1045000D03*
Y1035000D03*
X1456728Y1030000D03*
X1460272D03*
X1478228D03*
Y1040000D03*
Y1050000D03*
X1478000Y1065000D03*
Y1055000D03*
X1457228Y1060000D03*
X1460772D03*
X1456728Y1055000D03*
X1460272D03*
X1478228Y1070000D03*
Y1060000D03*
X1482000Y975000D03*
Y995000D03*
Y985000D03*
X1481772Y980000D03*
Y990000D03*
Y1000000D03*
X1482000Y1025000D03*
Y1015000D03*
Y1005000D03*
X1481772Y1020000D03*
Y1010000D03*
X1482000Y1045000D03*
Y1035000D03*
X1481772Y1030000D03*
Y1040000D03*
Y1050000D03*
X1482000Y1065000D03*
Y1055000D03*
X1481772Y1070000D03*
Y1060000D03*
G54D23*
X1340250Y1050000D03*
Y1045000D03*
Y1055000D03*
Y1060000D03*
X1359750Y1045000D03*
Y1050000D03*
Y1055000D03*
Y1060000D03*
X1404750Y1052500D03*
Y1047500D03*
Y1042500D03*
X1385250Y1052500D03*
Y1047500D03*
Y1042500D03*
X1404750Y1057500D03*
X1385250D03*
X1429750Y1000000D03*
Y995000D03*
Y990000D03*
Y985000D03*
Y980000D03*
Y1015000D03*
Y1010000D03*
Y1005000D03*
Y1050000D03*
Y1045000D03*
Y1040000D03*
Y1035000D03*
Y1030000D03*
Y1065000D03*
Y1060000D03*
Y1055000D03*
X1450250Y995000D03*
Y1000000D03*
Y990000D03*
Y980000D03*
Y985000D03*
Y1010000D03*
Y1015000D03*
Y1005000D03*
Y1045000D03*
Y1050000D03*
Y1040000D03*
Y1030000D03*
Y1035000D03*
Y1060000D03*
Y1065000D03*
Y1055000D03*
G54D14*
X1247500Y987500D03*
X1258800Y976200D03*
X1262900Y964900D03*
X1262500Y982500D03*
X1271400Y989800D03*
X1277400Y1046000D03*
X1282500Y993100D03*
X1285972Y1042928D03*
X1281972Y1058472D03*
X1321800Y998200D03*
X1323800Y990400D03*
X1324400Y1019000D03*
X1320000Y1065000D03*
X1332500Y977500D03*
X1352900Y991500D03*
X1352500Y987500D03*
X1337500Y1007500D03*
X1342500Y1010000D03*
X1332500Y1020000D03*
X1331900Y1008000D03*
X1348000Y1032000D03*
X1354000Y1035000D03*
X1370000Y982500D03*
X1370728Y990728D03*
X1358228Y986772D03*
X1365000Y1027500D03*
X1370000Y1032500D03*
X1372000Y1040500D03*
X1377500Y1040000D03*
X1378400Y1050900D03*
X1359750Y1063250D03*
X1380500Y998000D03*
X1382769Y987069D03*
X1382500Y1010000D03*
X1390250Y1060350D03*
X1397500Y1065000D03*
X1385250Y1060350D03*
X1421300Y990000D03*
X1415000Y1000000D03*
Y980000D03*
X1422500Y1010000D03*
Y1015000D03*
X1407000Y1028000D03*
X1422500Y1040000D03*
X1415000Y1050000D03*
Y1030000D03*
X1410000Y1047500D03*
X1422500Y1060000D03*
Y1065000D03*
X1408800Y1070000D03*
X1412500Y1057500D03*
X1457500Y990000D03*
Y995000D03*
X1472500Y980000D03*
X1465000Y1000000D03*
X1472500Y995000D03*
X1465000Y980000D03*
X1472500Y1005000D03*
X1470000Y1025000D03*
X1467500Y1020000D03*
X1465000Y1010000D03*
X1464500Y1004500D03*
X1457500Y1040000D03*
Y1045000D03*
X1472500D03*
Y1030000D03*
X1457500Y1050000D03*
X1465000Y1030000D03*
X1472500Y1055000D03*
X1467500Y1072500D03*
X1462500D03*
X1465000Y1055000D03*
Y1060000D03*
X1487500Y990000D03*
Y1000000D03*
Y980000D03*
Y1020000D03*
Y1010000D03*
Y1050000D03*
Y1040000D03*
Y1030000D03*
Y1070000D03*
Y1060000D03*
G54D24*
X1392964Y985100D03*
X1388436Y983131D03*
Y987069D03*
G54D15*
X1249803Y1026437D03*
X1239961D03*
X1259646D03*
G54D25*
G01X1240000Y982500D02*
X1244700D01*
X1256600Y970600D01*
X1258828D01*
G01X1240000Y995000D02*
X1253228D01*
G01X1230000Y1007500D02*
Y995000D01*
G01X1249803Y1026437D02*
Y1015197D01*
X1257500Y1007500D01*
G01X1272000Y970000D02*
Y974150D01*
X1276650Y978800D01*
X1277200D01*
G01X1327000Y964800D02*
X1274372D01*
X1274272Y964900D01*
X1271772D01*
G01X1272000Y970000D02*
X1271800Y969800D01*
Y966000D01*
G01D02*
Y964928D01*
X1271772Y964900D01*
G01X1271800Y966000D02*
X1270300Y967500D01*
X1265472D01*
X1262372Y970600D01*
G01X1267800Y986200D02*
X1270800D01*
X1272500Y984500D01*
Y977500D01*
X1268000Y973000D01*
Y970000D01*
G01X1327000Y972200D02*
X1326200Y973000D01*
Y974300D01*
X1301300Y999200D01*
X1275172D01*
G01X1266772Y995000D02*
Y1002922D01*
X1267500Y1003650D01*
Y1007500D01*
G01X1256772Y995000D02*
Y989728D01*
X1257000Y989500D01*
Y987500D01*
G01X1256772Y995000D02*
X1263228D01*
G01X1256772Y980000D02*
Y985272D01*
X1257000Y985500D01*
Y987500D01*
G01X1267800Y978800D02*
X1259972D01*
X1258772Y980000D01*
X1256772D01*
G01X1267800Y986200D02*
Y990300D01*
X1269400Y991900D01*
Y996972D01*
X1271628Y999200D01*
G01X1327500Y1035000D02*
Y1031150D01*
X1328800Y1029850D01*
Y1019300D01*
X1314500Y1005000D01*
X1273850D01*
X1271350Y1007500D01*
X1267500D01*
G01X1259646Y1026437D02*
X1270500Y1037291D01*
Y1046872D01*
X1278428Y1054800D01*
G01X1289500Y1046472D02*
X1306778D01*
X1308350Y1044900D01*
X1312100D01*
G01X1325000Y1075000D02*
X1329600Y1070400D01*
Y1057200D01*
X1328100Y1055700D01*
X1312450D01*
X1297500Y1070650D01*
Y1075000D01*
G01X1321800Y998200D02*
Y1008500D01*
X1322700Y1009400D01*
X1324100D01*
G01X1324528Y1003800D02*
Y1000928D01*
X1321800Y998200D01*
G01X1331200Y989200D02*
Y988950D01*
X1327000Y984750D01*
Y979600D01*
X1335400Y971200D01*
Y968500D01*
G01X1323800Y990400D02*
Y993072D01*
X1324878Y994150D01*
X1326878D01*
X1328228Y995500D01*
Y997500D01*
G01X1340000Y1075000D02*
X1325000D01*
G01X1315000D02*
X1324272Y1065728D01*
Y1060000D01*
G01X1341772Y1002500D02*
X1345350D01*
X1345650Y1002200D01*
X1347400D01*
G01D02*
X1347650D01*
X1352450Y997400D01*
X1352600D01*
G01X1347400D02*
X1343872D01*
X1343772Y997500D01*
X1341772D01*
G01Y982500D02*
X1345350D01*
X1345650Y982200D01*
X1347400D01*
G01D02*
X1347650D01*
X1352450Y977400D01*
X1352600D01*
G01X1347400D02*
X1343872D01*
X1343772Y977500D01*
X1341772D01*
G01X1328228Y997500D02*
Y1001644D01*
X1328072Y1001800D01*
Y1003800D01*
G01X1344800Y989200D02*
X1350600D01*
X1352900Y991500D01*
G01X1344800Y989200D02*
X1342928D01*
X1338228Y984500D01*
Y982500D01*
G01Y977500D02*
X1332500D01*
G01X1331772Y997500D02*
X1338228D01*
G01X1331772D02*
Y1005572D01*
X1331900Y1005700D01*
Y1008000D01*
G01X1341772Y1032500D02*
X1345000Y1029272D01*
Y1025000D01*
X1348228Y1021772D01*
Y1017500D01*
G01X1338228Y1032500D02*
Y1025000D01*
G01X1358228Y1002500D02*
X1354450D01*
X1354350Y1002600D01*
X1352600D01*
G01X1328072Y1003800D02*
Y1007372D01*
X1328100Y1007400D01*
Y1009400D01*
G01D02*
X1330000Y1011300D01*
Y1017000D01*
X1330500Y1017500D01*
X1338228D01*
G01Y1002500D02*
Y1006772D01*
X1337500Y1007500D01*
G01X1342500Y1010000D02*
X1352000D01*
X1352500Y1010500D01*
Y1014772D01*
X1351772Y1015500D01*
Y1017500D01*
G01X1342500Y1010000D02*
Y1014772D01*
X1341772Y1015500D01*
Y1017500D01*
G01X1332500Y1020000D02*
X1338772D01*
X1341772Y1023000D01*
Y1025000D01*
G01X1340250Y1050000D02*
X1344500D01*
X1345000Y1049500D01*
Y1033000D01*
X1344500Y1032500D01*
X1341772D01*
G01X1340250Y1045000D02*
Y1036522D01*
X1338228Y1034500D01*
Y1032500D01*
G01X1358228Y1027500D02*
X1352000D01*
G01X1350000Y1075000D02*
X1365000D01*
G01X1361772Y982500D02*
X1370000D01*
G01X1374272Y1002500D02*
Y995000D01*
G01Y1010000D02*
X1382500D01*
G01X1388436Y983131D02*
Y981331D01*
X1389000Y980767D01*
Y980500D01*
X1390000Y979500D01*
X1396500D01*
X1397500Y980500D01*
Y1010100D01*
X1386300Y1021300D01*
X1370000D01*
X1369000Y1022300D01*
Y1027700D01*
X1366800Y1029900D01*
Y1034100D01*
X1368000Y1035300D01*
Y1045000D01*
G01X1358228Y1020000D02*
Y1027500D01*
G01X1370728Y1002500D02*
X1361772D01*
G01X1358000Y1012500D02*
X1361772Y1008728D01*
Y1002500D01*
G01X1362000Y1012500D02*
Y1017772D01*
X1361772Y1018000D01*
Y1020000D01*
G01X1370728Y1010000D02*
X1364500D01*
X1362000Y1012500D01*
G01X1374272Y1002500D02*
X1377136Y1005364D01*
X1383136D01*
X1384636Y1003864D01*
Y1002636D01*
X1384500Y1002500D01*
G01X1365000Y1075000D02*
Y1050500D01*
X1364500Y1050000D01*
X1359750D01*
G01X1368000Y1045000D02*
X1359750D01*
G01X1358228Y1027500D02*
X1357300Y1028428D01*
Y1030100D01*
G01X1375728Y1035000D02*
Y1030772D01*
X1377000Y1029500D01*
Y1027500D01*
G01X1377500Y1040000D02*
X1375728Y1038228D01*
Y1035000D01*
G01X1385250Y1047500D02*
X1375000D01*
X1373228Y1049272D01*
Y1055000D01*
G01X1378228Y1065000D02*
Y1058456D01*
X1376772Y1057000D01*
Y1055000D01*
G01X1378228Y1065000D02*
Y1071772D01*
X1375000Y1075000D01*
G01X1378228Y1065000D02*
X1376800Y1066428D01*
Y1067700D01*
X1376000Y1068500D01*
X1369900D01*
X1369100Y1067700D01*
Y1064600D01*
G01X1373228Y1055000D02*
Y1062322D01*
X1373100Y1062450D01*
Y1064600D01*
G01X1388436Y987069D02*
X1382769D01*
G01X1403000Y1032500D02*
Y1038750D01*
X1404750Y1040500D01*
Y1042500D01*
G01Y1052500D02*
X1403500D01*
X1400000Y1049000D01*
Y1042500D01*
X1392500Y1035000D01*
X1389272D01*
G01D02*
Y1033000D01*
X1390000Y1032272D01*
Y1030500D01*
X1389500Y1030000D01*
X1380000D01*
X1379272Y1030728D01*
Y1035000D01*
G01X1385728D02*
Y1040022D01*
X1385250Y1040500D01*
Y1042500D01*
G01Y1052500D02*
X1380000D01*
X1378400Y1050900D01*
G01X1385250Y1057500D02*
X1385500D01*
X1385854Y1057146D01*
X1387046D01*
X1390250Y1060350D01*
G01X1385250Y1057500D02*
Y1060350D01*
G01X1388228Y1065000D02*
Y1069378D01*
X1390000Y1071150D01*
Y1075000D01*
G01X1381772Y1065000D02*
X1388228D01*
G01X1415000Y1000000D02*
X1420728D01*
G01X1420228Y980000D02*
X1415000D01*
G01X1424272Y1000000D02*
X1429750D01*
G01X1423772Y980000D02*
X1429750D01*
G01X1470000Y1025000D02*
X1420000D01*
X1417854Y1022854D01*
Y1007146D01*
X1420000Y1005000D01*
X1429750D01*
G01X1415000Y1050000D02*
X1420228D01*
G01X1420728Y1030000D02*
X1415000D01*
G01X1410000Y1047500D02*
X1404750D01*
G01X1423772Y1050000D02*
X1429750D01*
G01X1424272Y1030000D02*
X1429750D01*
G01X1467500Y1072500D02*
X1462500Y1077500D01*
X1418000D01*
X1417500Y1077000D01*
Y1055500D01*
X1418000Y1055000D01*
X1429750D01*
G01X1450250Y1000000D02*
X1465000D01*
G01X1467500Y1020000D02*
X1435500D01*
X1435000Y1019500D01*
Y985500D01*
X1434500Y985000D01*
X1429750D01*
G01X1450250D02*
X1478000D01*
G01X1456228Y980000D02*
X1450250D01*
G01Y1015000D02*
X1478000D01*
G01X1456728Y1009500D02*
X1454000D01*
X1453500Y1010000D01*
X1450250D01*
G01X1456728Y1004500D02*
X1454000D01*
X1453500Y1005000D01*
X1450250D01*
G01X1462500Y1072500D02*
X1460000Y1075000D01*
X1437500D01*
X1435000Y1072500D01*
Y1035500D01*
X1434500Y1035000D01*
X1429750D01*
G01X1450250D02*
X1478000D01*
G01X1450250Y1050000D02*
X1457500D01*
G01X1456728Y1030000D02*
X1450250D01*
G01Y1065000D02*
X1478000D01*
G01X1457228Y1060000D02*
X1450250D01*
G01X1456728Y1055000D02*
X1450250D01*
G01X1478228Y980000D02*
Y977228D01*
X1478000Y977000D01*
Y975000D01*
G01X1472500Y980000D02*
X1478228D01*
G01X1478000Y995000D02*
Y997772D01*
X1478228Y998000D01*
Y1000000D01*
G01X1472500Y995000D02*
X1478000D01*
G01Y985000D02*
Y987772D01*
X1478228Y988000D01*
Y990000D01*
G01X1459772Y980000D02*
X1465000D01*
G01X1478000Y1025000D02*
Y1027772D01*
X1478228Y1028000D01*
Y1030000D01*
G01X1478000Y1015000D02*
Y1017772D01*
X1478228Y1018000D01*
Y1020000D01*
G01X1478000Y1005000D02*
Y1007772D01*
X1478228Y1008000D01*
Y1010000D01*
G01X1472500Y1005000D02*
X1478000D01*
G01X1465000Y1010000D02*
X1462772D01*
X1462272Y1009500D01*
X1460272D01*
G01Y1004500D02*
X1464500D01*
G01X1478000Y1045000D02*
Y1047772D01*
X1478228Y1048000D01*
Y1050000D01*
G01X1472500Y1045000D02*
X1478000D01*
G01Y1035000D02*
Y1037772D01*
X1478228Y1038000D01*
Y1040000D01*
G01X1472500Y1030000D02*
X1478228D01*
G01X1465000D02*
X1460272D01*
G01X1478000Y1065000D02*
Y1067772D01*
X1478228Y1068000D01*
Y1070000D01*
G01X1478000Y1055000D02*
Y1057772D01*
X1478228Y1058000D01*
Y1060000D01*
G01X1472500Y1055000D02*
X1478000D01*
G01X1465000D02*
X1460272D01*
G01X1465000Y1060000D02*
X1460772D01*
G01X1482000Y975000D02*
X1484500Y977500D01*
X1495000D01*
G01X1525000Y997500D02*
X1520000Y1002500D01*
X1500000D01*
X1495000Y997500D01*
G01X1482000Y995000D02*
X1484500Y997500D01*
X1495000D01*
G01X1525000Y987500D02*
X1520000Y992500D01*
X1500000D01*
X1495000Y987500D01*
G01X1482000Y985000D02*
X1484500Y987500D01*
X1495000D01*
G01X1525000Y977500D02*
X1520000Y982500D01*
X1500000D01*
X1495000Y977500D01*
G01Y1027500D02*
X1484500D01*
X1482000Y1025000D01*
G01X1525000Y1017500D02*
X1520000Y1022500D01*
X1500000D01*
X1495000Y1017500D01*
G01X1482000Y1015000D02*
X1484500Y1017500D01*
X1495000D01*
G01X1525000Y1007500D02*
X1520000Y1012500D01*
X1500000D01*
X1495000Y1007500D01*
G01X1482000Y1005000D02*
X1484500Y1007500D01*
X1495000D01*
G01X1525000Y1047500D02*
X1520000Y1052500D01*
X1500000D01*
X1495000Y1047500D01*
G01X1482000Y1045000D02*
X1484500Y1047500D01*
X1495000D01*
G01X1525000Y1037500D02*
X1520000Y1042500D01*
X1500000D01*
X1495000Y1037500D01*
G01X1482000Y1035000D02*
X1484500Y1037500D01*
X1495000D01*
G01X1525000Y1027500D02*
X1520000Y1032500D01*
X1500000D01*
X1495000Y1027500D01*
G01X1525000Y1067500D02*
X1520000Y1072500D01*
X1500000D01*
X1495000Y1067500D01*
G01X1482000Y1065000D02*
X1484500Y1067500D01*
X1495000D01*
G01X1525000Y1057500D02*
X1520000Y1062500D01*
X1500000D01*
X1495000Y1057500D01*
G01X1482000Y1055000D02*
X1484500Y1057500D01*
X1495000D01*
G54D16*
X1277200Y986200D03*
Y978800D03*
X1267800D03*
Y982500D03*
Y986200D03*
G54D26*
G01X1253000Y987500D02*
X1247500D01*
G01X1258800Y976200D02*
X1256250D01*
X1256150Y976100D01*
X1254628D01*
X1253228Y977500D01*
Y980000D01*
G01X1268228Y964900D02*
X1262900D01*
G01X1267800Y982500D02*
X1262500D01*
G01X1276400Y994900D02*
X1280700D01*
X1282500Y993100D01*
G01X1277200Y986200D02*
Y989832D01*
X1273900Y993132D01*
Y993400D01*
X1272400Y994900D01*
G01X1277200Y986200D02*
X1273600Y989800D01*
X1271400D01*
G01X1277400Y1041500D02*
Y1046000D01*
G01X1281400Y1041500D02*
X1284100Y1038800D01*
Y1033800D01*
X1290700D01*
G01X1289500Y1042928D02*
X1285972D01*
G01X1281972Y1054800D02*
Y1058472D01*
G01X1324400Y1023600D02*
Y1019000D01*
G01X1310700Y1033800D02*
X1318200D01*
X1324400Y1027600D01*
G01X1320728Y1060000D02*
Y1064272D01*
X1320000Y1065000D01*
G01X1352600Y982600D02*
Y984850D01*
X1352500Y984950D01*
Y987500D01*
G01X1348000Y1027500D02*
Y1032000D01*
G01X1370728Y995000D02*
Y990728D01*
G01X1358228Y982500D02*
Y986772D01*
G01X1373000Y1027500D02*
X1370000Y1030500D01*
Y1032500D01*
G01X1361772Y1027500D02*
X1365000D01*
G01X1372000Y1045000D02*
Y1040500D01*
G01X1358228Y1035000D02*
X1354000D01*
G01X1357300Y1030100D02*
X1358300Y1031100D01*
X1360372D01*
X1361772Y1032500D01*
Y1035000D01*
G01X1359750Y1060000D02*
Y1063250D01*
G01X1380500Y1002500D02*
Y998000D01*
G01X1391772Y1065000D02*
X1397500D01*
G01X1429750Y990000D02*
X1421300D01*
G01X1429750Y1010000D02*
X1422500D01*
G01X1429750Y1015000D02*
X1422500D01*
G01X1429750Y1040000D02*
X1422500D01*
G01X1407000Y1032500D02*
Y1028000D01*
G01X1429750Y1060000D02*
X1422500D01*
G01X1429750Y1065000D02*
X1422500D01*
G01X1408800Y1065500D02*
Y1070000D01*
G01X1404750Y1057500D02*
X1412500D01*
G01X1404800Y1065500D02*
Y1063500D01*
X1404750Y1063450D01*
Y1057500D01*
G01X1450250Y995000D02*
X1457500D01*
G01X1450250Y990000D02*
X1457500D01*
G01X1450250Y1040000D02*
X1457500D01*
G01X1450250Y1045000D02*
X1457500D01*
G01X1481772Y990000D02*
X1487500D01*
G01X1481772Y1000000D02*
X1487500D01*
G01X1481772Y980000D02*
X1487500D01*
G01X1481772Y1020000D02*
X1487500D01*
G01X1481772Y1010000D02*
X1487500D01*
G01X1481772Y1050000D02*
X1487500D01*
G01X1481772Y1040000D02*
X1487500D01*
G01X1481772Y1030000D02*
X1487500D01*
G01X1481772Y1070000D02*
X1487500D01*
G01X1481772Y1060000D02*
X1487500D01*
G54D17*
X1300700Y976300D03*
G54D18*
Y1033800D03*
X1290700D03*
X1310700D03*
G54D19*
X1327000Y964800D03*
Y972200D03*
X1335400Y968500D03*
M02*
